<svg width="25" height="24" viewBox="0 0 25 24" fill="none" xmlns="http://www.w3.org/2000/svg">
<path d="M10.0184 3.31873H4.74967C3.69967 3.31873 2.83717 4.18123 2.83717 5.24998C2.79967 6.28123 3.62467 7.14373 4.65592 7.18123H10.0747L10.0184 3.31873Z" fill="#073042"/>
<path d="M21.9624 20.4937H4.7499C3.68115 20.4937 2.8374 19.6312 2.8374 18.5625V5.2312C2.8374 6.29995 3.6999 7.16245 4.7499 7.1812H19.1687C19.1687 7.1812 21.9812 6.93745 21.9812 9.0562V20.4937H21.9624Z" fill="#4285F4"/>
<path d="M13.9373 13.6687C14.7061 13.0875 14.8561 12 14.2748 11.25C13.9561 10.8375 13.4686 10.575 12.9436 10.5562H12.9998C13.0936 10.5375 13.2061 10.5375 13.2998 10.5562V9.4875C13.2998 9.35625 13.2436 9.24375 13.1311 9.1875C12.9623 9.09375 12.7561 9.15 12.6623 9.31875C12.6248 9.375 12.6061 9.43125 12.6248 9.50625V10.5937C11.6873 10.7437 11.0311 11.625 11.1811 12.5812V12.6C11.2561 13.05 11.4998 13.4625 11.8748 13.725L8.70605 20.5125H10.7686L12.2311 17.4C12.3998 17.025 12.8498 16.8562 13.2436 17.0437C13.3936 17.1187 13.5248 17.25 13.5998 17.4L15.1186 20.5125H17.2186L13.9373 13.6687ZM12.8686 13.3687C12.2686 13.3687 11.7998 12.8812 11.7998 12.2812C11.7998 11.6812 12.2873 11.2125 12.8873 11.2312C13.1686 11.2312 13.4123 11.3437 13.6186 11.5312C14.0498 11.9437 14.0498 12.6187 13.6373 13.05C13.4498 13.2375 13.1686 13.3687 12.8686 13.3687Z" fill="#3870B2"/>
<path d="M8.875 4.25623H16.2625V5.60623H8.875V4.25623Z" fill="white"/>
<path d="M12.3063 11.2124C12.8876 11.2124 13.3751 11.6999 13.3563 12.2999C13.3563 12.8812 12.8688 13.3687 12.2688 13.3499C11.6876 13.3499 11.2188 12.8624 11.2188 12.2812C11.2188 11.9999 11.3313 11.7374 11.5376 11.5312C11.7438 11.3249 12.0251 11.2124 12.3063 11.2124ZM12.7188 10.5937V9.4687C12.7188 9.33745 12.6626 9.22495 12.5501 9.1687C12.3813 9.07495 12.1751 9.1312 12.0813 9.29995C12.0438 9.3562 12.0251 9.41245 12.0438 9.48745V10.5749C11.1063 10.7249 10.4501 11.6062 10.6001 12.5624V12.5812C10.6751 13.0312 10.9188 13.4437 11.2938 13.7062L7.30007 22.2749C7.15007 22.5749 7.16882 22.9499 7.37507 23.2312C7.67507 23.6624 8.25632 23.7749 8.68757 23.4749C8.83757 23.3812 8.95007 23.2312 9.02507 23.0812L11.6876 17.3812C11.8563 17.0062 12.3063 16.8374 12.7001 17.0249C12.8501 17.0999 12.9813 17.2312 13.0563 17.3812L15.7751 23.0249C16.0001 23.4937 16.5626 23.6812 17.0313 23.4562C17.5001 23.2312 17.6876 22.6687 17.4626 22.1999L13.3563 13.6687C14.1063 13.0687 14.2376 11.9624 13.6376 11.2124C13.4126 10.9124 13.0938 10.7062 12.7188 10.5937Z" fill="#073042"/>
<path d="M15.1751 5.45625C14.8938 5.45625 14.6688 5.25 14.6688 4.96875C14.6688 4.8375 14.7251 4.6875 14.8188 4.59375C15.0251 4.40625 15.3251 4.40625 15.5313 4.59375C15.6251 4.6875 15.6813 4.81875 15.6813 4.95C15.6626 5.23125 15.4563 5.4375 15.1751 5.45625ZM9.6251 5.4375C9.34385 5.4375 9.11885 5.2125 9.11885 4.95C9.11885 4.81875 9.1751 4.6875 9.26885 4.59375C9.4376 4.3875 9.75635 4.35 9.9626 4.51875H9.98135C10.1876 4.70625 10.2063 5.025 10.0188 5.23125L9.9626 5.30625C9.86885 5.4 9.7376 5.45625 9.60635 5.45625M15.3251 2.41875L16.3188 0.69375C16.3751 0.6 16.3376 0.4875 16.2626 0.4125C16.1688 0.375 16.0751 0.39375 16.0188 0.46875L14.9876 2.25C13.3376 1.51875 11.4626 1.51875 9.83135 2.25L8.81885 0.4875C8.78135 0.43125 8.70635 0.375 8.63135 0.375C8.55635 0.375 8.48135 0.4125 8.44385 0.4875C8.40635 0.54375 8.40635 0.6375 8.44385 0.69375L9.45635 2.41875C7.69385 3.375 6.5501 5.175 6.38135 7.1625H18.4188C18.2688 5.15625 17.1063 3.375 15.3438 2.41875" fill="#3DDC84"/>
<path d="M20.1999 10.8938H19.4124C19.3749 10.9125 19.3374 10.95 19.3374 11.0063V23.475C19.3374 23.5313 19.3749 23.5688 19.4312 23.5688H20.2562C21.2124 23.5688 21.9812 22.7813 21.9812 21.8438V9.15002C21.9812 10.1063 21.2124 10.875 20.2562 10.875H20.1999V10.8938Z" fill="#073042"/>
</svg>
