<svg width="25" height="24" viewBox="0 0 25 24" fill="none" xmlns="http://www.w3.org/2000/svg">
<path d="M16.6226 0.113637C16.2463 0.335824 15.6199 0.964887 14.8755 1.87745L15.5602 3.17176C16.0421 2.48439 16.5309 1.86357 17.0241 1.33426C16.8643 1.5092 16.3796 2.07601 15.6491 3.1982C16.3532 3.16351 17.4337 3.01895 18.3157 2.86895C18.5796 1.3982 18.0589 0.726012 18.0589 0.726012C18.0589 0.726012 17.3976 -0.343113 16.6226 0.113637Z" fill="url(#paint0_linear_726_1168)"/>
<path d="M14.3186 10.9867C14.231 11.0019 14.1424 11.0186 14.0492 11.0339C14.0492 11.0339 14.0479 11.0339 14.0479 11.0353L14.1866 11.0144C14.2297 11.0047 14.2742 10.9964 14.3186 10.9867" fill="#BD202E"/>
<path opacity="0.35" d="M14.3186 10.9867C14.231 11.0019 14.1424 11.0186 14.0492 11.0339C14.0492 11.0339 14.0479 11.0339 14.0479 11.0353L14.1866 11.0144C14.2297 11.0047 14.2742 10.9964 14.3186 10.9867" fill="#BD202E"/>
<path d="M14.5477 9.85476C14.5477 9.85476 14.5477 9.85607 14.5477 9.85476C14.5464 9.85476 14.5464 9.85476 14.5464 9.85607C14.5603 9.85476 14.5754 9.85195 14.5895 9.84914C14.6476 9.84089 14.7046 9.83114 14.7601 9.81726C14.6908 9.82982 14.6214 9.8422 14.5477 9.85476Z" fill="#BD202E"/>
<path opacity="0.35" d="M14.5477 9.85476C14.5477 9.85476 14.5477 9.85607 14.5477 9.85476C14.5464 9.85476 14.5464 9.85476 14.5464 9.85607C14.5603 9.85476 14.5754 9.85195 14.5895 9.84914C14.6476 9.84089 14.7046 9.83114 14.7601 9.81726C14.6908 9.82982 14.6214 9.8422 14.5477 9.85476Z" fill="#BD202E"/>
<path d="M13.5384 6.51753C13.743 6.13417 13.9537 5.75406 14.1703 5.37735C14.3868 4.99972 14.6109 4.62652 14.8425 4.25797C14.8551 4.23697 14.8702 4.21485 14.8828 4.19403C15.1005 3.84873 15.326 3.5084 15.5591 3.17328L14.8746 1.87878C14.8221 1.94268 14.7702 2.00705 14.7189 2.07191C14.5098 2.33278 14.3052 2.59719 14.1051 2.86503C13.8564 3.19799 13.6133 3.53504 13.3759 3.87603C13.1396 4.21524 12.9081 4.55777 12.6816 4.90353C12.4796 5.21193 12.2819 5.52309 12.0885 5.83691C12.0816 5.84816 12.0746 5.86053 12.0679 5.8731L12.9607 7.63691C13.1474 7.26078 13.34 6.88761 13.5384 6.51753Z" fill="url(#paint1_linear_726_1168)"/>
<path d="M9.47173 16.4503C9.35102 16.7805 9.23251 17.1115 9.11623 17.4433C9.11473 17.4474 9.11341 17.453 9.1106 17.4572C9.09391 17.5044 9.07591 17.553 9.06073 17.6002C8.9801 17.828 8.91073 18.0335 8.75098 18.4989C9.01348 18.6184 9.2246 18.9349 9.42448 19.2932C9.40606 18.9148 9.23821 18.5592 8.95779 18.3045C10.2536 18.3626 11.3704 18.035 11.948 17.0878C11.9994 17.003 12.0467 16.9155 12.0896 16.8197C11.8271 17.153 11.5009 17.2933 10.8883 17.2599C11.7911 16.8559 12.2424 16.4683 12.6439 15.8267C12.7384 15.674 12.8314 15.5087 12.9259 15.324C12.1369 16.1336 11.2245 16.3642 10.262 16.1893L9.53979 16.2684C9.51616 16.3295 9.49535 16.3892 9.47173 16.4503Z" fill="url(#paint2_linear_726_1168)"/>
<path d="M9.80944 14.835C9.96507 14.4324 10.1261 14.0241 10.29 13.6131C10.449 13.2155 10.6111 12.8192 10.7762 12.4241C10.9437 12.0238 11.1131 11.6243 11.2843 11.2256C11.4594 10.8187 11.64 10.4132 11.8247 10.0089C12.005 9.61086 12.1893 9.21459 12.3774 8.82018C12.444 8.67843 12.5136 8.53686 12.5816 8.39643C12.6998 8.15343 12.819 7.91174 12.9398 7.67286C12.9469 7.66049 12.9523 7.64661 12.9593 7.63405L12.0664 5.87024C12.0524 5.89436 12.0376 5.918 12.0219 5.94111C11.8109 6.28526 11.6048 6.63248 11.4039 6.98268C11.1967 7.34424 10.9952 7.7091 10.7996 8.07711C10.6335 8.3905 10.471 8.70577 10.3121 9.02286C10.2803 9.08661 10.2497 9.15205 10.2178 9.21599C10.0323 9.59833 9.85591 9.985 9.68869 10.3757C9.518 10.7727 9.35917 11.1747 9.21244 11.5811C9.12057 11.8324 9.03863 12.0742 8.96232 12.3075C8.89988 12.5061 8.84138 12.7061 8.78307 12.9047C8.65072 13.3658 8.53626 13.8318 8.43994 14.3017L9.33732 16.0725C9.45544 15.756 9.5775 15.4337 9.70257 15.1087C9.74007 15.0157 9.77344 14.9241 9.80944 14.835Z" fill="url(#paint3_linear_726_1168)"/>
<path d="M8.43005 14.3616C8.31755 14.9282 8.23693 15.4922 8.19662 16.0532L8.19249 16.1113C7.91199 15.6628 7.16349 15.2254 7.16481 15.2295C7.70237 16.0073 8.10924 16.7796 8.16887 17.5376C7.88143 17.5961 7.48824 17.5114 7.0343 17.3447C7.50793 17.7808 7.86343 17.9003 8.00368 17.9334C7.56755 17.9614 7.11493 18.2601 6.6578 18.6045C7.32587 18.3323 7.86624 18.2239 8.25231 18.3114C7.63843 20.0473 7.02455 21.9639 6.40918 24C6.59818 23.9445 6.71068 23.8166 6.77312 23.6458C6.88281 23.2778 7.60937 20.8584 8.74937 17.6822C8.78274 17.592 8.8148 17.5003 8.84799 17.4099C8.85643 17.3837 8.86618 17.3586 8.87593 17.3349C8.99537 17.0018 9.12156 16.6614 9.24943 16.3142C9.27868 16.2351 9.30774 16.1559 9.3383 16.0768C9.3383 16.0753 9.3398 16.074 9.3398 16.0725L8.44112 14.3018C8.43785 14.3218 8.43429 14.3417 8.43005 14.3616Z" fill="url(#paint4_linear_726_1168)"/>
<path d="M13.0977 7.78131C13.0715 7.83418 13.0464 7.88687 13.0199 7.93975C12.9423 8.09931 12.8643 8.26187 12.7839 8.42856C12.6976 8.60912 12.6117 8.79231 12.5242 8.98131C12.4797 9.07581 12.4353 9.17162 12.3909 9.26874C12.2538 9.56788 12.1186 9.86789 11.9853 10.1687C11.81 10.5626 11.6383 10.958 11.4701 11.3549C11.3049 11.7464 11.1339 12.1506 10.9646 12.5699C10.802 12.9674 10.6383 13.3784 10.4714 13.8004C10.3188 14.1872 10.1693 14.5752 10.0229 14.9644C10.016 14.9824 10.0091 15.0032 10.0021 15.0212C9.85211 15.4171 9.70061 15.8241 9.5493 16.2407C9.54649 16.2503 9.54236 16.2587 9.53955 16.2698L10.2618 16.1907C10.2479 16.1879 10.2326 16.1866 10.2187 16.1837C11.0812 16.0769 12.2298 15.4309 12.9701 14.6352C13.3117 14.2686 13.6214 13.8353 13.9076 13.3283C14.12 12.952 14.3214 12.5326 14.513 12.0702C14.6898 11.6375 14.8501 11.1982 14.9936 10.7534C14.7948 10.8576 14.5685 10.9352 14.3186 10.9881C14.2741 10.9979 14.2297 11.0061 14.1839 11.0144C14.138 11.0228 14.0921 11.0297 14.045 11.0354C14.045 11.0354 14.0463 11.0354 14.0463 11.0341C14.8518 10.7243 15.3588 10.1271 15.7269 9.39531C15.5157 9.53968 15.1713 9.7285 14.7588 9.81868C14.688 9.83417 14.6167 9.84718 14.5451 9.85768H14.5477C14.8282 9.74106 15.0629 9.60906 15.2671 9.45493C15.3116 9.42156 15.3547 9.38818 15.3935 9.35218C15.4559 9.29781 15.5144 9.24099 15.5727 9.18268C15.6087 9.14387 15.6434 9.10487 15.6783 9.06456C15.7589 8.96893 15.8339 8.866 15.9033 8.755C15.9239 8.72012 15.9464 8.68693 15.9657 8.65075C15.9935 8.59937 16.0184 8.548 16.0436 8.49943C16.1429 8.30185 16.2342 8.10031 16.3171 7.89531C16.3531 7.80643 16.3837 7.72581 16.4114 7.648C16.4227 7.61743 16.4322 7.58837 16.442 7.55912C16.4712 7.47437 16.4934 7.39937 16.5114 7.33281C16.5393 7.23268 16.556 7.15356 16.5642 7.09656C16.5365 7.11756 16.5061 7.13968 16.4697 7.1605C16.2267 7.30637 15.8101 7.43687 15.4741 7.4995C15.4698 7.50081 15.4644 7.50081 15.4587 7.50212C15.4241 7.50775 15.3922 7.51337 15.3575 7.51749L15.374 7.50906L13.1062 7.75768C13.1048 7.76601 13.102 7.77401 13.0977 7.78131Z" fill="url(#paint5_linear_726_1168)"/>
<path d="M15.6504 3.19824C15.4241 3.54738 15.2042 3.90063 14.9908 4.2578C14.7553 4.65436 14.5256 5.0544 14.3019 5.4578C14.0916 5.83992 13.886 6.22464 13.6853 6.61186C13.4892 6.99181 13.2971 7.37377 13.1089 7.75768L15.3769 7.50905C16.038 7.20493 16.3324 6.93136 16.6185 6.53274C16.6935 6.42305 16.7713 6.30924 16.8463 6.18961C17.0864 5.81291 17.3084 5.42497 17.5116 5.02711C17.7086 4.64274 17.8823 4.26211 18.0156 3.91768C18.0933 3.72152 18.1601 3.52122 18.2156 3.31768C18.2573 3.16074 18.2893 3.01074 18.3143 2.86768C17.4351 3.01899 16.3532 3.16355 15.6504 3.19824Z" fill="url(#paint6_linear_726_1168)"/>
<path d="M14.1843 11.0117C14.1384 11.02 14.0925 11.0269 14.0454 11.0325C14.0927 11.0284 14.1397 11.02 14.1842 11.0117H14.1843Z" fill="#BD202E"/>
<path opacity="0.35" d="M14.1843 11.0117C14.1384 11.02 14.0925 11.0269 14.0454 11.0325C14.0927 11.0284 14.1397 11.02 14.1842 11.0117H14.1843Z" fill="#BD202E"/>
<path d="M14.1843 11.0117C14.1384 11.02 14.0925 11.0269 14.0454 11.0325C14.0927 11.0284 14.1399 11.02 14.1843 11.0117Z" fill="url(#paint7_linear_726_1168)"/>
<path d="M14.5464 9.85618C14.5603 9.85487 14.5754 9.85206 14.5895 9.84924C14.5754 9.85074 14.5616 9.85487 14.5464 9.85618Z" fill="#BD202E"/>
<path opacity="0.35" d="M14.5464 9.85618C14.5603 9.85487 14.5754 9.85206 14.5895 9.84924C14.5754 9.85074 14.5616 9.85487 14.5464 9.85618Z" fill="#BD202E"/>
<path d="M14.5464 9.85618C14.5603 9.85487 14.5754 9.85206 14.5895 9.84924C14.5754 9.85074 14.5616 9.85487 14.5464 9.85618Z" fill="url(#paint8_linear_726_1168)"/>
<path d="M14.5464 9.85617C14.5477 9.85486 14.5477 9.85617 14.5464 9.85617C14.5477 9.85486 14.5477 9.85617 14.5464 9.85617Z" fill="#BD202E"/>
<path opacity="0.35" d="M14.5464 9.85617C14.5477 9.85486 14.5477 9.85617 14.5464 9.85617C14.5477 9.85486 14.5477 9.85617 14.5464 9.85617Z" fill="#BD202E"/>
<defs>
<linearGradient id="paint0_linear_726_1168" x1="15.4517" y1="2.03832" x2="20.4769" y2="0.641262" gradientUnits="userSpaceOnUse">
<stop stop-color="#F59723"/>
<stop offset="0.312" stop-color="#F69822"/>
<stop offset="0.838" stop-color="#E87726"/>
</linearGradient>
<linearGradient id="paint1_linear_726_1168" x1="4.45218" y1="24.5918" x2="14.6734" y2="2.67228" gradientUnits="userSpaceOnUse">
<stop offset="0.323" stop-color="#9C2063"/>
<stop offset="0.63" stop-color="#C82037"/>
<stop offset="0.751" stop-color="#CC2135"/>
<stop offset="1" stop-color="#E87726"/>
</linearGradient>
<linearGradient id="paint2_linear_726_1168" x1="7.88173" y1="22.9697" x2="13.9725" y2="9.90766" gradientUnits="userSpaceOnUse">
<stop stop-color="#282661"/>
<stop offset="0.095" stop-color="#662E8C"/>
<stop offset="0.788" stop-color="#9E2064"/>
<stop offset="0.949" stop-color="#CC2032"/>
</linearGradient>
<linearGradient id="paint3_linear_726_1168" x1="4.82063" y1="23.2646" x2="15.0418" y2="1.34511" gradientUnits="userSpaceOnUse">
<stop offset="0.323" stop-color="#9C2063"/>
<stop offset="0.63" stop-color="#C82037"/>
<stop offset="0.751" stop-color="#CC2135"/>
<stop offset="1" stop-color="#E87726"/>
</linearGradient>
<linearGradient id="paint4_linear_726_1168" x1="5.86318" y1="21.8048" x2="11.2347" y2="10.2853" gradientUnits="userSpaceOnUse">
<stop stop-color="#282661"/>
<stop offset="0.095" stop-color="#662E8C"/>
<stop offset="0.788" stop-color="#9E2064"/>
<stop offset="0.949" stop-color="#CC2032"/>
</linearGradient>
<linearGradient id="paint5_linear_726_1168" x1="7.08968" y1="24.3229" x2="17.3107" y2="2.40343" gradientUnits="userSpaceOnUse">
<stop offset="0.323" stop-color="#9C2063"/>
<stop offset="0.63" stop-color="#C82037"/>
<stop offset="0.751" stop-color="#CC2135"/>
<stop offset="1" stop-color="#E87726"/>
</linearGradient>
<linearGradient id="paint6_linear_726_1168" x1="6.34201" y1="25.6298" x2="16.5632" y2="3.7103" gradientUnits="userSpaceOnUse">
<stop offset="0.323" stop-color="#9C2063"/>
<stop offset="0.63" stop-color="#C82037"/>
<stop offset="0.751" stop-color="#CC2135"/>
<stop offset="1" stop-color="#E87726"/>
</linearGradient>
<linearGradient id="paint7_linear_726_1168" x1="7.76362" y1="24.637" x2="17.9847" y2="2.7175" gradientUnits="userSpaceOnUse">
<stop offset="0.323" stop-color="#9C2063"/>
<stop offset="0.63" stop-color="#C82037"/>
<stop offset="0.751" stop-color="#CC2135"/>
<stop offset="1" stop-color="#E87726"/>
</linearGradient>
<linearGradient id="paint8_linear_726_1168" x1="7.68679" y1="24.6026" x2="17.909" y2="2.6818" gradientUnits="userSpaceOnUse">
<stop offset="0.323" stop-color="#9C2063"/>
<stop offset="0.63" stop-color="#C82037"/>
<stop offset="0.751" stop-color="#CC2135"/>
<stop offset="1" stop-color="#E87726"/>
</linearGradient>
</defs>
</svg>
