<svg width="25" height="24" viewBox="0 0 25 24" fill="none" xmlns="http://www.w3.org/2000/svg">
<path d="M3.97791 3.75C3.61828 3.75 3.34885 4.07963 3.4081 4.40925L5.83622 19.2759C5.89622 19.6656 6.22566 19.935 6.61528 19.935H18.364C18.6344 19.935 18.874 19.725 18.934 19.4554L21.392 4.43925C21.4512 4.07963 21.1818 3.78 20.8222 3.78L3.97791 3.75ZM14.2882 14.4801H10.5419L9.55228 9.17512H15.2176L14.2882 14.4801Z" fill="#2684FF"/>
<path d="M20.5826 9.17517H15.1879L14.2882 14.4801H10.542L6.13574 19.7249C6.13574 19.7249 6.34574 19.905 6.64555 19.905H18.3943C18.6645 19.905 18.9041 19.695 18.9641 19.4254L20.5826 9.17517Z" fill="url(#paint0_linear_726_1189)"/>
<defs>
<linearGradient id="paint0_linear_726_1189" x1="21.8449" y1="10.6695" x2="12.9041" y2="17.649" gradientUnits="userSpaceOnUse">
<stop offset="0.176" stop-color="#0052CC"/>
<stop offset="1" stop-color="#2684FF"/>
</linearGradient>
</defs>
</svg>
