<svg width="25" height="24" viewBox="0 0 25 24" fill="none" xmlns="http://www.w3.org/2000/svg">
<path d="M3.20966 5.19605C3.16522 3.91824 4.16066 2.73999 5.50635 2.73999H19.2951C20.6408 2.73999 21.6362 3.91824 21.5918 5.19605C21.549 6.42343 21.6045 8.01343 22.0047 9.3098C22.4061 10.6103 23.083 11.4321 24.1917 11.5379V12.7354C23.083 12.8412 22.4061 13.663 22.0047 14.9635C21.6045 16.2599 21.549 17.8499 21.5918 19.0772C21.6362 20.3551 20.6408 21.5331 19.2951 21.5331H5.50635C4.16066 21.5331 3.16522 20.3549 3.20966 19.0772C3.25241 17.8499 3.19691 16.2599 2.7966 14.9635C2.39535 13.6632 1.7166 12.8412 0.60791 12.7354V11.5379C1.7166 11.4323 2.39535 10.6103 2.7966 9.3098C3.19691 8.01343 3.25222 6.42343 3.20966 5.19605Z" fill="url(#paint0_linear_726_1015)"/>
<g filter="url(#filter0_d_726_1015)">
<path d="M12.9828 17.2005C15.1613 17.2005 16.4741 16.1338 16.4741 14.3744C16.4741 13.0445 15.5374 12.0817 14.1466 11.9292V11.8738C15.1684 11.7076 15.9703 10.7586 15.9703 9.69886C15.9703 8.18884 14.7782 7.2052 12.9615 7.2052H8.87402V17.2005H12.9828ZM10.4636 8.47281H12.5783C13.7279 8.47281 14.3807 8.98538 14.3807 9.91356C14.3807 10.9041 13.6215 11.4582 12.2448 11.4582H10.4636V8.47281ZM10.4636 15.9329V12.6427H12.5641C14.0685 12.6427 14.8491 13.1968 14.8491 14.2774C14.8491 15.3579 14.0898 15.9329 12.6563 15.9329H10.4636Z" fill="url(#paint1_linear_726_1015)"/>
</g>
<defs>
<filter id="filter0_d_726_1015" x="4.94346" y="4.25728" width="15.4612" height="17.8564" filterUnits="userSpaceOnUse" color-interpolation-filters="sRGB">
<feFlood flood-opacity="0" result="BackgroundImageFix"/>
<feColorMatrix in="SourceAlpha" type="matrix" values="0 0 0 0 0 0 0 0 0 0 0 0 0 0 0 0 0 0 127 0" result="hardAlpha"/>
<feOffset dy="0.98264"/>
<feGaussianBlur stdDeviation="1.96528"/>
<feColorMatrix type="matrix" values="0 0 0 0 0 0 0 0 0 0 0 0 0 0 0 0 0 0 0.15 0"/>
<feBlend mode="normal" in2="BackgroundImageFix" result="effect1_dropShadow_726_1015"/>
<feBlend mode="normal" in="SourceGraphic" in2="effect1_dropShadow_726_1015" result="shape"/>
</filter>
<linearGradient id="paint0_linear_726_1015" x1="4.11239" y1="3.23736" x2="24.7202" y2="19.5961" gradientUnits="userSpaceOnUse">
<stop stop-color="#9013FE"/>
<stop offset="1" stop-color="#6610F2"/>
</linearGradient>
<linearGradient id="paint1_linear_726_1015" x1="9.59313" y1="7.86295" x2="14.1993" y2="15.6533" gradientUnits="userSpaceOnUse">
<stop stop-color="white"/>
<stop offset="1" stop-color="#F1E5FC"/>
</linearGradient>
</defs>
</svg>
