<svg width="25" height="24" viewBox="0 0 25 24" fill="none" xmlns="http://www.w3.org/2000/svg">
<path d="M20.3999 7H4.3999C3.29533 7 2.3999 7.89543 2.3999 9V19C2.3999 20.1046 3.29533 21 4.3999 21H20.3999C21.5045 21 22.3999 20.1046 22.3999 19V9C22.3999 7.89543 21.5045 7 20.3999 7Z" stroke="black" stroke-width="2" stroke-linecap="round" stroke-linejoin="round"/>
<path d="M16.3999 21V5C16.3999 4.46957 16.1892 3.96086 15.8141 3.58579C15.439 3.21071 14.9303 3 14.3999 3H10.3999C9.86947 3 9.36076 3.21071 8.98569 3.58579C8.61062 3.96086 8.3999 4.46957 8.3999 5V21" stroke="black" stroke-width="2" stroke-linecap="round" stroke-linejoin="round"/>
</svg>
