<svg width="25" height="26" viewBox="0 0 25 26" fill="none" xmlns="http://www.w3.org/2000/svg">
<path d="M8.90139 24.9813C8.80201 24.8894 8.86201 24.6513 9.03826 24.4357C9.14326 24.3101 9.39263 23.9557 9.58951 23.6482C10.0301 22.9638 10.1951 22.8007 10.3526 22.8982C10.4445 22.9563 10.4633 23.0557 10.4501 23.4176L10.4314 23.8751L10.6189 23.6463C10.9733 23.1851 11.307 22.8569 11.4195 22.8569C11.6689 22.8569 11.7083 23.0219 11.607 23.6201C11.5339 24.0588 11.5339 24.2107 11.5939 24.3082C11.7645 24.5838 11.6201 24.8276 11.2845 24.8276C11.0745 24.8276 10.9958 24.5969 11.0483 24.1451L11.0951 23.7438L10.9433 23.9313C10.5964 24.3982 10.2683 24.6813 10.0826 24.6813C9.89701 24.6813 9.88014 24.6476 9.82014 24.2613C9.80701 24.1751 9.71514 24.2613 9.49201 24.5763C9.21264 25.0001 9.02514 25.1126 8.90139 24.9813Z" fill="black"/>
<path d="M7.61312 24.7243C7.48187 24.5593 7.46874 24.4806 7.49499 24.1618C7.52136 23.7378 7.70134 23.3378 8.00125 23.0368C8.18875 22.8493 8.28999 22.7875 8.46624 22.7875C8.57164 22.7934 8.67651 22.7687 8.76812 22.7162C8.90125 22.585 9.17687 22.7162 9.29499 22.945C9.60999 23.6162 8.86187 24.7581 8.01999 24.8706C7.79124 24.9081 7.73875 24.8893 7.61312 24.7243ZM8.48687 24.25C8.69465 24.0389 8.81917 23.7599 8.83749 23.4643C8.82437 23.3256 8.77749 23.2768 8.63312 23.2656C8.33874 23.2337 8.07062 23.5356 7.96374 24.0287C7.88874 24.415 8.15875 24.5331 8.48687 24.25Z" fill="black"/>
<path d="M13.525 24.7319C13.3375 24.5444 13.3469 23.95 13.5512 23.5169C13.7275 23.1231 13.9844 22.9056 14.7325 22.4725C15.0475 22.285 15.2781 22.1313 15.2519 22.0975C15.2256 22.0638 15.1206 22.0244 15.0212 21.9794C14.8506 21.9063 14.8112 21.9325 14.2206 22.4781C13.7612 22.8981 13.5831 23.1156 13.525 23.2994C13.4462 23.575 13.1181 23.8431 12.6512 24.0269C12.3887 24.1263 12.3494 24.1713 12.2762 24.4225C12.2031 24.7113 12.0456 24.8294 11.8356 24.7431C11.6912 24.6906 11.725 24.4488 12.0062 23.6013C12.1054 23.3326 12.1886 23.0584 12.2556 22.78C12.2425 22.7669 11.4812 22.6094 10.5681 22.4181L8.89375 22.0769L7.23812 22.045C5.93687 22.0244 5.57687 21.9981 5.57687 21.9325C5.57687 21.8219 5.74 21.7881 6.75812 21.6963C7.6882 21.6258 8.62281 21.6415 9.55 21.7431C9.89125 21.775 9.98875 21.7694 9.93625 21.7094C9.79937 21.5575 6.75812 20.7569 6.45625 20.7963C6.30625 20.8169 6.325 20.8356 6.66625 21.1056C6.88937 21.2819 7.0075 21.4131 6.955 21.4263C6.83125 21.4731 5.38 20.7044 5.38 20.5938C5.38 20.515 5.51687 20.5075 6.25375 20.5413C6.70892 20.5635 7.16265 20.6092 7.61312 20.6781C7.78449 20.7224 7.96119 20.7426 8.13812 20.7381C8.15687 20.725 8.08562 20.6331 7.98625 20.5506C7.83625 20.4194 7.81 20.3631 7.84187 20.1756C7.88125 19.9581 7.88125 19.9581 6.50312 18.9475C5.68187 18.3494 5.1175 17.89 5.1175 17.8225C5.1175 17.635 4.9525 17.4813 4.65062 17.3688L4.36187 17.2581L4.3225 16.2138C4.29625 15.6363 4.27562 14.5919 4.27 13.8963C4.27 12.7075 4.25687 12.6156 4.11812 12.4375C3.97937 12.2594 3.98125 12.2088 4.04687 11.875C4.12562 11.4494 4.09937 11.3969 3.76375 11.3969C3.42812 11.3969 3.4 11.335 3.50875 10.1875C3.56875 9.61 3.62125 9.1225 3.64 9.10938C3.92968 9.13207 4.21587 9.18742 4.49312 9.27438C4.61125 9.30813 4.645 9.26125 4.74437 8.89938L4.855 8.485L4.65062 8.03125C4.4875 7.66938 4.4275 7.59063 4.33 7.62438C4.12562 7.68251 3.955 7.19125 4.15187 7.08625C4.23062 7.03938 4.19875 6.87626 3.96437 6.10751C3.26125 3.85751 3.15625 3.07376 3.54437 3.06063C3.68125 3.06063 3.97 3.40751 4.26625 3.93438C4.75937 4.80063 4.69937 4.77438 5.01625 4.26251C5.71187 3.13751 5.935 2.95001 6.2575 3.15251C6.34567 3.21084 6.44669 3.24687 6.55187 3.25751C6.73937 3.25751 7.86437 2.83751 8.41 2.55438C8.95562 2.27126 9.16 2.28626 9.13375 2.60126C9.13375 2.79813 9.055 2.89563 8.61437 3.30251L8.10812 3.77688L8.22625 4.17626C8.2632 4.3304 8.32664 4.47695 8.41375 4.60938C9.03308 4.28758 9.63573 3.93463 10.2194 3.55188C11.1775 2.95563 12.0119 2.47563 12.0719 2.48313C12.1025 2.49277 12.1293 2.512 12.1482 2.538C12.1671 2.56399 12.1771 2.59537 12.1769 2.62751C12.1769 2.71938 11.8619 2.95563 11.0519 3.48063C10.4275 3.88188 9.955 4.23063 10 4.23063C10.0813 4.27343 10.1569 4.32635 10.225 4.38813C10.4744 4.61688 10.4125 4.82126 9.93437 5.32563C9.4 5.87501 9.1825 6.2125 8.7025 7.1875C8.3275 7.9375 8.23 8.04063 7.69187 8.3125C7.48937 8.41188 7.40875 8.5 7.40875 8.59563C7.40404 8.69016 7.36697 8.78019 7.30375 8.85063C7.1725 8.995 6.92875 9.83688 7.00187 9.9025C7.21758 9.97722 7.4373 10.0398 7.66 10.09C7.86917 10.1234 8.07248 10.1865 8.26375 10.2775C8.26375 10.3694 7.87 11.86 7.83062 11.9275C7.81 11.9594 7.72562 11.9669 7.63375 11.9463C7.5025 11.9125 7.47625 11.9275 7.48187 12.0588C7.49038 12.1651 7.50795 12.2704 7.53437 12.3738C7.57375 12.5106 7.6075 12.4788 7.83062 12.0644C8.25878 11.3805 8.78003 10.7596 9.37937 10.2194C9.66262 10.0181 9.95889 9.83583 10.2662 9.67375C10.635 9.4495 11.0511 9.31466 11.4812 9.28C11.8141 9.22686 12.1534 9.22686 12.4862 9.28C13.0487 9.385 13.7725 9.76 14.0744 10.0938L14.3256 10.375H14.9556C15.4994 10.375 15.6306 10.4013 15.9212 10.5625C16.1096 10.6636 16.2895 10.7796 16.4594 10.9094C16.8703 11.2984 17.216 11.7511 17.4831 12.25C17.5956 12.4863 17.6481 12.5519 17.6706 12.4675C17.6604 12.3184 17.6133 12.1741 17.5337 12.0475L17.3631 11.7381L17.4944 11.4888C17.5656 11.3444 17.6312 11.2056 17.6444 11.1794C17.6575 11.1531 17.605 11.1531 17.5262 11.2C17.4475 11.2469 17.3556 11.2525 17.3387 11.2188C17.2019 11.0819 16.2812 9.34375 16.3075 9.26875C16.5034 9.15198 16.7158 9.06538 16.9375 9.01188C17.1488 8.96749 17.351 8.88761 17.5356 8.77563C17.5132 8.6537 17.4825 8.53342 17.4437 8.41563C17.3604 8.16911 17.2105 7.95044 17.0106 7.78375C16.8892 7.65246 16.7474 7.54166 16.5906 7.45563C16.4462 7.45563 15.5987 7.01688 15.2894 6.78063C14.8769 6.45813 14.7269 6.38501 13.9431 6.14313C13.3 5.93876 13.2681 5.92001 13.2681 5.74938C13.2681 5.40813 13.4387 5.29563 14.1869 5.15876C14.5619 5.08563 14.9031 5.01251 14.9369 5.00688C15.0287 4.97313 14.3406 4.25688 13.8119 3.83876C13.03 3.21438 13.0112 3.20126 13.0112 3.03626C13.0112 2.79438 13.2344 2.63688 13.5494 2.64251C13.8164 2.68332 14.0672 2.79611 14.275 2.96876L14.7419 3.27626L14.1269 2.65376C13.5569 2.06876 13.525 2.00876 13.525 1.75001C13.525 1.49126 13.5512 1.46688 13.6881 1.41438C13.7311 1.40292 13.7697 1.379 13.799 1.34563C13.8284 1.31226 13.8472 1.27094 13.8531 1.22688C13.8531 1.03938 14.0687 0.943755 14.4569 0.996255C14.845 1.04876 15.9212 1.61313 16.6769 2.18501C16.8317 2.31088 16.9988 2.42082 17.1756 2.51313C17.129 2.30347 17.0559 2.10059 16.9581 1.90938C16.7275 1.37501 16.7125 1.32626 16.8062 1.16313C16.8416 1.10909 16.8885 1.06355 16.9435 1.02979C16.9986 0.99603 17.0604 0.974895 17.1246 0.967902C17.1888 0.960909 17.2537 0.968232 17.3147 0.989345C17.3758 1.01046 17.4314 1.04484 17.4775 1.09001C17.8112 1.35251 18.7112 3.00063 18.955 3.79563C19.1596 4.56311 19.2698 5.3527 19.2831 6.14688C19.27 6.52188 19.3094 6.67938 19.5456 7.29626C19.6381 7.56237 19.7503 7.82121 19.8812 8.07063C19.9131 8.10438 20.2562 8.03125 20.6819 7.89438C20.9355 7.7992 21.2001 7.73621 21.4694 7.70688C21.5219 7.76688 21.3775 9.6325 21.3119 9.7375C21.2425 9.79767 21.1584 9.83842 21.0681 9.85563C20.9575 9.88188 20.8806 9.92125 20.8806 9.94C20.9534 10.0747 21.0415 10.2005 21.1431 10.315C21.3306 10.525 21.4 10.6769 21.3681 10.7425C21.3468 10.7969 21.3354 10.8547 21.3344 10.9131C21.3344 10.9525 21.355 11.2019 21.3681 11.4756C21.3812 11.7494 21.4131 12.0869 21.4394 12.2256C21.4919 12.5275 21.4 12.8088 20.815 14.215C20.4506 15.1483 20.2037 16.1233 20.08 17.1175C20.0221 17.4599 19.9252 17.7946 19.7912 18.115C19.6569 18.3762 19.5808 18.6634 19.5681 18.9569C19.5681 19.2325 19.5869 19.2906 19.6656 19.2588C19.9103 19.1941 20.1626 19.1632 20.4156 19.1669C20.2474 19.3647 20.0677 19.5525 19.8775 19.7294L19.3375 20.2656L19.7125 20.14C20.1662 19.99 20.6256 19.9038 20.6256 19.9825C20.6256 20.0163 20.515 20.095 20.3837 20.17C20.0875 20.3219 19.4237 20.8338 19.6075 20.7681C19.8242 20.7243 20.0445 20.7004 20.2656 20.6969C20.8825 20.6631 20.9087 20.65 19.1406 21.1488C17.9218 21.4661 16.7329 21.8889 15.5875 22.4125C15.025 22.6956 15.025 22.7088 15.1225 22.8269C15.22 22.945 15.2725 23.1813 15.2012 23.6013C15.1619 23.8319 15.1675 23.8769 15.2594 23.8769C15.3871 23.9237 15.5002 24.0032 15.5875 24.1075C15.6837 24.2173 15.8092 24.2974 15.9494 24.3381C16.1144 24.3381 16.1069 24.3175 15.7262 23.7756C15.4431 23.3894 15.4375 23.1981 15.6869 22.9431C16.0619 22.5681 16.8756 22.7913 16.705 23.2375C16.6899 23.2656 16.6684 23.2896 16.6421 23.3076C16.6158 23.3256 16.5856 23.337 16.554 23.3408C16.5223 23.3447 16.4903 23.3409 16.4604 23.3298C16.4306 23.3186 16.4039 23.3005 16.3825 23.2769C16.3251 23.2357 16.2563 23.2135 16.1856 23.2135C16.115 23.2135 16.0461 23.2357 15.9887 23.2769C16.0425 23.4492 16.132 23.6083 16.2512 23.7438C16.6056 24.2294 16.645 24.5256 16.3769 24.6963C16.2325 24.7938 16.1669 24.8013 15.8781 24.7281C15.4562 24.6363 15.115 24.4263 15.0625 24.235C15.0306 24.1038 15.01 24.1169 14.7212 24.3944C14.4668 24.6568 14.127 24.8197 13.7631 24.8538C13.6724 24.8363 13.5896 24.7903 13.5269 24.7225L13.525 24.7319ZM14.3781 24.1863C14.6537 23.9106 14.8187 23.4831 14.6931 23.3388C14.5956 23.2131 14.2862 23.2338 14.1606 23.3706C13.9056 23.6538 13.7537 24.3081 13.9375 24.3888C14.0875 24.4544 14.1212 24.4375 14.3706 24.1863H14.3781ZM12.7562 23.5488C13.0131 23.3613 13.0712 23.2075 12.9006 23.1419C12.7694 23.095 12.565 23.2788 12.4806 23.5169C12.3962 23.755 12.4337 23.7588 12.7487 23.5488H12.7562ZM13.9056 22.2363C14.0631 22.1045 14.2122 21.963 14.3519 21.8125C14.365 21.7938 14.2319 21.715 14.0612 21.6494C13.615 21.4619 13.0769 21.4844 12.4525 21.715C12.2741 21.7702 12.1025 21.845 11.9406 21.9381C12.0916 22.0291 12.2527 22.1021 12.4206 22.1556C12.6513 22.2408 12.8751 22.3436 13.09 22.4631C13.1749 22.5249 13.2711 22.5695 13.3731 22.5944C13.5672 22.5016 13.7451 22.3781 13.9 22.2288L13.9056 22.2363ZM17.0369 21.2706C17.4719 21.0606 18.1412 20.7663 18.5369 20.6144C18.9569 20.4494 19.2456 20.2994 19.2456 20.2394C19.2701 20.1281 19.3166 20.0229 19.3825 19.93C19.4556 19.8063 19.5006 19.7069 19.4744 19.7069C18.6764 20.0113 17.8942 20.3555 17.1306 20.7381C16.1781 21.1975 16.0937 21.2575 16.0937 21.415C16.0937 21.5725 16.1519 21.6963 16.2175 21.6569C16.2231 21.6513 16.5962 21.4675 17.0294 21.2631L17.0369 21.2706ZM16.3675 11.4269C16.2715 11.324 16.1632 11.2333 16.045 11.1569C15.9344 11.0781 15.9737 11.1306 16.1444 11.2881C16.465 11.5844 16.5644 11.6425 16.3675 11.4269ZM19.4462 24.4675C19.3108 24.3168 19.1662 24.1747 19.0131 24.0419C18.975 24.1386 18.951 24.2402 18.9419 24.3438C18.9309 24.4812 18.8926 24.615 18.8294 24.7375C18.7244 24.8631 18.4544 24.85 18.3962 24.7169C18.4087 24.4233 18.4572 24.1324 18.5406 23.8506C18.7844 22.8269 18.8556 22.6956 19.1387 22.7669C19.2175 22.7875 19.3019 22.7669 19.3262 22.735C19.405 22.6169 19.8587 22.6488 19.9769 22.78C20.1644 22.9975 20.0744 23.5431 19.7894 23.7719C19.6975 23.8506 19.6975 23.8713 19.7894 24.0213C19.8906 24.1488 20.013 24.2579 20.1512 24.3438C20.4269 24.52 20.4794 24.7188 20.2769 24.8294C20.0069 24.9681 19.8569 24.9025 19.435 24.4675H19.4462ZM19.4144 23.4306C19.5775 23.2788 19.6019 23.1213 19.4669 23.1213C19.3319 23.1213 19.0919 23.4306 19.0919 23.5619C19.0919 23.6931 19.1912 23.6275 19.4144 23.4306Z" fill="black"/>
<path d="M16.7481 24.7562C16.6431 24.7168 16.6037 24.6587 16.63 24.5856C16.7429 24.145 16.8807 23.7112 17.0425 23.2862C17.1272 23.1976 17.2174 23.1143 17.3125 23.0368C17.5169 22.8718 17.5825 22.8493 18.0869 22.8493C18.5912 22.8493 18.6494 22.8625 18.6494 22.975C18.6494 23.1625 18.4844 23.2562 17.9781 23.3031C17.6031 23.335 17.5 23.3687 17.4794 23.4606C17.4587 23.5525 17.5056 23.5731 17.7887 23.5731C18.0719 23.5731 18.1225 23.5862 18.1225 23.7306C18.1225 23.9331 18.0381 23.9856 17.6369 24.0325C17.2356 24.0793 17.1587 24.2031 17.5656 24.1768C18.0381 24.1375 18.2012 24.2031 18.175 24.4056C18.1562 24.5762 18.13 24.5931 17.6575 24.6625C17.3819 24.7018 17.1062 24.7543 17.0331 24.7731C16.9385 24.7955 16.8394 24.7896 16.7481 24.7562ZM5.77373 24.6456C5.52436 24.1731 5.97061 23.1287 6.56311 22.8268C6.91748 22.6393 7.40873 22.735 7.40873 22.99C7.40873 23.155 7.19311 23.2656 6.98873 23.2131C6.74686 23.155 6.56311 23.2918 6.38498 23.6668C6.12248 24.2293 6.17498 24.2706 6.83123 24.0287C7.28498 23.8637 7.42373 23.9162 7.29061 24.205C7.19311 24.415 6.58936 24.7112 6.15623 24.7506C5.89186 24.7768 5.83748 24.7562 5.77373 24.6456Z" fill="black"/>
<path d="M9.70155 21.25C9.5703 21.205 9.2478 21.1131 8.9853 21.0475C8.68342 20.9743 8.49967 20.8956 8.47905 20.83C8.44562 20.7239 8.40425 20.6204 8.3553 20.5206C8.28985 20.3889 8.2688 20.2396 8.2953 20.095L8.33467 19.8643L7.49467 19.24C7.0353 18.8931 6.41092 18.4393 6.11655 18.2368C5.57655 17.8618 5.30842 17.5787 5.30842 17.3893C5.32661 17.2738 5.35937 17.161 5.40592 17.0537C5.53155 16.765 5.41905 16.7256 5.17717 16.9825C5.0328 17.1325 5.01967 17.1325 4.82842 17.0406C4.63717 16.9487 4.62405 16.93 4.73655 15.9643C4.73655 15.9118 4.72342 15.4018 4.69717 14.8393C4.67092 14.2768 4.63155 13.5137 4.61092 13.1387C4.61917 12.8463 4.57471 12.5548 4.47967 12.2781C4.3353 12.0362 4.43467 11.5281 4.61842 11.5281C4.89405 11.5412 6.79155 11.8375 6.91717 11.8825C7.0428 11.9275 7.06717 12.0343 7.1403 12.4881C7.1853 12.7825 7.25842 13.1575 7.2903 13.3075C7.32566 13.3895 7.3358 13.4802 7.31944 13.568C7.30308 13.6558 7.26095 13.7368 7.19842 13.8006C6.80467 14.3387 6.22717 15.9475 6.23467 16.48V16.8418L6.33405 16.6112C6.47092 16.2831 7.02967 15.3643 7.0953 15.3643C7.12155 15.3643 7.12717 15.4618 7.10842 15.58C7.0428 15.9025 7.23967 16.9731 7.39717 17.1962C7.58467 17.4512 7.91655 17.7268 8.0403 17.7268C8.13217 17.7268 8.13217 17.7137 8.0403 17.6087C7.97424 17.5366 7.93515 17.4438 7.92967 17.3462C7.92967 17.2093 7.92967 17.2093 8.08717 17.3668C8.23487 17.4938 8.39804 17.6015 8.5728 17.6875C8.88217 17.845 8.90842 17.875 8.9478 18.1618C8.98423 18.6314 8.95775 19.1037 8.86905 19.5662C8.82405 19.7312 8.82405 19.7312 9.03405 19.5343C9.1947 19.3786 9.34151 19.2092 9.4728 19.0281L9.70342 18.7187L9.89092 18.8368C10.114 18.9756 10.6072 19.4218 10.6072 19.4875C10.5732 19.5833 10.5265 19.6741 10.4684 19.7575C10.3578 19.945 10.3447 20.0387 10.384 20.4193C10.4234 20.8337 10.4159 20.8731 10.2847 20.9462C10.1925 21.0004 10.1207 21.0834 10.0803 21.1825C10.009 21.3587 10.0015 21.3587 9.68092 21.2406L9.70155 21.25Z" fill="#6A5439"/>
<path d="M12.2122 20.7193C11.8795 20.5846 11.602 20.3414 11.4247 20.0293C11.039 19.4659 10.5618 18.9709 10.0128 18.565C9.63784 18.3081 9.29097 17.9537 9.22534 17.7437C9.20708 17.6971 9.17773 17.6557 9.13982 17.623C9.10192 17.5903 9.05662 17.5674 9.00784 17.5562C8.90302 17.5347 8.79968 17.5065 8.69847 17.4718C8.53534 17.4062 8.08909 16.6637 8.03659 16.3675C7.98972 16.1125 8.05534 16.0075 8.44347 15.7843C8.94972 15.4825 9.38097 15.3775 10.4066 15.2987C11.5953 15.2068 12.0153 15.1112 12.6453 14.7793C12.7952 14.6843 12.96 14.6152 13.1328 14.575C13.0398 14.7096 12.9266 14.8292 12.7972 14.9293C12.4353 15.2593 12.4616 15.2856 12.9941 15.1168C13.4241 14.9645 13.7805 14.655 13.9916 14.2506L14.0872 14.0593L14.3047 14.395C14.6797 14.9725 15.9397 15.8125 16.6616 15.97C16.8198 15.9957 16.9692 16.0601 17.0966 16.1575C17.1941 16.2681 17.2016 16.315 17.1285 16.4856C17.0915 16.5587 17.0734 16.6399 17.076 16.7218C17.1228 16.7687 17.3328 16.4331 17.3853 16.2362C17.4378 16.0393 17.5166 16 17.6478 16.0843C17.7266 16.1368 17.7266 16.1893 17.6216 16.4593C17.4641 16.8681 17.136 17.2093 16.8847 17.2093C16.7347 17.2093 16.6691 17.2693 16.5247 17.5375C16.3085 17.9004 15.9791 18.1823 15.5872 18.34C15.3585 18.4187 15.2853 18.5275 15.456 18.5275C15.5482 18.5163 15.6389 18.4943 15.726 18.4618C15.8966 18.3962 15.9135 18.4018 15.8647 18.5725C15.7096 19.0534 15.4618 19.4992 15.1353 19.885C14.7866 20.2787 14.1566 20.5862 13.4272 20.725C12.7972 20.8506 12.5085 20.8431 12.2122 20.725V20.7193ZM12.081 19.93C12.081 19.6675 12.2685 19.4575 12.666 19.3131C13.0147 19.1818 13.1066 19.1743 13.356 19.24C13.7497 19.3393 13.7816 19.3337 13.5978 19.1818C13.4141 19.03 12.8478 19.0112 12.3772 19.1687C12.0885 19.2662 12.036 19.3131 11.9628 19.5437C11.871 19.8118 11.9103 20.1343 12.0153 20.0687C12.0337 20.0523 12.0483 20.032 12.058 20.0093C12.0678 19.9866 12.0724 19.9621 12.0716 19.9375L12.081 19.93ZM11.9628 18.7412C12.2591 18.6362 12.2853 18.6362 12.5403 18.7543C12.7953 18.8725 12.816 18.8725 13.2303 18.7281C13.4122 18.6513 13.6088 18.6161 13.806 18.625C13.9766 18.6643 14.1003 18.565 13.9935 18.46C13.941 18.4075 13.161 18.5256 12.9041 18.6306C12.8549 18.6402 12.8043 18.6393 12.7555 18.6279C12.7067 18.6166 12.6609 18.5952 12.621 18.565C12.4447 18.4468 12.2141 18.4543 11.7228 18.5856C11.4135 18.67 11.3478 18.7168 11.4791 18.7956C11.6103 18.8743 11.5991 18.8725 11.9535 18.7412H11.9628ZM13.2641 17.9668C13.3516 17.8281 13.4626 17.7056 13.5922 17.605C13.601 17.6055 13.6098 17.6042 13.618 17.6011C13.6262 17.598 13.6336 17.5932 13.6398 17.5869C13.646 17.5807 13.6509 17.5733 13.654 17.5651C13.6571 17.5569 13.6584 17.5481 13.6578 17.5393C13.6578 17.3893 13.4141 17.4943 13.1591 17.7437C12.9416 17.9537 12.8497 18.0062 12.7372 17.9668C12.6933 17.9477 12.6537 17.9201 12.6205 17.8856C12.5873 17.8511 12.5612 17.8103 12.5438 17.7658C12.5264 17.7212 12.5179 17.6736 12.519 17.6257C12.52 17.5778 12.5304 17.5306 12.5497 17.4868C12.6285 17.2843 12.5497 16.8381 12.3978 16.5625C12.2741 16.345 12.2741 16.3375 12.3978 16.2006C12.5525 16.0469 12.6464 15.8424 12.6622 15.625C12.6622 15.4862 12.636 15.4993 12.3997 15.7618C12.1635 16.0243 12.1241 16.045 11.8616 16.0056C11.376 15.9325 10.4703 15.835 10.2866 15.835C10.1383 15.8545 9.99997 15.9201 9.89097 16.0225L9.68097 16.21L10.1741 16.1875C10.7516 16.1481 11.9216 16.3262 12.0791 16.4706C12.1972 16.5756 12.3341 17.0331 12.3341 17.3106C12.3157 17.4421 12.2589 17.5654 12.171 17.665C12.0135 17.8525 12.0135 17.8693 12.1241 17.9031C12.2386 17.9656 12.343 18.0453 12.4335 18.1393C12.7278 18.4375 12.9322 18.4 13.2547 17.9668H13.2641ZM8.76409 16.8306C8.68316 16.7176 8.61464 16.5963 8.55972 16.4687C8.44159 16.18 8.33097 16.1537 8.33097 16.4106C8.35506 16.5727 8.44194 16.7188 8.57284 16.8175C8.81472 17.0481 8.96659 17.0537 8.76222 16.8306H8.76409ZM15.6453 16.7781C15.7809 16.6814 15.9065 16.5715 16.0203 16.45C15.9117 16.4794 15.8076 16.5235 15.711 16.5812C15.4872 16.6868 15.2479 16.7558 15.0022 16.7856C14.6741 16.8175 14.5747 16.8043 14.3985 16.6937C14.2785 16.615 14.181 16.5287 14.181 16.495C14.181 16.4612 14.3685 16.4368 14.5953 16.4368C14.9553 16.4368 15.6378 16.285 15.771 16.1668C15.8028 16.1406 15.546 16.135 15.2085 16.1481C14.5578 16.1743 13.6841 16.075 13.5341 15.9512C13.4571 15.8576 13.3939 15.7534 13.3466 15.6418C13.236 15.3737 13.1591 15.4656 13.2228 15.7937C13.2525 15.9277 13.3183 16.051 13.4132 16.1502C13.5081 16.2494 13.6284 16.3207 13.761 16.3562C13.8847 16.39 13.9485 16.4556 13.971 16.5437C13.9972 16.6956 14.286 16.885 14.496 16.885C14.5633 16.8845 14.6289 16.9056 14.6835 16.945C14.8359 17.0303 15.0075 17.0755 15.1822 17.0762C15.358 17.0102 15.5187 16.9094 15.6547 16.78L15.6453 16.7781ZM11.2203 16.8831C11.3639 16.811 11.5197 16.7665 11.6797 16.7518C11.8972 16.7518 11.9497 16.6543 11.7585 16.6075C11.6055 16.5902 11.4508 16.5946 11.2991 16.6206C11.0739 16.6412 10.8474 16.6412 10.6222 16.6206C10.2472 16.5756 9.99222 16.6018 9.93222 16.6937C9.91347 16.7256 9.99784 16.7518 10.1197 16.7518C10.2666 16.7604 10.4091 16.8055 10.5341 16.8831C10.7778 17.0481 10.8997 17.0481 11.2185 16.8831H11.2203Z" fill="#6A5439"/>
<path d="M16.1236 20.5807C16.0325 20.3748 15.9517 20.1646 15.8817 19.9507L15.7373 19.51L15.9736 18.925C16.1048 18.6044 16.2098 18.3213 16.2098 18.3025C16.282 18.1934 16.3677 18.0939 16.4648 18.0063L16.7123 17.7569L16.7854 18.2294C16.8511 18.7225 17.2654 19.7069 17.3967 19.7069C17.4361 19.7069 17.4548 19.6675 17.4361 19.6225C17.3863 19.4317 17.3469 19.2383 17.3179 19.0432C17.2523 18.7208 17.2523 18.3886 17.3179 18.0663L17.4098 17.5732L17.4623 17.9275C17.5204 18.3738 17.6854 18.8013 17.8561 18.9588C17.9929 19.0825 17.9929 19.0825 17.9536 18.7882C17.8425 18.028 17.8666 17.2543 18.0248 16.5025C18.0642 16.3507 18.0642 16.3507 18.2611 16.4688C18.581 16.726 18.8333 17.0575 18.9961 17.4344C19.0617 17.5732 19.1273 17.6707 19.1479 17.6575C19.2004 17.5994 18.9961 16.72 18.8723 16.4763C18.7149 16.244 18.5319 16.0302 18.3267 15.8388L17.8842 15.4188L18.4279 15.4713C18.704 15.4882 18.9775 15.5347 19.2436 15.61C19.3388 15.6519 19.4414 15.6742 19.5454 15.6757C19.5904 15.6288 19.2567 15.2482 18.9829 15.0382C18.8413 14.9289 18.6847 14.8405 18.5179 14.7757C18.1879 14.6707 18.1092 14.5882 18.1092 14.4007C18.0828 14.1912 18.037 13.9847 17.9723 13.7838L17.8373 13.3375L17.9873 12.8707L18.1392 12.4057L17.9498 12.0625L17.7623 11.7157L17.9329 11.485C18.0232 11.3789 18.0799 11.2484 18.0961 11.11C18.0773 10.9769 18.1617 10.9225 18.8648 10.6694C19.2979 10.5119 19.7911 10.3207 19.9617 10.2494C20.0856 10.1908 20.2158 10.1467 20.3498 10.1182C20.4752 10.1859 20.5865 10.2769 20.6779 10.3863C20.9067 10.63 20.9273 10.6825 20.8936 10.9057C20.8673 11.0575 20.8804 11.1682 20.9273 11.1944C21.0061 11.2469 21.0248 11.6275 20.9536 11.6275C20.8513 11.6115 20.7504 11.5877 20.6517 11.5563C20.5347 11.52 20.4109 11.511 20.2898 11.53C20.2054 11.5619 20.2898 11.6275 20.5729 11.7719C20.7422 11.8461 20.9 11.944 21.0417 12.0625C21.1411 12.1807 21.0098 12.76 20.7867 13.2325C20.2411 14.3575 19.9992 15.1825 19.7686 16.7257C19.7245 17.1633 19.6112 17.5911 19.4329 17.9932C19.2747 18.2931 19.1875 18.6254 19.1779 18.9644C19.1311 19.5269 19.1311 19.5269 18.9342 19.5888C18.8292 19.6225 18.5929 19.72 18.4092 19.8063C18.1336 19.93 17.6404 20.1475 16.4254 20.6669C16.2229 20.7588 16.2098 20.7513 16.1236 20.5807ZM9.1167 18.7619C9.1167 18.3738 9.20295 18.2557 9.36607 18.4132C9.45795 18.5125 9.45795 18.5444 9.34732 18.7882C9.1692 19.1744 9.1167 19.1688 9.1167 18.7619Z" fill="#6A5439"/>
<path d="M16.9712 18.25C16.8456 17.6331 16.8925 17.4025 17.1419 17.4025C17.2806 17.4025 17.2806 17.3894 17.1681 17.9163C17.0631 18.3944 17.0162 18.4731 16.9712 18.25ZM7.66748 15.8781C7.66748 15.5575 7.93748 15.2163 8.33873 15.0175C8.79394 14.8498 9.26163 14.7182 9.73748 14.6238C11.7325 14.1906 12.8556 13.6394 12.8556 13.0938V12.9306L12.5481 13.1594C12.3578 13.2954 12.16 13.4206 11.9556 13.5344C11.5694 13.7219 10.4725 13.9825 9.64561 14.0744C8.50936 14.185 7.74623 14.4344 7.28123 14.8244L7.05811 15.0119L7.10311 14.8244C7.18186 14.4963 7.96373 13.3863 8.36498 13.0188C9.66436 11.8244 10.675 11.4044 12.1337 11.4494C12.8556 11.47 12.9081 11.4831 13.315 11.7063C14.3406 12.2688 14.44 13.0394 13.6112 13.8794C13.1262 14.3329 12.5575 14.6876 11.9369 14.9238C11.5825 15.0344 11.3462 15.0681 9.39623 15.2725C8.39123 15.3831 8.11561 15.4881 7.91123 15.835C7.73311 16.1481 7.66748 16.1613 7.66748 15.8781ZM16.5044 15.7075C16.3275 15.6664 16.1605 15.5905 16.0131 15.4844C16.0131 15.4844 16.315 15.4656 16.6825 15.4581C17.1625 15.4581 17.4175 15.4788 17.5825 15.55C17.7925 15.6363 17.8056 15.655 17.6875 15.7019C17.2962 15.77 16.8963 15.7719 16.5044 15.7075Z" fill="#6A5439"/>
<path d="M16.0842 15.1375C15.1654 14.8863 14.3048 14.2769 14.1661 13.7838C14.0948 13.5082 14.1923 12.8782 14.3048 12.8782C14.3386 12.8782 14.4229 12.9625 14.4923 13.0657C15.0009 13.6077 15.5617 14.0982 16.1667 14.53C16.6888 14.7147 17.2328 14.8307 17.7848 14.875C18.1598 14.9144 18.5742 15.0513 18.5742 15.1375C18.2855 15.1624 17.9956 15.1693 17.7061 15.1582C17.2279 15.1582 16.7479 15.1713 16.6354 15.19C16.45 15.2046 16.2635 15.1868 16.0842 15.1375ZM7.5548 14.9988C7.56793 14.8413 7.64668 14.7813 8.0273 14.5975C8.40793 14.4138 8.63106 14.3613 9.50481 14.2507C10.0673 14.185 10.6729 14.0988 10.8436 14.0632C11.0142 14.0275 11.1398 14.0294 11.1061 14.0632C10.9823 14.1682 10.6017 14.2732 9.53105 14.4832C8.59355 14.6707 8.32168 14.7457 7.9673 14.9425L7.53418 15.1807L7.5548 14.9988Z" fill="#6A5439"/>
<path d="M17.1621 14.6238C16.3671 14.4213 15.6978 14.0275 14.9346 13.33C14.4828 12.9175 14.404 12.7263 14.4753 12.2407L14.5353 11.8657L14.9609 11.845C15.5721 11.8188 15.8684 11.9107 16.4609 12.3307C17.4659 13.0469 17.6759 13.4088 16.8359 12.9757L16.3765 12.7394L16.6728 12.9944C16.8359 13.1332 17.0328 13.3169 17.119 13.4088C17.3496 13.6507 17.869 14.4532 17.8803 14.5769C17.8915 14.7007 17.6009 14.7363 17.1621 14.6238ZM7.86963 12.9438C7.86963 12.7994 8.269 12.0963 8.66275 11.545C9.54963 10.2963 10.7515 9.58003 11.974 9.56691C12.2894 9.54489 12.6043 9.61595 12.8796 9.77128C13.5359 10.0863 13.8171 10.3225 14.0478 10.8157C14.201 11.0804 14.2794 11.3817 14.2746 11.6875C14.2746 12.3569 14.209 12.3775 13.6971 11.8975C13.4609 11.6412 13.1586 11.455 12.8234 11.3594C11.779 11.0388 10.2171 11.2938 9.16525 11.9632C8.89313 12.1533 8.63439 12.3619 8.39088 12.5875C7.92775 13.015 7.86963 13.0619 7.86963 12.9438Z" fill="#6A5439"/>
<path d="M16.4592 12.0437C15.9135 11.7475 15.8685 11.7419 15.2048 11.7081L14.5223 11.6762L14.4754 11.2431C14.4435 10.8812 14.4567 10.795 14.5485 10.7294C14.8635 10.4931 15.591 10.7894 16.3073 11.4456C16.7404 11.8469 17.181 12.3512 17.0835 12.3456C16.8701 12.2564 16.6616 12.1556 16.4592 12.0437ZM5.67603 11.3612C4.6654 11.2225 3.8179 11.0856 3.80103 11.0594C3.77948 10.8003 3.79019 10.5396 3.8329 10.2831C3.8854 9.73937 3.93228 9.56125 4.00353 9.54812C4.12915 9.52187 7.81353 10.4856 7.88478 10.5587C7.95603 10.6319 7.66165 11.5844 7.57728 11.6031C7.53415 11.6106 6.68103 11.5 5.67603 11.3612ZM4.68415 10.75C4.7544 10.669 4.79536 10.5667 4.80046 10.4596C4.80556 10.3524 4.7745 10.2467 4.71228 10.1594C4.68313 10.126 4.64688 10.0996 4.6062 10.0821C4.56551 10.0646 4.52141 10.0565 4.47716 10.0583C4.43291 10.0601 4.38962 10.0718 4.35049 10.0925C4.31135 10.1133 4.27736 10.1425 4.25103 10.1781C4.20203 10.2655 4.17965 10.3653 4.18665 10.4653C4.19364 10.5652 4.22971 10.6609 4.2904 10.7406C4.42165 10.8681 4.52478 10.8681 4.68415 10.75ZM17.2748 10.4012C16.8998 9.745 16.7948 9.54062 16.8548 9.50875C17.0048 9.41687 21.0379 8.28062 21.1091 8.30687C21.1327 8.31503 21.1524 8.33159 21.1646 8.35339C21.1767 8.37518 21.1803 8.40068 21.1748 8.425C21.1399 8.62729 21.1161 8.83135 21.1035 9.03625C21.0992 9.22669 21.0702 9.41577 21.0173 9.59875C20.991 9.62687 20.2373 9.9025 19.3298 10.2175C18.4223 10.5325 17.6498 10.8081 17.6085 10.8212C17.5673 10.8344 17.4173 10.6506 17.2748 10.4012ZM20.9385 9.01C21.0379 8.8225 20.9517 8.67437 20.751 8.67437C20.5504 8.67437 20.4623 8.81312 20.5223 9.01C20.5635 9.17312 20.8373 9.17312 20.9367 9.01H20.9385ZM5.7154 9.70562L4.89978 9.49562L4.93915 9.265C4.97705 9.09104 5.03428 8.92186 5.10978 8.76062L5.24103 8.49062L4.9804 7.9375C4.74978 7.49125 4.72353 7.38625 4.7929 7.315C4.9954 7.11062 7.4179 5.65937 7.62228 5.6275C7.76474 5.59467 7.89485 5.52181 7.99728 5.4175C8.20966 5.2475 8.44356 5.10629 8.6929 4.9975C8.95234 4.88508 9.20304 4.75347 9.4429 4.60375C9.7054 4.41625 9.92853 4.45187 9.95478 4.675C9.9679 4.80625 9.88353 4.95812 9.57978 5.29937C9.2179 5.71375 8.86353 6.23687 8.30478 7.23062C8.15028 7.50283 7.92644 7.72926 7.65603 7.88687C7.29978 8.12312 7.2079 8.215 7.2079 8.34625C7.19768 8.46287 7.15976 8.57537 7.09728 8.67437C6.97753 8.8905 6.88256 9.11945 6.81415 9.35687C6.76687 9.54751 6.69034 9.72967 6.58728 9.89687C6.2934 9.84896 6.00235 9.78512 5.7154 9.70562ZM17.8579 8.66125C17.5748 7.87375 17.496 7.69 17.4173 7.69C17.3385 7.69 17.2542 7.5775 17.1679 7.44062C17.0235 7.21 16.9635 7.17812 16.5904 7.09937C16.0785 6.99437 16.0448 6.97375 15.3754 6.52C15.0316 6.25779 14.6273 6.08628 14.1998 6.02125C13.9703 5.98431 13.747 5.91618 13.536 5.81875C13.4648 5.56937 13.8641 5.45687 14.9479 5.42312C15.7298 5.40437 15.7692 5.39125 16.0973 5.18125C16.3729 5.00312 16.4123 4.95812 16.2848 4.945C16.1557 4.94573 16.0282 4.97251 15.9098 5.02375C15.5217 5.18687 15.3904 5.16062 15.1879 4.85875C14.9072 4.53966 14.6019 4.24313 14.2748 3.97187C13.461 3.27062 13.3373 3.11875 13.4273 3.02125C13.5173 2.92375 13.8735 3.11312 14.4323 3.48625C14.8204 3.74875 15.9323 4.40687 15.9754 4.40687C16.1629 4.40687 15.0379 3.06062 14.2279 2.2975C13.9204 2.00875 13.821 1.7725 13.9729 1.68062C14.0779 1.615 14.4135 1.825 15.4954 2.63875C16.5135 3.4075 16.8754 3.6175 16.4948 3.21812C15.9204 2.68486 15.3033 2.19949 14.6498 1.76687C14.3217 1.57937 14.196 1.43125 14.2748 1.31312C14.2906 1.29372 14.3106 1.27822 14.3334 1.26782C14.3562 1.25741 14.381 1.25239 14.406 1.25312C14.571 1.25312 15.6267 1.81562 16.2585 2.23187C16.8904 2.64812 17.1585 2.9425 17.0517 3.1C16.9448 3.2575 16.986 3.29687 17.1454 3.2575C17.2065 3.24732 17.2692 3.25152 17.3284 3.26974C17.3876 3.28796 17.4418 3.31972 17.4866 3.3625L17.6741 3.5125L17.6348 3.17875C17.5579 2.81964 17.4435 2.4696 17.2935 2.13437C16.9898 1.43125 16.9842 1.27937 17.2335 1.33187C17.5354 1.38625 18.546 3.28937 18.8104 4.27562C19.0204 5.06312 19.0729 5.785 18.9548 6.17875C18.8629 6.4675 18.8685 6.48812 19.0992 7.03375C19.4142 7.76125 19.5904 8.2675 19.551 8.31437C19.5117 8.36125 18.0248 8.80562 17.9554 8.80562C17.9291 8.80562 17.8898 8.74 17.8579 8.66125ZM4.5004 6.92125C4.4479 6.82937 4.00165 5.42125 3.79728 4.69562C3.58728 3.9325 3.5554 3.625 3.68665 3.625C3.78415 3.625 3.98853 3.95312 4.51915 4.9375C4.74415 5.35 4.95415 5.71937 4.98603 5.75875C5.0854 5.85625 5.05915 5.68562 4.93353 5.43625L4.82853 5.20562L5.11165 4.7275C5.62353 3.85937 5.89915 3.49187 6.0304 3.49187C6.10353 3.49187 6.27415 3.64375 6.44478 3.86687C6.67386 4.14205 6.91667 4.40551 7.17228 4.65625C7.6204 5.07625 7.67853 5.21875 7.4629 5.35187C7.31103 5.44375 6.88353 5.23937 6.4579 4.86625L6.1429 4.59062L6.05665 4.74812C5.95165 4.93562 5.93853 5.16812 6.0304 5.22625C6.06415 5.24687 6.10915 5.19437 6.1354 5.1025L6.17478 4.9375L6.62853 5.23937C6.785 5.33222 6.93196 5.44024 7.06728 5.56187C7.0279 5.59562 4.57915 6.96812 4.5529 6.96812C4.54135 6.96444 4.5307 6.95836 4.52165 6.95028C4.51261 6.94221 4.50536 6.93231 4.5004 6.92125ZM7.50228 4.76125L7.1854 4.38625L7.38228 4.22875C7.81728 3.87437 7.85665 3.8875 8.06665 4.51187L8.1979 4.89812L8.05353 5.01062C7.99748 5.05941 7.93423 5.09926 7.86603 5.12875C7.7309 5.02081 7.60882 4.89748 7.50228 4.76125ZM6.81978 3.94C6.70165 3.78812 6.63228 3.65125 6.66978 3.6175C6.84602 3.51869 7.03045 3.43525 7.22103 3.36812C7.48915 3.2575 7.9429 3.0475 8.22603 2.89562L8.7304 2.62V2.79062C8.7304 2.91625 8.59915 3.06625 8.19228 3.42062C7.92778 3.65712 7.64151 3.86806 7.33728 4.05062L7.0279 4.21L6.81978 3.94Z" fill="#6A5439"/>
<path d="M10.5887 22.255C10.5185 22.1309 10.4823 21.9906 10.4837 21.8481C10.4683 21.6908 10.442 21.5348 10.405 21.3812C10.3712 21.31 10.4237 21.1937 10.555 21.0475C10.6217 20.9932 10.6723 20.9217 10.7014 20.8407C10.7305 20.7598 10.7369 20.6724 10.72 20.5881C10.6806 20.3575 10.8175 19.8118 10.9225 19.7931C10.9562 19.7931 11.0931 19.9431 11.2319 20.1475C11.396 20.3929 11.6165 20.5954 11.875 20.7381C12.0211 20.8067 12.1542 20.9 12.2687 21.0137C12.2687 21.04 12.19 21.0606 12.0925 21.0662C11.9195 21.0816 11.7482 21.1123 11.5806 21.1581L11.2506 21.25H11.8131C12.1225 21.25 12.4637 21.25 12.5631 21.2631H12.76L12.595 21.3362C11.8206 21.6587 11.3406 21.8987 11.1044 22.0862C10.8306 22.3075 10.7125 22.3468 10.5887 22.255ZM15.1581 21.7431C14.9347 21.6327 14.7019 21.5423 14.4625 21.4731C13.9619 21.3231 13.7462 21.1843 13.9 21.1187C13.9862 21.0868 15.025 21.3231 15.3587 21.4468C15.4375 21.4806 15.4694 21.46 15.4694 21.3887C15.4694 21.2443 15.0831 21.0868 14.6369 21.04C14.5026 21.0359 14.3706 21.0046 14.2487 20.9481C14.2356 20.9162 14.3612 20.8243 14.5375 20.7325C14.7712 20.5956 14.9835 20.425 15.1675 20.2262C15.3381 20.0387 15.4956 19.9112 15.5294 19.9431C15.6072 20.0853 15.6754 20.2325 15.7337 20.3837C15.8575 20.6987 15.8706 20.7906 15.805 20.9293C15.7622 21.067 15.7513 21.2125 15.7731 21.355C15.7949 21.4205 15.7996 21.4906 15.7868 21.5585C15.774 21.6264 15.7441 21.6899 15.7 21.7431C15.5725 21.9062 15.4544 21.9062 15.1581 21.7431ZM13.1762 21.2368C13.0712 21.2181 12.9887 21.1656 12.9887 21.1131C12.9887 21.0606 13.0806 21.0212 13.3487 21.0212C13.6169 21.0212 13.7106 21.04 13.7106 21.1187C13.7111 21.1313 13.7091 21.1438 13.7048 21.1556C13.7004 21.1674 13.6938 21.1782 13.6853 21.1875C13.6767 21.1967 13.6665 21.2041 13.6551 21.2094C13.6436 21.2147 13.6313 21.2176 13.6187 21.2181C13.5662 21.2181 13.4875 21.2312 13.4312 21.2368C13.3467 21.2495 13.2608 21.2495 13.1762 21.2368Z" fill="#55514C"/>
<path d="M12.2123 20.7193C11.8532 20.5687 11.5567 20.2993 11.3723 19.9562C11.0221 19.4097 10.5663 18.9386 10.0317 18.5706C9.64542 18.3212 9.29667 17.9612 9.22542 17.7437C9.20819 17.6965 9.17915 17.6545 9.14108 17.6217C9.10301 17.5888 9.05716 17.5663 9.00792 17.5562C8.91042 17.5375 8.78479 17.5037 8.73229 17.4906C8.50167 17.4325 7.94479 16.3487 8.02917 16.1256C8.08917 15.9681 8.62729 15.6531 9.08667 15.5012C9.52979 15.3875 9.98342 15.3197 10.4404 15.2987C11.5654 15.2125 11.9835 15.1112 12.6135 14.8056C12.7697 14.7136 12.9374 14.643 13.1123 14.5956C13.0196 14.7279 12.9055 14.8438 12.7748 14.9387C12.3998 15.2612 12.441 15.3006 12.9623 15.1431C13.3604 15.018 13.6987 14.7511 13.9129 14.3931C13.962 14.2967 14.0252 14.2083 14.1004 14.1306C14.1863 14.2188 14.2595 14.3185 14.3179 14.4268C14.6329 14.9518 15.9529 15.8256 16.6617 15.9756C17.076 16.0618 17.2467 16.2325 17.1417 16.4687C17.0367 16.705 17.0423 16.8043 17.1679 16.6862C17.2478 16.5754 17.3109 16.4535 17.3554 16.3243C17.4473 16.0487 17.5054 16.0093 17.6442 16.0937C17.7229 16.1462 17.7154 16.1987 17.6235 16.4425C17.436 16.9093 17.2167 17.1456 16.9279 17.1925C16.7404 17.2262 16.6579 17.2787 16.5998 17.4231C16.3476 17.8092 16.0019 18.1253 15.5948 18.3418C15.2667 18.46 15.2854 18.5518 15.621 18.4993C15.8835 18.4543 15.891 18.46 15.8442 18.6043C15.6823 19.0655 15.4447 19.4964 15.141 19.8793C14.8204 20.2543 14.1173 20.5937 13.4348 20.7325C12.8029 20.8581 12.4973 20.8581 12.1992 20.7325L12.2123 20.7193ZM12.1148 19.8456C12.2198 19.3468 13.0729 19.0506 13.6148 19.3262C13.7798 19.4125 13.7535 19.2737 13.5829 19.1556C13.4123 19.0375 12.7279 19.0243 12.3473 19.1687C12.2602 19.1918 12.1802 19.2363 12.1147 19.2982C12.0492 19.3601 12.0003 19.4374 11.9723 19.5231C11.8804 19.7668 11.9142 20.14 12.0248 20.0687C12.0672 20.0009 12.0947 19.9249 12.1054 19.8456H12.1148ZM11.976 18.7487C12.2648 18.6493 12.3042 18.6493 12.5385 18.7618C12.7729 18.8743 12.8067 18.8725 13.2154 18.7281C13.397 18.6485 13.595 18.6131 13.7929 18.625C13.9692 18.6718 14.1004 18.5593 13.9954 18.4543C13.9429 18.4018 13.1629 18.52 12.906 18.625C12.857 18.6364 12.8059 18.6364 12.7569 18.625C12.7078 18.6136 12.662 18.5912 12.6229 18.5593C12.5257 18.4955 12.4134 18.4583 12.2972 18.4514C12.1811 18.4445 12.0652 18.4681 11.961 18.52C11.866 18.5634 11.7635 18.5882 11.6592 18.5931C11.6154 18.5918 11.5717 18.5993 11.5309 18.6151C11.49 18.6309 11.4526 18.6546 11.421 18.685C11.3423 18.7768 11.376 18.7956 11.6198 18.8481C11.7376 18.8231 11.8535 18.7899 11.9667 18.7487H11.976ZM13.2304 18.0325C13.3071 17.8899 13.4094 17.7628 13.5323 17.6575C13.6973 17.5581 13.6898 17.47 13.5323 17.47C13.3845 17.5192 13.2542 17.6104 13.1573 17.7325C12.8817 18.0287 12.8085 18.0493 12.6642 17.8843C12.5929 17.7981 12.5592 17.6275 12.5667 17.2937C12.5832 17.0449 12.5251 16.7968 12.3998 16.5812C12.2554 16.345 12.2554 16.3375 12.3792 16.2062C12.542 16.054 12.6428 15.847 12.6623 15.625C12.6623 15.4862 12.636 15.4993 12.3998 15.7562C12.1635 16.0131 12.1242 16.0375 11.8954 16.0056C11.5073 15.9456 10.4835 15.835 10.2867 15.835C10.1384 15.8545 10 15.9201 9.89104 16.0225L9.68104 16.21L10.1742 16.1875C10.7517 16.1481 11.9217 16.3262 12.0792 16.4706C12.1973 16.5756 12.3342 17.0331 12.3342 17.3106C12.3157 17.4422 12.259 17.5654 12.171 17.665C12.0135 17.8525 12.0135 17.8693 12.1242 17.9012C12.2383 17.9652 12.3425 18.0454 12.4335 18.1393C12.4826 18.1976 12.5437 18.2445 12.6127 18.2769C12.6816 18.3093 12.7568 18.3263 12.8329 18.3268C13.0185 18.3287 13.071 18.2893 13.221 18.0325H13.2304ZM8.76792 16.8306C8.68685 16.7217 8.62064 16.6026 8.57104 16.4762C8.44729 16.1743 8.32917 16.1537 8.32917 16.4237C8.32789 16.4837 8.34022 16.5432 8.36522 16.5978C8.39023 16.6523 8.42726 16.7005 8.47354 16.7387C8.54479 16.7987 8.66104 16.8962 8.71542 16.9487C8.85417 17.08 8.90104 16.975 8.76792 16.8306ZM15.5179 16.8906C15.6605 16.7948 15.793 16.6849 15.9135 16.5625C16.0448 16.4181 16.0392 16.4181 15.726 16.5831C15.2723 16.8118 14.7473 16.8643 14.4529 16.7143C14.0779 16.5268 14.1229 16.4443 14.5898 16.45C14.9648 16.45 15.6342 16.3 15.7729 16.1743C15.8048 16.1481 15.5479 16.1425 15.2104 16.1556C14.5073 16.1875 13.6729 16.0768 13.5229 15.9325C13.4488 15.8479 13.3972 15.746 13.3729 15.6362C13.3129 15.3343 13.176 15.4 13.221 15.715C13.2354 15.8625 13.2939 16.0022 13.3889 16.1159C13.4839 16.2296 13.611 16.3121 13.7535 16.3525C13.8904 16.3918 13.9635 16.45 13.9767 16.54C14.0029 16.7275 14.1267 16.8212 14.4304 16.9C14.5673 16.9337 14.7717 16.9862 14.8767 17.0181C15.1842 17.1006 15.2573 17.0875 15.5254 16.8906H15.5179ZM11.1585 16.9093C11.32 16.8374 11.4902 16.787 11.6648 16.7593C11.9273 16.72 11.9535 16.7068 11.8354 16.6412C11.6645 16.5898 11.4837 16.5808 11.3085 16.615C11.0591 16.6377 10.808 16.6377 10.5585 16.615C10.3836 16.5875 10.2049 16.5965 10.0335 16.6412C9.86292 16.7143 9.86292 16.7143 10.1254 16.7593C10.2768 16.7804 10.4222 16.8321 10.5529 16.9112C10.7592 17.0406 10.8998 17.0406 11.166 16.9093H11.1585ZM5.66854 11.3537C4.65792 11.2093 3.81042 11.0781 3.79354 11.0518C3.72042 10.9787 3.89104 9.57435 3.96979 9.55185C4.04854 9.52935 7.80604 10.4893 7.87167 10.5625C7.93729 10.6356 7.62792 11.6406 7.55667 11.6275C7.52479 11.6162 6.68104 11.5 5.66854 11.3537ZM4.73104 10.7031C4.79769 10.6235 4.83264 10.5221 4.82918 10.4183C4.82572 10.3145 4.7841 10.2156 4.71229 10.1406C4.65127 10.0896 4.57429 10.0617 4.49479 10.0617C4.41529 10.0617 4.33832 10.0896 4.27729 10.1406C4.22377 10.2333 4.1978 10.3394 4.20245 10.4463C4.2071 10.5532 4.24217 10.6566 4.30354 10.7443C4.43479 10.8812 4.55854 10.8681 4.72354 10.7031H4.73104ZM17.2748 10.4012C16.8998 9.74497 16.7948 9.5406 16.8548 9.50872C16.9148 9.47685 20.9985 8.2806 21.0829 8.2806C21.1673 8.2806 21.1035 9.52185 21.0173 9.60622C20.991 9.63435 20.2504 9.90247 19.3635 10.2118C18.4767 10.5212 17.7079 10.7743 17.6423 10.8081C17.5767 10.8418 17.4773 10.75 17.2748 10.4012ZM20.9723 8.93685C20.9832 8.90182 20.9865 8.86484 20.9819 8.82844C20.9772 8.79203 20.9648 8.75706 20.9454 8.72591C20.926 8.69476 20.9001 8.66816 20.8694 8.64794C20.8388 8.62771 20.8042 8.61434 20.7679 8.60872C20.6969 8.62625 20.6323 8.66329 20.5813 8.71564C20.5302 8.76799 20.4949 8.83357 20.4792 8.90497C20.4927 8.97729 20.5296 9.04317 20.5842 9.09247C20.7079 9.21997 20.9048 9.14122 20.9704 8.93685H20.9723ZM5.71542 9.7056L4.89979 9.4956L4.93917 9.27247C4.9822 9.09937 5.03927 8.93006 5.10979 8.76622L5.24104 8.4906L5.01229 8.02372C4.90692 7.83857 4.82743 7.63985 4.77604 7.4331C4.77604 7.3356 5.09667 7.10497 6.06229 6.50685C6.55243 6.18753 7.06149 5.89824 7.58667 5.6406C7.73674 5.59631 7.87552 5.52021 7.99354 5.41747C8.22229 5.19997 9.74667 4.45185 9.86854 4.49872C10.056 4.56997 9.97354 4.85872 9.63229 5.23372C9.17397 5.77903 8.77427 6.37104 8.43979 6.99997C8.19263 7.42293 7.84565 7.77892 7.42917 8.03685C7.36151 8.06604 7.30346 8.11372 7.26167 8.17442C7.21988 8.23511 7.19605 8.30635 7.19292 8.37997C7.17629 8.50149 7.13342 8.61793 7.06729 8.72122C6.9613 8.92143 6.87767 9.13271 6.81792 9.35122C6.76844 9.5435 6.69072 9.72737 6.58729 9.89685C6.29342 9.84894 6.00236 9.7851 5.71542 9.7056ZM17.8504 8.64247C17.8185 8.5506 17.7848 8.45497 17.7848 8.45497C17.7848 8.3031 17.4904 7.70497 17.4098 7.70497C17.3292 7.70497 17.2467 7.59247 17.1604 7.4556C17.0217 7.23247 16.9635 7.19872 16.5042 7.0806C16.1012 6.98591 15.7241 6.80345 15.3998 6.54622C14.856 6.17122 14.7248 6.1206 14.1848 6.0156C13.9631 5.98747 13.748 5.92084 13.5492 5.81872C13.4573 5.56935 13.8435 5.45685 14.9404 5.4231C15.7223 5.40435 15.7617 5.39122 16.0898 5.18122C16.3654 5.0031 16.4048 4.9581 16.2773 4.94497C16.1483 4.9457 16.0207 4.97249 15.9023 5.02372C15.5273 5.18685 15.396 5.15497 15.1673 4.83622C14.8715 4.50593 14.5532 4.19644 14.2148 3.90997C13.4985 3.2931 13.3148 3.07747 13.4404 2.99872C13.5192 2.95185 13.9523 3.16935 14.4454 3.5031C14.8204 3.75997 15.9229 4.4106 15.9754 4.4106C16.1629 4.4106 15.456 3.54997 14.3798 2.4456C13.926 1.98622 13.8173 1.77622 13.9654 1.68435C14.0656 1.67539 14.166 1.69836 14.2523 1.74997C14.9744 2.2327 15.6704 2.75344 16.3373 3.30997C16.3648 3.34287 16.3988 3.36968 16.4372 3.38873C16.4756 3.40777 16.5176 3.41862 16.5604 3.4206C16.686 3.4206 16.6785 3.40747 16.5023 3.2181C15.9345 2.68425 15.3216 2.20057 14.6704 1.77247C14.3254 1.5831 14.1998 1.43122 14.2748 1.3131C14.3498 1.19497 14.4923 1.24747 15.0435 1.5231C15.726 1.86435 16.5998 2.44185 16.8942 2.7456C17.0817 2.9331 17.106 3.0006 17.0592 3.09997C16.9598 3.27622 16.9804 3.30997 17.151 3.2631C17.2113 3.25183 17.2734 3.25551 17.3319 3.27382C17.3904 3.29212 17.4436 3.32449 17.4867 3.3681L17.6742 3.51247L17.6348 3.17872C17.5618 2.82108 17.4493 2.47268 17.2992 2.13997C17.1796 1.89711 17.0914 1.64006 17.0367 1.37497C17.0967 1.2756 17.2992 1.30935 17.4117 1.43497C17.7813 1.96521 18.1061 2.52526 18.3829 3.10935C18.8967 4.19872 19.1592 5.59185 18.9454 6.16185L18.8479 6.44497L19.2023 7.3056C19.338 7.61117 19.4563 7.92417 19.5567 8.2431C19.5567 8.30872 19.1029 8.47372 18.0323 8.78122C17.9498 8.8056 17.8973 8.7606 17.8504 8.64247ZM4.50042 6.92122C4.44042 6.82185 3.84979 4.89247 3.72604 4.41247C3.58167 3.84997 3.56854 3.61747 3.68667 3.61747C3.80479 3.61747 4.21729 4.3281 4.60542 5.09497C4.96729 5.81122 5.19604 6.03247 4.94104 5.4231L4.84167 5.18122L5.18292 4.60935C5.97792 3.30997 6.00979 3.29685 6.41854 3.83497C6.64648 4.11587 6.89065 4.3832 7.14979 4.6356C7.32967 4.7924 7.48681 4.97352 7.61667 5.17372C7.61667 5.22622 7.54354 5.29185 7.45917 5.33122C7.27167 5.4231 6.87417 5.23372 6.45979 4.8531C6.30229 4.70872 6.14479 4.60935 6.11292 4.62997C6.00604 4.6956 5.94792 5.12872 6.02667 5.20747C6.10542 5.28622 6.11292 5.22622 6.13917 5.1081L6.17479 4.93747L6.62854 5.23935C6.78428 5.32777 6.92957 5.43343 7.06167 5.55435C7.02792 5.5881 4.57917 6.9606 4.55292 6.9606C4.53091 6.9549 4.51205 6.94075 4.50042 6.92122ZM7.55479 4.80622C7.44367 4.68883 7.34618 4.55926 7.26417 4.41997C7.25104 4.38622 7.36354 4.26247 7.50229 4.14997C7.80979 3.9006 7.84917 3.92685 8.06479 4.49872L8.20917 4.89247L8.05917 5.0106C8.00312 5.05939 7.93987 5.09923 7.87167 5.12872C7.75454 5.03316 7.64828 4.92501 7.55479 4.80622ZM6.79354 3.90622C6.69604 3.77497 6.64354 3.65122 6.66979 3.61747C6.84603 3.51866 7.03047 3.43523 7.22104 3.3681C7.48917 3.25747 7.94292 3.04747 8.22604 2.8956L8.73042 2.61997V2.7906C8.73042 3.0531 7.41792 4.13122 7.08229 4.14435C7.02417 4.14435 6.89292 4.03747 6.79354 3.90622Z" fill="#55514C"/>
<path d="M9.15596 18.7413C9.20846 18.3663 9.21596 18.3551 9.34346 18.4601C9.43533 18.5257 9.42971 18.5707 9.31721 18.7938C9.27727 18.8895 9.21935 18.9767 9.14658 19.0507C9.12688 18.9481 9.13008 18.8425 9.15596 18.7413ZM16.9766 18.1376C16.9241 17.8957 16.9185 17.4738 16.9578 17.4738C17.0057 17.4642 17.0522 17.4491 17.0966 17.4288C17.2016 17.3951 17.2072 17.4288 17.1622 17.7438C17.1427 17.9063 17.1095 18.0669 17.0628 18.2238C17.0235 18.3288 17.0103 18.3157 16.9766 18.1376ZM7.60533 15.8126C7.60533 15.5313 7.84158 15.2294 8.19033 15.0438C8.61339 14.8971 9.04556 14.7781 9.48408 14.6876C10.7966 14.3932 11.106 14.3013 11.7341 14.0182C12.411 13.7088 12.6472 13.5194 12.7391 13.2044C12.7764 13.1091 12.7887 13.0058 12.7747 12.9044C12.7541 12.8782 12.6041 12.9701 12.4466 13.1013C12.2424 13.2541 12.0246 13.3878 11.796 13.5007C11.3366 13.7107 10.2191 13.9619 9.31908 14.0632C8.51283 14.1494 7.74408 14.3782 7.33721 14.6538C7.17971 14.7588 7.04096 14.8188 7.02783 14.7851C7.10784 14.5703 7.2163 14.3672 7.35033 14.1813C8.08721 13.0001 9.29283 12.0232 10.4553 11.6557C10.8911 11.522 11.3461 11.4624 11.8016 11.4794C12.5703 11.4663 12.6566 11.4794 12.9903 11.6369C13.5885 11.9182 14.0422 12.3869 14.0422 12.7263C14.0121 13.0726 13.8737 13.4007 13.6466 13.6638C13.209 14.1309 12.6883 14.5124 12.111 14.7888C11.7566 14.9463 10.9222 15.0982 9.87221 15.1844C8.26346 15.3157 8.06471 15.3719 7.75721 15.8407L7.60533 16.0563V15.8126ZM16.701 15.7019C16.5434 15.6859 16.3888 15.648 16.2416 15.5894C16.131 15.5182 16.1835 15.5051 16.5697 15.4919C17.2147 15.4713 17.4378 15.4919 17.5953 15.5763C17.6666 15.6157 17.7191 15.6551 17.706 15.6626C17.6497 15.7151 16.9897 15.7413 16.701 15.7019ZM15.8741 15.0382C14.9553 14.7157 14.2841 14.2038 14.1997 13.7651C14.1603 13.5401 14.2128 12.9438 14.2785 12.9438C14.4119 13.0499 14.5373 13.1659 14.6535 13.2907C15.216 13.8532 15.9528 14.4663 16.2416 14.5919C16.4853 14.7026 17.136 14.8338 17.9891 14.9463C18.1325 14.9562 18.2724 14.9958 18.3997 15.0626C18.486 15.1282 18.276 15.1413 17.3703 15.1488C16.3991 15.1638 16.176 15.1432 15.8741 15.0382Z" fill="#895730"/>
<path d="M7.5415 15.0251C7.5415 14.7288 8.31588 14.4269 9.44463 14.2957C9.93025 14.2376 10.4496 14.1719 10.594 14.1513C11.1659 14.0857 10.5415 14.2563 9.50463 14.4532C8.70963 14.6051 8.33463 14.7101 8.04025 14.8676C7.81713 14.9857 7.62025 15.0832 7.594 15.0963C7.56775 15.1094 7.5415 15.0776 7.5415 15.0251ZM17.3909 14.6444C16.7009 14.5132 16.1703 14.2563 15.4465 13.7069C14.5746 13.0451 14.4228 12.8219 14.4828 12.2688C14.5146 11.9088 14.5221 11.8938 14.7453 11.8751C15.1784 11.8226 15.8946 11.9407 16.1046 12.0982C16.2153 12.1769 16.4796 12.3551 16.6671 12.4938C17.0215 12.7226 17.3515 13.0563 17.2915 13.1163C17.1589 13.0911 17.0318 13.0422 16.9165 12.9719C16.7501 12.8866 16.5792 12.8103 16.4046 12.7432C16.2471 12.6832 16.2528 12.6963 16.4571 12.8538C17.1078 13.3526 17.8353 14.2732 17.8353 14.6013C17.8503 14.7288 17.824 14.7288 17.3909 14.6444ZM7.86963 12.9101C7.86963 12.7863 8.2765 12.1019 8.6365 11.6107C9.07936 11.006 9.62671 10.4853 10.2528 10.0732C10.8293 9.75559 11.479 9.59462 12.1371 9.60631C12.5244 9.64246 12.8977 9.76968 13.2265 9.97757C13.5553 10.1855 13.8303 10.4681 14.029 10.8026C14.1734 11.0857 14.1996 11.2226 14.2053 11.6763C14.2167 11.8718 14.2016 12.068 14.1603 12.2594C14.134 12.2857 13.9728 12.1544 13.8115 11.9707C13.4365 11.5451 12.9715 11.3219 12.2815 11.2207C10.969 11.0332 9.24213 11.6407 8.26338 12.6401C8.00088 12.9157 7.86963 13.0001 7.86963 12.9082V12.9101Z" fill="#895730"/>
<path d="M16.6693 12.1151C16.2259 11.8109 15.695 11.6607 15.158 11.6876C14.9538 11.7009 14.7487 11.6858 14.5487 11.6426C14.5109 11.4854 14.4933 11.3241 14.4962 11.1626L14.4624 10.7501L14.8037 10.7313C15.3662 10.6976 16.0374 11.1063 16.7274 11.8994C17.0874 12.2988 17.063 12.3982 16.6693 12.1151Z" fill="#895730"/>
<path d="M10.5752 22.1875C10.5149 22.0796 10.4875 21.9564 10.4965 21.8332C10.499 21.6818 10.4768 21.5311 10.4308 21.3869C10.3783 21.2425 10.3971 21.1825 10.5621 20.9988C10.6301 20.9413 10.6803 20.8656 10.7069 20.7806C10.7335 20.6956 10.7353 20.6048 10.7121 20.5188C10.6962 20.3327 10.7279 20.1456 10.804 19.975L10.9296 19.6863L11.224 20.0988C11.3855 20.361 11.6148 20.5747 11.8877 20.7175C12.3021 20.9407 12.3602 21.0194 12.1108 21.0194C11.8615 21.0194 11.284 21.1638 11.3233 21.2219C11.5664 21.2611 11.8135 21.268 12.0583 21.2425L12.7615 21.2088L12.2365 21.4375C11.6196 21.6925 11.1115 21.9757 10.969 22.1538C10.9479 22.1853 10.92 22.2117 10.8873 22.231C10.8546 22.2503 10.818 22.262 10.7802 22.2652C10.7424 22.2685 10.7043 22.2632 10.6689 22.2497C10.6334 22.2363 10.6014 22.215 10.5752 22.1875ZM15.244 21.7694C15.0144 21.6476 14.7724 21.5508 14.5221 21.4807C14.1471 21.3625 13.9371 21.2575 13.924 21.1919C13.9108 21.1263 13.924 21.0869 13.9558 21.0869C13.9877 21.0869 15.0471 21.3625 15.3415 21.4469C15.4465 21.4863 15.4858 21.4675 15.4858 21.3888C15.4858 21.2444 15.184 21.1057 14.6983 21.0269C14.4752 20.9875 14.2783 20.9482 14.2652 20.9425C14.3699 20.8529 14.4874 20.7796 14.614 20.725C14.85 20.6051 15.0548 20.4318 15.2121 20.2188C15.2907 20.1006 15.3861 19.9945 15.4952 19.9038C15.5924 20.0427 15.6677 20.1957 15.7183 20.3575C15.8702 20.7325 15.8833 20.83 15.8177 20.9482C15.7672 21.0776 15.7555 21.219 15.784 21.355C15.8552 21.7882 15.5871 22 15.244 21.7694ZM13.1946 21.2182C13.157 21.2121 13.121 21.1985 13.0888 21.1782C13.0566 21.1579 13.0288 21.1313 13.0071 21.1C12.994 21.0475 13.0915 21.0213 13.3483 21.0213C13.6052 21.0213 13.7233 21.0475 13.7233 21.1132C13.7121 21.2182 13.4252 21.2763 13.1946 21.2182Z" fill="#7B7870"/>
<path d="M12.3997 20.7719C12.1079 20.6772 11.8382 20.5248 11.6065 20.3237C11.5153 20.2039 11.4314 20.0787 11.3553 19.9487C11.0185 19.4163 10.5786 18.9567 10.0615 18.5969C9.70781 18.3756 9.41567 18.0686 9.21217 17.7044C9.1814 17.6622 9.14216 17.6269 9.09696 17.6007C9.05175 17.5745 9.00159 17.5581 8.94967 17.5525C8.67967 17.5206 8.49029 17.3162 8.22029 16.7912C7.95029 16.2662 7.96529 16.0956 8.37779 15.8331C8.86529 15.5237 9.39029 15.3925 10.4665 15.3137C11.6103 15.2294 11.9572 15.1506 12.5947 14.8206C12.761 14.7277 12.9347 14.6487 13.114 14.5844C13.1403 14.5844 12.9959 14.7419 12.7972 14.92L12.4334 15.25L12.7147 15.2106C12.9748 15.1702 13.2222 15.0704 13.4374 14.9188C13.6527 14.7673 13.8301 14.5681 13.9559 14.3369L14.0872 14.125L14.3572 14.4794C14.8222 15.0756 16.0972 15.8912 16.7272 15.9962C16.8649 16.0148 16.9947 16.0713 17.1022 16.1594C17.2072 16.2775 17.2072 16.3037 17.1022 16.5156C17.0422 16.6394 17.0215 16.7444 17.0553 16.7444C17.1472 16.7444 17.3834 16.3431 17.3834 16.1987C17.3834 16.1144 17.4228 16.0806 17.5353 16.1012C17.7059 16.1275 17.6984 16.2512 17.5015 16.6637C17.3572 16.9656 17.0553 17.2019 16.8059 17.2019C16.7573 17.2011 16.7099 17.2171 16.6716 17.2471C16.6334 17.2772 16.6067 17.3194 16.5959 17.3669C16.3728 17.7624 16.0392 18.0843 15.6359 18.2931C15.2759 18.43 15.2609 18.5481 15.604 18.4806C15.8609 18.4412 15.8665 18.4412 15.814 18.6175C15.6506 19.0724 15.4158 19.4983 15.1184 19.8794C14.704 20.3312 13.8247 20.6875 12.9172 20.7662C12.7457 20.7917 12.5716 20.7936 12.3997 20.7719ZM12.0978 19.8775C12.1503 19.6094 12.2853 19.4706 12.6959 19.315C13.0159 19.2011 13.3668 19.2105 13.6803 19.3412C13.7853 19.3806 13.7797 19.3544 13.6353 19.2025C13.4909 19.0506 13.4047 19.015 13.1103 19.015C12.7353 19.015 12.124 19.1912 12.0059 19.3375C11.9464 19.4351 11.9086 19.5445 11.8953 19.6581C11.8372 20.0875 12.0247 20.2919 12.0978 19.8775ZM12.0059 18.7525C12.0838 18.701 12.1751 18.6736 12.2684 18.6736C12.3618 18.6736 12.453 18.701 12.5309 18.7525C12.7803 18.865 12.8009 18.865 13.234 18.7337C13.4315 18.6655 13.6369 18.6232 13.8453 18.6081C13.9503 18.6081 14.0159 18.5819 14.0328 18.5031C14.0497 18.4244 14.0197 18.3925 13.7047 18.4319C13.498 18.4608 13.2937 18.5047 13.0934 18.5631C12.8572 18.6419 12.8047 18.6344 12.5478 18.5106C12.2909 18.3869 12.2459 18.3794 12.0359 18.4844C11.918 18.5409 11.7911 18.5764 11.6609 18.5894C11.4734 18.5894 11.3065 18.7525 11.4378 18.805C11.569 18.8575 11.7378 18.8537 12.0059 18.7487V18.7525ZM13.0053 18.3194C13.12 18.1981 13.223 18.0663 13.3128 17.9256C13.3797 17.8023 13.4717 17.6944 13.5828 17.6087C13.5916 17.6093 13.6003 17.608 13.6085 17.6049C13.6168 17.6018 13.6242 17.5969 13.6304 17.5907C13.6366 17.5845 13.6414 17.5771 13.6445 17.5689C13.6476 17.5606 13.649 17.5519 13.6484 17.5431C13.6484 17.3856 13.3522 17.4981 13.129 17.74C13.0448 17.8481 12.9396 17.938 12.8197 18.0044C12.649 18.0044 12.5647 17.7737 12.5647 17.32C12.5786 17.0668 12.529 16.8141 12.4203 16.585L12.2759 16.3094L12.3997 16.1875C12.5492 16.0595 12.6488 15.8829 12.6809 15.6887C12.7409 15.4394 12.5965 15.445 12.4259 15.7075C12.2553 15.97 12.1109 16.0225 11.4078 15.925C11.0789 15.8787 10.7478 15.8499 10.4159 15.8387C10.1009 15.8387 10.0278 15.8594 9.87779 16.0262L9.70717 16.2025L10.4103 16.2156C10.7995 16.2235 11.1879 16.2567 11.5728 16.315C11.9665 16.3862 12.0378 16.4256 12.1353 16.5981C12.213 16.7527 12.2662 16.9184 12.2928 17.0894C12.3186 17.1836 12.3207 17.2828 12.2987 17.378C12.2768 17.4732 12.2316 17.5615 12.1672 17.635C12.0247 17.8487 12.0247 17.875 12.124 17.9144C12.2556 17.9857 12.3772 18.074 12.4859 18.1769C12.7484 18.4131 12.8459 18.4375 13.0053 18.3156V18.3194ZM8.85404 16.9881C8.84534 16.9171 8.81297 16.851 8.76217 16.8006C8.67983 16.6994 8.61344 16.5862 8.56529 16.465C8.46592 16.2212 8.36092 16.1631 8.30842 16.3131C8.25592 16.4631 8.39467 16.7087 8.61029 16.8981C8.86154 17.1062 8.85404 17.1062 8.85404 16.9881ZM15.5253 16.8906C15.6653 16.7944 15.7953 16.6845 15.9134 16.5625C16.039 16.4181 16.039 16.4181 15.7034 16.5887C15.2497 16.8119 14.5409 16.8325 14.3178 16.6281C14.0947 16.4237 14.1303 16.4106 14.4622 16.4575C14.794 16.5044 15.5253 16.3525 15.7297 16.195C15.829 16.1219 15.7634 16.1162 15.289 16.1481C14.659 16.1875 13.759 16.0825 13.5434 15.9381C13.4499 15.8676 13.3864 15.7645 13.3653 15.6494C13.3072 15.3737 13.189 15.3944 13.189 15.67C13.2053 15.828 13.2671 15.9778 13.367 16.1013C13.4668 16.2248 13.6005 16.3167 13.7515 16.3656C13.8959 16.4106 13.9822 16.4837 13.9953 16.5831C14.014 16.7275 14.1453 16.8119 14.6384 16.9769C15.0659 17.125 15.2365 17.1006 15.5253 16.8906ZM11.1528 16.9169C11.3105 16.8449 11.4779 16.7962 11.6497 16.7725C11.9384 16.7331 12.0565 16.6281 11.8372 16.615C11.2522 16.5812 10.1684 16.5944 10.024 16.6469C9.79342 16.72 9.91154 16.8344 10.174 16.7781C10.3036 16.7664 10.4328 16.8039 10.5359 16.8831C10.6204 16.9563 10.7269 16.9994 10.8386 17.0055C10.9502 17.0116 11.0608 16.9804 11.1528 16.9169ZM5.47154 11.3219C4.90819 11.2588 4.34909 11.1624 3.79717 11.0331C3.79652 10.5364 3.84488 10.0409 3.94154 9.55373C3.98092 9.51436 7.79654 10.4912 7.86217 10.5531C7.89592 10.5794 7.76467 11.1512 7.67467 11.4194C7.59404 11.6106 7.50779 11.6031 5.47154 11.3219ZM4.78342 10.6319C4.82434 10.5804 4.84661 10.5166 4.84661 10.4509C4.84661 10.3852 4.82434 10.3214 4.78342 10.27C4.58467 9.92311 4.19092 10.0206 4.19092 10.4219C4.19092 10.8231 4.58467 10.9787 4.78342 10.6319ZM17.149 10.1725C17.015 9.97347 16.9149 9.75361 16.8528 9.52186C16.9315 9.44873 21.0809 8.26748 21.1203 8.30686C21.1356 8.53028 21.1268 8.7547 21.094 8.97623L21.0359 9.61373L19.3615 10.1875C18.4409 10.51 17.6478 10.7725 17.5878 10.7725C17.5278 10.7725 17.3459 10.5269 17.149 10.1725ZM20.884 9.08873C21.1072 8.88436 20.9572 8.55061 20.6815 8.64248C20.6362 8.65895 20.5957 8.68659 20.5639 8.72285C20.532 8.7591 20.5098 8.80281 20.4994 8.84992C20.4889 8.89702 20.4905 8.94601 20.504 8.99234C20.5175 9.03868 20.5424 9.08086 20.5765 9.11498C20.734 9.21998 20.7397 9.21998 20.884 9.08873ZM5.76779 9.69248L4.94654 9.48248L4.96717 9.29498C5.00141 9.12351 5.05422 8.95628 5.12467 8.79623L5.25592 8.48873L5.01967 8.01436C4.91729 7.83042 4.83794 7.63457 4.78342 7.43123C4.78342 7.29248 7.19279 5.76998 7.58092 5.66498C7.73152 5.61702 7.87155 5.54064 7.99342 5.43998C8.24279 5.21123 9.74654 4.44998 9.86842 4.50248C10.0709 4.58873 9.97342 4.87748 9.60592 5.27686C9.1552 5.78054 8.77313 6.34166 8.46967 6.94561C8.23451 7.38605 7.88799 7.75714 7.46467 8.02186C7.38746 8.05659 7.3204 8.11048 7.26987 8.17841C7.21933 8.24634 7.18699 8.32605 7.17592 8.40998C7.154 8.5345 7.10678 8.6532 7.03717 8.75873C6.93345 8.94384 6.85644 9.14268 6.80842 9.34936C6.76364 9.53019 6.70082 9.70607 6.62092 9.87436C6.33103 9.84335 6.04513 9.7824 5.76779 9.69248ZM17.7922 8.45123C17.719 8.25436 17.6403 8.01061 17.6047 7.91873C17.5906 7.86989 17.5667 7.82442 17.5344 7.78509C17.5022 7.74577 17.4623 7.71341 17.4172 7.68998C17.3009 7.62035 17.2037 7.5231 17.134 7.40686C17.0159 7.20436 16.9465 7.16498 16.5172 7.07311C16.1141 6.97488 15.736 6.7935 15.4072 6.54061C14.8447 6.16561 14.704 6.10748 14.1978 6.00811C13.6353 5.89748 13.489 5.80561 13.6353 5.63311C13.7272 5.52248 15.0547 5.36311 15.4222 5.42311C15.6715 5.46248 15.7372 5.44186 16.0653 5.21873C16.3934 4.99561 16.4197 4.96936 16.2528 4.95061C16.1233 4.94627 15.9946 4.97328 15.8778 5.02936C15.5628 5.19248 15.4372 5.16061 15.1747 4.83248C14.9984 4.62248 13.579 3.32123 13.4609 3.26873C13.4609 3.26873 13.4422 3.20311 13.429 3.13748C13.3953 2.92748 13.5265 2.94998 13.9672 3.22936C15.0303 3.88561 15.9303 4.41248 16.0034 4.41248C16.0765 4.41248 16.0428 4.34686 15.9565 4.22498C15.829 3.99998 14.4959 2.49998 14.1472 2.18686C13.759 1.82498 13.8772 1.53061 14.3047 1.78561C14.614 1.97311 16.0784 3.07936 16.3203 3.30998C16.6165 3.58561 16.7403 3.47311 16.459 3.17873C15.901 2.64796 15.2954 2.16969 14.6497 1.74998C14.2878 1.56248 14.1772 1.35623 14.3815 1.29061C14.5859 1.22498 16.4028 2.24873 16.8697 2.71561C17.0797 2.92561 17.119 3.09061 16.9878 3.22186C16.9147 3.29311 16.9409 3.30623 17.1134 3.27436C17.1784 3.25423 17.2476 3.25214 17.3136 3.26833C17.3797 3.28451 17.4401 3.31835 17.4884 3.36623C17.5803 3.43186 17.6759 3.46373 17.6909 3.43186C17.7509 3.33998 17.5597 2.70248 17.2784 2.05186C17.1669 1.83848 17.0855 1.61069 17.0365 1.37498C17.0965 1.27561 17.299 1.30936 17.3984 1.43498C17.7911 2.01291 18.1396 2.61963 18.4409 3.24998C18.889 4.24186 19.099 5.48873 18.934 6.13936C18.8497 6.45436 18.8553 6.47311 19.1215 7.12373C19.4234 7.83248 19.5809 8.26748 19.5415 8.30686C19.5415 8.30686 19.2003 8.42498 18.7915 8.53561L17.9909 8.77936C17.9515 8.79811 17.8597 8.65373 17.7809 8.44373L17.7922 8.45123ZM4.23029 6.06248C3.66779 4.34123 3.50279 3.61186 3.66779 3.61186C3.77842 3.61186 3.80467 3.65873 4.42904 4.79498C4.92217 5.69498 5.09842 5.95748 5.00654 5.64811C4.85654 5.14936 4.88279 5.05748 5.38154 4.26998C5.70967 3.76373 5.91404 3.50686 6.00592 3.49373C6.09779 3.48061 6.21029 3.56686 6.39967 3.82186C6.63385 4.10728 6.88426 4.37897 7.14967 4.63561C7.32955 4.79241 7.48669 4.97353 7.61654 5.17373C7.61654 5.22061 7.55654 5.28623 7.47779 5.32561C7.30717 5.42311 6.89279 5.22623 6.47279 4.85873C6.30967 4.71436 6.14467 4.60936 6.11279 4.63561C6.00592 4.69561 5.94779 5.12873 6.03217 5.21311C6.07342 5.25248 6.10529 5.25998 6.10529 5.22623C6.11234 5.16967 6.13292 5.11565 6.16529 5.06873C6.21029 5.00311 6.30967 5.04248 6.63029 5.25623C6.85342 5.40623 7.00529 5.55811 6.97904 5.58436C6.95279 5.61061 4.59404 6.96436 4.55467 6.96436C4.55467 6.96436 4.40467 6.55561 4.23967 6.06436L4.23029 6.06248ZM7.55467 4.80061C7.43997 4.68153 7.34616 4.54398 7.27717 4.39373C7.27717 4.28873 7.70467 3.99248 7.80967 4.01873C7.91467 4.04498 8.18467 4.82686 8.13779 4.91311C8.08888 4.96872 8.02884 5.01344 7.96154 5.04436C7.84342 5.10811 7.79654 5.07623 7.55467 4.80061ZM6.79904 3.90061C6.69967 3.76186 6.64717 3.63811 6.67342 3.61186C6.81674 3.54131 6.96384 3.47872 7.11404 3.42436C7.33717 3.33623 7.76467 3.13186 8.08717 2.96873C8.64967 2.66498 8.77529 2.64623 8.70404 2.88248C8.65717 3.02123 7.79092 3.77498 7.41592 4.00748C7.09342 4.19686 6.99592 4.18748 6.79904 3.90061Z" fill="#7B7870"/>
<path d="M10.5756 22.1876C10.5152 22.0797 10.4879 21.9565 10.4968 21.8332C10.4981 21.6842 10.4779 21.5358 10.4368 21.3926C10.3918 21.2688 10.4106 21.2051 10.5493 21.0176C10.6152 20.9406 10.6647 20.851 10.695 20.7544C10.7253 20.6577 10.7357 20.5559 10.7256 20.4551C10.7335 20.2635 10.7688 20.0741 10.8306 19.8926L10.9356 19.6638L11.1793 20.0388C11.4025 20.3932 11.9931 20.8732 12.2031 20.8732C12.2202 20.8741 12.2364 20.8813 12.2485 20.8934C12.2606 20.9055 12.2678 20.9217 12.2687 20.9388C12.2687 20.9782 12.1975 21.0044 12.1056 21.0044C11.8356 21.0044 11.2843 21.1413 11.3162 21.1919C11.5635 21.2381 11.8163 21.2469 12.0662 21.2182L12.7693 21.1919L12.4281 21.3157C11.9193 21.5089 11.4378 21.7673 10.9956 22.0844C10.8081 22.2719 10.7012 22.2719 10.5831 22.1632L10.5756 22.1876ZM15.2631 21.7751C15.0279 21.6541 14.7818 21.5555 14.5281 21.4807C14.1137 21.3419 13.9112 21.2369 13.9112 21.1713C13.9112 21.0607 14.0293 21.0794 14.89 21.3288C15.0792 21.3919 15.2747 21.434 15.4731 21.4544C15.5387 21.3813 15.415 21.2107 15.2575 21.1526C15.0619 21.0912 14.8619 21.0448 14.6593 21.0138L14.2187 20.9351L14.5937 20.7476C14.8322 20.6161 15.0424 20.439 15.2125 20.2263C15.2932 20.1059 15.3904 19.9974 15.5012 19.9038C15.5929 20.0451 15.666 20.1976 15.7187 20.3576C15.8706 20.7326 15.8837 20.8301 15.8181 20.9482C15.7679 21.0758 15.7561 21.2153 15.7843 21.3494C15.8181 21.5519 15.805 21.6251 15.6925 21.7357C15.5331 21.8932 15.4337 21.9063 15.2631 21.7751Z" fill="#96918A"/>
<path d="M12.3157 20.7326C11.9395 20.6153 11.6206 20.3619 11.4213 20.0219C11.2113 19.5963 10.5551 18.8969 10.0301 18.5576C9.75325 18.3908 9.51744 18.164 9.34009 17.8938C9.16946 17.6313 9.07196 17.5394 8.96509 17.5394C8.71571 17.5394 8.48509 17.3032 8.23009 16.7782C8.00696 16.3376 7.99384 16.2719 8.07259 16.1276C8.18321 15.9176 9.08321 15.4582 9.46384 15.4132C9.62134 15.3926 10.1538 15.3476 10.6526 15.3082C11.6651 15.2219 12.0513 15.1207 12.6363 14.8207C13.2213 14.5207 13.1988 14.5394 12.7995 14.9069C12.4732 15.2032 12.4526 15.2351 12.5876 15.2501C13.0601 15.2501 13.7238 14.8226 13.9657 14.3501L14.0876 14.1063L14.2263 14.3294C14.6407 14.9988 16.2232 16.0301 16.8326 16.0301C16.8873 16.034 16.9403 16.0508 16.9872 16.0792C17.0341 16.1075 17.0737 16.1466 17.1026 16.1932C17.1945 16.3376 17.1945 16.3638 17.1026 16.5026C17.0464 16.5744 17.0102 16.6597 16.9976 16.7501C16.9976 16.9207 17.3913 16.4351 17.3913 16.2569C17.3913 16.1388 17.4251 16.0938 17.5226 16.0938C17.7101 16.0938 17.6876 16.3226 17.457 16.7369C17.2807 17.0388 17.2207 17.0913 16.9582 17.1569C16.8658 17.1683 16.7781 17.2042 16.7042 17.2609C16.6303 17.3176 16.573 17.3931 16.5382 17.4794C16.3036 17.8523 15.9655 18.1488 15.5651 18.3326C15.342 18.4319 15.2838 18.4769 15.3551 18.5201C15.4336 18.5499 15.5203 18.5499 15.5988 18.5201C15.8163 18.4413 15.8163 18.4413 15.8163 18.5988C15.8163 18.8219 15.342 19.6563 15.0532 19.9526C14.712 20.2863 14.397 20.4569 13.767 20.6219C13.077 20.8038 12.6101 20.8432 12.3157 20.7326ZM12.1282 19.8457C12.2201 19.5438 12.2801 19.4913 12.6907 19.3338C12.8386 19.2694 12.9982 19.2361 13.1595 19.2361C13.3208 19.2361 13.4803 19.2694 13.6282 19.3338C13.872 19.4126 13.7407 19.2026 13.4707 19.0769C13.2288 18.9588 12.9082 18.9794 12.387 19.1238C12.2581 19.1466 12.1403 19.211 12.0515 19.3072C11.9628 19.4034 11.9081 19.526 11.8957 19.6563C11.8226 20.1251 12.0007 20.2582 12.1245 19.8457H12.1282ZM12.0251 18.7544C12.2482 18.6626 12.2876 18.6626 12.4713 18.7544C12.7413 18.8857 12.8782 18.8801 13.2926 18.7226C13.4653 18.6451 13.6557 18.6153 13.8438 18.6363C14.0313 18.6701 14.0407 18.6626 14.0313 18.5182C14.0182 18.4207 13.9713 18.3682 13.9132 18.3813C13.8551 18.3944 13.6376 18.4338 13.4201 18.4657C13.26 18.4891 13.1037 18.5332 12.9551 18.5969C12.8951 18.6438 12.7901 18.6232 12.6063 18.5313C12.2913 18.3682 12.2126 18.3607 11.9688 18.4919C11.8664 18.5446 11.7552 18.5783 11.6407 18.5913C11.4626 18.5913 11.3051 18.7619 11.4307 18.8069C11.6282 18.8669 11.8412 18.8481 12.0251 18.7544ZM12.9851 18.3288C13.1036 18.2307 13.2017 18.1103 13.2738 17.9744C13.3399 17.8357 13.4448 17.7192 13.5757 17.6388C13.647 17.6126 13.6938 17.5657 13.6732 17.5338C13.5888 17.4026 13.3582 17.4869 13.1107 17.7363C13.0188 17.8389 12.9127 17.9279 12.7957 18.0007C12.6438 18.0007 12.5595 17.7569 12.5595 17.2844C12.5712 17.0278 12.5264 16.7718 12.4282 16.5344C12.3101 16.2851 12.3101 16.2851 12.447 16.1407C12.59 15.9742 12.6852 15.772 12.7226 15.5557C12.7226 15.4319 12.552 15.5032 12.4282 15.6944C12.2407 15.9701 12.0795 16.0019 11.3895 15.9101C11.0557 15.8707 10.6226 15.8313 10.4182 15.8313C10.0957 15.8313 10.0432 15.8444 9.85571 16.0188L9.66821 16.2232L10.062 16.1763C10.4632 16.1369 11.7832 16.2888 12.0063 16.4126C12.1245 16.4726 12.222 16.7294 12.2951 17.1363C12.3164 17.2131 12.3159 17.2942 12.2937 17.3707C12.2715 17.4472 12.2285 17.516 12.1695 17.5694C11.9726 17.7982 11.9538 17.9182 12.1038 17.9182C12.2405 17.9655 12.3643 18.0438 12.4657 18.1469C12.7488 18.4132 12.8013 18.4263 12.9926 18.3288H12.9851ZM8.74196 16.7332C8.66103 16.6347 8.59299 16.5263 8.53946 16.4107C8.45321 16.2063 8.36134 16.1744 8.30321 16.3244C8.24509 16.4744 8.32946 16.6338 8.58446 16.8644C8.77196 17.0219 8.82821 17.0519 8.84134 16.9694C8.84116 16.9254 8.83228 16.8819 8.81523 16.8414C8.79818 16.8008 8.77328 16.7641 8.74196 16.7332ZM15.6982 16.7519L16.0451 16.4238L15.6832 16.5888C15.2051 16.8044 14.5357 16.8176 14.3182 16.6207C14.2613 16.5719 14.2126 16.5143 14.1738 16.4501C14.2813 16.435 14.3905 16.4395 14.4963 16.4632C14.7739 16.4913 15.0542 16.4554 15.3157 16.3582C15.5036 16.3103 15.6849 16.2398 15.8557 16.1482C15.8745 16.1144 15.6438 16.1088 15.3101 16.1351C14.7436 16.1683 14.1752 16.1196 13.6226 15.9907C13.5051 15.9035 13.4142 15.7854 13.3601 15.6494L13.2232 15.3401L13.197 15.5969C13.1707 15.9176 13.3207 16.1482 13.6957 16.3244C13.8457 16.3976 13.9638 16.5119 13.9713 16.5626C13.9713 16.7126 14.082 16.7913 14.4963 16.9376C15.1263 17.1532 15.297 17.1251 15.6982 16.7501V16.7519ZM11.2901 16.8832C11.4397 16.8131 11.6001 16.7687 11.7645 16.7519C11.9351 16.7519 12.0195 16.6282 11.862 16.6151C11.2372 16.5803 10.6109 16.5865 9.98696 16.6338C9.78446 16.7069 9.87634 16.8382 10.092 16.7913C10.2234 16.7694 10.3583 16.8004 10.467 16.8776C10.7126 17.0407 10.9432 17.0482 11.2901 16.8832ZM5.55071 11.3126L3.86321 11.0763V10.8888C3.88142 10.441 3.93407 9.99536 4.02071 9.55568C4.36101 9.6073 4.69695 9.68439 5.02571 9.78631C5.55821 9.93068 6.43196 10.1613 6.97009 10.2907C7.72009 10.4876 7.93571 10.5663 7.93571 10.6526C7.90651 10.8274 7.86004 10.9988 7.79696 11.1644C7.62634 11.6501 7.84946 11.6294 5.55071 11.3126ZM4.75009 10.7107C4.84946 10.5982 4.86259 10.5326 4.81009 10.3357C4.75759 10.1388 4.72384 10.0919 4.54571 10.0732C4.30384 10.0469 4.17071 10.1838 4.17071 10.4482C4.17259 10.8213 4.51384 10.9732 4.75009 10.7107ZM17.1495 10.1651C16.9188 9.75818 16.8326 9.54818 16.8851 9.52193C17.0426 9.43756 21.0813 8.27506 21.1151 8.31256C21.1282 8.53601 21.1194 8.7602 21.0888 8.98193L21.0363 9.61193L19.362 10.1876C18.4413 10.5063 17.6501 10.7688 17.5882 10.7688C17.5263 10.7688 17.3463 10.5138 17.1495 10.1651ZM20.8845 9.08881C21.1338 8.86568 20.9445 8.52631 20.6426 8.66131C20.6014 8.68082 20.5654 8.70981 20.5375 8.74591C20.5097 8.78201 20.4908 8.82419 20.4823 8.86901C20.4739 8.91382 20.4763 8.95999 20.4891 9.00373C20.502 9.04748 20.525 9.08755 20.5563 9.12068C20.6613 9.22568 20.7401 9.22006 20.8845 9.08881ZM5.63696 9.66631C4.94696 9.48818 4.94696 9.47881 4.96759 9.29131C5.00165 9.11797 5.05446 8.94885 5.12509 8.78693L5.26196 8.46443L5.01259 7.95818C4.91039 7.77563 4.83523 7.57921 4.78946 7.37506C4.83634 7.25693 7.29071 5.75318 7.60196 5.66693C7.75033 5.62794 7.88602 5.55105 7.99571 5.44381C8.21071 5.27616 8.4464 5.13689 8.69696 5.02943C9.02696 4.87193 9.39446 4.67506 9.53134 4.59631C9.63125 4.52637 9.75064 4.48964 9.87259 4.49131C10.077 4.57006 9.99071 4.84568 9.62321 5.24131C9.14514 5.80377 8.729 6.41604 8.38196 7.06756C8.18273 7.44823 7.87723 7.76285 7.50259 7.97318C7.42459 8.01048 7.35587 8.06466 7.30139 8.13178C7.24691 8.19891 7.20804 8.27731 7.18759 8.36131C7.15209 8.50642 7.09656 8.64589 7.02259 8.77568C6.9174 8.97997 6.83442 9.19495 6.77509 9.41693C6.63446 9.94193 6.66821 9.93631 5.63696 9.66631ZM17.9238 8.71381C17.8418 8.54388 17.7716 8.36846 17.7138 8.18881C17.6145 7.89256 17.5263 7.72193 17.4382 7.70318C17.3501 7.68443 17.2507 7.55881 17.1945 7.42006C17.0763 7.19693 17.0295 7.16506 16.6882 7.09943C16.1818 6.99718 15.7069 6.77611 15.3026 6.45443C14.9902 6.21212 14.6185 6.05802 14.2263 6.00818C13.6226 5.88443 13.4651 5.77193 13.6751 5.62193C13.8195 5.51693 15.1395 5.37068 15.447 5.42318C15.657 5.46256 15.7376 5.43631 16.0657 5.22068C16.3938 5.00506 16.4201 4.96381 16.2888 4.94506C16.1248 4.94796 15.9624 4.97904 15.8088 5.03693L15.4807 5.15506L15.1263 4.76131C14.8059 4.41965 14.4679 4.09484 14.1138 3.78818C13.6938 3.42818 13.452 3.17131 13.452 3.08693C13.452 2.96881 13.4651 2.96881 13.6751 3.05318C13.8975 3.16393 14.1123 3.2892 14.3182 3.42818C14.9163 3.83506 15.8951 4.40693 15.9926 4.40693C16.0125 4.40825 16.0321 4.40233 16.048 4.39027C16.0639 4.37821 16.0748 4.36082 16.0788 4.34131C16.0788 4.26256 15.2051 3.27068 14.4232 2.46631C14.2214 2.27872 14.0489 2.06194 13.9113 1.82318C13.9113 1.68443 14.127 1.68443 14.3576 1.82318C14.6857 2.03318 16.3076 3.26881 16.3995 3.37381C16.4913 3.47881 16.6695 3.52381 16.6695 3.43193C16.6695 3.26881 15.2707 2.09318 14.7063 1.77818C14.3576 1.58131 14.2395 1.42381 14.352 1.31131C14.4645 1.19881 16.1838 2.11943 16.7895 2.66318C17.0388 2.88818 17.1513 3.15631 16.9938 3.15631C16.9769 3.1576 16.9609 3.16493 16.9489 3.17697C16.9368 3.18901 16.9295 3.20496 16.9282 3.22193C16.9282 3.26131 17.0388 3.28756 17.1851 3.28756C17.305 3.2762 17.4247 3.31183 17.5188 3.38693C17.6707 3.56318 17.7288 3.38693 17.6445 3.05131C17.5535 2.74319 17.4427 2.4413 17.3126 2.14756C17.0501 1.53068 17.0107 1.31881 17.1495 1.31881C17.2882 1.31881 17.4438 1.47818 17.8188 2.10818C18.2663 2.82489 18.605 3.60399 18.8238 4.42006C18.9813 5.05568 19.0113 5.92006 18.9082 6.26506C18.8752 6.34394 18.8629 6.42995 18.8724 6.51493C18.8819 6.59991 18.913 6.68105 18.9626 6.75068C19.1501 7.12568 19.5926 8.27506 19.5588 8.30131C19.5251 8.32756 19.1838 8.43256 18.7582 8.55631C18.2126 8.71381 17.9632 8.76631 17.9238 8.71381ZM4.19134 5.93693C3.36446 3.34193 3.46384 2.91631 4.44071 4.83256C4.79696 5.52256 5.00321 5.86381 5.05946 5.81131C5.08571 5.79256 5.05946 5.64068 4.99384 5.47568C4.88134 5.18131 4.88134 5.18131 5.07259 4.84568C5.50571 4.06381 5.91259 3.48631 6.03071 3.48631C6.14467 3.52264 6.24095 3.6002 6.30071 3.70381C6.53166 3.98743 6.77698 4.25904 7.03571 4.51756C7.35634 4.85318 7.59821 5.16068 7.59821 5.20006C7.58109 5.23202 7.55763 5.26014 7.52926 5.28271C7.50088 5.30528 7.4682 5.32182 7.43321 5.33131C7.26259 5.39131 6.91384 5.22068 6.48071 4.85881C6.37368 4.7627 6.2575 4.67729 6.13384 4.60381C6.06071 4.60381 5.90321 5.05568 5.94634 5.15506C6.00446 5.29943 6.11134 5.28631 6.15071 5.12881C6.16946 5.05568 6.19571 4.99756 6.21634 4.99756C6.31384 4.99756 7.02259 5.54318 6.97759 5.58256C6.93259 5.62193 5.23759 6.58568 4.57946 6.94756C4.41738 6.62417 4.28739 6.28568 4.19134 5.93693ZM7.56071 4.80068C7.44783 4.69079 7.35236 4.56434 7.27759 4.42568C7.27759 4.33381 7.65259 4.01693 7.77071 4.01693C7.88884 4.01693 8.14571 4.70131 8.11946 4.85881C8.0895 4.9326 8.03614 4.99452 7.96759 5.03506C7.84946 5.10818 7.81009 5.08943 7.56071 4.80068ZM6.81821 3.91943C6.7536 3.83905 6.7029 3.74843 6.66821 3.65131C6.80971 3.55735 6.96458 3.48528 7.12759 3.43756C7.36946 3.33818 7.81759 3.12818 8.11196 2.97068C8.95946 2.52443 8.94634 2.74756 8.08571 3.49006C7.54759 3.94943 7.23259 4.15381 7.06759 4.15381C7.02259 4.14443 6.91009 4.04506 6.81821 3.91943Z" fill="#96918A"/>
<path d="M10.6153 22.1968C10.529 22.1499 10.4971 22.0449 10.4896 21.8218C10.4913 21.6732 10.4737 21.5251 10.4371 21.3811C10.3978 21.2893 10.4371 21.1936 10.5553 21.0399C10.6863 20.8826 10.7532 20.6818 10.7428 20.4774C10.7446 20.2859 10.7775 20.0959 10.8403 19.9149L10.9396 19.6918L11.1815 20.0668C11.373 20.4018 11.6686 20.6651 12.0234 20.8168C12.3253 20.9555 12.3515 21.0343 12.089 21.0343C11.7928 21.0343 11.2284 21.1786 11.2678 21.2443C11.5105 21.2861 11.7581 21.2924 12.0028 21.263C12.5653 21.2368 12.6721 21.2443 12.5409 21.3024C11.5828 21.743 11.1684 21.9586 11.0109 22.1105C10.799 22.2886 10.7784 22.2943 10.6153 22.1968ZM15.2896 21.7749C15.0399 21.6619 14.7839 21.5637 14.5228 21.4805C14.1346 21.3493 13.9115 21.2368 13.9115 21.1786C13.9115 21.1205 13.9115 21.0868 13.9303 21.0868C13.949 21.0868 14.279 21.1786 14.6934 21.2836C14.9469 21.3654 15.2083 21.4201 15.4734 21.4468C15.539 21.3811 15.4153 21.2105 15.2446 21.1449C15.0471 21.0825 14.8453 21.0343 14.6409 21.0005L14.219 20.9349L14.594 20.7474C14.8383 20.6272 15.0504 20.4504 15.2128 20.2318C15.2945 20.1109 15.3937 20.0029 15.5071 19.9111C15.6016 20.0482 15.6749 20.1986 15.7246 20.3574C15.869 20.7324 15.8821 20.843 15.824 20.9611C15.7717 21.0855 15.758 21.2227 15.7846 21.3549C15.8165 21.5593 15.7978 21.638 15.6909 21.743C15.5259 21.9005 15.5071 21.9005 15.2896 21.7749ZM13.0378 21.1711C12.9253 21.0661 13.019 21.0211 13.3528 21.0211C13.6284 21.0211 13.7146 21.0399 13.7146 21.1186C13.7146 21.1974 13.6359 21.218 13.3996 21.218C13.2771 21.228 13.1537 21.212 13.0378 21.1711Z" fill="#BFBEBE"/>
<path d="M11.967 20.5599C11.7357 20.4412 11.5475 20.253 11.4288 20.0218C11.0698 19.4399 10.5934 18.9393 10.0301 18.5518C9.74989 18.3772 9.50863 18.1468 9.32133 17.875C9.16945 17.6331 9.07758 17.5468 8.95945 17.5468C8.7157 17.5468 8.48695 17.3181 8.23758 16.8118C8.14193 16.6404 8.06282 16.4602 8.00133 16.2737C8.00133 16.135 8.3482 15.8537 8.7232 15.6831C9.18258 15.4731 9.52383 15.4074 10.6282 15.3081C11.6726 15.2293 12.0007 15.1506 12.6626 14.8206L13.1501 14.5787L12.7938 14.9068C12.4732 15.1956 12.4526 15.235 12.5876 15.25C13.0601 15.25 13.7238 14.8225 13.9657 14.3425L14.0876 14.0987L14.1926 14.2862C14.5095 14.8975 16.2026 16.0206 16.8007 16.0206C16.9003 16.034 16.9927 16.0802 17.0632 16.1518C17.1888 16.2756 17.1888 16.2962 17.097 16.4799C16.9845 16.6974 16.9713 16.8081 17.0557 16.8081C17.1401 16.8081 17.3913 16.3881 17.3913 16.2231C17.3913 16.1312 17.4307 16.0862 17.5226 16.0862C17.6801 16.0862 17.6876 16.2043 17.5488 16.5324C17.4101 16.8606 17.142 17.1362 16.9188 17.1362C16.7745 17.1362 16.7013 17.1962 16.5645 17.4193C16.3562 17.7883 16.0393 18.0843 15.657 18.2668C15.3888 18.4037 15.297 18.4768 15.3551 18.5162C15.3937 18.5324 15.4351 18.5407 15.477 18.5407C15.5188 18.5407 15.5602 18.5324 15.5988 18.5162C15.8088 18.4374 15.8163 18.4374 15.8163 18.5818C15.8163 18.7993 15.3551 19.6262 15.0663 19.9224C14.5732 20.4212 13.6601 20.7568 12.7545 20.7568C12.4773 20.7816 12.1999 20.7123 11.967 20.5599ZM12.1376 19.825C12.2688 19.45 12.6626 19.2343 13.1895 19.2625C13.3509 19.2752 13.5109 19.3022 13.6676 19.3431C13.8551 19.4275 13.7932 19.2493 13.5701 19.1124C13.3076 18.9549 13.0245 18.9474 12.5182 19.0862C12.0588 19.2174 11.8751 19.4143 11.8751 19.7687C11.8751 20.1924 12.0063 20.2187 12.1376 19.825ZM12.0251 18.7543C12.2482 18.6625 12.2876 18.6625 12.4713 18.7543C12.5862 18.8175 12.7152 18.8506 12.8463 18.8506C12.9774 18.8506 13.1064 18.8175 13.2213 18.7543C13.3936 18.6894 13.5755 18.6539 13.7595 18.6493C14.0145 18.6493 14.0407 18.6493 14.022 18.5106C14.0088 18.4262 13.962 18.3737 13.9038 18.3925C13.8457 18.4112 13.6863 18.4262 13.542 18.445C13.3714 18.4641 13.2027 18.4974 13.0376 18.5443C12.9641 18.5717 12.8854 18.5818 12.8074 18.574C12.7294 18.5662 12.6542 18.5407 12.5876 18.4993C12.3045 18.3681 12.1938 18.3681 11.9501 18.4993C11.8675 18.5498 11.771 18.5728 11.6745 18.565C11.5638 18.5256 11.3332 18.7037 11.3913 18.7881C11.4495 18.8725 11.7663 18.8743 12.042 18.7618L12.0251 18.7543ZM13.2476 18.0399C13.354 17.8838 13.48 17.7421 13.6226 17.6181C13.707 17.5656 13.7145 17.5525 13.6226 17.4812C13.497 17.3762 13.3338 17.4606 13.1032 17.7362C12.9157 17.9406 12.7095 17.9931 12.6176 17.8543C12.5749 17.6649 12.5573 17.4708 12.5651 17.2768C12.5738 17.0283 12.531 16.7806 12.4395 16.5493C12.3213 16.3112 12.3213 16.3112 12.4863 16.135C12.6513 15.9587 12.7751 15.625 12.6888 15.4975C12.6626 15.4525 12.5576 15.5237 12.4076 15.7075L12.1638 15.9831L11.3763 15.9118C10.9488 15.8649 10.4895 15.8256 10.3582 15.82C10.2316 15.8206 10.1071 15.8527 9.99582 15.9132C9.88458 15.9737 9.79006 16.0609 9.7207 16.1668C9.66258 16.2587 9.69445 16.2662 9.9907 16.2137C10.2019 16.1834 10.416 16.179 10.6282 16.2006C11.0757 16.2454 11.5207 16.313 11.9613 16.4031C12.2557 16.4818 12.387 17.4156 12.1376 17.6387C11.9876 17.7756 11.967 17.9349 12.0982 17.9349C12.2295 17.9853 12.3485 18.0633 12.447 18.1637C12.8013 18.4862 12.9326 18.4656 13.2551 18.0399H13.2476ZM8.87508 16.9618C8.82964 16.8672 8.77893 16.7752 8.7232 16.6862C8.65985 16.5913 8.60286 16.4924 8.55258 16.39C8.4532 16.2137 8.3032 16.2268 8.27695 16.4031C8.26383 16.5081 8.34258 16.6412 8.53945 16.8381C8.82258 17.125 8.94633 17.1718 8.87508 16.9618ZM15.6645 16.7312C16.1182 16.3356 16.137 16.2118 15.6982 16.4874C15.4838 16.6022 15.2439 16.6609 15.0007 16.6581C14.5751 16.6843 14.5095 16.6712 14.3445 16.5324L14.157 16.375H14.6051C14.8851 16.3717 15.1633 16.33 15.432 16.2512C15.9945 16.0637 15.9832 15.9887 15.3982 16.0412C14.8863 16.0862 13.7632 15.9812 13.5532 15.8706C13.4763 15.8088 13.4238 15.7218 13.4051 15.625C13.3882 15.5257 13.3455 15.4326 13.2813 15.3549C13.2026 15.2968 13.1895 15.3287 13.1895 15.5725C13.1895 15.9193 13.3657 16.15 13.7407 16.3075C13.8907 16.3731 13.977 16.4518 13.977 16.5306C13.977 16.6562 14.0745 16.7181 14.5676 16.8925C15.0607 17.0668 15.3101 17.0331 15.6645 16.7312ZM11.2057 16.9187C11.3533 16.8563 11.5074 16.8104 11.6651 16.7818C11.817 16.7556 11.9407 16.7087 11.9407 16.6768C11.9407 16.5981 11.9745 16.6037 10.9882 16.5906C10.1351 16.5775 9.79383 16.6243 9.87258 16.7481C9.95916 16.8007 10.0605 16.8237 10.1613 16.8137C10.2928 16.8143 10.4218 16.8485 10.5363 16.9131C10.6373 16.9731 10.7523 17.0055 10.8698 17.0072C10.9872 17.0088 11.1031 16.9796 11.2057 16.9224V16.9187ZM6.77508 11.4718C6.48633 11.4268 5.71008 11.3218 5.05383 11.2356L3.85195 11.0781V10.9131C3.88368 10.4531 3.93875 9.99499 4.01695 9.54058C4.01695 9.54058 4.46883 9.63995 5.00883 9.78433L6.96258 10.2906C7.52508 10.435 7.9282 10.5718 7.9282 10.6187C7.89587 10.7921 7.85202 10.9631 7.79695 11.1306C7.63945 11.6237 7.69195 11.6106 6.77508 11.4718ZM4.72758 10.7218C4.96945 10.4987 4.83258 10.0468 4.5157 10.0468C4.19883 10.0468 4.03008 10.4537 4.26633 10.7556C4.33275 10.8109 4.41769 10.839 4.504 10.8341C4.59031 10.8292 4.67156 10.7918 4.73133 10.7293L4.72758 10.7218ZM17.4307 10.6318C17.3857 10.5456 17.2207 10.2775 17.0763 10.0206C16.8401 9.6212 16.827 9.5537 16.9188 9.5087C17.1288 9.41683 21.0888 8.28058 21.1151 8.30683C21.1284 8.52387 21.1215 8.74169 21.0945 8.95745C21.0626 9.4487 21.0288 9.59308 20.9445 9.62683C20.6613 9.74495 17.6276 10.7762 17.5826 10.7762C17.5376 10.7762 17.4832 10.7106 17.4307 10.6318ZM20.9051 9.09433C20.9355 9.06391 20.9587 9.02709 20.9731 8.98656C20.9874 8.94602 20.9925 8.90279 20.988 8.86003C20.9835 8.81726 20.9695 8.77604 20.9471 8.73937C20.9246 8.7027 20.8943 8.67151 20.8582 8.64808C20.6163 8.49808 20.3595 8.8787 20.5432 9.10745C20.6501 9.22558 20.7738 9.22558 20.9051 9.09433ZM5.89945 9.7187C5.62945 9.64745 5.30133 9.5612 5.16445 9.5312L4.9282 9.4712L5.01258 9.1562C5.05945 8.98558 5.1382 8.75683 5.17758 8.65183C5.24883 8.4737 5.2357 8.40808 5.02008 7.98058C4.92289 7.80137 4.84375 7.61294 4.78383 7.41808C4.78383 7.30558 7.16695 5.82808 7.62633 5.65745C7.77725 5.61532 7.9152 5.53603 8.02758 5.42683C8.04633 5.3687 8.36883 5.18495 8.73633 5.00683C9.02734 4.87305 9.31145 4.72474 9.58758 4.56245C9.7582 4.45183 9.77508 4.45183 9.88383 4.56245C10.0282 4.7012 10.0076 4.73308 9.37758 5.51495C9.09963 5.8745 8.84894 6.2543 8.62758 6.6512C8.24133 7.36745 7.9132 7.7537 7.51945 7.9637C7.28133 8.08933 7.2157 8.1512 7.18383 8.35183C7.15389 8.49015 7.10266 8.62298 7.03195 8.74558C6.93338 8.9463 6.85245 9.15521 6.79008 9.36995C6.62133 9.90245 6.6157 9.90245 5.89945 9.7187ZM17.8245 8.46433C17.7663 8.30683 17.6801 8.06308 17.637 7.9187C17.5938 7.77433 17.4982 7.65058 17.4138 7.63745C17.3602 7.61455 17.3117 7.5812 17.2712 7.53935C17.2306 7.4975 17.1988 7.44798 17.1776 7.3937C17.0782 7.1912 17.0313 7.16495 16.572 7.06558C16.1602 6.96915 15.7732 6.78778 15.4357 6.53308C14.9107 6.19183 14.7082 6.09995 14.3107 6.01558C14.0407 5.95558 13.7651 5.89745 13.707 5.87683C13.5363 5.82433 13.5626 5.6612 13.752 5.58808C14.3148 5.46673 14.8902 5.41384 15.4657 5.43058C15.6363 5.46245 15.7563 5.43058 16.0451 5.25245C16.1844 5.18186 16.3111 5.08873 16.4201 4.97683C16.4201 4.89808 15.9795 4.95808 15.717 5.0687L15.507 5.15495L15.087 4.69558C14.7618 4.35403 14.4195 4.02923 14.0613 3.72245C13.8356 3.54972 13.635 3.34654 13.4651 3.1187C13.4651 2.9612 13.6807 3.0212 14.0557 3.27058C14.2432 3.40183 14.7513 3.70933 15.1657 3.9587C16.2288 4.59058 16.3338 4.56433 15.6907 3.81433C15.4732 3.55933 14.982 3.02683 14.607 2.63308C13.9113 1.9037 13.7988 1.71433 14.0745 1.71433C14.2132 1.71433 16.3413 3.23683 16.4463 3.41495C16.5045 3.50683 16.6826 3.50683 16.6826 3.41495C16.6826 3.25183 15.3157 2.10245 14.6932 1.74808C14.3576 1.56058 14.2582 1.41245 14.3707 1.29995C14.4832 1.18745 16.4388 2.2787 16.9001 2.7587C17.0651 2.93495 17.0876 2.98183 17.0126 3.09245C16.9001 3.27995 16.9076 3.28933 17.1513 3.28933C17.2786 3.29155 17.4029 3.32781 17.5113 3.39433C17.5976 3.45433 17.682 3.4862 17.6988 3.46745C17.7645 3.39433 17.5807 2.71745 17.3238 2.12683C17.0407 1.47808 17.0088 1.3187 17.1476 1.3187C17.2863 1.3187 17.4288 1.47808 17.8226 2.13995C18.265 2.83482 18.5976 3.59373 18.8088 4.38995C18.972 5.03308 18.9795 5.24308 18.8932 6.45245C18.9649 6.79016 19.075 7.11854 19.2213 7.4312C19.3536 7.7047 19.4506 7.99389 19.5101 8.29183C19.0277 8.48021 18.5311 8.63005 18.0251 8.73995C17.9688 8.73995 17.8845 8.62183 17.8245 8.46433ZM4.5007 6.85558C4.43508 6.75058 3.79758 4.61683 3.70008 4.1837C3.57445 3.65683 3.64008 3.49933 3.85758 3.8087C3.92883 3.9137 4.20445 4.4012 4.46133 4.87933C4.7182 5.35745 4.95445 5.78683 4.98633 5.81683C5.09883 5.94245 5.11758 5.79808 5.02008 5.56183C4.96772 5.4489 4.93234 5.32885 4.91508 5.20558C5.20927 4.62014 5.54448 4.05623 5.9182 3.51808C6.00445 3.43933 6.22758 3.58933 6.3982 3.8462C6.61052 4.12585 6.84571 4.38737 7.10133 4.62808C7.38258 4.9037 7.60758 5.17183 7.59445 5.2187C7.5082 5.4737 6.94383 5.28433 6.41133 4.81183C6.09633 4.54183 6.09633 4.54183 6.03633 4.6937C5.9182 5.01433 5.90508 5.1062 5.95758 5.19808C6.01008 5.28995 6.16195 5.23745 6.16195 5.10058C6.16195 5.04808 6.17508 5.0087 6.1957 5.0087C6.46406 5.16391 6.71543 5.34678 6.9457 5.55433C6.95883 5.61245 4.6957 6.9137 4.58695 6.9137C4.56872 6.91252 4.55112 6.90652 4.53596 6.89631C4.52081 6.8861 4.50864 6.87204 4.5007 6.85558ZM7.54758 4.7612C7.44276 4.65237 7.35205 4.53079 7.27758 4.39933C7.41233 4.23078 7.58608 4.09757 7.78383 4.0112C7.89633 4.0112 8.15883 4.8062 8.0857 4.92433C7.96758 5.12495 7.8232 5.0687 7.54758 4.7612ZM6.83133 3.91933C6.74695 3.79558 6.69445 3.66433 6.7132 3.63058C6.81952 3.55394 6.9372 3.49447 7.06195 3.45433C7.23258 3.3887 7.66008 3.19183 7.99945 3.0212C8.21646 2.90145 8.43993 2.79378 8.66883 2.6987C9.00445 2.6987 7.59258 3.99808 7.1332 4.11058C7.01508 4.13683 6.96258 4.10308 6.83133 3.91933Z" fill="#BFBEBE"/>
<path d="M10.6544 22.2156C10.5831 22.116 10.5438 21.9969 10.5419 21.8744C10.5249 21.7155 10.4986 21.5577 10.4632 21.4019C10.4238 21.2575 10.4632 21.1787 10.5944 21.0081C10.6518 20.9584 10.6948 20.8944 10.7192 20.8225C10.7436 20.7507 10.7484 20.6737 10.7332 20.5994C10.7167 20.4217 10.7391 20.2425 10.7988 20.0744L10.9094 19.7462L11.0482 19.9337C11.4344 20.4381 11.6519 20.6425 11.9482 20.7944L12.2763 20.9519L12.0588 20.9969C10.9957 21.2012 10.9694 21.3194 11.9932 21.2669C12.6363 21.2275 12.6757 21.2331 12.4657 21.3194C11.8169 21.5744 11.2244 21.8819 11.0276 22.0694C10.7988 22.2925 10.7651 22.3056 10.6526 22.2269L10.6544 22.2156ZM15.2238 21.73C14.9757 21.6184 14.7216 21.5208 14.4626 21.4375C14.1588 21.34 13.9169 21.2219 13.9169 21.1825C13.9169 21.0906 14.4626 21.1956 15.1188 21.4187C15.4788 21.5369 15.4938 21.5369 15.4938 21.4187C15.4938 21.2312 15.3232 21.1375 14.7851 21.0194L14.2788 20.9069L14.5957 20.7569C14.8278 20.6263 15.0363 20.4577 15.2126 20.2581L15.5144 19.9112L15.6588 20.2712C15.7835 20.5491 15.8252 20.8571 15.7788 21.1581C15.7786 21.3546 15.7585 21.5506 15.7188 21.7431C15.6513 21.8537 15.4413 21.8481 15.2238 21.73ZM13.1032 21.1787C12.9926 21.0606 13.0769 21.0137 13.3732 21.0344C13.5438 21.0475 13.6807 21.0869 13.6807 21.1187C13.6807 21.1975 13.1763 21.25 13.1032 21.1787ZM12.1057 20.62C11.8036 20.483 11.5575 20.2468 11.4082 19.9506C11.0406 19.4126 10.5855 18.9398 10.0619 18.5519C9.72511 18.343 9.44547 18.0537 9.2482 17.71C9.20882 17.5994 9.12445 17.5469 8.92757 17.5131C8.63695 17.4681 8.53195 17.3556 8.23757 16.7725C8.00132 16.3056 8.01445 16.1406 8.2957 15.925C8.80715 15.6114 9.38524 15.4225 9.9832 15.3737C11.0594 15.3737 12.0907 15.1637 12.7207 14.8112L13.0169 14.6462L12.6944 14.9425C12.5069 15.1 12.3794 15.2444 12.4001 15.265C12.5192 15.2715 12.6387 15.2601 12.7544 15.2312C13.2097 15.143 13.6127 14.8806 13.8776 14.5L14.0876 14.2037L14.3313 14.5187C14.7719 15.0906 16.0844 15.9306 16.6694 16.0187C17.0444 16.0712 17.1626 16.2287 17.0632 16.5325C16.9113 16.9975 17.1682 16.8794 17.3726 16.3937C17.4832 16.1181 17.6538 16 17.6538 16.2062C17.6538 16.555 17.2019 17.1644 16.9451 17.1644C16.6882 17.1644 16.6619 17.2112 16.4519 17.5712C16.231 17.9253 15.9024 18.1993 15.5144 18.3531C15.3963 18.3925 15.2969 18.4525 15.2969 18.4844C15.2969 18.5894 15.4619 18.6156 15.6457 18.55C15.8819 18.4581 15.8763 18.5369 15.5932 19.1125C15.1657 19.9994 14.5751 20.4512 13.5438 20.6687C12.8932 20.8075 12.4188 20.7944 12.1132 20.6294L12.1057 20.62ZM12.1376 19.8325C12.2032 19.6019 12.2557 19.5437 12.5519 19.405C12.6963 19.3232 12.8566 19.2734 13.0219 19.2589C13.1871 19.2443 13.3536 19.2654 13.5101 19.3206C13.7801 19.4181 13.8457 19.3469 13.6619 19.1612C13.5363 19.0431 13.4388 19.0169 13.0713 19.0169C12.5707 19.0169 12.0401 19.1875 11.9351 19.3919C11.8513 19.6193 11.8421 19.8676 11.9088 20.1006C11.9801 20.2131 12.0663 20.1137 12.1376 19.8325ZM13.1501 18.7881C13.3533 18.7165 13.5652 18.6724 13.7801 18.6569C14.0632 18.6569 14.1551 18.5575 14.0238 18.4206C13.9582 18.3475 13.8794 18.3419 13.7088 18.3944C13.5653 18.4349 13.4173 18.4569 13.2682 18.46C13.18 18.4529 13.0921 18.4761 13.0188 18.5256C12.9607 18.6231 12.7357 18.6044 12.5594 18.4862C12.3832 18.3681 12.3719 18.3812 11.7513 18.5125C11.4101 18.5837 11.2844 18.6887 11.3894 18.7937C11.4626 18.8669 11.6932 18.8537 12.1713 18.7544C12.3055 18.7244 12.4459 18.7458 12.5651 18.8144C12.6294 18.846 12.692 18.8811 12.7526 18.9194L13.1407 18.7881H13.1501ZM13.1313 18.19C13.2157 18.0794 13.3807 17.8806 13.4913 17.7569C13.6019 17.6331 13.6882 17.5 13.6788 17.4681C13.6057 17.35 13.4482 17.4156 13.1669 17.6706C12.8501 17.9612 12.7919 17.98 12.6476 17.8356C12.5744 17.7625 12.5557 17.6481 12.5819 17.3556C12.6191 17.1184 12.5825 16.8756 12.4769 16.66L12.3382 16.345L12.5032 16.1575C12.6663 15.97 12.7844 15.5406 12.6907 15.4562C12.6701 15.43 12.5332 15.5406 12.4019 15.6981L12.1526 15.9869L11.4363 15.9081C11.0426 15.8687 10.5888 15.8162 10.4257 15.7975C10.3287 15.7738 10.227 15.7772 10.1318 15.8072C10.0366 15.8373 9.95147 15.893 9.8857 15.9681C9.78985 16.0375 9.70567 16.1216 9.63632 16.2175C9.80191 16.2581 9.97368 16.267 10.1426 16.2437C10.6751 16.21 11.7513 16.3356 11.9557 16.4312C12.1188 16.5175 12.2632 16.8775 12.2632 17.2131C12.2717 17.3888 12.2104 17.5607 12.0926 17.6912C11.9294 17.8787 11.9219 17.8956 12.0401 17.9219C12.1779 17.9815 12.3046 18.0639 12.4151 18.1656C12.7282 18.4525 12.9326 18.46 13.1369 18.19H13.1313ZM8.92007 17.0537C8.8971 16.9595 8.85212 16.8722 8.78882 16.7987C8.69987 16.6853 8.62903 16.5588 8.57882 16.4237C8.50007 16.1875 8.30882 16.1875 8.27507 16.4106C8.26195 16.5156 8.3407 16.6469 8.53757 16.8437C8.83757 17.1531 8.92007 17.1981 8.92007 17.0537ZM11.4157 16.8437C11.4682 16.8437 11.6257 16.8044 11.7644 16.7856C11.9519 16.7519 12.0007 16.7256 11.9519 16.66C11.8619 16.5625 10.1501 16.5362 9.96257 16.6337C9.77507 16.7312 9.83132 16.8212 10.0938 16.8212C10.2678 16.8313 10.4379 16.8759 10.5944 16.9525C10.8307 17.0706 10.8626 17.0706 11.0857 16.9787C11.1931 16.9276 11.3032 16.8825 11.4157 16.8437ZM15.7282 16.7725C16.1276 16.4294 16.1032 16.3375 15.6682 16.5625C15.2801 16.75 14.6182 16.8044 14.3951 16.66C14.1719 16.5156 14.1907 16.4556 14.5582 16.4725C14.8807 16.4987 15.8707 16.255 15.8707 16.1575C15.5303 16.0978 15.1849 16.0714 14.8394 16.0787C14.4405 16.0893 14.0416 16.054 13.6507 15.9737C13.5395 15.8879 13.4497 15.7775 13.3882 15.6512C13.2494 15.3569 13.1388 15.37 13.1576 15.6775C13.162 15.8249 13.2107 15.9676 13.2973 16.0869C13.3839 16.2063 13.5044 16.2969 13.6432 16.3469C13.7125 16.3696 13.7763 16.4065 13.8305 16.4552C13.8847 16.504 13.9282 16.5635 13.9582 16.63C14.0051 16.7612 14.1026 16.8269 14.4063 16.9319C14.6232 17.0043 14.8479 17.0509 15.0757 17.0706C15.3419 17.08 15.4151 17.0406 15.7376 16.7725H15.7282ZM5.59007 11.3125C4.63757 11.1737 3.85007 11.05 3.82382 11.0294C3.81451 10.7706 3.82769 10.5115 3.8632 10.255C3.93632 9.6381 3.96257 9.53123 4.0507 9.55748C4.10882 9.5781 4.96945 9.80123 5.96132 10.0637C6.9532 10.3262 7.7932 10.5569 7.81945 10.5831C7.8457 10.6094 7.81945 10.8381 7.73507 11.1025C7.60945 11.4962 7.57007 11.5675 7.45195 11.5619C7.37695 11.5506 6.53695 11.44 5.59007 11.3125ZM4.78382 10.72C4.95445 10.3862 4.73132 9.93998 4.43507 10.0244C4.36673 10.0427 4.3042 10.0783 4.25341 10.1275C4.20261 10.1768 4.16521 10.2382 4.14475 10.306C4.1243 10.3737 4.12145 10.4456 4.13649 10.5147C4.15153 10.5839 4.18395 10.6481 4.2307 10.7012C4.36195 10.8812 4.68445 10.8944 4.78382 10.7162V10.72ZM17.1944 10.1875C17.0643 9.99386 16.9603 9.78392 16.8851 9.5631C16.9244 9.5181 21.0944 8.28998 21.1151 8.31623C21.1195 8.73594 21.0729 9.15464 20.9763 9.5631C20.9182 9.63623 17.7194 10.7856 17.5751 10.7856C17.4301 10.5983 17.3027 10.3981 17.1944 10.1875ZM20.9313 9.11685C20.9834 9.03297 21.0041 8.93328 20.9894 8.8356C20.9632 8.59185 20.6744 8.53935 20.5244 8.75685C20.3144 9.04185 20.7082 9.3831 20.9313 9.10748V9.11685ZM5.74757 9.6606C5.4938 9.60181 5.24342 9.52921 4.99757 9.4431C4.9582 9.39623 5.05007 9.0231 5.18507 8.6931C5.26382 8.5056 5.2507 8.44373 5.02195 7.95623C4.92368 7.76912 4.85475 7.56802 4.81757 7.35998C4.89632 7.23435 7.39757 5.7381 7.65445 5.65935C7.79129 5.62826 7.91667 5.5594 8.01632 5.4606C8.26632 5.26691 8.53741 5.10211 8.82445 4.96935C9.22195 4.76685 9.58757 4.56248 9.65507 4.52498C9.66826 4.51017 9.68444 4.49832 9.70254 4.4902C9.72063 4.48209 9.74024 4.47789 9.76007 4.47789C9.7799 4.47789 9.79951 4.48209 9.81761 4.4902C9.8357 4.49832 9.85188 4.51017 9.86507 4.52498C10.0301 4.66373 9.9907 4.76873 9.64945 5.14935C9.18716 5.68571 8.78886 6.27404 8.46257 6.90248C8.30268 7.25366 8.05062 7.55496 7.7332 7.77435C7.50445 7.94498 7.27382 8.1156 7.23445 8.14935C7.17536 8.22151 7.14528 8.31309 7.15007 8.40623C7.15187 8.50459 7.11713 8.60012 7.05257 8.67435C6.9332 8.86961 6.84466 9.0821 6.79007 9.30435C6.6982 9.61373 6.5857 9.86685 6.5407 9.84998C6.4957 9.8331 6.13945 9.7656 5.75132 9.66248L5.74757 9.6606ZM17.7457 8.20748C17.6088 7.82123 17.5169 7.65623 17.4119 7.61685C17.3067 7.56267 17.2199 7.4785 17.1626 7.37498C17.0632 7.1781 16.9751 7.1331 16.2888 6.98123C15.9789 6.87048 15.6866 6.71577 15.4207 6.52185C15.0744 6.24442 14.6635 6.05928 14.2263 5.98373C14.0136 5.94259 13.8033 5.89001 13.5963 5.82623C13.5757 5.8131 13.5832 5.7606 13.5963 5.7081C13.6488 5.57685 13.8851 5.52998 14.8901 5.4831C15.7507 5.44373 15.7844 5.4381 16.1182 5.2206C16.3057 5.09685 16.4538 4.9656 16.4276 4.93185C16.3807 4.8531 16.0526 4.9131 15.7901 5.04998C15.5276 5.18685 15.4151 5.1231 15.1863 4.8006C14.8862 4.46647 14.5636 4.15324 14.2207 3.8631C13.5251 3.24998 13.3376 3.02685 13.5251 3.02685C13.6357 3.02685 13.9319 3.19748 14.6276 3.64373C15.5801 4.26248 16.0001 4.4856 16.0526 4.40685C16.0788 4.36748 16.0526 4.25498 15.9813 4.15748C15.8163 3.91935 14.6932 2.68748 14.2751 2.2656C13.9001 1.91685 13.8551 1.79873 14.0126 1.7406C14.1701 1.68248 14.3069 1.7856 15.4826 2.6781C16.0751 3.11873 16.5869 3.48623 16.6188 3.48623C16.9544 3.48623 15.7788 2.40248 14.7738 1.79873C14.3107 1.5231 14.1794 1.31873 14.4494 1.31873C14.6369 1.31873 15.7244 1.90373 16.3676 2.34998C16.9188 2.7381 17.1288 2.98748 17.0032 3.1131C16.8776 3.23873 16.9244 3.28935 17.1551 3.28935C17.2642 3.28647 17.3709 3.3216 17.4569 3.38873C17.5049 3.44375 17.5719 3.47859 17.6444 3.48623C17.8094 3.48623 17.6913 2.9556 17.3632 2.18685C17.2443 1.93645 17.144 1.67762 17.0632 1.41248C17.0632 1.27373 17.2207 1.29998 17.3726 1.4706C17.7735 2.03539 18.1224 2.63534 18.4151 3.2631C18.8688 4.25498 19.0863 5.60873 18.8951 6.23873C18.8294 6.45435 18.8426 6.5331 19.0338 6.97373C19.4463 7.93935 19.5588 8.28623 19.4726 8.31435C19.2494 8.39873 18.0682 8.73998 18.0082 8.73998C17.9482 8.73998 17.8376 8.49998 17.7457 8.20748ZM4.19882 5.87498C3.37757 3.26685 3.44882 2.99123 4.4407 4.86998C4.6657 5.28248 4.88882 5.68373 4.94132 5.75685C5.09882 5.96685 5.12882 5.8281 5.00695 5.47935L4.90007 5.14748L5.36695 4.39748C5.99695 3.38498 5.99695 3.38498 6.2932 3.75248C6.42445 3.91748 6.77132 4.2981 7.0732 4.59998C7.27046 4.7851 7.45115 4.98712 7.6132 5.20373C7.6132 5.23748 7.53445 5.28248 7.44257 5.3031C7.21757 5.36123 6.9232 5.21685 6.50507 4.83623C6.31757 4.6731 6.13007 4.55498 6.10382 4.57373C5.98349 4.74645 5.92351 4.95406 5.9332 5.16435C5.9857 5.30873 6.15632 5.28248 6.18257 5.13248C6.2032 5.01435 6.24257 5.02748 6.6157 5.27685C6.75497 5.35954 6.88672 5.45428 7.00945 5.55998C6.95695 5.60498 4.73132 6.83873 4.63945 6.87248C4.54757 6.90623 4.47445 6.72998 4.19882 5.87498ZM7.53445 4.72748L7.25132 4.39373L7.48195 4.20623C7.5688 4.12388 7.67151 4.06008 7.78382 4.01873C7.8232 4.01873 7.92257 4.21748 8.00695 4.45935C8.1457 4.87935 8.1457 4.89998 8.02757 4.98435C7.85695 5.10248 7.84382 5.09498 7.53445 4.72748ZM6.84445 3.91373C6.74695 3.77498 6.69445 3.65685 6.72632 3.62498C6.89468 3.53779 7.06812 3.46078 7.2457 3.39435C7.56322 3.26739 7.87256 3.12085 8.17195 2.9556C8.9407 2.53373 8.8882 2.77748 8.04632 3.4731C7.58132 3.86685 7.17257 4.14435 7.05445 4.14435C6.97476 4.07689 6.90417 3.99937 6.84445 3.91373Z" fill="#F4E4CC"/>
<path d="M10.6806 22.2156C10.5887 22.1969 10.5624 22.1237 10.5624 21.8744C10.5624 21.6869 10.5362 21.5331 10.4968 21.5125C10.3787 21.4412 10.4312 21.1787 10.5943 21.0212C10.7256 20.8956 10.7518 20.8112 10.7462 20.5337C10.745 20.3424 10.7761 20.1523 10.8381 19.9712L10.9299 19.7406L11.0612 19.9281C11.2794 20.2808 11.579 20.5759 11.9349 20.7887L12.2368 20.9406L11.8431 21.0194C11.2806 21.13 11.2112 21.1506 11.2581 21.2294C11.2843 21.2687 11.5393 21.2819 11.9668 21.2556C12.4862 21.2219 12.5968 21.2294 12.4656 21.2875C11.5524 21.7019 11.2112 21.8856 11.0143 22.0506C10.9239 22.14 10.8067 22.1973 10.6806 22.2137V22.2156ZM15.2762 21.7562C15.0281 21.6296 14.7689 21.526 14.5018 21.4469C13.8981 21.2594 13.7068 21.1056 14.1606 21.1787C14.4286 21.2278 14.6939 21.2904 14.9556 21.3662C15.2499 21.4525 15.5068 21.505 15.5181 21.4712C15.6362 21.2837 15.1899 21.0381 14.6124 20.9725L14.2824 20.9331L14.5787 20.7831C14.7992 20.6544 15.0011 20.496 15.1787 20.3125C15.2768 20.1901 15.3867 20.0777 15.5068 19.9769C15.5793 20.0848 15.6367 20.2022 15.6774 20.3256C15.7956 20.62 15.8087 20.74 15.7637 21.1862C15.7243 21.5987 15.6906 21.7169 15.5762 21.79C15.4618 21.8631 15.4281 21.8537 15.2762 21.7562ZM13.0974 21.1581C13.0768 21.1262 13.1818 21.0869 13.3393 21.0737C13.6412 21.04 13.7331 21.0606 13.6806 21.1581C13.6281 21.2556 13.1499 21.2369 13.0974 21.1581ZM5.58994 11.3125C4.65244 11.1737 3.84994 11.05 3.82369 11.0294C3.81438 10.7706 3.82756 10.5115 3.86307 10.255C3.93619 9.63812 3.96244 9.53125 4.05057 9.5575C4.10869 9.57812 4.96932 9.80875 5.96119 10.0637C6.95307 10.3187 7.79307 10.5569 7.81932 10.5831C7.84557 10.6094 7.81932 10.8381 7.73494 11.1025C7.60932 11.4962 7.56994 11.5675 7.45182 11.5619C7.37682 11.5506 6.53682 11.44 5.58994 11.3125ZM4.78369 10.72C4.84404 10.6228 4.86983 10.5081 4.8569 10.3945C4.84397 10.2808 4.79307 10.1749 4.71244 10.0937C4.51369 9.955 4.42182 9.9625 4.26432 10.12C4.18765 10.195 4.1423 10.2964 4.13742 10.4036C4.13255 10.5108 4.16852 10.6158 4.23807 10.6975C4.36182 10.8812 4.68432 10.8944 4.78369 10.7162V10.72ZM17.1943 10.1875C17.072 9.98946 16.9684 9.78043 16.8849 9.56312C16.8981 9.54437 17.7268 9.29499 18.7112 9.00062L20.8262 8.38375L21.1337 8.29187L21.0943 8.85437C21.0832 9.07789 21.0525 9.29999 21.0024 9.51812C20.9631 9.58937 17.7456 10.7725 17.5824 10.7725C17.4343 10.5906 17.3043 10.3947 17.1943 10.1875ZM20.9312 9.11687C20.9833 9.03298 21.0039 8.9333 20.9893 8.83562C20.9631 8.58625 20.6687 8.53937 20.5168 8.7625C20.3856 8.95 20.3856 8.98 20.5168 9.10375C20.5426 9.1332 20.5743 9.15687 20.6099 9.1732C20.6454 9.18954 20.684 9.19817 20.7232 9.19852C20.7623 9.19887 20.8011 9.19095 20.8369 9.17526C20.8728 9.15957 20.9049 9.13648 20.9312 9.1075V9.11687Z" fill="white"/>
</svg>
