<svg width="25" height="24" viewBox="0 0 25 24" fill="none" xmlns="http://www.w3.org/2000/svg">
<path d="M1.2727 18.0568C1.01405 18.4649 0.760154 18.876 0.511072 19.29C0.294322 19.6525 0.402697 20.124 0.764947 20.3419L5.7307 23.3888C6.09332 23.6063 6.56376 23.497 6.78145 23.1347C7.0146 22.7186 7.25628 22.3073 7.50632 21.9011C9.4642 18.6737 11.4571 19.0361 15.0089 20.7413L19.9389 23.0614C20.3371 23.2433 20.7727 23.0614 20.9533 22.699L23.3099 17.3683C23.4905 17.005 23.3099 16.5343 22.9464 16.3525C21.8956 15.8807 19.8305 14.9012 18.0179 13.995C11.3129 10.7665 5.62157 10.9843 1.27307 18.0568H1.2727Z" fill="url(#paint0_linear_726_1165)"/>
<path d="M23.5265 5.94314C23.7852 5.53505 24.0391 5.12396 24.2883 4.70996C24.5058 4.34752 24.3965 3.87596 24.0342 3.65808L19.0685 0.611207C18.706 0.393707 18.2354 0.503019 18.0177 0.865269C17.785 1.28159 17.5434 1.69287 17.293 2.09883C15.335 5.32627 13.342 4.96383 9.79022 3.25871L4.86028 0.938582C4.46203 0.756707 4.0276 0.938582 3.84591 1.30102L1.49016 6.63164C1.30866 6.99502 1.49016 7.46677 1.8526 7.64752C2.90335 8.11927 4.9696 9.09877 6.78103 10.005C13.4873 13.1975 19.1776 13.0155 23.5261 5.94314H23.5265Z" fill="url(#paint1_linear_726_1165)"/>
<defs>
<linearGradient id="paint0_linear_726_1165" x1="23.1906" y1="24.967" x2="8.19171" y2="16.3551" gradientUnits="userSpaceOnUse">
<stop stop-color="#0052CC"/>
<stop offset="0.918" stop-color="#2380FB"/>
<stop offset="1" stop-color="#2684FF"/>
</linearGradient>
<linearGradient id="paint1_linear_726_1165" x1="1.60851" y1="-0.976929" x2="16.6074" y2="7.63603" gradientUnits="userSpaceOnUse">
<stop stop-color="#0052CC"/>
<stop offset="0.918" stop-color="#2380FB"/>
<stop offset="1" stop-color="#2684FF"/>
</linearGradient>
</defs>
</svg>
