<svg width="25" height="24" viewBox="0 0 25 24" fill="none" xmlns="http://www.w3.org/2000/svg">
<path d="M17.1313 1.09801H15.7468L17.1867 2.66044V3.40426H14.2212V2.53332H15.6608L14.2212 0.970881V0.226318H17.1313V1.09801ZM13.6332 1.09801H12.2487L13.6885 2.66044V3.40426H10.7228V2.53332H12.1626L10.7228 0.970881V0.226318H13.6332V1.09801ZM10.1693 1.13363H8.67528V2.49694H10.1693V3.40426H7.61328V0.226318H10.1693V1.13363Z" fill="#131313"/>
<path d="M5.57727 21.8824L4.05908 4.85498H20.7404L19.2209 21.8796L12.3895 23.7737L5.57727 21.8824Z" fill="#1572B6"/>
<path d="M12.3999 22.326L17.9197 20.7956L19.2183 6.24731H12.3999V22.326Z" fill="#33A9DC"/>
<path d="M12.3999 12.4163H15.1633L15.3543 10.2778H12.3999V8.18945H17.6366L17.5865 8.7497L17.0733 14.5045H12.3999V12.4163Z" fill="white"/>
<path d="M12.4124 17.8399L12.4032 17.8425L10.0775 17.2144L9.92858 15.5488H7.83252L8.12521 18.8278L12.4028 20.0153L12.4126 20.0125L12.4124 17.8399Z" fill="#EBEBEB"/>
<path d="M14.986 14.4161L14.7344 17.2129L12.4053 17.8416V20.0143L16.6865 18.8278L16.718 18.4749L17.0813 14.4161H14.986Z" fill="white"/>
<path d="M12.4072 8.18945V10.2776H7.36291L7.32091 9.80833L7.22584 8.7497L7.17578 8.18945H12.4072ZM12.3999 12.4165V14.5048H10.1036L10.0618 14.0355L9.96653 12.9767L9.91647 12.4165H12.3999Z" fill="#EBEBEB"/>
</svg>
