<svg width="25" height="24" viewBox="0 0 25 24" fill="none" xmlns="http://www.w3.org/2000/svg">
<path d="M8.83419 9.52817C9.80413 9.52817 10.5924 10.046 10.9964 10.9453L11.0268 11.0162L12.6536 10.463L12.6208 10.3796C11.9917 8.8436 10.5393 7.89148 8.83419 7.89148C7.63419 7.89148 6.65919 8.27529 5.8535 9.06598C5.05269 9.8516 4.64844 10.8394 4.64844 12.0013C4.64844 13.1557 5.05531 14.1382 5.8535 14.9214C6.65919 15.7121 7.63438 16.0959 8.83419 16.0959C10.5393 16.0959 11.9893 15.1412 12.6208 13.6078L12.6536 13.5245L11.0242 12.9714L10.9964 13.0445C10.6327 13.9312 9.82438 14.459 8.83419 14.459C8.15975 14.459 7.58881 14.2241 7.13919 13.7593C6.68188 13.2896 6.452 12.696 6.452 12.0013C6.452 11.3015 6.677 10.7207 7.13919 10.2279C7.59125 9.7631 8.15975 9.52817 8.83419 9.52817Z" fill="black"/>
<path d="M15.897 23.4619L15.4121 21.8629C19.7872 20.5343 22.7274 16.5709 22.7274 12.0013C22.7274 10.7408 22.5026 9.50813 22.058 8.34094L23.6192 7.74731C24.1373 9.1065 24.4019 10.5492 24.3997 12.0038C24.3973 17.3109 20.982 21.9159 15.897 23.4619Z" fill="url(#paint0_linear_726_1158)"/>
<path d="M22.2755 8.98014C20.9392 4.6202 16.9707 1.69239 12.3985 1.69239C11.7786 1.69249 11.1599 1.74745 10.5496 1.85664L10.2539 0.212264C10.9617 0.0849557 11.6794 0.0207038 12.3985 0.0202637C17.7083 0.0202637 22.3184 3.42283 23.8718 8.48758L22.2755 8.98014Z" fill="#69D3A7"/>
<path d="M1.1679 16.2247C0.657527 14.8758 0.399902 13.4536 0.399902 12.0013C0.399902 5.81244 5.0454 0.686941 11.2063 0.0805664L11.3705 1.74275C6.0684 2.26588 2.06959 6.67625 2.06959 12.0011C2.068 13.2426 2.29136 14.4742 2.72884 15.6361L1.1679 16.2247Z" fill="url(#paint1_linear_726_1158)"/>
<path d="M12.4619 8.04303L15.7357 16.0557L13.351 21.84L15.0207 22.1736L20.8257 8.04285H19.022L16.7058 13.9135L14.3716 8.04285L12.4619 8.04303Z" fill="black"/>
<path d="M13.6517 21.1127L13.3007 21.964C13.2199 22.1586 13.0354 22.2925 12.8282 22.3C12.6844 22.305 12.5428 22.3101 12.3964 22.3101C7.81162 22.3101 3.72937 19.2409 2.46899 14.8457L0.862305 15.3053C2.32743 20.4105 7.06893 23.9771 12.3937 23.9798H12.3964C12.5631 23.9798 12.7297 23.9773 12.8964 23.9696C13.7527 23.9344 14.5183 23.3963 14.8464 22.6005L15.3216 21.4463L13.6517 21.1127Z" fill="url(#paint2_linear_726_1158)"/>
<defs>
<linearGradient id="paint0_linear_726_1158" x1="25.3184" y1="12.0769" x2="14.6051" y2="19.0134" gradientUnits="userSpaceOnUse">
<stop offset="0.081" stop-color="#69D3A7"/>
<stop offset="1" stop-color="#69D3A7" stop-opacity="0"/>
</linearGradient>
<linearGradient id="paint1_linear_726_1158" x1="8.40433" y1="0.17169" x2="1.67386" y2="14.4463" gradientUnits="userSpaceOnUse">
<stop stop-color="#69D3A7"/>
<stop offset="0.823" stop-color="#2AB586"/>
<stop offset="1" stop-color="#1CAE7F"/>
</linearGradient>
<linearGradient id="paint2_linear_726_1158" x1="0.383082" y1="17.4863" x2="18.0314" y2="23.025" gradientUnits="userSpaceOnUse">
<stop offset="0.077" stop-color="#1CAE7F"/>
<stop offset="0.164" stop-color="#1CA379"/>
<stop offset="0.316" stop-color="#1C8568"/>
<stop offset="0.516" stop-color="#1B554D"/>
<stop offset="0.719" stop-color="#1B1E2E"/>
</linearGradient>
</defs>
</svg>
