<svg width="25" height="24" viewBox="0 0 25 24" fill="none" xmlns="http://www.w3.org/2000/svg">
<path d="M7.64925 9.12565L12.198 6.49315C12.2551 6.4645 12.3181 6.44958 12.3819 6.44958C12.4458 6.44958 12.5088 6.4645 12.5659 6.49315L17.1339 9.12565C17.2502 9.18378 17.3276 9.31915 17.3276 9.43522V14.7002C17.3276 14.8358 17.2502 14.9518 17.1339 15.0293L12.5852 17.6618C12.5281 17.6904 12.4651 17.7053 12.4013 17.7053C12.3374 17.7053 12.2744 17.6904 12.2173 17.6618L7.64925 15.0293C7.533 14.9712 7.45557 14.8358 7.45557 14.7002V9.43522C7.45557 9.31897 7.533 9.18359 7.64925 9.12565Z" fill="#8080F2"/>
<path d="M24.2377 11.5256L18.7984 2.04092C18.6049 1.69254 18.2372 1.44092 17.8307 1.44092H6.95211C6.56511 1.44092 6.19724 1.69254 5.98442 2.04092L0.545048 11.5065C0.44985 11.6782 0.399902 11.8714 0.399902 12.0678C0.399902 12.2641 0.44985 12.4573 0.545048 12.629L5.98442 22.0365C6.17792 22.3849 6.54561 22.559 6.95211 22.559H17.85C18.2372 22.559 18.6049 22.3849 18.8179 22.0558L24.2572 12.6484C24.4507 12.2614 24.4507 11.8547 24.2377 11.5256ZM19.7274 16.0744C19.7274 16.2099 19.65 16.3453 19.5144 16.4034L12.5848 20.4103C12.5273 20.4482 12.46 20.4684 12.3912 20.4684C12.3224 20.4684 12.2551 20.4482 12.1976 20.4103L5.24886 16.4229C5.13261 16.3455 5.03586 16.2294 5.03586 16.0939V8.06079C5.03586 7.92542 5.1133 7.78986 5.24886 7.73192L12.1978 3.72504C12.2553 3.68714 12.3226 3.66694 12.3914 3.66694C12.4602 3.66694 12.5275 3.68714 12.585 3.72504L19.5341 7.73192C19.6502 7.80917 19.7469 7.92542 19.7469 8.06079V16.0745L19.7274 16.0744Z" fill="#4B32C3"/>
</svg>
