<svg width="25" height="24" viewBox="0 0 25 24" fill="none" xmlns="http://www.w3.org/2000/svg">
<path d="M7.99932 14.5913V9.51377H8.27494V10.3125C8.3075 10.2771 8.33757 10.2395 8.36494 10.2C8.47757 9.96623 8.6545 9.76939 8.87501 9.63257C9.09551 9.49575 9.35045 9.42462 9.60994 9.42752C10.2381 9.40877 10.7481 9.64127 11.0481 10.2C11.239 10.5471 11.344 10.9349 11.3544 11.3309C11.3649 11.7269 11.2804 12.1196 11.1081 12.4763C10.8287 13.1025 10.1387 13.4138 9.39994 13.2994C9.17005 13.2798 8.94872 13.203 8.75614 13.0759C8.56356 12.9488 8.40587 12.7756 8.29744 12.5719V14.5913H7.99932ZM8.27494 11.31C8.29932 11.5575 8.30869 11.7338 8.33682 11.9063C8.44557 12.585 8.84682 12.9881 9.47682 13.0613C9.77263 13.1099 10.0762 13.0544 10.3357 12.9043C10.5952 12.7542 10.7946 12.5188 10.8999 12.2381C11.021 11.9495 11.0793 11.6383 11.0709 11.3254C11.0625 11.0125 10.9876 10.7049 10.8512 10.4231C10.7387 10.1716 10.5475 9.96347 10.3063 9.8302C10.0651 9.69693 9.78714 9.64575 9.51432 9.6844C9.25817 9.70296 9.01417 9.80087 8.81624 9.96452C8.61832 10.1282 8.4763 10.3494 8.40994 10.5975C8.35122 10.8322 8.30614 11.0701 8.27494 11.31ZM16.9768 12C16.9351 12.3575 16.7649 12.6877 16.4979 12.9291C16.231 13.1705 15.8854 13.3068 15.5256 13.3125C14.3706 13.3706 13.8287 12.6038 13.7424 11.7188C13.6826 11.2382 13.7606 10.7505 13.9674 10.3125C14.1115 10.0121 14.3474 9.76536 14.641 9.60794C14.9346 9.45052 15.2707 9.39062 15.6006 9.4369C15.9142 9.46348 16.2115 9.58806 16.4505 9.79299C16.6894 9.99793 16.8578 10.2728 16.9318 10.5788C16.9905 10.8574 17.0337 11.1391 17.0612 11.4225H14.0256C13.9693 12.225 14.4006 12.87 15.0118 13.0256C15.7731 13.2131 16.4237 12.8831 16.6599 12.1594C16.7124 11.9738 16.8081 11.9475 16.9768 12ZM14.0256 11.1656H16.7387C16.7218 10.3106 16.1893 9.6919 15.4674 9.68252C14.6499 9.6694 14.0612 10.2656 14.0256 11.1656ZM17.5356 12.0188H17.8018C17.8117 12.2147 17.8753 12.4041 17.9858 12.5662C18.0963 12.7283 18.2493 12.8568 18.4281 12.9375C18.6525 13.0385 18.8969 13.0876 19.143 13.0811C19.389 13.0746 19.6305 13.0127 19.8493 12.9C19.9686 12.8463 20.0685 12.7572 20.1355 12.6449C20.2026 12.5326 20.2336 12.4024 20.2243 12.2719C20.2312 12.146 20.1968 12.0214 20.1264 11.9168C20.056 11.8123 19.9535 11.7335 19.8343 11.6925C19.5418 11.5838 19.2306 11.5238 18.9324 11.4281C18.6222 11.3398 18.3189 11.2289 18.0249 11.0963C17.5449 10.8619 17.5149 9.94877 18.0587 9.66002C18.3371 9.5029 18.6505 9.41801 18.9701 9.4131C19.2898 9.40819 19.6056 9.48341 19.8887 9.6319C20.0602 9.72668 20.1987 9.8715 20.2858 10.047C20.3729 10.2226 20.4045 10.4205 20.3762 10.6144H20.1474C20.1474 10.6031 20.1268 10.5938 20.1268 10.5825C20.0987 9.85315 19.4874 9.62815 18.8312 9.6919C18.6353 9.71606 18.445 9.77378 18.2687 9.86252C18.1628 9.91096 18.0745 9.99109 18.016 10.0919C17.9576 10.1926 17.9319 10.309 17.9424 10.425C17.9428 10.5411 17.979 10.6542 18.0461 10.7488C18.1133 10.8435 18.208 10.9151 18.3174 10.9538C18.6062 11.0588 18.9081 11.1263 19.2043 11.2088C19.4424 11.2744 19.6899 11.3175 19.9206 11.3963C20.0833 11.4496 20.2261 11.5512 20.3299 11.6874C20.4337 11.8237 20.4936 11.9883 20.5018 12.1594C20.5296 12.3469 20.4977 12.5383 20.4105 12.7066C20.3234 12.8749 20.1854 13.0115 20.0162 13.0969C19.3899 13.4513 18.3587 13.3575 17.8993 12.9094C17.7829 12.7923 17.6908 12.6533 17.6284 12.5005C17.5659 12.3476 17.5344 12.1839 17.5356 12.0188ZM23.8768 10.6144H23.6274C23.6274 10.5806 23.6143 10.5506 23.6106 10.5225C23.6065 10.3356 23.5384 10.1557 23.4175 10.0131C23.2967 9.87038 23.1305 9.77354 22.9468 9.73877C22.6002 9.63932 22.2304 9.65711 21.8949 9.7894C21.7623 9.82742 21.6456 9.9073 21.5621 10.0171C21.4787 10.127 21.4329 10.2608 21.4318 10.3988C21.4272 10.5342 21.4694 10.6672 21.5514 10.7751C21.6333 10.8831 21.7501 10.9594 21.8818 10.9913C22.2568 11.1075 22.6412 11.1788 23.0218 11.2838C23.1452 11.3134 23.2666 11.3503 23.3856 11.3944C23.5632 11.4579 23.7175 11.5736 23.8283 11.7262C23.9392 11.8789 24.0014 12.0614 24.0069 12.2499C24.0123 12.4385 23.9608 12.6243 23.859 12.7831C23.7572 12.9419 23.6098 13.0663 23.4362 13.14C23.1716 13.2602 22.8848 13.3237 22.5942 13.3266C22.3036 13.3296 22.0156 13.2717 21.7487 13.1569C21.5292 13.0622 21.3439 12.9026 21.2179 12.6994C21.0918 12.4963 21.031 12.2594 21.0437 12.0206H21.2874C21.3325 12.2382 21.43 12.4415 21.5713 12.6129C21.7127 12.7843 21.8937 12.9187 22.0987 13.0044C22.3037 13.09 22.5265 13.1245 22.7478 13.1047C22.9691 13.0848 23.1822 13.0114 23.3687 12.8906C23.4823 12.8316 23.5766 12.7413 23.6404 12.6303C23.7042 12.5193 23.7349 12.3923 23.7287 12.2644C23.7343 12.1385 23.6988 12.0141 23.6274 11.9103C23.556 11.8064 23.4527 11.7286 23.3331 11.6888C23.0406 11.58 22.7293 11.5219 22.4312 11.4263C22.1192 11.3393 21.814 11.2296 21.5181 11.0981C21.0493 10.8675 21.0118 9.9619 21.5462 9.67315C21.8281 9.50945 22.1475 9.42151 22.4735 9.41789C22.7994 9.41428 23.1208 9.49511 23.4062 9.65252C23.5694 9.74997 23.7008 9.89278 23.7844 10.0635C23.8679 10.2343 23.9001 10.4257 23.8768 10.6144ZM7.54369 13.2206C7.44552 13.2578 7.33714 13.2577 7.23902 13.2204C7.1409 13.1831 7.05985 13.1112 7.01119 13.0181C6.70557 12.5606 6.36807 12.1238 6.04369 11.6775L5.90307 11.49C5.51682 12.0075 5.13057 12.5044 4.77807 13.02C4.73214 13.1089 4.65547 13.1781 4.56233 13.2146C4.4692 13.2512 4.36595 13.2527 4.27182 13.2188L5.72119 11.2744L4.37307 9.51752C4.47011 9.48248 4.57627 9.482 4.67363 9.51616C4.77098 9.55032 4.85357 9.61703 4.90744 9.70502C5.22057 10.1625 5.56744 10.5994 5.91244 11.0625C6.25932 10.6031 6.60244 10.1644 6.92307 9.71065C6.96925 9.6232 7.04596 9.55578 7.13861 9.5212C7.23126 9.48663 7.33339 9.48732 7.42557 9.52315L6.90244 10.2169C6.66807 10.5263 6.43744 10.8375 6.19369 11.1394C6.17405 11.157 6.15834 11.1785 6.14758 11.2026C6.13683 11.2267 6.13127 11.2527 6.13127 11.2791C6.13127 11.3054 6.13683 11.3315 6.14758 11.3556C6.15834 11.3797 6.17405 11.4012 6.19369 11.4188C6.64182 12.0131 7.08619 12.6094 7.54369 13.2206ZM13.6974 9.49877V9.76127C13.5078 9.74883 13.3177 9.7763 13.1393 9.84189C12.9609 9.90748 12.7983 10.0097 12.6619 10.1421C12.5255 10.2744 12.4184 10.4339 12.3474 10.6102C12.2764 10.7865 12.2432 10.9757 12.2499 11.1656V13.2281H11.9818V9.51377H12.2443V10.275C12.5687 9.72002 13.0693 9.51377 13.6974 9.49877ZM0.799316 11.25C0.838691 11.0625 0.863066 10.8581 0.917441 10.6669C1.24182 9.51377 2.56369 9.03377 3.47307 9.74815C4.00557 10.1663 4.13869 10.7588 4.11244 11.4263H1.11244C1.06369 12.6188 1.92432 13.3388 3.02494 12.9713C3.20348 12.9074 3.3633 12.8001 3.48999 12.659C3.61667 12.5179 3.70622 12.3475 3.75057 12.1631C3.80869 11.9756 3.90244 11.9438 4.08057 11.9981C4.05123 12.2264 3.97052 12.4451 3.84451 12.6376C3.7185 12.8302 3.55048 12.9917 3.35307 13.11C3.02689 13.2884 2.65267 13.3591 2.28391 13.3119C1.91515 13.2648 1.57075 13.1022 1.29994 12.8475C1.03203 12.5463 0.870042 12.1657 0.838691 11.7638C0.838691 11.7 0.814316 11.6363 0.801191 11.5763C0.799941 11.465 0.799316 11.3563 0.799316 11.25ZM1.11619 11.1694H3.82932C3.81244 10.305 3.26682 9.6919 2.53932 9.68627C1.72932 9.67502 1.14994 10.275 1.11432 11.1656L1.11619 11.1694Z" fill="black"/>
</svg>
