<svg width="25" height="24" viewBox="0 0 25 24" fill="none" xmlns="http://www.w3.org/2000/svg">
<path d="M22.2288 0.950684H2.57129C2.24806 0.950684 1.93806 1.07909 1.7095 1.30765C1.48094 1.53621 1.35254 1.8462 1.35254 2.16943V21.8288C1.35254 22.152 1.48094 22.462 1.7095 22.6906C1.93806 22.9192 2.24806 23.0476 2.57129 23.0476H13.15V14.4919H10.2738V11.1563H13.15V8.69631C13.15 5.84256 14.8938 4.28818 17.44 4.28818C18.2993 4.28512 19.1581 4.32893 20.0125 4.41943V7.40256H18.2519C16.8663 7.40256 16.5982 8.06068 16.5982 9.02631V11.1563H19.9L19.4707 14.4919H16.5982V23.0494H22.2232C22.5462 23.0489 22.856 22.9204 23.0844 22.6919C23.3129 22.4635 23.4414 22.1538 23.4419 21.8307V2.17131C23.4424 1.84872 23.315 1.5391 23.0876 1.31029C22.8602 1.08149 22.5514 0.952172 22.2288 0.950684Z" fill="black"/>
</svg>
