<svg width="25" height="25" viewBox="0 0 25 25" fill="none" xmlns="http://www.w3.org/2000/svg">
<path d="M8.93115 24.1875C11.1624 24.1875 12.9624 22.3875 12.9624 20.1562V16.125H8.93115C6.6999 16.125 4.8999 17.925 4.8999 20.1562C4.8999 22.3875 6.6999 24.1875 8.93115 24.1875Z" fill="#0ACF83"/>
<path d="M4.8999 12.0938C4.8999 9.8625 6.6999 8.0625 8.93115 8.0625H12.9624V16.125H8.93115C6.6999 16.125 4.8999 14.325 4.8999 12.0938Z" fill="#A259FF"/>
<path d="M4.8999 4.03125C4.8999 1.8 6.6999 0 8.93115 0H12.9624V8.0625H8.93115C6.6999 8.0625 4.8999 6.2625 4.8999 4.03125Z" fill="#F24E1E"/>
<path d="M12.9624 0H16.9937C19.2249 0 21.0249 1.8 21.0249 4.03125C21.0249 6.2625 19.2249 8.0625 16.9937 8.0625H12.9624V0Z" fill="#FF7262"/>
<path d="M21.0249 12.0938C21.0249 14.325 19.2249 16.125 16.9937 16.125C14.7624 16.125 12.9624 14.325 12.9624 12.0938C12.9624 9.8625 14.7624 8.0625 16.9937 8.0625C19.2249 8.0625 21.0249 9.8625 21.0249 12.0938Z" fill="#1ABCFE"/>
</svg>
