<svg width="25" height="24" viewBox="0 0 25 24" fill="none" xmlns="http://www.w3.org/2000/svg">
<path d="M3.67627 19.3642L6.63033 0.461626C6.64802 0.348659 6.70076 0.244105 6.78109 0.162732C6.86142 0.081359 6.96529 0.0272796 7.07802 0.0081321C7.19075 -0.0110154 7.30664 0.00573686 7.40934 0.0560227C7.51203 0.106308 7.59633 0.187586 7.65033 0.288376L10.7055 5.9865L11.9231 3.66788C11.9694 3.57993 12.0388 3.50629 12.1239 3.45493C12.209 3.40356 12.3065 3.37641 12.4059 3.37641C12.5053 3.37641 12.6028 3.40356 12.6879 3.45493C12.773 3.50629 12.8424 3.57993 12.8887 3.66788L21.1331 19.3642H3.67627Z" fill="#FFA000"/>
<path d="M13.8817 12.001L10.704 5.9837L3.67627 19.3643L13.8817 12.001Z" fill="#F57C00"/>
<path d="M21.1331 19.3642L18.8705 5.36323C18.8537 5.26455 18.8102 5.17239 18.7446 5.0968C18.679 5.02121 18.5938 4.9651 18.4985 4.9346C18.4032 4.90415 18.3013 4.90053 18.2041 4.92414C18.1069 4.94776 18.018 4.99769 17.9473 5.06848L3.67627 19.364L11.5728 23.7924C11.8167 23.9286 12.0913 24.0001 12.3706 24.0001C12.6499 24.0001 12.9246 23.9286 13.1685 23.7924L21.1331 19.3642Z" fill="#FFCA28"/>
<path d="M18.8703 5.36328C18.8535 5.26461 18.81 5.17244 18.7444 5.09686C18.6788 5.02127 18.5936 4.96516 18.4983 4.93465C18.403 4.90418 18.3012 4.90053 18.2039 4.92411C18.1067 4.94769 18.0178 4.99759 17.9471 5.06834L15.1145 7.9084L12.8872 3.6679C12.8409 3.57995 12.7715 3.50632 12.6864 3.45496C12.6013 3.40359 12.5038 3.37644 12.4044 3.37644C12.305 3.37644 12.2075 3.40359 12.1224 3.45496C12.0373 3.50632 11.9679 3.57995 11.9216 3.6679L10.7039 5.98634L7.64882 0.288404C7.59475 0.187475 7.5103 0.106112 7.40743 0.055838C7.30456 0.00556365 7.18848 -0.0110748 7.07563 0.00827871C6.96282 0.0275465 6.85894 0.081833 6.77871 0.163443C6.69848 0.245053 6.64597 0.349845 6.62863 0.462966L3.67607 19.3643H3.6665L3.67588 19.3752L3.75369 19.4134L17.9429 5.20765C18.0137 5.13658 18.1027 5.08638 18.2001 5.06258C18.2975 5.03878 18.3996 5.04229 18.4952 5.07273C18.5908 5.10317 18.6761 5.15936 18.7418 5.23513C18.8075 5.31089 18.8511 5.40331 18.8677 5.50222L21.1111 19.3778L21.1329 19.3641L18.8703 5.36328ZM3.70194 19.3384L6.62994 0.596654C6.64734 0.483506 6.69988 0.378696 6.78014 0.297061C6.86039 0.215426 6.96429 0.161102 7.07713 0.141779C7.19 0.122471 7.30608 0.13915 7.40895 0.189456C7.51182 0.239762 7.59626 0.321147 7.65032 0.422091L10.7051 6.12022L11.9229 3.80159C11.9692 3.71364 12.0386 3.64001 12.1237 3.58864C12.2088 3.53728 12.3063 3.51013 12.4057 3.51013C12.5051 3.51013 12.6026 3.53728 12.6877 3.58864C12.7728 3.64001 12.8422 3.71364 12.8885 3.80159L15.0706 7.9519L3.70157 19.3384H3.70194Z" fill="white" fill-opacity="0.2"/>
<path opacity="0.2" d="M13.1683 23.6588C12.9245 23.7949 12.6498 23.8664 12.3705 23.8664C12.0912 23.8664 11.8166 23.7949 11.5727 23.6588L3.69491 19.2431L3.67578 19.3645L11.5723 23.7913C11.8162 23.9275 12.0909 23.999 12.3702 23.999C12.6495 23.999 12.9241 23.9275 13.168 23.7913L21.133 19.3645L21.1123 19.2388L13.168 23.6591L13.1683 23.6588Z" fill="#A52714"/>
</svg>
