<svg width="25" height="24" viewBox="0 0 25 24" fill="none" xmlns="http://www.w3.org/2000/svg">
<path d="M16.3999 12C16.3999 13.0609 15.9785 14.0783 15.2283 14.8284C14.4782 15.5786 13.4608 16 12.3999 16C11.339 16 10.3216 15.5786 9.57148 14.8284C8.82133 14.0783 8.3999 13.0609 8.3999 12C8.3999 10.9391 8.82133 9.92172 9.57148 9.17157C10.3216 8.42143 11.339 8 12.3999 8C13.4608 8 14.4782 8.42143 15.2283 9.17157C15.9785 9.92172 16.3999 10.9391 16.3999 12ZM14.8999 12C14.8999 11.337 14.6365 10.7011 14.1677 10.2322C13.6988 9.76339 13.0629 9.5 12.3999 9.5C11.7369 9.5 11.101 9.76339 10.6321 10.2322C10.1633 10.7011 9.8999 11.337 9.8999 12C9.8999 12.663 10.1633 13.2989 10.6321 13.7678C11.101 14.2366 11.7369 14.5 12.3999 14.5C13.0629 14.5 13.6988 14.2366 14.1677 13.7678C14.6365 13.2989 14.8999 12.663 14.8999 12Z" fill="black"/>
<path d="M12.3999 1C12.6659 1 12.9319 1.009 13.1969 1.028C13.9599 1.083 14.5419 1.645 14.7089 2.332L15.0609 3.782C15.0799 3.86 15.1509 3.953 15.2859 4.003C15.5329 4.092 15.7759 4.193 16.0139 4.305C16.1439 4.366 16.2599 4.349 16.3289 4.307L17.6039 3.531C18.2069 3.163 19.0149 3.178 19.5939 3.678C19.9959 4.027 20.3739 4.404 20.7219 4.807C21.2229 5.385 21.2369 6.193 20.8689 6.797L20.0929 8.071C20.0509 8.14 20.0349 8.256 20.0949 8.386C20.2069 8.624 20.3079 8.867 20.3979 9.114C20.4459 9.249 20.5399 9.319 20.6179 9.339L22.0679 9.691C22.7549 9.858 23.3169 10.44 23.3709 11.203C23.4089 11.734 23.4089 12.266 23.3709 12.797C23.3169 13.56 22.7549 14.142 22.0679 14.309L20.6179 14.661C20.5399 14.68 20.4469 14.751 20.3969 14.886C20.3079 15.134 20.2069 15.377 20.0949 15.614C20.0339 15.744 20.0509 15.86 20.0929 15.929L20.8689 17.204C21.2369 17.807 21.2219 18.615 20.7219 19.194C20.3729 19.596 19.9959 19.974 19.5929 20.322C19.0149 20.823 18.2069 20.837 17.6029 20.469L16.3289 19.693C16.2599 19.651 16.1439 19.635 16.0149 19.695C15.7767 19.8071 15.5334 19.9082 15.2859 19.998C15.1509 20.046 15.0809 20.14 15.0609 20.218L14.7089 21.668C14.5419 22.355 13.9599 22.917 13.1969 22.971C12.6659 23.009 12.1339 23.009 11.6029 22.971C10.8399 22.917 10.2579 22.355 10.0909 21.668L9.73891 20.218C9.71991 20.14 9.64892 20.047 9.51392 19.997C9.26651 19.9082 9.02356 19.8074 8.78591 19.695C8.65591 19.634 8.53991 19.651 8.47091 19.693L7.19591 20.469C6.59291 20.837 5.78491 20.822 5.20591 20.322C4.80391 19.973 4.42591 19.596 4.07791 19.193C3.57691 18.615 3.56291 17.807 3.93091 17.203L4.70691 15.929C4.74891 15.86 4.76491 15.744 4.70491 15.615C4.59282 15.3768 4.49171 15.1335 4.40191 14.886C4.35391 14.751 4.25991 14.681 4.18191 14.661L2.73191 14.309C2.04491 14.142 1.48291 13.56 1.42791 12.797C1.38991 12.2663 1.38991 11.7337 1.42791 11.203C1.48291 10.44 2.04491 9.858 2.73191 9.691L4.18191 9.339C4.25991 9.32 4.35291 9.249 4.40291 9.114C4.49191 8.866 4.59291 8.623 4.70491 8.386C4.76591 8.256 4.74891 8.14 4.70691 8.071L3.93091 6.796C3.56291 6.193 3.57791 5.385 4.07791 4.806C4.42691 4.404 4.80391 4.026 5.20691 3.678C5.78491 3.177 6.59291 3.163 7.19691 3.531L8.47091 4.307C8.53991 4.349 8.65591 4.365 8.78591 4.305C9.02391 4.193 9.26692 4.092 9.51392 4.002C9.64892 3.954 9.71891 3.86 9.73891 3.782L10.0909 2.332C10.2579 1.645 10.8399 1.083 11.6029 1.028C11.8659 1.01 12.1319 1 12.3999 1ZM11.7099 2.525C11.6549 2.529 11.5749 2.575 11.5489 2.686L11.1959 4.136C11.1212 4.42906 10.975 4.69905 10.7705 4.92187C10.566 5.1447 10.3095 5.31343 10.0239 5.413C9.82024 5.48686 9.62004 5.56995 9.42391 5.662C9.15127 5.79388 8.85019 5.85615 8.5476 5.84323C8.24501 5.83032 7.95033 5.74263 7.68991 5.588L6.41591 4.812C6.31791 4.752 6.22991 4.776 6.18791 4.812C5.83999 5.11393 5.51384 5.44007 5.21191 5.788C5.17591 5.83 5.15191 5.919 5.21191 6.016L5.98791 7.29C6.30191 7.819 6.32991 8.47 6.06191 9.024C5.96986 9.22012 5.88678 9.42033 5.81291 9.624C5.71347 9.90993 5.54467 10.1667 5.32164 10.3715C5.09861 10.5762 4.8283 10.7224 4.53491 10.797L3.08491 11.148C2.97491 11.175 2.92891 11.255 2.92491 11.31C2.89191 11.7694 2.89191 12.2306 2.92491 12.69C2.92891 12.745 2.97491 12.825 3.08591 12.851L4.53591 13.204C4.82897 13.2788 5.09896 13.4249 5.32179 13.6294C5.54461 13.8339 5.71334 14.0904 5.81291 14.376C5.88691 14.58 5.96991 14.78 6.06191 14.976C6.32991 15.529 6.30191 16.18 5.98791 16.709L5.21191 17.984C5.15191 18.082 5.17591 18.17 5.21191 18.212C5.51291 18.56 5.83991 18.887 6.18791 19.188C6.22991 19.224 6.31891 19.248 6.41591 19.188L7.68991 18.412C7.95016 18.257 8.24482 18.1689 8.54746 18.1559C8.8501 18.1428 9.15126 18.205 9.42391 18.337C9.61991 18.43 9.81991 18.513 10.0239 18.587C10.3098 18.6864 10.5667 18.8552 10.7714 19.0783C10.9761 19.3013 11.1223 19.5716 11.1969 19.865L11.5479 21.315C11.5749 21.425 11.6549 21.471 11.7099 21.475C12.1693 21.508 12.6305 21.508 13.0899 21.475C13.1449 21.471 13.2249 21.425 13.2509 21.314L13.6039 19.864C13.6787 19.5708 13.8248 19.3007 14.0293 19.0777C14.2338 18.8548 14.4903 18.6858 14.7759 18.586C14.9797 18.5129 15.18 18.4301 15.3759 18.338C15.6484 18.2061 15.9493 18.1439 16.2517 18.1568C16.5542 18.1697 16.8487 18.2574 17.1089 18.412L18.3839 19.188C18.4819 19.248 18.5699 19.224 18.6119 19.188C18.9599 18.887 19.2869 18.56 19.5879 18.212C19.6239 18.17 19.6479 18.081 19.5879 17.984L18.8119 16.709C18.6574 16.4488 18.5697 16.1543 18.5566 15.8519C18.5435 15.5495 18.6054 15.2486 18.7369 14.976C18.8299 14.78 18.9129 14.58 18.9869 14.376C19.0864 14.0901 19.2552 13.8333 19.4782 13.6285C19.7012 13.4238 19.9715 13.2776 20.2649 13.203L21.7149 12.852C21.8249 12.825 21.8709 12.745 21.8749 12.69C21.9079 12.2306 21.9079 11.7694 21.8749 11.31C21.8709 11.255 21.8249 11.175 21.7139 11.149L20.2639 10.796C19.6379 10.644 19.1839 10.171 18.9859 9.624C18.9132 9.42004 18.8304 9.21979 18.7379 9.024C18.606 8.75135 18.5438 8.45028 18.5567 8.14769C18.5696 7.8451 18.6573 7.55042 18.8119 7.29L19.5879 6.016C19.6479 5.918 19.6239 5.83 19.5879 5.788C19.286 5.44007 18.9598 5.11393 18.6119 4.812C18.5699 4.776 18.4809 4.752 18.3839 4.812L17.1089 5.588C16.8487 5.74263 16.5542 5.83032 16.2517 5.84324C15.9493 5.85615 15.6484 5.79388 15.3759 5.662C15.1799 5.5696 14.9797 5.48651 14.7759 5.413C14.4902 5.31324 14.2335 5.14434 14.0289 4.92136C13.8242 4.69838 13.6779 4.42824 13.6029 4.135L13.2519 2.685C13.2249 2.575 13.1449 2.529 13.0899 2.525C12.6305 2.492 12.1693 2.492 11.7099 2.525Z" fill="black"/>
</svg>
