<svg width="25" height="24" viewBox="0 0 25 24" fill="none" xmlns="http://www.w3.org/2000/svg">
<path d="M13.2811 7.10625H13.4873L14.0686 6.525L14.1061 6.28125C13.6561 5.86875 13.0373 5.625 12.3623 5.625C11.1623 5.625 10.1311 6.45 9.83105 7.55625C9.8873 7.51875 10.0373 7.5375 10.0373 7.5375L11.1998 7.35C11.1998 7.35 11.2561 7.25625 11.2936 7.25625C11.8186 6.69375 12.6811 6.6375 13.2811 7.10625Z" fill="#EA4535"/>
<path d="M14.9124 7.55625C14.7624 7.06875 14.4999 6.61875 14.1062 6.28125L13.2812 7.10625C13.6374 7.3875 13.8249 7.8 13.8249 8.25V8.4C14.2187 8.4 14.5562 8.71875 14.5562 9.13125C14.5562 9.525 14.2374 9.84375 13.8249 9.84375H12.3624L12.2124 9.99375V10.875L12.3624 11.025H13.8249C14.8749 11.025 15.7187 10.1812 15.7187 9.13125C15.7187 8.49375 15.3999 7.9125 14.8937 7.575L14.9124 7.55625Z" fill="#557EBF"/>
<path d="M10.9187 11.0062H12.3812V9.84373H10.9187C10.8062 9.84373 10.7124 9.82498 10.6187 9.78748L10.4124 9.84373L9.83115 10.425L9.7749 10.6125C10.0937 10.875 10.5062 11.0062 10.9187 11.0062Z" fill="#36A852"/>
<path d="M10.9187 7.21875C9.86865 7.21875 9.0249 8.0625 9.0249 9.1125C9.0249 9.7125 9.30615 10.275 9.7749 10.6313L10.6187 9.7875C10.3562 9.65625 10.1874 9.4125 10.1874 9.1125C10.1874 8.71875 10.5062 8.38125 10.9187 8.38125C11.1999 8.4 11.4624 8.56875 11.5749 8.8125L12.4187 7.96875C12.0812 7.51875 11.5187 7.21875 10.9187 7.21875Z" fill="#F9BC15"/>
<path d="M3.38096 14.6813C2.98721 14.6813 2.64971 14.5313 2.34971 14.25C2.04971 13.9688 1.91846 13.65 1.91846 13.2375C1.91846 12.825 2.06846 12.5063 2.34971 12.225C2.63096 11.9438 2.98721 11.7938 3.38096 11.7938C3.73721 11.8125 4.09346 11.9438 4.35596 12.2063L4.07471 12.4875C3.88721 12.3 3.64346 12.2063 3.36221 12.2063C3.08096 12.2063 2.83721 12.3 2.63096 12.5063C2.44346 12.6938 2.33096 12.975 2.34971 13.2375C2.34971 13.5188 2.44346 13.7813 2.64971 13.9688C2.83721 14.1938 3.09971 14.2875 3.36221 14.2875C3.66221 14.2875 3.88721 14.1938 4.09346 14.0063C4.20596 13.8938 4.28096 13.725 4.29971 13.5188H3.38096V13.125H4.69346C4.71221 13.2 4.71221 13.275 4.71221 13.3688C4.71221 13.7625 4.59971 14.0625 4.37471 14.2875C4.11221 14.55 3.79346 14.7 3.38096 14.7V14.6813ZM6.45596 14.4188C6.26846 14.5875 6.06221 14.6813 5.79971 14.6813C5.53721 14.6813 5.31221 14.5875 5.14346 14.4188C4.97471 14.25 4.88096 14.025 4.88096 13.7625C4.88096 13.5 4.97471 13.275 5.14346 13.1063C5.31221 12.9375 5.53721 12.8438 5.79971 12.8438C6.06221 12.8438 6.28721 12.9375 6.45596 13.1063C6.62471 13.275 6.71846 13.5 6.71846 13.7625C6.71846 14.025 6.62471 14.25 6.45596 14.4188ZM5.42471 14.1563C5.51846 14.2688 5.64971 14.325 5.78096 14.325C5.93096 14.325 6.04346 14.2688 6.15596 14.1563C6.26846 14.0438 6.30596 13.9125 6.30596 13.7625C6.30596 13.5938 6.24971 13.4625 6.15596 13.35C6.06221 13.2375 5.93096 13.2 5.78096 13.2C5.64971 13.2 5.49971 13.2563 5.40596 13.35C5.31221 13.4625 5.25596 13.5938 5.25596 13.7625C5.25596 13.9313 5.31221 14.0625 5.40596 14.1563H5.42471ZM8.48096 14.4188C8.29346 14.5875 8.08721 14.6813 7.82471 14.6813C7.56221 14.6813 7.33721 14.5875 7.16846 14.4188C6.99971 14.25 6.90596 14.025 6.90596 13.7625C6.90596 13.5 6.99971 13.275 7.16846 13.1063C7.33721 12.9375 7.56221 12.8438 7.82471 12.8438C8.08721 12.8438 8.31221 12.9375 8.48096 13.1063C8.64971 13.275 8.74346 13.5 8.74346 13.7625C8.74346 14.025 8.64971 14.25 8.48096 14.4188ZM7.44971 14.1563C7.54346 14.2688 7.67471 14.325 7.80596 14.325C7.95596 14.325 8.06846 14.2688 8.18096 14.1563C8.29346 14.0438 8.33096 13.9125 8.33096 13.7625C8.33096 13.5938 8.27471 13.4625 8.18096 13.35C8.08721 13.2375 7.95596 13.2 7.80596 13.2C7.67471 13.2 7.52471 13.2563 7.43096 13.35C7.33721 13.4625 7.28096 13.5938 7.28096 13.7625C7.28096 13.9313 7.33721 14.0625 7.43096 14.1563H7.44971ZM9.81221 15.5063C9.60596 15.5063 9.43721 15.45 9.28721 15.3375C9.13721 15.225 9.04346 15.0938 8.98721 14.9625L9.34346 14.8125C9.38096 14.9063 9.43721 14.9813 9.51221 15.0375C9.58721 15.0938 9.68096 15.1313 9.81221 15.1313C9.96221 15.1313 10.0935 15.075 10.1685 15C10.2435 14.925 10.2997 14.775 10.2997 14.5875V14.4563H10.281C10.1685 14.5875 9.99971 14.6625 9.79346 14.6625C9.54971 14.6625 9.34346 14.5688 9.17471 14.4C8.98721 14.25 8.89346 14.0063 8.91221 13.7625C8.89346 13.5188 8.98721 13.275 9.17471 13.1063C9.34346 12.9188 9.54971 12.8438 9.79346 12.8438C9.90596 12.8438 9.99971 12.8625 10.0747 12.9C10.1497 12.9375 10.2247 12.9938 10.281 13.05H10.2997V12.9H10.6935V14.5688C10.6935 14.8875 10.6185 15.1313 10.4497 15.3C10.281 15.45 10.0747 15.5438 9.81221 15.5438V15.5063ZM9.83096 14.3063C9.96221 14.325 10.0935 14.2688 10.1685 14.1563C10.2622 14.0438 10.3185 13.9125 10.3185 13.7625C10.3185 13.5938 10.2622 13.4625 10.1685 13.35C10.0935 13.2563 9.96221 13.2 9.83096 13.2C9.68096 13.2 9.56846 13.2563 9.47471 13.3688C9.38096 13.4813 9.32471 13.6125 9.32471 13.7813C9.32471 13.9313 9.38096 14.0813 9.47471 14.175C9.56846 14.2688 9.69971 14.3438 9.83096 14.3438V14.3063ZM11.3685 11.8875V14.6063H10.956V11.8875H11.3685ZM12.4747 14.6625C12.2122 14.6625 11.9872 14.5688 11.8185 14.4C11.6497 14.2313 11.556 14.0063 11.556 13.7438C11.556 13.4813 11.6497 13.2563 11.8185 13.0688C11.9685 12.9188 12.1935 12.825 12.4372 12.825C12.5497 12.825 12.6622 12.8438 12.756 12.8813C12.831 12.9375 12.906 12.975 12.981 13.05C13.0372 13.1063 13.0935 13.1625 13.131 13.2375C13.1685 13.2938 13.206 13.35 13.2247 13.425L13.2622 13.5375L12.0247 14.0438C12.1185 14.2313 12.2685 14.325 12.4747 14.325C12.6622 14.325 12.8122 14.2313 12.9247 14.0625L13.2435 14.2688C13.1685 14.3813 13.0747 14.475 12.9435 14.55C12.8122 14.625 12.6622 14.6813 12.4747 14.6813V14.6625ZM11.9685 13.7063L12.7935 13.3688C12.7747 13.3125 12.7185 13.2563 12.6622 13.2188C12.5872 13.2 12.5122 13.1813 12.4372 13.1813C12.3247 13.1813 12.2122 13.2375 12.0997 13.3313C11.9872 13.425 11.9497 13.5563 11.9497 13.725L11.9685 13.7063ZM15.3997 14.6625C15.0247 14.6625 14.7247 14.5313 14.4622 14.2875C14.1997 14.0438 14.0872 13.725 14.0872 13.35C14.0872 12.975 14.2185 12.6563 14.4622 12.4125C14.706 12.1688 15.0247 12.0375 15.3997 12.0375C15.7747 12.0375 16.0935 12.1688 16.3185 12.45L16.0935 12.675C15.9247 12.4688 15.681 12.3563 15.3997 12.3563C15.1185 12.3563 14.8935 12.45 14.706 12.6375C14.5185 12.825 14.4247 13.0688 14.4247 13.3688C14.4247 13.6688 14.5185 13.9125 14.706 14.1C14.8935 14.2875 15.1185 14.3813 15.3997 14.3813C15.6997 14.3813 15.9622 14.2688 16.1685 14.025L16.3935 14.25C16.281 14.3813 16.131 14.4938 15.9622 14.5688C15.7747 14.6438 15.5872 14.6813 15.3997 14.6813V14.6625ZM17.0122 14.6063H16.6935V12.1125H17.0122V14.6063ZM17.5372 13.0875C17.706 12.9188 17.9122 12.825 18.1747 12.825C18.4372 12.825 18.6435 12.9188 18.8122 13.0875C18.981 13.2563 19.056 13.4813 19.056 13.7438C19.056 14.0063 18.981 14.2313 18.8122 14.4C18.6435 14.5688 18.4372 14.6625 18.1747 14.6625C17.9122 14.6625 17.706 14.5688 17.5372 14.4C17.3685 14.2313 17.2935 14.0063 17.2935 13.7438C17.2935 13.4813 17.3685 13.2563 17.5372 13.0875ZM17.781 14.1938C17.8935 14.3063 18.0247 14.3625 18.1747 14.3625C18.3247 14.3625 18.456 14.3063 18.5685 14.1938C18.681 14.0813 18.7372 13.9313 18.7372 13.7438C18.7372 13.5563 18.681 13.4063 18.5685 13.2938C18.456 13.1813 18.3247 13.125 18.1747 13.125C18.0247 13.125 17.8935 13.1813 17.781 13.2938C17.6685 13.4063 17.6122 13.5563 17.6122 13.7438C17.6122 13.9313 17.6685 14.0813 17.781 14.1938ZM20.8372 14.6063H20.5372V14.3625H20.5185C20.4622 14.4375 20.3872 14.5125 20.2935 14.5688C20.1997 14.625 20.0872 14.6625 19.9747 14.6625C19.7685 14.6625 19.5997 14.6063 19.4872 14.475C19.3747 14.3438 19.3185 14.175 19.3185 13.95V12.9H19.6372V13.8938C19.6372 14.2125 19.7872 14.3813 20.0685 14.3813C20.181 14.3813 20.3122 14.325 20.3872 14.2313C20.4622 14.1188 20.4997 13.9875 20.4997 13.8563V12.9188H20.8185V14.6438L20.8372 14.6063ZM21.9247 14.6625C21.6997 14.6625 21.5122 14.5688 21.3435 14.4C21.1747 14.2313 21.0997 14.0063 21.0997 13.7438C21.0997 13.4813 21.1747 13.275 21.3435 13.0875C21.5122 12.9 21.6997 12.825 21.9247 12.825C22.056 12.825 22.1685 12.8625 22.281 12.9C22.3935 12.9375 22.4685 13.0313 22.506 13.1063H22.5247L22.506 12.8625V12.075H22.8247V14.5875H22.5247V14.3438H22.506C22.4497 14.4188 22.3747 14.4938 22.281 14.55C22.1685 14.6063 22.056 14.625 21.9247 14.625V14.6625ZM21.981 14.3625C22.1122 14.3813 22.2622 14.325 22.356 14.2125C22.4685 14.1 22.506 13.95 22.506 13.7625C22.506 13.575 22.4497 13.425 22.356 13.3125C22.2622 13.2188 22.1122 13.1438 21.981 13.1438C21.831 13.1438 21.6997 13.2 21.5872 13.3125C21.4747 13.425 21.4185 13.575 21.4185 13.7625C21.4185 13.95 21.4747 14.1 21.5872 14.2125C21.681 14.325 21.831 14.4 21.981 14.4V14.3625Z" fill="#5F6368"/>
</svg>
