<svg width="25" height="24" viewBox="0 0 25 24" fill="none" xmlns="http://www.w3.org/2000/svg">
<path d="M23.7881 10.9459L13.4538 0.611993C12.8591 0.0168682 11.8938 0.0168682 11.2982 0.611993L9.15241 2.75812L11.8745 5.48024C12.5073 5.26668 13.2326 5.40993 13.7368 5.91412C14.2436 6.42149 14.3857 7.15293 14.1669 7.78781L16.7904 10.4115C17.4251 10.1927 18.1577 10.3341 18.6643 10.8418C19.373 11.55 19.373 12.6981 18.6643 13.4066C18.4959 13.5751 18.2959 13.7088 18.0758 13.8C17.8557 13.8912 17.6197 13.9381 17.3815 13.9381C17.1432 13.9381 16.9073 13.8912 16.6872 13.8C16.4671 13.7088 16.2671 13.5751 16.0987 13.4066C15.8457 13.1534 15.6732 12.831 15.6029 12.48C15.5327 12.129 15.5679 11.765 15.704 11.4339L13.2575 8.98743L13.2572 15.4264C13.4347 15.5138 13.5967 15.6295 13.737 15.7691C14.4453 16.4773 14.4453 17.625 13.737 18.3347C13.0284 19.0429 11.88 19.0429 11.1722 18.3347C10.4638 17.6252 10.4638 16.4775 11.1722 15.7691C11.3419 15.5991 11.5437 15.4646 11.766 15.3735V8.87493C11.5436 8.78403 11.3416 8.64944 11.1722 8.47912C10.6355 7.94287 10.5063 7.15537 10.7816 6.49612L8.09791 3.81243L1.0119 10.8981C0.726027 11.184 0.56543 11.5718 0.56543 11.9762C0.56543 12.3805 0.726027 12.7683 1.0119 13.0543L11.3463 23.3882C11.9415 23.9833 12.9063 23.9833 13.5024 23.3882L23.7883 13.1023C24.0741 12.8163 24.2346 12.4284 24.2346 12.024C24.2346 11.6197 24.074 11.2319 23.7881 10.9459Z" fill="#F34F29"/>
</svg>
