<svg width="25" height="24" viewBox="0 0 25 24" fill="none" xmlns="http://www.w3.org/2000/svg">
<path d="M15.3997 22V18C15.5388 16.7473 15.1796 15.4901 14.3997 14.5C17.3997 14.5 20.3997 12.5 20.3997 9C20.4797 7.75 20.1297 6.52 19.3997 5.5C19.6797 4.35 19.6797 3.15 19.3997 2C19.3997 2 18.3997 2 16.3997 3.5C13.7597 3 11.0397 3 8.3997 3.5C6.3997 2 5.3997 2 5.3997 2C5.0997 3.15 5.0997 4.35 5.3997 5.5C4.67157 6.51588 4.31817 7.75279 4.3997 9C4.3997 12.5 7.3997 14.5 10.3997 14.5C10.0097 14.99 9.7197 15.55 9.5497 16.15C9.3797 16.75 9.3297 17.38 9.3997 18V22" stroke="black" stroke-width="2" stroke-linecap="round" stroke-linejoin="round"/>
<path d="M9.3999 18C4.8899 20 4.3999 16 2.3999 16" stroke="black" stroke-width="2" stroke-linecap="round" stroke-linejoin="round"/>
</svg>
