<svg width="25" height="24" viewBox="0 0 25 24" fill="none" xmlns="http://www.w3.org/2000/svg">
<path d="M5.62232 21.8164L4.11426 4.90186H20.6851L19.1756 21.8138L12.3896 23.695L5.62232 21.8164Z" fill="#E44D26"/>
<path d="M12.3999 22.257L17.8832 20.7368L19.1733 6.28503H12.3999V22.257Z" fill="#F16529"/>
<path d="M12.4001 12.5583H9.65487L9.46549 10.4338H12.4001V8.35925H7.19824L7.24774 8.91594L7.75774 14.6326H12.4001V12.5583ZM12.4001 17.9458L12.3909 17.9482L10.0807 17.3242L9.93293 15.6699H7.85037L8.14099 18.9271L12.3905 20.1069L12.4001 20.1041V17.9458Z" fill="#EBEBEB"/>
<path d="M5.65625 0.305054H6.71037V1.3468H7.67487V0.305054H8.72919V3.45918H7.67487V2.40299H6.71056V3.45918H5.65625V0.305054ZM10.1154 1.35112H9.18725V0.305054H12.0982V1.35112H11.1697V3.45918H10.1154V1.35112ZM12.5602 0.305054H13.6593L14.3356 1.41337L15.0112 0.305054H16.1109V3.45918H15.0607V1.8958L14.3356 3.01724H14.3172L13.5916 1.8958V3.45918H12.56V0.305054H12.5602ZM16.6357 0.305054H17.6902V2.41668H19.1727V3.45937H16.6357V0.305054Z" fill="black"/>
<path d="M12.3926 12.5583V14.6326H14.9471L14.7063 17.3231L12.3926 17.9476V20.1058L16.6455 18.9271L16.6766 18.5765L17.1641 13.1152L17.2147 12.5583H16.6556H12.3926ZM12.3926 8.35925V10.4338H17.4035L17.445 9.96744L17.5396 8.91594L17.5893 8.35925H12.3926Z" fill="white"/>
</svg>
