<svg width="25" height="24" viewBox="0 0 25 24" fill="none" xmlns="http://www.w3.org/2000/svg">
<path d="M12.3999 9.52C11.9094 9.52 11.4299 9.66545 11.0221 9.93795C10.6143 10.2105 10.2964 10.5978 10.1087 11.0509C9.92098 11.5041 9.87186 12.0028 9.96756 12.4838C10.0632 12.9649 10.2994 13.4068 10.6463 13.7536C10.9931 14.1005 11.435 14.3367 11.9161 14.4323C12.3972 14.528 12.8958 14.4789 13.349 14.2912C13.8021 14.1035 14.1894 13.7856 14.4619 13.3778C14.7345 12.97 14.8799 12.4905 14.8799 12C14.8799 11.6743 14.8158 11.3518 14.6911 11.0509C14.5665 10.7501 14.3838 10.4767 14.1535 10.2464C13.9232 10.0161 13.6498 9.83341 13.349 9.70878C13.0481 9.58415 12.7256 9.52 12.3999 9.52ZM22.3299 7.07C22.3246 6.29776 22.1824 5.53257 21.9099 4.81C21.7092 4.28126 21.3986 3.80109 20.9987 3.40119C20.5988 3.00128 20.1186 2.69072 19.5899 2.49C18.8673 2.21746 18.1021 2.07526 17.3299 2.07C16.0399 2 15.6599 2 12.3999 2C9.1399 2 8.7599 2 7.4699 2.07C6.69766 2.07526 5.93247 2.21746 5.2099 2.49C4.68116 2.69072 4.201 3.00128 3.80109 3.40119C3.40118 3.80109 3.09062 4.28126 2.8899 4.81C2.61737 5.53257 2.47516 6.29776 2.4699 7.07C2.3999 8.36 2.3999 8.74 2.3999 12C2.3999 15.26 2.3999 15.64 2.4699 16.93C2.48067 17.705 2.62268 18.4725 2.8899 19.2C3.08973 19.7263 3.40003 20.2037 3.7999 20.6C4.1981 21.0023 4.67929 21.3129 5.2099 21.51C5.93247 21.7825 6.69766 21.9247 7.4699 21.93C8.7599 22 9.1399 22 12.3999 22C15.6599 22 16.0399 22 17.3299 21.93C18.1021 21.9247 18.8673 21.7825 19.5899 21.51C20.1205 21.3129 20.6017 21.0023 20.9999 20.6C21.3998 20.2037 21.7101 19.7263 21.9099 19.2C22.1822 18.4739 22.3243 17.7055 22.3299 16.93C22.3999 15.64 22.3999 15.26 22.3999 12C22.3999 8.74 22.3999 8.36 22.3299 7.07ZM19.7899 15.07C19.7578 15.6871 19.6261 16.295 19.3999 16.87C19.2058 17.3497 18.9172 17.7854 18.5513 18.1514C18.1853 18.5173 17.7496 18.8059 17.2699 19C16.6894 19.2136 16.0782 19.3318 15.4599 19.35H9.3399C8.72163 19.3318 8.11039 19.2136 7.5299 19C7.03401 18.8157 6.58618 18.5217 6.2199 18.14C5.85757 17.7813 5.57775 17.3479 5.3999 16.87C5.18546 16.2901 5.07051 15.6782 5.0599 15.06V8.94C5.07051 8.32183 5.18546 7.70988 5.3999 7.13C5.58418 6.6341 5.87818 6.18628 6.2599 5.82C6.62024 5.45962 7.05317 5.18009 7.5299 5C8.11039 4.78641 8.72163 4.66821 9.3399 4.65H15.4599C16.0782 4.66821 16.6894 4.78641 17.2699 5C17.7658 5.18428 18.2136 5.47827 18.5799 5.86C18.9422 6.21875 19.2221 6.65213 19.3999 7.13C19.6135 7.71049 19.7317 8.32173 19.7499 8.94V12C19.7499 14.06 19.8199 14.27 19.7899 15.06V15.07ZM18.1899 7.63C18.0708 7.30698 17.8831 7.01364 17.6397 6.77021C17.3963 6.52678 17.1029 6.33906 16.7799 6.22C16.3364 6.06626 15.8692 5.99179 15.3999 6H9.3999C8.92817 6.00461 8.46097 6.09263 8.0199 6.26C7.70183 6.37366 7.4116 6.55371 7.16849 6.7882C6.92538 7.02269 6.73496 7.30624 6.6099 7.62C6.46468 8.06537 6.39373 8.5316 6.3999 9V15C6.40982 15.4712 6.49767 15.9375 6.6599 16.38C6.77897 16.703 6.96669 16.9964 7.21012 17.2398C7.45354 17.4832 7.74689 17.6709 8.0699 17.79C8.49657 17.9469 8.94556 18.0347 9.3999 18.05H15.3999C15.8716 18.0454 16.3388 17.9574 16.7799 17.79C17.1029 17.6709 17.3963 17.4832 17.6397 17.2398C17.8831 16.9964 18.0708 16.703 18.1899 16.38C18.3573 15.9389 18.4453 15.4717 18.4499 15V9C18.4502 8.5278 18.362 8.05972 18.1899 7.62V7.63ZM12.3999 15.82C11.8987 15.82 11.4025 15.7211 10.9396 15.529C10.4767 15.3369 10.0562 15.0554 9.70228 14.7005C9.34836 14.3457 9.06793 13.9245 8.87705 13.4611C8.68617 12.9977 8.58859 12.5012 8.5899 12C8.5899 11.2441 8.8142 10.5051 9.23439 9.87669C9.65458 9.24828 10.2518 8.75866 10.9504 8.46983C11.649 8.181 12.4176 8.10594 13.1588 8.25415C13.9001 8.40236 14.5808 8.76717 15.1146 9.30241C15.6484 9.83764 16.0115 10.5192 16.1577 11.2609C16.304 12.0026 16.2269 12.771 15.9362 13.4688C15.6456 14.1666 15.1544 14.7625 14.5249 15.1811C13.8954 15.5996 13.1558 15.822 12.3999 15.82ZM16.3999 8.93C16.1788 8.9066 15.9743 8.80222 15.8256 8.63697C15.6769 8.47172 15.5946 8.25729 15.5946 8.035C15.5946 7.81271 15.6769 7.59828 15.8256 7.43303C15.9743 7.26778 16.1788 7.1634 16.3999 7.14C16.621 7.1634 16.8255 7.26778 16.9742 7.43303C17.1229 7.59828 17.2052 7.81271 17.2052 8.035C17.2052 8.25729 17.1229 8.47172 16.9742 8.63697C16.8255 8.80222 16.621 8.9066 16.3999 8.93Z" fill="black"/>
</svg>
