<svg width="25" height="24" viewBox="0 0 25 24" fill="none" xmlns="http://www.w3.org/2000/svg">
<path d="M10.2588 12.7157C10.2588 12.7157 9.64302 13.074 10.6977 13.1951C11.9753 13.341 12.6284 13.32 14.0361 13.0539C14.0361 13.0539 14.4072 13.2859 14.924 13.4869C11.7672 14.8393 7.77946 13.4085 10.2588 12.7157ZM9.87271 10.9504C9.87271 10.9504 9.18196 11.4621 10.2374 11.5712C11.6024 11.712 12.68 11.7236 14.546 11.3644C14.546 11.3644 14.8034 11.6261 15.209 11.7688C11.393 12.8852 7.14252 11.8568 9.87271 10.9504Z" fill="#0074BD"/>
<path d="M13.1248 7.95579C13.9031 8.85167 12.9208 9.65717 12.9208 9.65717C12.9208 9.65717 14.8958 8.63773 13.9888 7.36067C13.1415 6.17023 12.4922 5.57904 16.0084 3.53979C16.0084 3.53979 10.4888 4.91792 13.1248 7.95579Z" fill="#EA2D2E"/>
<path d="M17.2996 14.0215C17.2996 14.0215 17.7556 14.3974 16.7975 14.688C14.9757 15.2398 9.21425 15.4063 7.61394 14.71C7.03906 14.4596 8.11775 14.1124 8.45694 14.0395C8.81075 13.9628 9.01287 13.9768 9.01287 13.9768C8.37312 13.5263 4.87756 14.8616 7.23744 15.2447C13.6732 16.2878 18.9687 14.7748 17.2996 14.0215ZM10.5552 9.12134C10.5552 9.12134 7.62481 9.81752 9.51762 10.0706C10.3171 10.1775 11.9097 10.153 13.3944 10.0285C14.6073 9.92665 15.8246 9.70896 15.8246 9.70896C15.8246 9.70896 15.3972 9.89234 15.0877 10.1035C12.1113 10.8863 6.36275 10.5216 8.01781 9.72134C9.41712 9.04427 10.5552 9.12134 10.5552 9.12134ZM15.8124 12.0595C18.8377 10.4878 17.4387 8.97734 16.4624 9.18077C16.2237 9.23065 16.1165 9.27377 16.1165 9.27377C16.1165 9.27377 16.2056 9.13427 16.3749 9.07446C18.3065 8.39571 19.7917 11.0771 15.752 12.1391C15.752 12.1391 15.7983 12.0971 15.8124 12.0595Z" fill="#0074BD"/>
<path d="M13.9886 0.246216C13.9886 0.246216 15.664 1.92228 12.3994 4.49909C9.78153 6.56665 11.8024 7.74528 12.3983 9.09247C10.8702 7.71359 9.74927 6.49972 10.5012 5.37022C11.6053 3.71234 14.6644 2.90815 13.9886 0.246216Z" fill="#EA2D2E"/>
<path d="M10.8529 16.3198C13.7561 16.5055 18.2158 16.2165 18.3214 14.8427C18.3214 14.8427 18.1185 15.3634 15.9216 15.7766C13.4432 16.2431 10.386 16.189 8.57324 15.8897C8.57324 15.8897 8.94449 16.1972 10.8529 16.3198Z" fill="#0074BD"/>
<path d="M18.1874 18.7839H18.0989V18.7344H18.3371V18.7839H18.2489V19.0309H18.1873L18.1874 18.7839ZM18.6628 18.7963H18.6616L18.5739 19.0309H18.5334L18.4462 18.7963H18.4453V19.0309H18.3868V18.7344H18.4724L18.5533 18.9442L18.6343 18.7344H18.7194V19.0309H18.6628V18.7963ZM10.3771 21.5694C10.1034 21.8068 9.81388 21.9403 9.55382 21.9403C9.18369 21.9403 8.98288 21.7179 8.98288 21.3619C8.98288 20.9766 9.19775 20.6944 10.0588 20.6944H10.3769L10.3771 21.5694ZM11.1329 22.4222V19.7827C11.1329 19.1079 10.748 18.6628 9.821 18.6628C9.27988 18.6628 8.8055 18.7967 8.41982 18.9669L8.53082 19.4344C8.83457 19.3228 9.22738 19.2193 9.61288 19.2193C10.1473 19.2193 10.3769 19.4344 10.3769 19.8795V20.2131H10.1099C8.81225 20.2131 8.22669 20.7165 8.22669 21.4736C8.22669 22.1259 8.61257 22.4966 9.33913 22.4966C9.806 22.4966 10.1549 22.3039 10.4806 22.0217L10.5399 22.4224L11.1329 22.4222ZM13.6552 22.4222H12.7126L11.5781 18.7305H12.4014L13.1056 20.9991L13.2622 21.6806C13.6177 20.6947 13.8697 19.6939 13.9957 18.7307H14.7965C14.5822 19.9459 14.1959 21.2803 13.6552 22.4222ZM17.2717 21.5694C16.997 21.8068 16.7073 21.9403 16.4482 21.9403C16.0777 21.9403 15.8771 21.7179 15.8771 21.3619C15.8771 20.9766 16.0925 20.6944 16.9526 20.6944H17.2715L17.2717 21.5694ZM18.0279 22.4222V19.7827C18.0279 19.1079 17.6418 18.6628 16.7156 18.6628C16.1739 18.6628 15.6997 18.7967 15.314 18.9669L15.4252 19.4344C15.7289 19.3228 16.1223 19.2193 16.5078 19.2193C17.0414 19.2193 17.2717 19.4344 17.2717 19.8795V20.2131H17.0047C15.7066 20.2131 15.1213 20.7165 15.1213 21.4736C15.1213 22.1259 15.5068 22.4966 16.2331 22.4966C16.7002 22.4966 17.0486 22.3039 17.3752 22.0217L17.4348 22.4224L18.0279 22.4222ZM7.39794 23.0496C7.18288 23.3644 6.8345 23.6136 6.4535 23.754L6.08057 23.3143C6.37063 23.1654 6.61907 22.9252 6.73475 22.7014C6.8345 22.5021 6.87594 22.2457 6.87594 21.6324V17.4171H7.67919V21.5745C7.67919 22.3948 7.61394 22.7265 7.39794 23.0496Z" fill="#EA2D2E"/>
</svg>
