<svg width="25" height="24" viewBox="0 0 25 24" fill="none" xmlns="http://www.w3.org/2000/svg">
<path d="M0.664062 0.264038H24.1361V23.7362H0.664062V0.264038Z" fill="#F0DB4F"/>
<path d="M22.2149 18.138C22.043 17.0672 21.3448 16.1678 19.2764 15.3291C18.5579 14.9989 17.7569 14.7625 17.5183 14.218C17.4335 13.9011 17.4223 13.7226 17.4759 13.5308C17.6298 12.9083 18.3729 12.7142 18.9618 12.8927C19.3411 13.0199 19.7002 13.3122 19.9168 13.7785C20.9296 13.1226 20.9276 13.1269 21.6348 12.6762C21.3759 12.2747 21.2377 12.0895 21.0682 11.9177C20.459 11.2373 19.6289 10.8869 18.3014 10.9137L17.6099 11.0031C16.9473 11.1705 16.3158 11.5183 15.9455 11.9847C14.8344 13.2454 15.1513 15.4519 16.5033 16.36C17.8353 17.3597 19.7921 17.5872 20.042 18.522C20.2852 19.6665 19.2009 20.037 18.1231 19.9054C17.3289 19.7402 16.8871 19.3365 16.4096 18.6025C15.5306 19.1112 15.5306 19.1112 14.6268 19.6309C14.8411 20.0995 15.0663 20.3115 15.4256 20.7175C17.1258 22.4421 21.3806 22.3574 22.1437 19.747C22.1746 19.6574 22.3801 19.0596 22.2149 18.138ZM13.424 11.0519H11.2286L11.2196 16.7278C11.2196 17.935 11.282 19.0416 11.0857 19.3808C10.7645 20.0479 9.9322 19.9652 9.55288 19.8359C9.16682 19.6461 8.97051 19.3763 8.74307 18.9949C8.68063 18.8854 8.63376 18.8007 8.61801 18.7941L6.83301 19.8872C7.12982 20.4964 7.56707 21.0252 8.12713 21.3687C8.96376 21.8708 10.0882 22.0247 11.2642 21.7547C12.0296 21.5318 12.6899 21.07 13.0357 20.367C13.5356 19.4455 13.4283 18.33 13.4238 17.0963C13.4351 15.0835 13.424 13.071 13.424 11.0519Z" fill="#323330"/>
</svg>
