<svg width="25" height="24" viewBox="0 0 25 24" fill="none" xmlns="http://www.w3.org/2000/svg">
<path d="M20.8171 11.565C20.8171 16.32 17.0485 20.1746 12.3999 20.1746C7.75098 20.1746 3.98242 16.32 3.98242 11.565C3.98242 6.80996 7.75117 2.95496 12.3999 2.95496C17.0485 2.95496 20.8171 6.80996 20.8171 11.565Z" fill="#D33833"/>
<path d="M4.32602 13.6972C4.32602 13.6972 3.71664 4.7188 11.9895 4.46249L11.4124 3.50061L6.92308 5.00755L5.64058 6.48261L4.5182 8.63117L3.87695 11.1322L4.06914 12.7997" fill="#EF3D3A"/>
<path d="M6.63475 5.69152C5.158 7.20277 4.24413 9.28889 4.24413 11.597C4.24413 13.9046 5.158 15.9913 6.63475 17.5021C8.11225 19.0128 10.1485 19.9453 12.3998 19.9453C14.6511 19.9453 16.6874 19.0128 18.1649 17.5021C19.6416 15.9913 20.5557 13.9046 20.5557 11.597C20.5557 9.28889 19.6416 7.20258 18.1649 5.69152C16.6874 4.18121 14.6511 3.24877 12.3998 3.24858C10.1487 3.24877 8.11225 4.18102 6.63475 5.69171V5.69152ZM6.26107 17.8676C4.69169 16.2624 3.72119 14.0441 3.72119 11.597C3.72119 9.14958 4.69169 6.93146 6.26107 5.32627C7.83044 3.72071 10.0024 2.72564 12.3998 2.72583C14.7976 2.72546 16.9699 3.72071 18.5388 5.32627C20.1085 6.93146 21.079 9.14977 21.0788 11.597C21.0788 14.0439 20.1085 16.2624 18.5388 17.8676C16.9699 19.473 14.7976 20.4682 12.4 20.4682C10.0024 20.4682 7.83007 19.473 6.26107 17.8676Z" fill="#231F20"/>
<path d="M15.9431 11.6126L14.6605 11.805L12.9289 11.9974L11.8065 12.0294L10.7162 11.9975L9.88258 11.7409L9.14495 10.9393L8.56783 9.30392L8.43958 8.95123L7.66989 8.69473L7.22102 7.95711L6.90039 6.89886L7.25308 5.96886L8.0867 5.68048L8.7602 6.00111L9.08083 6.70648L9.46577 6.64236L9.59383 6.48204L9.46577 5.74461L9.43352 4.81461L9.62589 3.53211L9.61839 2.79936L10.2032 1.86467L11.2292 1.12704L13.0251 0.357544L15.0131 0.646106L16.7447 1.89673L17.5465 3.17923L18.0595 4.10923L18.1877 6.41792L17.8028 8.40617L17.0974 10.1696L16.4241 11.0996" fill="#F0D6B7"/>
<path d="M16.9048 10.6829L16.1355 11.4526V14.4346L15.4642 17.1833L15.1416 17.1921L15.3979 20.2705L16.6162 20.1102L16.3279 17.1601L15.7837 17.1749L17.2581 17.0957C17.2581 17.0957 17.9953 15.2359 17.9953 15.1397C17.9953 15.0436 18.6369 12.4463 18.6369 12.4463L17.1936 10.9394L16.905 10.6825L16.9048 10.6829ZM9.177 11.1636L8.37543 11.4844L5.81006 13.2481L5.97056 13.7612L6.70818 15.9415L7.02862 19.5653L7.25306 19.9497L10.4595 21.0404L10.6522 20.8154L10.2673 18.1219V17.3526L14.8526 17.1601L15.2051 16.9677L12.4159 15.6529L12.9289 14.6592L12.1914 14.9155L11.9027 14.5628L11.5179 12.8954L11.1971 12.7992L10.4917 12.5746L9.88237 12.0297L9.177 11.1636Z" fill="#335061"/>
<path d="M7.25325 5.96906L8.08688 5.68031L8.76038 6.00112L9.081 6.70649L9.46594 6.64237L9.56213 6.25762L9.36975 5.52018L9.56213 3.75637L9.40162 2.79449L9.97894 2.12099L11.2296 1.12706L10.8767 0.646118L9.11306 1.51181L8.37562 2.08912L7.95862 2.98687L7.31738 3.85256L7.125 4.87874L7.25325 5.96906Z" fill="#6D6B6D"/>
<path d="M11.5459 0.753942C11.3261 0.751692 11.0691 0.774192 11.0691 0.774192L8.985 1.57613L8.18306 2.37788L7.83038 3.01913L8.568 2.955C8.568 2.955 9.04894 1.7685 10.9729 1.19138C12.1753 0.83063 11.9122 0.75788 11.5459 0.753942ZM9.40181 2.79451L7.63819 3.21132L7.125 4.87875L7.25325 5.96888L7.60575 5.74482C7.60575 5.74482 6.93244 3.49969 9.49762 3.17907L9.40181 2.79451Z" fill="#DCD9D8"/>
<path d="M13.5223 0.0890248C13.2753 0.0934094 13.031 0.140872 12.8004 0.229275C10.8767 0.966712 9.46571 2.31334 9.49759 3.17902C9.55234 4.65352 9.52984 4.65465 9.52984 4.65465C9.52984 4.65465 10.0751 1.83259 12.833 1.28734C15.1033 0.83865 16.2958 1.38334 16.7448 1.89634C16.7448 1.89634 15.198 0.0550873 13.5225 0.0888373L13.5223 0.0890248ZM16.9588 2.21715C16.8566 2.21659 16.0376 2.2374 16.0074 3.01909C16.0074 3.01909 16.0074 3.14715 16.0715 3.2754C16.0715 3.2754 16.8092 2.44159 17.258 2.89046L16.9695 2.21734C16.9695 2.21734 16.9657 2.21715 16.9588 2.21715ZM12.2366 2.59402C12.0791 2.59777 11.8848 2.66359 11.6462 2.82652C10.9408 3.30746 11.0049 3.98096 11.1332 4.10921C11.2614 4.23746 11.2267 4.49546 11.3244 4.31827C11.4219 4.14109 11.3898 3.56415 11.7425 3.40384C12.0952 3.24352 12.6737 3.06409 12.8975 3.36221C12.8975 3.36221 12.7997 2.58109 12.2366 2.59421V2.59402ZM17.1935 4.55827C17.1935 4.55827 16.6652 4.66965 16.6164 5.1354C16.5677 5.60096 17.1937 5.2314 17.2899 5.19934L17.1935 4.55827ZM13.3136 4.59034C13.3136 4.59034 12.6082 4.68652 12.6082 5.1354C12.6082 5.58427 13.41 5.55221 13.6344 5.35984L13.3136 4.59034ZM7.6059 5.74496L6.86865 6.51409L6.9969 7.47615L7.38128 8.4699L7.79846 8.59853C7.18909 7.86109 7.47765 7.34771 7.6059 6.64234C7.73396 5.93677 8.95272 6.67459 8.95272 6.67459L8.92046 6.19327L8.43972 5.8089L7.6059 5.74496ZM14.8451 7.21627C14.634 7.2069 14.5533 7.89784 14.5361 8.07615C14.5942 7.90365 15.1307 7.55678 15.1307 7.55678C15.1307 7.55678 15.1307 7.29502 14.8689 7.2204C14.8612 7.21809 14.8532 7.21671 14.8451 7.21627ZM14.5361 8.07615C14.5309 8.08932 14.5296 8.1037 14.5323 8.11759C14.5323 8.11759 14.5335 8.1024 14.5361 8.07615ZM9.05209 8.32009L8.63209 8.72696L8.72828 10.1379L9.75446 11.7412C9.75446 11.7412 10.9063 12.0011 10.7805 11.9017C9.40178 10.8114 9.30559 8.79109 9.27353 8.56646C9.24165 8.34221 9.05209 8.32009 9.05209 8.32009ZM12.6603 8.79803C12.5338 8.7999 12.45 8.84078 12.4263 8.87228C12.3463 8.97915 12.512 9.56078 12.512 9.56078L12.6723 9.59302C12.6405 8.95159 13.025 8.88727 13.025 8.88727C12.8829 8.81902 12.7588 8.79653 12.6603 8.79803Z" fill="#F7E4CD"/>
<path d="M8.95256 11.1319L5.81006 13.248L6.16275 14.2424L6.99675 17.8334L7.02862 19.7256L7.4775 19.8857C8.11875 18.3464 6.8685 13.3763 6.8685 13.3763L9.88237 12.0297L8.95256 11.1319ZM10.1927 14.7784L10.1068 14.9796C10.1068 14.9796 10.0429 15.5567 10.0429 15.717C10.0429 15.8775 10.1068 17.2245 10.1068 17.2245H10.62V15.3002L10.1925 14.7782L10.1927 14.7784ZM10.2032 17.5129L8.76037 17.577L9.177 17.8658L10.2032 18.0261V17.5129ZM16.9048 10.6829L16.2958 11.3562L18.5404 13.0238L18.6045 12.2543L16.9048 10.6829ZM16.2636 16.9679L15.1416 17.1921L15.3017 18.0902C15.7185 18.2826 16.4241 17.7694 16.4241 17.7694L16.2636 16.9679Z" fill="#49728B"/>
<path d="M9.88232 11.7412V12.0296L10.2899 12.4786L11.5724 13.0558L11.6047 12.0941L10.7161 11.9973L9.88232 11.7412ZM19.2684 16.2945L18.2422 16.6153L17.2578 17.0958L16.7349 17.0002L16.3276 17.1601L16.6711 19.8541L17.9214 19.5011L20.2944 19.3728L20.6471 18.2827L20.0058 16.3908L19.2684 16.2945ZM15.1415 17.192L13.2721 17.1924L10.2673 17.3525L10.3218 18.828L10.6522 20.8155L11.3159 23.5096L12.7908 23.8301L15.2279 23.6377L15.2598 23.1566L14.9711 20.5593L15.1415 17.192ZM15.3884 16.9359L14.6829 15.1402L13.9453 14.082C13.9453 14.082 14.1056 13.6331 14.3302 13.6331H15.0676L15.773 13.8896L15.7091 15.0761L15.3884 16.9359Z" fill="white"/>
<path d="M10.1714 12.1902L10.0752 12.3186L10.6204 12.7032L11.518 12.8954L11.4861 12.511C11.1655 12.6072 10.1714 12.1902 10.1714 12.1902ZM14.6283 13.5689L13.891 13.6649L15.1416 16.615L15.3979 16.6472L15.5262 16.3266C15.5262 16.3266 14.6281 14.5949 14.6281 14.3384C14.6281 14.3384 14.7886 13.9536 15.013 14.0496C15.2376 14.146 15.7188 14.4025 15.7188 14.4025V13.7933L14.6283 13.5689ZM17.6748 16.9358L17.2579 17.0959L17.6106 18.8596C17.4824 18.8275 16.6488 19.2126 16.6488 19.2126L16.7444 19.7256L17.0976 19.5972L18.2196 19.4371L18.5404 19.8539L19.5023 19.8857L20.0796 19.7575L20.5926 18.9882L20.5604 18.4107L20.2079 17.3845C20.3041 18.154 19.9191 18.8918 19.9191 18.8918C19.7588 18.8918 17.9633 18.7954 17.9633 18.7954C17.9633 18.6031 17.6748 16.9358 17.6748 16.9358ZM15.2054 16.9677L14.7244 17.1602C14.7244 17.1602 14.5643 20.4953 15.0453 22.8681C15.0453 22.8681 14.0834 23.4773 12.6723 23.6374L15.3657 23.5412L15.6865 23.3489L15.3018 18.0901L15.2054 16.9677ZM16.0435 20.3984C15.9055 20.3991 15.7004 20.497 15.5554 20.4874C15.5343 20.9939 15.6053 21.8061 15.6291 22.3375C15.9659 22.3379 16.1101 22.264 16.3615 22.1792C16.3898 21.5539 16.1633 20.9751 16.0983 20.4042C16.0804 20.3998 16.0619 20.3979 16.0435 20.3984Z" fill="#DCD9D8"/>
<path d="M16.2955 11.9658C15.8845 11.985 15.3303 12.509 15.0721 12.6009C15.1055 12.6969 15.1602 12.7728 15.1643 12.8953C15.3453 12.8506 15.5656 12.8812 15.7225 12.9583C15.541 12.9785 15.3404 12.9774 15.2204 13.0638C15.1763 13.1908 15.2307 13.3638 15.2013 13.5401C15.6318 13.6616 16.1236 13.7265 16.6675 13.7424C16.7737 13.605 16.8097 13.3425 16.7969 13.0828C16.7819 12.7696 16.6996 12.1258 16.5063 12.0131C16.4425 11.9761 16.3717 11.9625 16.2955 11.9658ZM12.0702 12.1061C11.6345 12.1155 11.6798 12.8763 11.701 13.3421C11.7188 13.7355 11.9238 14.1517 12.0123 14.4133C12.0543 14.5351 12.0637 14.6649 12.1679 14.6889C12.3524 14.732 12.961 14.4888 13.1345 14.3943C13.501 14.1945 13.7857 13.8768 14.0969 13.6636L14.1085 13.3528C13.9214 13.2594 13.7054 13.193 13.4303 13.181C13.6169 13.0873 13.891 13.0886 14.0609 12.977L14.0658 12.8529C13.7557 12.8291 13.6373 12.6909 13.433 12.579C13.0985 12.3963 12.596 12.197 12.164 12.1145C12.1331 12.1084 12.1017 12.1056 12.0702 12.1061ZM14.5883 12.7543C14.5055 12.755 14.4067 12.7863 14.294 12.8617C14.2726 13.0978 14.3277 13.1748 14.3752 13.4458C15.0301 13.6507 15.0361 12.7513 14.5883 12.7543Z" fill="#D33833"/>
<path d="M16.2543 11.7415L15.0359 12.4468L14.9714 12.7993V13.5047L15.4203 13.6652C15.4203 13.6652 15.1959 13.3446 15.3564 13.2484C15.5167 13.1522 15.6772 13.2484 15.7734 13.0881C15.8696 12.9276 15.7734 12.8314 15.8052 12.639C15.8373 12.4466 15.9976 12.4148 16.1579 12.3827C16.3182 12.3508 16.7673 12.2865 16.8314 12.4468L16.6391 11.8697L16.2543 11.7415ZM12.2163 11.9346C12.0575 11.9312 11.9127 11.9575 11.8066 12.0296C11.0527 12.5425 11.6604 13.7276 12.0297 14.4248C11.9985 14.024 11.9648 13.6234 11.9289 13.2231C11.861 12.4768 12.1083 12.6071 12.7554 12.6071C12.8544 12.6071 13.3638 12.7249 13.4004 12.7995C13.5753 13.1567 13.1079 13.0772 13.6017 13.3466C14.0187 13.5739 14.7552 13.2085 14.5869 12.7031C14.4926 12.5906 14.0956 12.6681 13.9533 12.5944L13.2018 12.2048C12.9828 12.091 12.5658 11.9419 12.2163 11.9346ZM12.0296 14.4246C12.0374 14.5243 12.0457 14.6239 12.0534 14.7235L12.1681 14.6891C12.1299 14.6132 12.0821 14.5236 12.0297 14.4248L12.0296 14.4246Z" fill="#EF3D3A"/>
<path d="M13.0685 0.00107396C12.3953 0.013824 11.737 0.125761 11.1884 0.327699C10.7806 0.477699 10.3855 0.611949 10.0274 0.822324C9.06908 1.38482 8.0517 1.76132 7.76764 2.89364C7.06752 3.20714 6.85639 4.1032 6.89164 5.14307C6.89839 5.34576 7.00845 5.59907 6.97039 5.78976C6.95089 5.88651 6.81964 6.01045 6.79339 6.07345C6.45777 6.87351 6.72683 7.9252 7.11458 8.49389C7.34895 8.83739 7.73708 9.14207 8.24895 9.22289C8.26939 9.52945 8.34308 9.79326 8.48464 10.1039C8.57427 10.3004 8.90895 10.6537 8.78577 10.9044C8.72389 11.0308 8.17883 11.3051 7.99808 11.4136C7.38777 11.7796 6.94545 12.0041 6.38202 12.4096C6.01752 12.6721 5.44733 12.7059 5.53733 13.3111C5.59789 13.7195 5.83039 14.2258 5.96333 14.6353C6.10733 15.0772 6.31358 15.482 6.43208 15.9406C6.69552 16.9627 6.75045 17.9257 6.81458 18.9239C6.8397 19.3149 6.79808 19.7285 6.89952 19.9443C7.00414 20.1674 7.39189 20.2387 7.67202 20.3688C8.48108 20.7429 9.33945 21.3142 10.4005 21.2008C10.6535 22.0513 10.8925 22.9571 11.1961 23.702C12.2841 24.0931 14.0018 24.032 15.133 23.8961C15.4769 23.8544 15.8397 23.6848 15.9205 23.3866C15.8963 23.2029 15.8695 23.021 15.8811 22.8037C16.2348 22.7306 16.7161 22.6702 16.7939 22.2787C16.903 21.7297 16.4472 20.9431 16.5993 20.3407C16.804 20.2743 17.0226 20.2224 16.99 19.8991C17.335 19.7195 17.7443 19.6794 18.1812 19.6963C18.2375 19.805 18.3175 19.9096 18.3895 19.9694C19.0015 20.0924 19.5942 20.1026 20.1023 19.9368C20.6774 19.7489 20.9517 18.5728 20.8203 18.0131C20.7269 17.6165 20.5158 16.9668 20.3358 16.5828C19.8481 15.5403 18.3946 16.1947 17.6166 16.5813C17.9941 15.5885 18.3186 14.5591 18.6516 13.4454C18.751 13.1116 18.9475 12.6386 18.9035 12.2928C18.8622 11.9677 18.3552 11.6261 18.0884 11.3684C17.9401 11.2256 17.2486 10.7006 17.2085 10.5041C17.1696 10.3139 17.4905 9.88326 17.5936 9.66782C17.7417 9.35957 17.8478 8.98232 17.9208 8.72564C18.4645 6.81389 18.5198 4.18739 17.7425 2.61576C17.4481 2.02045 16.625 1.19826 16.1103 0.808824C15.3513 0.235074 14.1899 -0.019926 13.0685 0.00107396ZM13.1581 0.533574C14.0669 0.524761 15.0775 0.845386 15.7619 1.23145C16.3338 1.55395 16.7556 2.17795 17.158 2.69714C16.5938 2.5297 16.1136 2.81751 16.2012 3.28289C16.6735 2.84995 17.4803 3.2782 17.719 3.75689C17.9472 4.21439 17.9457 4.89257 17.9808 5.57282C18.0657 7.22245 17.6789 8.92439 16.85 10.1167C16.6283 10.4351 16.4423 10.7831 16.1307 11.0023C15.3796 11.5297 14.2379 12.0078 13.2603 11.6799C11.9684 11.2464 11.3815 10.3856 10.6709 9.39989C10.6902 9.94139 11.071 10.3858 11.4471 10.7999C11.7743 11.1609 12.1692 11.5687 12.5941 11.7371C12.2397 11.6538 11.6956 11.6278 11.5478 11.9459C10.721 11.891 9.95258 11.8064 9.56145 11.246C9.2532 10.8043 8.94008 10.0529 8.79964 9.47264C8.77095 9.35339 8.72183 9.09951 8.73383 9.03445C8.77995 8.78264 9.22845 8.67201 9.05202 8.32007C8.72652 8.31707 8.6532 8.61632 8.35452 8.64595C7.58108 8.72245 7.03545 7.62089 7.07052 6.9562C7.10033 6.39107 7.57808 5.85032 8.23152 5.92176C8.69333 5.97239 8.85027 6.47639 8.93989 6.92489C9.20614 6.93914 9.5907 6.91345 9.7167 6.7057C9.69852 6.19889 9.4632 5.79239 9.47933 5.32664C9.5097 4.45139 9.98652 3.66164 9.61864 2.79951C10.0124 1.90626 11.1676 1.20126 12.022 0.775074C12.353 0.610074 12.745 0.538074 13.1583 0.533949L13.1581 0.533574ZM10.8072 0.973449C10.8443 0.979449 10.8785 1.00832 10.9115 1.04357C10.9058 1.19564 10.7558 1.19245 10.6546 1.2412C10.4971 1.43489 10.2668 1.52545 10.0752 1.7377C9.87852 1.9552 9.65858 2.53945 9.39795 2.60395C9.26727 2.63657 9.11802 2.58145 9.0042 2.58895C8.70327 2.60789 8.49139 2.76201 8.18614 2.80626C8.58027 1.9447 9.8097 1.24757 10.7688 0.975886C10.7812 0.972237 10.7944 0.971405 10.8072 0.973449ZM12.446 2.84339C11.9515 2.84395 11.3885 3.37251 11.2416 3.77582C11.182 3.9397 11.0879 4.26145 11.3243 4.31864C11.5893 3.7282 12.0235 3.15895 12.8975 3.36239C13.0653 3.08657 12.7653 2.88389 12.5436 2.85051C12.5112 2.84568 12.4787 2.8433 12.446 2.84339ZM9.32295 2.93339C9.66083 3.79326 9.08052 4.81514 9.2967 5.75545C9.36289 6.04345 9.59183 6.49045 9.2262 6.5002C9.23577 5.68082 8.21933 5.16089 7.45339 5.64257C7.4022 5.0212 7.31352 4.14764 7.73727 3.68151C8.1282 3.25101 8.66708 2.98307 9.32295 2.93339ZM17.156 4.35782C17.128 4.82976 17.3033 5.11382 17.425 5.44757C17.2146 5.57995 16.8053 5.49745 16.5681 5.60114C16.5513 6.2992 17.6481 5.95514 17.815 5.56645C17.5656 5.2042 17.3948 4.76957 17.1972 4.35951L17.156 4.35782ZM13.345 4.36851C13.2153 4.73676 13.5678 5.36189 13.7654 5.67801C13.508 5.92795 13.045 5.72039 12.7006 5.70426C12.3719 6.22345 13.3424 6.32114 13.7588 6.19814C13.8728 6.16457 14.0701 5.99376 14.0973 5.91689C14.213 5.59195 13.9797 5.44945 13.8597 5.33245C13.5935 5.07295 13.5323 4.71182 13.345 4.36851ZM15.323 4.70789C15.2978 4.70451 15.2676 4.71351 15.2315 4.73976C15.208 5.60526 15.8511 6.3217 16.3308 6.89976C16.5651 7.18195 16.8475 7.3432 16.5875 7.78157C16.1682 7.94095 15.4896 8.39751 14.9067 8.29776C14.5973 8.24489 14.6671 7.8937 14.5561 7.70282C14.3427 7.98351 14.4263 8.4082 14.6461 8.59907C15.6734 8.7007 16.3726 8.2627 16.9996 7.85976C16.9746 7.70189 17.1893 7.41726 17.1297 7.17989C17.1091 7.09814 16.9231 6.97964 16.8102 6.85607C16.3503 6.35451 15.7201 5.60507 15.4696 5.01895C15.4471 4.96645 15.4319 4.72232 15.323 4.70789ZM8.0142 6.32695C7.77664 6.3232 7.56139 6.47976 7.51058 6.84876C7.61595 6.77976 7.70089 6.58345 7.89083 6.67682C7.72395 7.00251 7.76408 7.63682 7.99114 7.84307C7.98983 7.45645 7.92964 6.79551 8.25927 6.81557C8.49008 6.82945 8.53677 7.3237 8.73327 7.43582C8.86883 6.7837 8.41039 6.33295 8.0142 6.32695ZM17.3988 8.26945C16.8976 8.4982 16.4931 8.83139 15.8384 8.8942C15.8067 9.00239 15.8202 9.27539 15.8376 9.45482C16.694 9.43701 17.107 8.82501 17.3988 8.26945ZM13.2955 8.62964C13.5458 9.29957 14.6742 9.53582 15.6286 9.4882C15.6271 9.28982 15.628 9.08882 15.5883 8.92607C14.8458 8.94782 13.8417 8.9167 13.2955 8.62964ZM13.1918 9.16551C12.7094 9.16607 13.1163 9.43439 13.198 9.53939C13.3671 9.75689 13.5655 10.1279 13.8745 10.2922C14.3616 10.5509 15.3291 10.4424 15.6801 10.2997C15.8099 10.2472 15.9145 10.1015 15.9627 9.97851C14.8677 10.0048 13.5696 10.1139 13.1918 9.16551ZM16.8361 11.0086C17.2111 11.3107 17.4376 11.5949 17.7972 11.918C17.9922 12.0929 18.3762 12.3026 18.415 12.5855C18.4366 12.7434 18.3398 13.1302 18.3042 13.3078C18.1467 14.0866 17.7923 15.1156 17.4548 15.9318C17.3322 16.2284 17.2148 16.5993 17.053 16.6634C16.6098 16.8389 16.0718 16.6464 15.6951 16.8809C16.2014 16.0025 16.7526 15.1726 17.2488 14.2837C17.1732 14.1074 16.988 14.0323 16.9341 13.8359C17.2825 13.178 17.1224 11.1354 16.2333 11.5666C16.3576 11.384 16.684 11.2333 16.8361 11.0086ZM9.01283 11.4736C9.09364 11.4418 9.68352 12.2092 9.7707 12.2714C10.2488 12.6108 10.8425 12.8789 11.3976 13.1439C11.4316 13.3987 11.5101 13.7289 11.6485 14.1706C11.801 14.6585 11.9268 15.347 12.5714 14.9953C12.5101 15.2739 12.152 15.4468 12.2508 15.7717C12.3126 15.9755 12.9895 16.2273 13.204 16.3484C13.5998 16.5716 13.961 16.6949 14.2651 16.8254C12.8832 16.8633 11.5855 16.9758 10.3085 17.1496C10.1555 16.9126 10.2171 16.5474 10.201 16.1699C10.1834 15.7601 10.3538 14.8361 10.1928 14.7787C10.0107 14.714 9.97658 15.083 9.97002 15.1644C9.93589 15.5971 10.1761 16.5134 9.93927 17.0315C9.68014 16.9582 9.55245 16.7634 9.30964 16.6749C9.21439 16.9749 9.50689 16.9893 9.47689 17.1798C9.43714 17.4316 8.95995 17.2211 8.96258 17.5955C9.27327 17.6454 9.74989 17.4989 10.082 17.639C10.1688 18.6577 10.3083 19.6229 10.4611 20.705C9.13958 20.6364 8.2842 19.9798 7.31014 19.5243C7.24958 17.3699 6.90627 15.1349 6.05614 13.3106C6.94789 12.6224 7.94577 11.8946 9.01302 11.4738L9.01283 11.4736ZM16.3407 11.966C16.4 11.9688 16.4556 11.9836 16.5065 12.0133C16.7 12.1261 16.7823 12.77 16.7973 13.0831C16.8098 13.3428 16.7736 13.6049 16.6679 13.7426C16.1238 13.7266 15.6321 13.662 15.2016 13.5405C15.2311 13.3642 15.1763 13.1908 15.2204 13.0636C15.3402 12.9774 15.5412 12.9789 15.7225 12.9586C15.5658 12.8814 15.3456 12.8508 15.1647 12.8954C15.1604 12.7728 15.1055 12.6971 15.0723 12.6011C15.3398 12.5056 15.9261 11.9456 16.3407 11.966ZM15.3657 11.9898C15.1373 12.1387 14.9429 12.3249 14.7237 12.4839C14.2375 12.5081 13.9722 12.4503 13.615 12.1711C13.6206 12.1486 13.6566 12.1588 13.6581 12.1312C14.1785 12.3631 14.8403 12.0367 15.3657 11.9898ZM10.2381 11.999C10.5095 12.1874 11.0345 12.1409 11.434 12.2111C11.4546 12.3391 11.3511 12.5073 11.353 12.6856C11.0168 12.665 9.96045 12.2806 10.2381 11.999ZM12.0704 12.1064C12.0995 12.1057 12.1306 12.1085 12.1641 12.1149C12.5961 12.1974 13.0986 12.3965 13.4331 12.5793C13.6375 12.6911 13.7558 12.8291 14.066 12.8531C14.0646 12.8943 14.0628 12.9356 14.0613 12.9772C13.8914 13.0888 13.6171 13.0875 13.4307 13.1812C13.7056 13.1932 13.922 13.2594 14.1091 13.3528L14.0969 13.6638C13.7855 13.877 13.501 14.1944 13.1345 14.3943C12.961 14.4888 12.3526 14.7322 12.1683 14.6891C12.0638 14.6649 12.0545 14.5353 12.0126 14.4134C11.924 14.1519 11.7194 13.7358 11.7014 13.3425C11.6802 12.8765 11.6346 12.1153 12.0704 12.1064ZM14.563 12.7558C14.5887 12.7537 14.6131 12.7544 14.6361 12.7578C15.0348 12.8165 15.0059 13.6432 14.3751 13.4459C14.3277 13.1752 14.2728 13.0979 14.294 12.8619C14.3956 12.7942 14.4856 12.7619 14.563 12.7558ZM14.926 13.6959C15.1544 13.7203 15.3351 14.0353 15.661 14.0146C15.6087 14.8644 15.6361 15.7171 15.3989 16.4956C14.957 15.6853 14.6969 14.7069 14.1248 14.0174C14.1852 13.9533 14.2392 13.8823 14.2985 13.8166C14.5576 13.925 14.7267 13.6745 14.926 13.6959ZM16.24 13.9663C16.5546 13.9638 16.8123 14.1695 16.9538 14.3969C16.5106 15.1563 16.0865 15.936 15.5607 16.6057C15.781 15.9573 15.8755 14.8723 15.9089 14.045C16.0122 13.9951 16.1252 13.9682 16.24 13.9663ZM13.8456 14.2556C14.3706 14.9219 14.6901 15.779 15.0419 16.6063C14.2109 16.3558 13.3619 15.9493 12.6336 15.5371C12.7765 14.9176 13.3368 14.5966 13.8456 14.2556ZM19.379 16.4546C19.6071 16.4602 19.8338 16.6455 19.933 16.7956C20.1123 17.0664 20.2797 17.8634 20.3736 18.2866C20.5137 18.9164 20.1989 19.5296 19.6981 19.6511C19.3336 19.7396 18.7745 19.763 18.5358 19.6477C18.8279 19.4881 19.2668 19.4872 19.6049 19.3777C19.1206 19.1692 18.404 19.3657 17.8216 19.3293C17.7513 18.6103 17.6982 17.8306 17.5278 17.2631C17.8677 16.9018 18.689 16.8149 19.1553 16.5166C19.2218 16.4737 19.2998 16.452 19.379 16.4546ZM19.3394 17.1254C18.7426 17.1431 18.2763 17.3011 18.01 17.6763C18.4943 17.7073 18.8431 17.2248 19.3394 17.1254ZM16.9881 17.2726C17.0303 17.2745 17.072 17.2792 17.1119 17.2882C17.4291 17.8338 17.4974 18.7411 17.4869 19.3996C17.2891 19.4379 17.1606 19.5511 16.9206 19.5436C16.8593 18.7934 16.6851 18.0046 16.6135 17.2899C16.7279 17.2876 16.8612 17.2674 16.9881 17.2726ZM13.3126 17.2807C13.9388 17.2706 14.5463 17.3073 15.0723 17.4168C15.2007 18.2518 15.1529 19.0753 15.2466 19.8937C15.3708 20.9827 15.2778 22.2251 15.4904 23.2454C14.333 23.6041 12.7548 23.5694 11.4453 23.1719C10.8552 21.3639 10.5335 19.6477 10.3115 17.606C11.1715 17.4451 12.2684 17.2976 13.3126 17.2807ZM16.0921 17.3527C16.2989 18.1003 16.2865 19.0514 16.3881 19.8965C16.0754 19.9651 15.8466 19.9987 15.5101 20.0493C15.4431 19.1714 15.392 18.3065 15.404 17.4298C15.6425 17.3499 15.8528 17.3548 16.0921 17.3527ZM18.8082 17.7832C18.572 17.7862 18.3593 17.8376 18.2682 17.9767C18.6788 18.0104 19.1536 17.9448 19.5582 17.9021C19.3737 17.8383 19.076 17.7796 18.8082 17.7832ZM18.7405 18.3907C18.529 18.3933 18.3425 18.4334 18.2466 18.5364C18.6786 18.5726 19.2438 18.5816 19.6985 18.5718C19.5141 18.486 19.093 18.3862 18.7405 18.3907ZM15.9809 20.4037C16.0251 20.3968 16.0653 20.3953 16.0985 20.4041C16.1637 20.975 16.39 21.5536 16.3617 22.1789C16.1105 22.2637 15.9661 22.338 15.6291 22.3374C15.6055 21.806 15.5343 20.9938 15.5556 20.4871C15.6798 20.4954 15.8483 20.4245 15.9809 20.4037Z" fill="#231F20"/>
<path d="M16.24 13.9661C16.1251 13.968 16.0121 13.9949 15.9087 14.0448C15.8753 14.8721 15.7812 15.9571 15.5607 16.6053C16.0866 15.9358 16.5105 15.156 16.9538 14.3968C16.812 14.1693 16.5546 13.9636 16.24 13.9661ZM13.8456 14.2556C13.3367 14.5968 12.7769 14.9178 12.6338 15.5373C13.362 15.9495 14.211 16.3558 15.042 16.6063C14.6903 15.7794 14.3708 14.9221 13.8456 14.2556Z" fill="#81B0C4"/>
<path d="M15.3654 11.9897C15.1371 12.1388 14.9426 12.3248 14.7234 12.484C14.2372 12.508 13.9719 12.4502 13.6147 12.1711C13.6206 12.1486 13.6566 12.1587 13.6579 12.1311C14.1782 12.3631 14.8399 12.0366 15.3654 11.9897Z" fill="#F0D6B7"/>
<path d="M15.2379 14.3865C15.2379 14.4333 15.2194 14.4782 15.1863 14.5112C15.1532 14.5443 15.1084 14.5629 15.0616 14.5629C15.0148 14.5629 14.97 14.5443 14.9369 14.5112C14.9038 14.4782 14.8853 14.4333 14.8853 14.3865C14.8853 14.3398 14.9038 14.2949 14.9369 14.2619C14.97 14.2288 15.0148 14.2102 15.0616 14.2102C15.1084 14.2102 15.1532 14.2288 15.1863 14.2619C15.2194 14.2949 15.2379 14.3398 15.2379 14.3865ZM15.4144 15.2042C15.4144 15.251 15.3958 15.2959 15.3627 15.329C15.3296 15.3621 15.2847 15.3807 15.2379 15.3807C15.1911 15.3807 15.1463 15.3621 15.1132 15.329C15.0801 15.2959 15.0615 15.251 15.0615 15.2042C15.0615 15.1574 15.0801 15.1126 15.1132 15.0795C15.1463 15.0464 15.1911 15.0278 15.2379 15.0278C15.2847 15.0278 15.3296 15.0464 15.3627 15.0795C15.3958 15.1126 15.4144 15.1574 15.4144 15.2042Z" fill="#1D1919"/>
</svg>
