<svg width="25" height="24" viewBox="0 0 25 24" fill="none" xmlns="http://www.w3.org/2000/svg">
<path d="M20.6542 3H11.9883C11.9883 5.16 13.7365 6.909 15.8971 6.909H17.4908V8.45138C17.4908 10.6114 19.2398 12.3604 21.3998 12.3604V3.74569C21.3997 3.54796 21.3211 3.35838 21.1813 3.21857C21.0415 3.07876 20.8519 3.00015 20.6542 3Z" fill="#2684FF"/>
<path d="M16.3599 7.32001H7.69385C7.69385 9.47982 9.44228 11.2288 11.6021 11.2288H13.1966V12.7712C13.1966 14.9312 14.9456 16.6802 17.1056 16.6802V8.06551C17.1053 7.86783 17.0266 7.67834 16.8869 7.53856C16.7471 7.39878 16.5576 7.32031 16.3599 7.32001Z" fill="url(#paint0_linear_726_1216)"/>
<path d="M12.066 11.6396H3.3999C3.3999 13.8004 5.14815 15.5486 7.3089 15.5486H8.90265V17.0918C8.90265 19.2518 10.6517 21 12.8115 21V12.3861C12.8113 12.1884 12.7327 11.9988 12.5929 11.8589C12.4532 11.719 12.2637 11.64 12.066 11.6396Z" fill="url(#paint1_linear_726_1216)"/>
<defs>
<linearGradient id="paint0_linear_726_1216" x1="16.9252" y1="7.32976" x2="13.2382" y2="11.1315" gradientUnits="userSpaceOnUse">
<stop offset="0.176" stop-color="#0052CC"/>
<stop offset="1" stop-color="#2684FF"/>
</linearGradient>
<linearGradient id="paint1_linear_726_1216" x1="12.8807" y1="11.673" x2="8.61765" y2="15.8205" gradientUnits="userSpaceOnUse">
<stop offset="0.176" stop-color="#0052CC"/>
<stop offset="1" stop-color="#2684FF"/>
</linearGradient>
</defs>
</svg>
