<svg width="25" height="24" viewBox="0 0 25 24" fill="none" xmlns="http://www.w3.org/2000/svg">
<path d="M5.51317 0.0206364C5.47567 0.0352614 4.42192 0.635636 3.17186 1.35414C1.65723 2.22489 0.879295 2.68351 0.83767 2.72664C0.802045 2.76882 0.77392 2.81701 0.755545 2.86914C0.724232 2.97489 0.721982 18.4288 0.75367 18.54C0.765107 18.5831 0.80242 18.6465 0.83617 18.6814C0.91792 18.7676 9.96067 23.967 10.0705 23.9921C10.1215 24.0043 10.1787 24.0023 10.2355 23.9865C10.3589 23.9556 19.378 18.7676 19.4583 18.6829C19.4911 18.6463 19.5286 18.5831 19.5408 18.5402C19.5565 18.489 19.5624 17.6814 19.5624 15.9799V13.4936L21.761 12.2308C23.834 11.0389 23.9609 10.9643 24.0142 10.8825L24.0685 10.7944V8.11632C24.0685 5.20107 24.0742 5.36514 23.9589 5.25976C23.9279 5.23239 22.8717 4.61607 21.6095 3.88914L19.3167 2.57064H19.0619L16.8189 3.85876C15.584 4.56901 14.5344 5.17632 14.4832 5.20932C14.4322 5.24307 14.3712 5.30532 14.3463 5.35051L14.3009 5.4287L14.2908 7.95151L14.2818 10.4753L12.4295 11.5421C11.4106 12.1279 10.5625 12.6128 10.5445 12.6173C10.5117 12.6264 10.5095 12.3863 10.5095 7.74864V2.86745L10.4607 2.78364C10.3996 2.68145 10.6737 2.84439 7.92123 1.26226C5.61292 -0.0652386 5.66842 -0.0374886 5.51317 0.0206364ZM7.63511 1.9532C8.60073 2.50726 9.39086 2.9657 9.39086 2.97132C9.39086 2.97714 8.54411 3.46651 7.50929 4.06126L5.62661 5.1422L3.74729 4.06145C2.71473 3.46651 1.86854 2.97714 1.86854 2.97132C1.86854 2.9657 2.71323 2.47632 3.74598 1.88289L5.62079 0.804386L5.75017 0.874886C6.37961 1.23245 7.00792 1.59189 7.63511 1.9532ZM21.0729 4.43964C22.0895 5.02501 22.9306 5.50876 22.9385 5.51664C22.9599 5.53595 19.2309 7.67945 19.1799 7.6772C19.1289 7.6757 15.4458 5.55189 15.4473 5.52601C15.4492 5.49657 19.1547 3.3647 19.1922 3.37051C19.2093 3.37464 20.056 3.85614 21.0729 4.43964ZM3.45611 4.74901L5.24823 5.78082L5.25854 10.8896L5.26792 15.9994L5.31161 16.0684C5.33448 16.1048 5.37761 16.1544 5.40911 16.1773C5.43873 16.1989 6.43604 16.7672 7.62498 17.4381L9.78498 18.6579V20.8193C9.78498 22.0054 9.77692 22.9785 9.76679 22.9785C9.75911 22.9785 7.89179 21.9099 5.61854 20.6018L1.48604 18.2252L1.48042 10.9191L1.47686 3.6152L1.56873 3.66601C1.62179 3.69414 2.47004 4.18126 3.45592 4.74882L3.45611 4.74901ZM9.78498 8.34526V13.0532L9.71242 13.1006C9.61398 13.1629 6.02486 15.2259 6.01267 15.2259C6.00704 15.2259 6.00254 13.1004 6.00254 10.5023L6.00479 5.78064L7.8798 4.70214C8.91086 4.1087 9.76117 3.6272 9.77129 3.63076C9.77861 3.63526 9.78498 5.75701 9.78498 8.34526ZM16.9381 7.26245L18.8174 8.34301V10.485C18.8174 12.5171 18.8154 12.6263 18.7844 12.6144C18.7644 12.6068 17.914 12.1194 16.8939 11.5318L15.0357 10.4649V8.3237C15.0357 7.14489 15.0417 6.1817 15.0474 6.1817C15.0554 6.1817 15.9055 6.6677 16.9381 7.26245ZM23.3439 8.31001C23.3439 9.48264 23.336 10.4498 23.3281 10.4591C23.3146 10.4807 19.5976 12.6225 19.574 12.6225C19.5682 12.6225 19.5624 11.6597 19.5624 10.4807V8.33945L21.4374 7.2602C22.4699 6.6677 23.3202 6.1817 23.3281 6.1817C23.338 6.1817 23.3439 7.13889 23.3439 8.31001ZM18.3985 13.2999L10.1508 18.0075L6.41036 15.8799C6.41036 15.8799 14.6499 11.1144 14.6829 11.1268L18.3985 13.2999ZM18.8139 16.08L18.8075 18.2254L14.6772 20.6021C12.4047 21.9101 10.5369 22.9787 10.5275 22.9787C10.5175 22.9787 10.5097 22.1053 10.5097 20.8194V18.6581L14.6497 16.2971C16.9244 14.9991 18.7936 13.9365 18.8035 13.9343C18.8116 13.9343 18.8152 14.8995 18.8137 16.0798L18.8139 16.08Z" fill="#F0513F"/>
</svg>
