<svg width="25" height="24" viewBox="0 0 25 24" fill="none" xmlns="http://www.w3.org/2000/svg">
<path d="M22.1499 0.562465H2.6499C2.20746 0.557962 1.7813 0.72916 1.46494 1.0385C1.14857 1.34783 0.967842 1.77003 0.962402 2.21246V21.7912C0.968826 22.233 1.14999 22.6542 1.46625 22.9628C1.7825 23.2713 2.2081 23.442 2.6499 23.4375H22.1499C22.5924 23.441 23.0182 23.2692 23.3344 22.9597C23.6506 22.6501 23.8315 22.228 23.8374 21.7856V2.20684C23.8295 1.76571 23.6478 1.34551 23.3318 1.0376C23.0158 0.729686 22.5911 0.558935 22.1499 0.562465ZM7.74428 20.0625H4.34865V9.13684H7.74428V20.0625ZM6.05678 7.64809C5.66732 7.64846 5.28649 7.53331 4.96249 7.31721C4.63848 7.1011 4.38585 6.79376 4.23655 6.43405C4.08726 6.07434 4.048 5.67843 4.12375 5.29641C4.19951 4.91438 4.38686 4.56341 4.66212 4.28789C4.93738 4.01236 5.28818 3.82467 5.67013 3.74856C6.05208 3.67244 6.44803 3.71132 6.80788 3.86027C7.16773 4.00923 7.47532 4.26157 7.69173 4.58537C7.90814 4.90917 8.02365 5.28988 8.02365 5.67934C8.02316 5.9382 7.97163 6.19441 7.872 6.43333C7.77237 6.67225 7.6266 6.88917 7.44304 7.07169C7.25948 7.2542 7.04173 7.39873 6.80225 7.49699C6.56277 7.59526 6.30626 7.64533 6.0474 7.64434L6.05678 7.64809ZM20.4624 20.0625H17.0668V14.7468C17.0668 13.4812 17.0443 11.8518 15.3024 11.8518C13.5605 11.8518 13.2643 13.2318 13.2643 14.6643V20.0625H9.87428V9.13684H13.1293V10.6368H13.1743C13.628 9.77809 14.7343 8.87246 16.3862 8.87246C19.8249 8.86496 20.4624 11.1281 20.4624 14.0625V20.0625Z" fill="black"/>
</svg>
