<svg width="25" height="24" viewBox="0 0 25 24" fill="none" xmlns="http://www.w3.org/2000/svg">
<path d="M22.3999 17C22.3999 17.5304 22.1892 18.0391 21.8141 18.4142C21.439 18.7893 20.9303 19 20.3999 19H4.3999C3.86947 19 3.36076 18.7893 2.98569 18.4142C2.61062 18.0391 2.3999 17.5304 2.3999 17V9.5C2.3999 7 4.3999 5 6.8999 5H18.3999C20.5999 5 22.3999 6.8 22.3999 9V17Z" stroke="black" stroke-width="2" stroke-linecap="round" stroke-linejoin="round"/>
<path d="M15.3999 9H18.3999V11M6.8999 5C9.3999 5 11.3999 7 11.3999 9.5V17C11.3999 17.5304 11.1892 18.0391 10.8141 18.4142C10.439 18.7893 9.93034 19 9.3999 19M6.3999 10H7.3999" stroke="black" stroke-width="2" stroke-linecap="round" stroke-linejoin="round"/>
</svg>
