<svg width="25" height="24" viewBox="0 0 25 24" fill="none" xmlns="http://www.w3.org/2000/svg">
<path d="M13.9399 12.0001C13.9452 13.8018 13.2353 15.532 11.9659 16.8107C10.6966 18.0894 8.97167 18.8121 7.16993 18.8201C5.36819 18.8121 3.64326 18.0894 2.37392 16.8107C1.10458 15.532 0.394615 13.8018 0.399932 12.0001C0.394615 10.1983 1.10458 8.4681 2.37392 7.18938C3.64326 5.91067 5.36819 5.18799 7.16993 5.18005C8.97167 5.18799 10.6966 5.91067 11.9659 7.18938C13.2353 8.4681 13.9452 10.1983 13.9399 12.0001ZM21.3599 12.0001C21.3599 15.5401 19.8499 18.4201 17.9799 18.4201C16.1099 18.4201 14.5899 15.5401 14.5899 12.0001C14.5899 8.46005 16.1099 5.58005 17.9799 5.58005C19.8499 5.58005 21.3599 8.46005 21.3599 12.0001ZM24.3999 12.0001C24.3999 15.1701 23.8699 17.7501 23.2099 17.7501C22.5499 17.7501 22.0199 15.1701 22.0199 12.0001C22.0199 8.83005 22.5499 6.25005 23.2099 6.25005C23.8699 6.25005 24.3999 8.83005 24.3999 12.0001Z" fill="black"/>
</svg>
