<svg width="25" height="24" viewBox="0 0 25 24" fill="none" xmlns="http://www.w3.org/2000/svg">
<path fill-rule="evenodd" clip-rule="evenodd" d="M16.7607 18.776C16.7924 18.7151 16.8228 18.6613 16.8487 18.6056C16.865 18.57 16.8901 18.5629 16.9256 18.5638C17.138 18.5698 17.3504 18.5764 17.5631 18.5784C17.7436 18.5803 17.9246 18.5769 18.1053 18.5749C18.3089 18.5724 18.5126 18.5617 18.716 18.5675C18.9869 18.5754 19.2509 18.6285 19.496 18.749C19.7887 18.8932 20.0101 19.1128 20.1611 19.4021C20.2559 19.5856 20.3152 19.7853 20.3356 19.9909C20.3679 20.2924 20.3467 20.5869 20.2511 20.8753C20.1326 21.2327 19.9076 21.5062 19.595 21.7112C19.3544 21.8689 19.0906 21.962 18.8079 22.0153C18.5086 22.0717 18.2084 22.0535 17.9082 22.0545C17.579 22.0558 17.2499 22.0487 16.9207 22.0449C16.8631 22.0444 16.8549 22.0335 16.8701 21.9785L16.8841 21.9279C16.9162 21.827 16.9334 21.8225 17.0358 21.8057C17.1084 21.7942 17.1778 21.7679 17.2396 21.7282C17.2741 21.7054 17.2884 21.6457 17.3019 21.5998C17.3135 21.5597 17.3141 21.5156 17.3144 21.4732C17.3191 20.831 17.324 20.189 17.3266 19.5472C17.3273 19.3849 17.3233 19.2226 17.3144 19.0605C17.3081 18.947 17.2475 18.8694 17.1125 18.8426C17.0075 18.8218 16.9017 18.8057 16.7962 18.7871L16.7607 18.776ZM19.775 20.331C19.7607 20.2031 19.7538 20.0741 19.7309 19.9481C19.6762 19.6457 19.5438 19.3822 19.3113 19.1758C18.9354 18.8422 18.4827 18.7909 18.0084 18.8306C17.9004 18.8396 17.8771 18.8765 17.8754 18.9875C17.8728 19.145 17.8702 19.3025 17.87 19.46C17.8692 19.9595 17.8692 20.459 17.87 20.9585C17.8702 21.1007 17.8717 21.2428 17.8758 21.3845C17.8803 21.5297 17.933 21.6525 18.0751 21.7087C18.2992 21.7974 18.5349 21.8079 18.77 21.7717C19.1456 21.7142 19.4082 21.4954 19.5845 21.1674C19.724 20.9072 19.7634 20.6231 19.775 20.331ZM20.6879 22.0318C20.6834 21.954 20.7153 21.8897 20.7547 21.8306C20.7654 21.8147 20.8021 21.8154 20.8274 21.8104L21.0423 21.7678C21.1182 21.7517 21.1582 21.7007 21.1689 21.6262C21.176 21.5771 21.1827 21.5274 21.1833 21.4777C21.1884 21.0846 21.1921 20.6914 21.1944 20.2982C21.1962 19.9044 21.1947 19.5107 21.1947 19.1169L21.1931 19.0417C21.1854 18.9152 21.1242 18.8495 20.9986 18.831L20.7262 18.7895C20.6926 18.785 20.6804 18.7689 20.6926 18.7391C20.7136 18.6883 20.7337 18.6356 20.7633 18.5899C20.7744 18.573 20.8117 18.5664 20.8368 18.567C20.9669 18.5689 21.0971 18.5786 21.2272 18.5784L22.3599 18.5717C22.5781 18.5715 22.7889 18.6095 22.9846 18.714C23.2001 18.8287 23.3206 19.0063 23.3551 19.2482C23.3911 19.5022 23.3141 19.7164 23.1284 19.8864C23.0521 19.9565 22.9533 20.0023 22.8648 20.0593L22.8359 20.0773C22.9181 20.1075 22.9962 20.1335 23.0724 20.1647C23.2951 20.256 23.4723 20.3987 23.5661 20.6265C23.6401 20.8063 23.6401 20.9938 23.5962 21.1802C23.528 21.4719 23.3358 21.666 23.0859 21.8128C22.8513 21.9506 22.5974 22.0309 22.3271 22.0444C22.0777 22.0569 21.8272 22.0522 21.5772 22.055L21.4325 22.0558C21.1916 22.0503 20.9507 22.0443 20.7099 22.0378L20.6879 22.0318ZM21.7261 20.8901H21.7286C21.7286 21.0135 21.7269 21.1369 21.7291 21.2602C21.7306 21.3401 21.7278 21.4222 21.7451 21.4991C21.7709 21.614 21.8234 21.7177 21.9524 21.7507C22.1249 21.7961 22.305 21.804 22.4808 21.774C22.7015 21.7355 22.8776 21.6249 22.9741 21.4147C23.0457 21.2585 23.0564 21.093 23.0319 20.9239C22.9992 20.7011 22.8809 20.5395 22.6842 20.4335C22.5552 20.364 22.4176 20.3214 22.271 20.3158C22.1067 20.3096 21.9423 20.3092 21.7781 20.3042C21.7319 20.3029 21.7256 20.3263 21.7257 20.3642C21.7267 20.5393 21.7261 20.7146 21.7261 20.8901ZM22.0758 20.051C22.1656 20.0465 22.2672 20.0452 22.3683 20.0351C22.5618 20.0158 22.6981 19.9185 22.7692 19.7334C22.8054 19.6395 22.8039 19.5427 22.8048 19.445C22.8076 19.1906 22.6591 18.9821 22.4174 18.8959C22.2309 18.8293 22.0385 18.8282 21.845 18.8334C21.7666 18.8355 21.7316 18.8698 21.7304 18.9487L21.7188 19.9779C21.7182 20.0188 21.7359 20.0364 21.7756 20.0377L22.0758 20.051Z" fill="#94795D"/>
<path fill-rule="evenodd" clip-rule="evenodd" d="M2.37693 21.834L2.36324 22.011C2.23574 22.011 2.11818 22.0101 2.00061 22.0114C1.77918 22.0136 1.55774 22.0172 1.33611 22.0204L1.31474 22.0217C1.28305 22.018 1.22549 22.018 1.22399 22.0086C1.21461 21.9559 1.21761 21.9006 1.22005 21.846C1.22024 21.8398 1.2418 21.832 1.25436 21.829L1.42668 21.7905C1.53411 21.7626 1.57199 21.7163 1.57705 21.6053C1.58286 21.4802 1.58868 21.355 1.58924 21.2299C1.59093 20.922 1.58905 20.6145 1.59036 20.3066C1.59055 20.2346 1.56561 20.181 1.49849 20.1518C1.41872 20.1164 1.3384 20.0822 1.25755 20.0494C1.2193 20.034 1.16961 20.0256 1.17411 19.9742C1.17861 19.9219 1.2268 19.9082 1.27218 19.8979C1.46005 19.855 1.64811 19.8131 1.83543 19.7674C1.8958 19.7526 1.95355 19.7276 2.02574 19.7025C2.02949 19.7415 2.03643 19.7786 2.03568 19.8158L2.02461 19.9922C2.02443 20.0121 2.03474 20.0387 2.04955 20.0498C2.05855 20.0567 2.08874 20.0441 2.10374 20.0325C2.26386 19.9106 2.43336 19.8055 2.62668 19.7441C2.92611 19.6491 3.18318 19.7372 3.36318 19.9954C3.42655 20.0863 3.42674 20.0863 3.51468 20.0228C3.66561 19.9131 3.82349 19.8163 4.00011 19.7526C4.38786 19.6125 4.76043 19.7903 4.89524 20.1808C4.94436 20.3226 4.96311 20.469 4.96274 20.6186L4.95918 21.612C4.95899 21.694 4.98618 21.7406 5.06418 21.7661C5.15174 21.7948 5.24249 21.8145 5.34111 21.8404L5.31824 22.0112C5.20611 22.0112 5.10299 22.0105 4.99986 22.0114C4.74786 22.0136 4.49586 22.015 4.24405 22.0208C4.20018 22.0219 4.18874 22.011 4.18649 21.97C4.17918 21.8385 4.17805 21.8387 4.3018 21.8091L4.34343 21.7984C4.46436 21.7654 4.50468 21.7283 4.50561 21.6056C4.50843 21.2535 4.51574 20.9005 4.49793 20.5491C4.47936 20.1846 4.19005 19.9905 3.8368 20.0839C3.72279 20.1151 3.61541 20.1668 3.51993 20.2365C3.48711 20.26 3.48093 20.287 3.48355 20.328C3.49349 20.4833 3.49968 20.6387 3.50099 20.7941C3.50324 21.0662 3.49986 21.3383 3.50099 21.6105C3.50136 21.7208 3.53905 21.763 3.64799 21.7885L3.8098 21.8258L3.8398 21.8325C3.84205 21.8843 3.84411 21.936 3.84168 21.9878C3.84018 22.0202 3.81505 22.023 3.78693 22.0225C3.62961 22.0185 3.47211 22.0133 3.3148 22.0136C3.12336 22.014 2.93211 22.0195 2.74086 22.0228H2.69586C2.69586 21.9679 2.69324 21.9154 2.69774 21.8631C2.69868 21.8505 2.7208 21.8329 2.73599 21.829L2.92461 21.789C3.00468 21.7693 3.04293 21.7283 3.04743 21.6469C3.0688 21.27 3.08418 20.893 3.04874 20.5163C3.0401 20.4419 3.01946 20.3694 2.98761 20.3016C2.89105 20.0882 2.67374 19.9991 2.42305 20.0633C2.30399 20.0936 2.19655 20.1482 2.09493 20.217C2.07276 20.2307 2.05456 20.2499 2.04213 20.2727C2.02969 20.2956 2.02346 20.3213 2.02405 20.3473C2.02405 20.7233 2.02536 21.0992 2.02649 21.475L2.02855 21.6199C2.0308 21.721 2.07374 21.7742 2.17405 21.796C2.23855 21.8106 2.3038 21.8205 2.37693 21.834Z" fill="#50382B"/>
<path fill-rule="evenodd" clip-rule="evenodd" d="M13.7126 19.7409C13.7417 19.8823 13.7411 20.0094 13.6372 20.1058C13.5341 20.2016 13.4036 20.1693 13.2763 20.148C13.2881 20.2151 13.3013 20.2721 13.3076 20.3298C13.3539 20.759 13.1693 21.0776 12.7712 21.2597C12.6208 21.3283 12.4612 21.3538 12.2983 21.3669C12.2173 21.3733 12.1464 21.4352 12.1387 21.5017C12.1309 21.5692 12.1732 21.6386 12.258 21.6588C12.3579 21.6827 12.4622 21.6894 12.5647 21.7012C12.7849 21.7263 13.0074 21.7378 13.2249 21.7772C13.5538 21.8364 13.7374 22.1235 13.6794 22.4538C13.6279 22.7478 13.4576 22.9618 13.2202 23.1258C12.8203 23.403 12.3816 23.484 11.9143 23.3426C11.6471 23.2616 11.4587 23.0859 11.3936 22.8017C11.361 22.6593 11.3957 22.5305 11.5027 22.434C11.6301 22.3196 11.7686 22.2176 11.9019 22.1096L11.9451 22.0663L11.8956 22.0316C11.7596 21.9671 11.6509 21.8788 11.6087 21.7254C11.5942 21.6735 11.6092 21.6393 11.6533 21.6127C11.7283 21.5675 11.8029 21.5216 11.877 21.4749C11.9119 21.4532 11.9464 21.4307 11.9788 21.4055C12.0231 21.3718 12.0191 21.3467 11.9662 21.3272C11.8432 21.2818 11.7339 21.216 11.6492 21.1147C11.5076 20.9458 11.4675 20.7446 11.4791 20.5322C11.4973 20.2003 11.6775 19.9817 11.9704 19.841C12.3186 19.674 12.6679 19.6635 13.0228 19.8157C13.1541 19.872 13.2924 19.884 13.4332 19.8742C13.5384 19.8667 13.6303 19.827 13.7126 19.7409ZM12.4296 22.1186C12.1682 22.1163 12.0862 22.1486 11.9329 22.3048C11.7611 22.4799 11.7621 22.7227 11.9334 22.8986C12.0636 23.0319 12.2259 23.0943 12.4065 23.1131C12.6174 23.1348 12.8252 23.126 13.0168 23.0205C13.2212 22.9074 13.3228 22.6974 13.2769 22.4859C13.2388 22.3113 13.1102 22.2315 12.9536 22.1855C12.7755 22.1334 12.5914 22.1235 12.4296 22.1186ZM11.9162 20.4483C11.9257 20.5209 11.9297 20.5944 11.9458 20.6655C11.9876 20.8496 12.0677 21.0114 12.2509 21.0933C12.4659 21.1899 12.7406 21.1485 12.8347 20.8466C12.8991 20.6457 12.8916 20.4287 12.8136 20.2327C12.7805 20.1431 12.721 20.0657 12.6429 20.0107C12.4562 19.8804 12.1192 19.8632 11.982 20.1512C11.9374 20.2447 11.9199 20.3443 11.9162 20.4483Z" fill="#4F382B"/>
<path fill-rule="evenodd" clip-rule="evenodd" d="M9.27817 19.6946C9.28511 19.7267 9.29898 19.763 9.29936 19.7996C9.29992 19.8692 9.29242 19.9387 9.28848 20.0083V20.0687L9.34736 20.0237C9.50861 19.8909 9.68186 19.7778 9.88361 19.7169C10.2477 19.6072 10.6115 19.8065 10.7302 20.1774C10.7752 20.3184 10.793 20.4633 10.7947 20.6107C10.7984 20.9381 10.8007 21.2655 10.804 21.5928C10.8052 21.7104 10.8187 21.7314 10.9299 21.7653C10.9931 21.7842 11.0577 21.7986 11.123 21.8083C11.1588 21.8139 11.1742 21.828 11.1723 21.863L11.1727 21.8953C11.1714 22.0308 11.162 22.037 11.0305 22.0367C10.7159 22.0361 10.4015 22.038 10.0869 22.0406C9.99311 22.0413 9.99292 22.0442 9.98355 21.9515L9.98167 21.8983C9.98749 21.8184 9.98936 21.8192 10.0679 21.8075C10.1208 21.7997 10.1733 21.7875 10.2249 21.774C10.2779 21.7603 10.3034 21.7211 10.3105 21.6686C10.3141 21.642 10.3188 21.6153 10.3186 21.5887C10.3141 21.231 10.3199 20.8728 10.3004 20.5157C10.2847 20.2267 10.0642 20.0546 9.77411 20.0743C9.63429 20.084 9.49989 20.1322 9.3858 20.2136C9.30836 20.2678 9.2928 20.346 9.29317 20.4302C9.29467 20.7647 9.29786 21.0992 9.30142 21.4338C9.30217 21.5072 9.30423 21.5805 9.31117 21.6532C9.31848 21.7327 9.34642 21.7648 9.42442 21.782C9.49905 21.7985 9.57517 21.8081 9.65486 21.8214L9.66161 21.8829C9.66423 22.0263 9.64923 22.037 9.50992 22.0365C9.18461 22.0352 8.8593 22.0372 8.53417 22.0408C8.48298 22.0415 8.46123 22.0254 8.46255 21.9755L8.4618 21.9542C8.45336 21.825 8.45711 21.8201 8.57936 21.7991L8.63711 21.7875C8.76948 21.7577 8.80342 21.7224 8.8053 21.588C8.81148 21.1622 8.81373 20.7365 8.81805 20.3107C8.81861 20.2496 8.79555 20.2022 8.73855 20.1768C8.65855 20.1418 8.57811 20.1078 8.49724 20.0748C8.45261 20.0565 8.40161 20.0448 8.39992 19.9832C8.3988 19.9397 8.4453 19.9012 8.50886 19.8883C8.63655 19.8624 8.76536 19.8408 8.89155 19.8092C9.01717 19.7778 9.14055 19.7358 9.27817 19.6946Z" fill="#4F372B"/>
<path fill-rule="evenodd" clip-rule="evenodd" d="M16.3119 20.8069C16.3059 21.2046 16.2026 21.5262 15.9213 21.7675C15.5651 22.0737 15.0093 22.1777 14.555 21.9488C14.3611 21.8511 14.2186 21.7013 14.1258 21.5069C13.9835 21.2078 13.9479 20.8934 14.0221 20.5712C14.0956 20.2527 14.2886 20.0219 14.5773 19.8724C14.8743 19.7189 15.1871 19.6589 15.5169 19.7395C15.9341 19.8413 16.2339 20.1814 16.2935 20.6145C16.3042 20.6905 16.3083 20.7674 16.3119 20.8069ZM15.8287 21.0224L15.8126 21.0205C15.8126 20.983 15.8146 20.9455 15.8122 20.908C15.7985 20.6744 15.746 20.4518 15.6106 20.2562C15.4822 20.071 15.3073 19.9617 15.0796 19.9457C14.8248 19.9277 14.6107 20.0702 14.5355 20.3305C14.4226 20.7212 14.4609 21.102 14.6593 21.46C14.7457 21.616 14.8738 21.7311 15.0453 21.7917C15.3815 21.91 15.6796 21.7568 15.7672 21.4125C15.7994 21.2854 15.8088 21.1525 15.8287 21.0224Z" fill="#4F382B"/>
<path fill-rule="evenodd" clip-rule="evenodd" d="M8.05342 20.8376C8.04649 21.123 7.97917 21.3868 7.80292 21.6161C7.61411 21.8618 7.35461 21.993 7.05949 22.0483C6.71055 22.1136 6.3828 22.0543 6.10249 21.8201C5.96936 21.7088 5.87842 21.5661 5.81842 21.4037C5.71999 21.1374 5.69542 20.8646 5.75599 20.5866C5.82067 20.289 5.98867 20.0616 6.24911 19.9089C6.55024 19.7329 6.87517 19.6543 7.22224 19.7334C7.66849 19.8354 7.92611 20.1263 8.02136 20.5665C8.04049 20.6554 8.04311 20.7473 8.05342 20.8376ZM7.5648 21.0259L7.55186 21.024V20.9704C7.54455 20.7086 7.49336 20.4593 7.33717 20.2418C7.22149 20.0803 7.06661 19.9791 6.86805 19.9508C6.54442 19.9046 6.33292 20.0966 6.2628 20.3574C6.1713 20.6981 6.19999 21.0347 6.34155 21.3578C6.42986 21.5591 6.56936 21.7161 6.78367 21.7922C7.1178 21.9109 7.42042 21.7538 7.50499 21.4108C7.53611 21.2854 7.54549 21.1545 7.5648 21.0259Z" fill="#4F372B"/>
<path fill-rule="evenodd" clip-rule="evenodd" d="M15.8428 6.28955C16.0729 6.95461 16.2382 7.63355 16.2928 8.33705C16.3603 9.21005 16.3295 10.0771 16.1454 10.9356L16.1218 11.0042C16.064 11.0044 16.0052 10.9971 15.9487 11.0059C15.4719 11.0809 14.9957 11.1586 14.5192 11.2358C14.0267 11.3157 13.5337 11.3924 13.0421 11.4775C12.8679 11.5075 12.6523 11.4717 12.582 11.7124L12.5482 11.7239L12.572 10.2842L12.5479 6.81061L12.7774 6.77124C13.1525 6.70993 13.5277 6.64749 13.9035 6.58768C14.3516 6.51661 14.8001 6.44724 15.2486 6.37786C15.4466 6.34749 15.6448 6.31918 15.8428 6.28955Z" fill="#439934"/>
<path fill-rule="evenodd" clip-rule="evenodd" d="M12.0744 15.9209C11.8323 15.7127 11.5818 15.5138 11.3499 15.2948C10.1015 14.1173 9.1882 12.7311 8.73839 11.0599C8.61445 10.6002 8.53195 10.1327 8.50532 9.65761C8.48657 9.32498 8.45976 8.98954 8.48339 8.65861C8.54582 7.77867 8.67314 6.90717 8.93114 6.05948L8.94539 6.03979C8.97051 6.07317 9.00651 6.10279 9.01926 6.14048C9.27126 6.88223 9.5212 7.62473 9.77001 8.36779C10.5517 10.7024 11.3325 13.0375 12.1155 15.3717C12.1308 15.4172 12.1704 15.4545 12.1989 15.4956L12.0744 15.9209Z" fill="#45A538"/>
<path fill-rule="evenodd" clip-rule="evenodd" d="M15.8426 6.28949C15.6444 6.31893 15.4462 6.34743 15.2484 6.37781C14.7999 6.44718 14.3514 6.51656 13.9033 6.58762C13.5277 6.64725 13.1525 6.70968 12.7772 6.77118L12.5477 6.81056L12.5458 6.66093C12.5381 6.53793 12.5254 6.41493 12.5237 6.29193L12.498 3.93806C12.492 3.447 12.483 2.95593 12.473 2.46506C12.468 2.15996 12.4592 1.85494 12.4466 1.55006C12.4391 1.38637 12.4127 1.22343 12.4022 1.05975C12.396 0.96562 12.4042 0.870745 12.4063 0.776245C12.5233 1.00293 12.6379 1.23131 12.758 1.45631C12.948 1.812 13.2508 2.07412 13.5236 2.36006C14.601 3.49087 15.3658 4.80487 15.8426 6.28949Z" fill="#46A037"/>
<path fill-rule="evenodd" clip-rule="evenodd" d="M12.5484 11.7238L12.5822 11.7123C12.6525 11.4716 12.8681 11.5074 13.0423 11.4774C13.5339 11.3923 14.0269 11.3156 14.5194 11.2357C14.9959 11.1586 15.4721 11.081 15.9489 11.0058C16.0054 10.997 16.0643 11.0043 16.122 11.0041C16.0329 11.3221 15.9628 11.6471 15.8498 11.9563C15.7213 12.3069 15.5661 12.6493 15.4013 12.9849C15.1544 13.4854 14.8489 13.9548 14.4913 14.3833C14.2164 14.7136 13.9101 15.0194 13.6031 15.3211C13.4333 15.4878 13.2334 15.6238 13.047 15.7738L12.9986 15.7408L12.8248 15.5923L12.645 15.1978C12.5221 14.7377 12.4551 14.2646 12.4453 13.7885L12.4487 13.7083L12.4733 13.3606C12.4813 13.2419 12.4922 13.1234 12.4973 13.0048C12.5153 12.578 12.5314 12.1509 12.5484 11.7238Z" fill="#409433"/>
<path fill-rule="evenodd" clip-rule="evenodd" d="M12.5486 11.7238C12.5317 12.1509 12.5156 12.5782 12.4974 13.0053C12.4924 13.1242 12.4817 13.2427 12.4734 13.3612L12.3639 13.4026C12.1206 12.6862 11.877 11.9773 11.6389 11.2666C11.2449 10.0908 10.8559 8.91332 10.4625 7.73714C10.1448 6.78789 9.82496 5.83939 9.50286 4.89164C9.48768 4.84739 9.44455 4.81251 9.41455 4.77332L10.1158 3.48389C10.14 3.5257 10.1717 3.56489 10.1869 3.60989C10.5112 4.56989 10.8351 5.53007 11.1561 6.4912C11.5738 7.74182 11.9887 8.99301 12.4061 10.2438C12.4228 10.2937 12.4502 10.3398 12.4764 10.3959L12.5724 10.2841L12.5486 11.7238Z" fill="#4FAA41"/>
<path fill-rule="evenodd" clip-rule="evenodd" d="M9.41406 4.77332C9.44425 4.8125 9.48738 4.84738 9.50238 4.89163C9.8245 5.83937 10.1444 6.78787 10.462 7.73713C10.8554 8.91332 11.2444 10.0908 11.6384 11.2666C11.8765 11.9773 12.1201 12.686 12.3634 13.4026L12.4729 13.3612L12.4484 13.7088L12.4261 13.7889C12.388 14.1693 12.3559 14.5505 12.3094 14.9302C12.2862 15.1205 12.2365 15.3073 12.1988 15.4955C12.1705 15.4544 12.1308 15.4171 12.1154 15.3716C11.3322 13.0374 10.5516 10.7023 9.76994 8.36769C9.52123 7.62473 9.27098 6.88229 9.01919 6.14038C9.00644 6.10269 8.97044 6.07307 8.94531 6.03969L9.41406 4.77332Z" fill="#4AA73C"/>
<path fill-rule="evenodd" clip-rule="evenodd" d="M12.5719 10.2841L12.4759 10.3959C12.4496 10.3398 12.4222 10.2937 12.4055 10.2438C11.9882 8.99301 11.5732 7.74183 11.1555 6.4912C10.8341 5.5302 10.511 4.56976 10.1863 3.60989C10.1711 3.56489 10.1394 3.5257 10.1152 3.48389L10.9824 2.34314C11.0098 2.37951 11.0488 2.41195 11.0629 2.45301C11.3036 3.15801 11.5421 3.86358 11.7795 4.5697C12.0011 5.22933 12.2194 5.8897 12.4436 6.5482C12.4586 6.59226 12.5109 6.62339 12.5458 6.66089L12.5477 6.81052L12.5719 10.2841Z" fill="#57AE47"/>
<path fill-rule="evenodd" clip-rule="evenodd" d="M12.5458 6.66099C12.5107 6.62368 12.4586 6.59255 12.4436 6.5483C12.2195 5.8898 12.0011 5.22943 11.7795 4.5698C11.5423 3.86367 11.3034 3.15811 11.0629 2.45311C11.0488 2.41205 11.0098 2.37961 10.9824 2.34324C11.2644 2.06705 11.5376 1.78093 11.831 1.51749C12.0919 1.28349 12.3015 1.03261 12.3112 0.662677L12.3319 0.588989L12.4061 0.776114C12.4042 0.870614 12.3958 0.965489 12.402 1.05961C12.4127 1.2233 12.4391 1.38624 12.4464 1.54993C12.4601 1.85461 12.4667 2.15986 12.4729 2.46493C12.4828 2.9558 12.4918 3.44686 12.4978 3.93793L12.5235 6.2918C12.5254 6.41499 12.5383 6.53799 12.5458 6.66099Z" fill="#60B24F"/>
<path fill-rule="evenodd" clip-rule="evenodd" d="M12.1989 15.4954C12.2366 15.3071 12.2863 15.1204 12.3095 14.93C12.356 14.5505 12.3881 14.1692 12.4262 13.7887L12.4357 13.7872L12.4451 13.7889C12.4549 14.265 12.5219 14.7381 12.6448 15.1982C12.6195 15.2315 12.584 15.261 12.5705 15.2985C12.4665 15.5921 12.3682 15.8882 12.2636 16.1816C12.2493 16.2217 12.2092 16.253 12.1813 16.2881L12.0742 15.9206L12.1989 15.4954Z" fill="#A9AA88"/>
<path fill-rule="evenodd" clip-rule="evenodd" d="M12.1816 16.2883C12.2096 16.2531 12.2497 16.2219 12.264 16.1818C12.3686 15.8884 12.4668 15.5923 12.5709 15.2987C12.5842 15.2612 12.6198 15.2317 12.6451 15.1984L12.825 15.5929C12.7895 15.6431 12.7404 15.6887 12.7207 15.7447L12.3765 16.7557C12.3622 16.7964 12.314 16.8249 12.2814 16.8592L12.1816 16.2883Z" fill="#B6B598"/>
<path fill-rule="evenodd" clip-rule="evenodd" d="M12.2812 16.859C12.3137 16.8247 12.3621 16.7962 12.3763 16.7555L12.7206 15.7445C12.7401 15.6885 12.7894 15.6429 12.8248 15.5927L12.9988 15.741C12.9148 15.824 12.8681 15.92 12.8963 16.0413L12.8434 16.2144C12.8194 16.244 12.7845 16.2699 12.7727 16.3038C12.6525 16.6481 12.5379 16.9942 12.4168 17.3383C12.4014 17.3818 12.3589 17.4161 12.3291 17.4547L12.2812 16.859Z" fill="#C2C1A7"/>
<path fill-rule="evenodd" clip-rule="evenodd" d="M12.3289 17.4545C12.3589 17.4159 12.4015 17.3816 12.4167 17.3381C12.5378 16.994 12.6526 16.6479 12.7726 16.3037C12.7844 16.2697 12.8192 16.244 12.8432 16.2142L12.7703 17.0085C12.7508 17.031 12.7227 17.0507 12.7133 17.0767L12.4707 17.772C12.4536 17.8194 12.421 17.8618 12.3955 17.9062C12.3728 17.8766 12.3323 17.8479 12.3304 17.8172C12.3233 17.6968 12.3284 17.5755 12.3289 17.4545Z" fill="#CECDB7"/>
<path fill-rule="evenodd" clip-rule="evenodd" d="M12.3955 17.9064C12.421 17.862 12.4536 17.8196 12.4707 17.7722L12.7133 17.0769C12.7227 17.0507 12.751 17.0312 12.7703 17.0087L12.7722 17.5299L12.5976 17.9775L12.3955 17.9064Z" fill="#DBDAC7"/>
<path fill-rule="evenodd" clip-rule="evenodd" d="M12.5977 17.9775L12.7722 17.5299L12.8082 18.0594L12.5977 17.9775Z" fill="#EBE9DC"/>
<path fill-rule="evenodd" clip-rule="evenodd" d="M12.8958 16.0413C12.8679 15.9202 12.9144 15.8242 12.9984 15.741L13.0468 15.774L12.8958 16.0413Z" fill="#CECDB7"/>
<path fill-rule="evenodd" clip-rule="evenodd" d="M12.4452 13.7891L12.4358 13.7874L12.4263 13.7889L12.4486 13.7089L12.4452 13.7891Z" fill="#4FAA41"/>
</svg>
