<svg width="25" height="24" viewBox="0 0 25 24" fill="none" xmlns="http://www.w3.org/2000/svg">
<path d="M12.3999 3C11.2064 4.19347 10.5359 5.81217 10.5359 7.5C10.5359 9.18783 11.2064 10.8065 12.3999 12C13.5934 13.1935 15.2121 13.864 16.8999 13.864C18.5877 13.864 20.2064 13.1935 21.3999 12C21.3999 13.78 20.8721 15.5201 19.8831 17.0001C18.8942 18.4802 17.4886 19.6337 15.8441 20.3149C14.1995 20.9961 12.3899 21.1743 10.6441 20.8271C8.89827 20.4798 7.29462 19.6226 6.03595 18.364C4.77727 17.1053 3.92011 15.5016 3.57284 13.7558C3.22557 12.01 3.4038 10.2004 4.08499 8.55585C4.76618 6.91131 5.91973 5.50571 7.39977 4.51677C8.87982 3.52784 10.6199 3 12.3999 3Z" stroke="black" stroke-width="2" stroke-linecap="round" stroke-linejoin="round"/>
</svg>
