<svg width="25" height="24" viewBox="0 0 25 24" fill="none" xmlns="http://www.w3.org/2000/svg">
<path d="M0.399902 17.1212H1.19528V13.9811L2.4264 16.7182C2.57134 17.0501 2.7699 17.1665 3.16028 17.1665C3.55065 17.1665 3.74115 17.0501 3.88609 16.7182L5.11721 13.9811V17.121H5.91259V13.9864C5.91259 13.6802 5.79034 13.5322 5.53759 13.4561C4.93328 13.2679 4.52828 13.4304 4.34453 13.8384L3.13684 16.5403L1.96721 13.8384C1.79153 13.4304 1.37846 13.2679 0.774902 13.4561C0.522152 13.5322 0.399902 13.6802 0.399902 13.9864L0.399902 17.1212ZM6.57428 14.565H7.3689V16.295C7.36159 16.3888 7.3989 16.6093 7.83465 16.6166H9.56396V14.5562H10.3608C10.3646 14.5562 10.3593 17.3657 10.3593 17.3775C10.3637 18.0703 9.50021 18.2205 9.10178 18.2323H6.59115V17.6975L9.10628 17.6968C9.61815 17.6434 9.5574 17.3884 9.5574 17.3034V17.0947H7.86765C7.08109 17.0874 6.58084 16.7439 6.57428 16.349C6.57353 16.3132 6.59115 14.5826 6.57428 14.565Z" fill="#00618A"/>
<path d="M10.9731 17.1212H13.2597C13.5271 17.1212 13.7871 17.0648 13.9936 16.9682C14.3378 16.8107 14.5055 16.5962 14.5055 16.3157V15.7349C14.5055 15.5056 14.315 15.2911 13.94 15.1489C13.7414 15.0721 13.4961 15.0317 13.2595 15.0317H12.2956C11.9748 15.0317 11.8218 14.935 11.7837 14.7212C11.7764 14.6956 11.7764 14.6751 11.7764 14.6494V14.2876C11.7764 14.2671 11.7764 14.2465 11.7837 14.221C11.8218 14.0584 11.906 14.0123 12.1887 13.9866L12.2656 13.9816H14.536V13.4521H12.3038C11.983 13.4521 11.8146 13.4725 11.6615 13.5181C11.1876 13.666 10.981 13.9004 10.981 14.3084V14.7721C10.981 15.1287 11.386 15.4349 12.0665 15.5059L12.2958 15.5162H13.1219C13.1526 15.5162 13.1826 15.5162 13.2061 15.5213C13.4581 15.5417 13.565 15.5879 13.6418 15.6796C13.6814 15.7161 13.7041 15.7682 13.7026 15.8217V16.2861C13.7026 16.3418 13.6645 16.4136 13.5884 16.4744C13.5196 16.5359 13.4046 16.5762 13.2522 16.5865L13.168 16.5916H10.9731V17.1212ZM19.4663 16.1984C19.4663 16.744 19.8721 17.0494 20.6894 17.1109L20.9195 17.1212H22.9915V16.591H20.9041C20.4376 16.591 20.2617 16.4738 20.2617 16.1933V13.4509H19.4671V16.1982L19.4663 16.1984ZM15.0132 16.2261V14.3357C15.0132 13.8559 15.3509 13.5646 16.0173 13.4729C16.0884 13.4626 16.1601 13.4575 16.232 13.4575H17.7408C17.8176 13.4575 17.8865 13.4626 17.9635 13.4729C18.6301 13.5644 18.967 13.8559 18.967 14.3357V16.2261C18.967 16.6157 18.8241 16.8239 18.494 16.96L19.2777 17.6669H18.3541L17.7205 17.0948L17.0826 17.1351H16.2323C16.0743 17.1346 15.9171 17.1123 15.7651 17.0691C15.259 16.9315 15.0136 16.6656 15.0136 16.2261H15.0132ZM15.8716 16.18C15.8716 16.2057 15.8789 16.2312 15.887 16.2621C15.9331 16.4819 16.1397 16.6041 16.4538 16.6041H17.176L16.5125 16.0051H17.4361L18.0147 16.528C18.1216 16.4708 18.1911 16.3844 18.2161 16.2724C18.2234 16.2467 18.2234 16.2212 18.2234 16.1956V14.3828C18.2234 14.3624 18.2234 14.3367 18.2161 14.311C18.17 14.1066 17.9633 13.9894 17.6566 13.9894H16.454C16.1016 13.9894 15.8718 14.1424 15.8718 14.3828L15.8716 16.18Z" fill="#E48E00"/>
<path d="M23.691 12.5713C23.2025 12.5582 22.8288 12.6036 22.5095 12.7384C22.4188 12.7765 22.2736 12.7772 22.259 12.8908C22.3089 12.9435 22.317 13.0219 22.3565 13.0857C22.4326 13.2094 22.5616 13.3742 22.6766 13.4607L23.0655 13.7389C23.3041 13.8846 23.5715 13.9682 23.8023 14.1139C23.9379 14.2003 24.0725 14.3087 24.2051 14.4062C24.2703 14.4538 24.3142 14.5292 24.3999 14.5592V14.5453C24.3553 14.4882 24.3435 14.4098 24.3024 14.3505L24.1215 14.1696C23.945 13.9352 23.7208 13.7293 23.4821 13.558C23.2916 13.4217 22.8669 13.2372 22.787 13.0159L22.7731 13.002C22.908 12.9874 23.0662 12.9383 23.19 12.9053C23.3994 12.8488 23.5861 12.8635 23.8016 12.8078L24.0939 12.7236V12.6687C23.9848 12.5565 23.9071 12.4086 23.7877 12.3068C23.4772 12.0424 23.1373 11.7773 22.7872 11.556C22.5931 11.4338 22.3537 11.3547 22.1478 11.2506C22.079 11.2155 21.9573 11.1979 21.9112 11.1392C21.8036 11.0016 21.7449 10.8272 21.6615 10.6667L21.1612 9.61053C21.0558 9.3696 20.9868 9.13147 20.855 8.91547C20.2245 7.87766 19.5448 7.25141 18.4921 6.63622C18.2688 6.50516 17.9985 6.45378 17.7144 6.38647L17.2552 6.35872C17.1622 6.31916 17.0655 6.20497 16.9777 6.15003C16.6291 5.92953 15.7348 5.45066 15.4762 6.08047C15.3136 6.47816 15.7201 6.86628 15.8658 7.06785C15.9676 7.20922 16.0987 7.36747 16.1713 7.52628C16.2196 7.63035 16.2277 7.73497 16.2688 7.8456C16.3698 8.11803 16.4578 8.41391 16.5888 8.66591C16.6548 8.79341 16.7272 8.92747 16.8108 9.04091C16.862 9.11047 16.95 9.14197 16.9638 9.2496C16.8781 9.36978 16.8731 9.55578 16.8247 9.70803C16.6072 10.3928 16.6891 11.2438 17.0056 11.7514C17.1024 11.9067 17.3308 12.2406 17.645 12.1125C17.9197 12.0004 17.8582 11.6541 17.9366 11.3479C17.955 11.2791 17.9439 11.2277 17.9784 11.1816V11.1955L18.2289 11.6957C18.4141 11.9938 18.7423 12.3051 19.0207 12.5153C19.1656 12.6244 19.2793 12.8134 19.466 12.8772V12.8625H19.4521C19.4156 12.8068 19.3591 12.7834 19.313 12.738C19.2039 12.6312 19.083 12.4986 18.9937 12.3762C18.7402 12.0327 18.5161 11.6562 18.3125 11.2643C18.215 11.0775 18.1301 10.8709 18.0481 10.6806C18.0166 10.6073 18.0174 10.4961 17.9514 10.4586C17.8614 10.5977 17.7288 10.7106 17.6591 10.8754C17.5477 11.1383 17.5338 11.4598 17.492 11.7925L17.4643 11.8063C17.271 11.7595 17.2027 11.5603 17.1311 11.3895C16.9486 10.9573 16.9151 10.2608 17.0754 9.76353C17.1165 9.63472 17.304 9.22878 17.2278 9.11028C17.192 8.9916 17.0726 8.92278 17.0058 8.83203C16.9186 8.71034 16.844 8.58004 16.7833 8.44316C16.6346 8.10547 16.565 7.72766 16.4083 7.38697C16.3336 7.22366 16.2069 7.05885 16.1028 6.91391C15.9871 6.7536 15.8581 6.63566 15.7689 6.44141C15.7374 6.3726 15.6943 6.26197 15.7411 6.19091C15.7558 6.14328 15.7777 6.1236 15.8246 6.10822C15.9052 6.04597 16.13 6.12866 16.2135 6.16316C16.4368 6.25616 16.623 6.3441 16.8118 6.46935C16.9018 6.52935 16.9935 6.64578 17.1033 6.67803H17.2286C17.4241 6.72266 17.6431 6.69116 17.8263 6.74685C18.1494 6.84491 18.4395 6.9981 18.7016 7.16441C19.5028 7.66972 20.1577 8.38972 20.6058 9.24885C20.6784 9.38722 20.7091 9.51903 20.7729 9.66566C20.9011 9.96153 21.0622 10.2662 21.1897 10.5555C21.3172 10.8448 21.441 11.1357 21.6204 11.3758C21.7149 11.5018 22.0803 11.5692 22.2459 11.6395C22.3623 11.6886 22.5528 11.7398 22.6627 11.8065C22.8736 11.9333 23.0773 12.084 23.2751 12.2233C23.3731 12.2937 23.6765 12.4461 23.6919 12.5712L23.691 12.5713ZM17.4778 7.27597C17.3937 7.27453 17.3097 7.28386 17.228 7.30372V7.3176H17.2419C17.2903 7.41791 17.376 7.48241 17.436 7.5681L17.5751 7.85966L17.589 7.84653C17.6754 7.78578 17.7142 7.68828 17.7142 7.54035C17.6791 7.50378 17.6746 7.45841 17.6446 7.4151C17.6051 7.35716 17.5284 7.3251 17.4778 7.27597Z" fill="#00618A"/>
</svg>
