<svg width="25" height="24" viewBox="0 0 25 24" fill="none" xmlns="http://www.w3.org/2000/svg">
<path d="M21.8334 10.3601C21.8238 10.3601 21.8143 10.363 21.8063 10.3684L21.3664 10.6252C21.3581 10.6304 21.3513 10.6375 21.3466 10.6461C21.342 10.6546 21.3396 10.6642 21.3398 10.674V11.1877C21.3398 11.2095 21.3501 11.226 21.3664 11.2369L21.8063 11.4934C21.8143 11.4987 21.8238 11.5016 21.8334 11.5016C21.8431 11.5016 21.8526 11.4987 21.8606 11.4934L22.2998 11.2369C22.3081 11.2316 22.315 11.2244 22.3198 11.2157C22.3245 11.2071 22.327 11.1974 22.3269 11.1875V10.6744C22.327 10.6646 22.3245 10.655 22.3197 10.6464C22.315 10.6379 22.3081 10.6307 22.2998 10.6256L21.8604 10.3685C21.8524 10.3632 21.8431 10.3601 21.8334 10.3601ZM12.2535 13.4321C12.1734 13.4321 12.0938 13.4516 12.0259 13.4899L9.86044 14.7512C9.79102 14.7919 9.73347 14.8501 9.69353 14.9199C9.6536 14.9898 9.63266 15.0689 9.63281 15.1494V17.6662C9.63281 17.8301 9.71944 17.9831 9.86044 18.0652L10.4304 18.3926C10.7072 18.5291 10.8049 18.5287 10.9296 18.5287C11.3364 18.5287 11.5699 18.2777 11.5699 17.8462V15.3628C11.5696 15.3455 11.5627 15.329 11.5505 15.3167C11.5384 15.3044 11.5219 15.2974 11.5046 15.297H11.2283C11.2109 15.2973 11.1944 15.3043 11.1821 15.3166C11.1699 15.3289 11.1629 15.3454 11.1626 15.3628V17.8468C11.1626 18.0379 10.9622 18.2293 10.6421 18.0656L10.0506 17.7215C10.0288 17.7107 10.0178 17.6829 10.0178 17.6612V15.1438C10.0178 15.122 10.0288 15.095 10.0506 15.084L12.2153 13.8283C12.2316 13.8174 12.2589 13.8174 12.2807 13.8283L14.4459 15.084C14.4675 15.095 14.4782 15.1166 14.4782 15.144V17.661C14.4782 17.6882 14.4675 17.7105 14.4459 17.7214L12.2807 18.9827C12.2644 18.9935 12.237 18.9935 12.2153 18.9827L11.6619 18.6491C11.6456 18.6382 11.6239 18.6328 11.6076 18.6437C11.4557 18.731 11.4291 18.7425 11.2824 18.7916C11.2498 18.8025 11.1956 18.824 11.304 18.884L12.0259 19.3157C12.0964 19.3537 12.1721 19.3755 12.2535 19.3755C12.3349 19.3755 12.4161 19.3539 12.4811 19.3267L14.6466 18.0654C14.716 18.0246 14.7736 17.9662 14.8135 17.8962C14.8534 17.8262 14.8744 17.747 14.8742 17.6664V15.1494C14.8742 14.9855 14.7876 14.8331 14.6466 14.7512L12.4811 13.4899C12.4114 13.4515 12.3331 13.4316 12.2535 13.4321ZM15.6341 14.5815C15.523 14.5819 15.4166 14.6265 15.3383 14.7053C15.26 14.7842 15.2162 14.8909 15.2166 15.002C15.2163 15.1131 15.2601 15.2198 15.3384 15.2986C15.4167 15.3775 15.523 15.422 15.6341 15.4224C15.8623 15.4224 16.0519 15.2314 16.0519 15.002C16.0513 14.8912 16.0072 14.785 15.929 14.7064C15.8509 14.6277 15.745 14.5828 15.6341 14.5815ZM15.6285 14.6525C15.6747 14.652 15.7206 14.6606 15.7635 14.6779C15.8063 14.6952 15.8453 14.7209 15.8782 14.7534C15.911 14.7859 15.9371 14.8247 15.9548 14.8673C15.9726 14.91 15.9817 14.9558 15.9816 15.002C15.9816 15.1933 15.8241 15.3572 15.6287 15.3572C15.4389 15.3572 15.2814 15.1985 15.2814 15.002C15.2814 14.8055 15.4442 14.6525 15.6285 14.6525ZM15.4768 14.7671V15.2475H15.5694V15.057H15.6508C15.6834 15.057 15.6941 15.0679 15.6996 15.095C15.6996 15.1007 15.7157 15.2207 15.7157 15.2424H15.8132C15.8023 15.2207 15.7969 15.155 15.7914 15.1168C15.7862 15.0568 15.7809 15.0131 15.7157 15.0077C15.7483 14.9966 15.8025 14.9803 15.8025 14.8929C15.8025 14.7673 15.6938 14.7673 15.6398 14.7673L15.4768 14.7671ZM15.5584 14.8436H15.6341C15.6615 14.8436 15.7046 14.8436 15.7046 14.909C15.7046 14.9308 15.6941 14.9749 15.6341 14.9749H15.5582L15.5584 14.8436ZM12.8453 15.2205C12.2265 15.2205 11.8575 15.4826 11.8575 15.9249C11.8575 16.4 12.2265 16.5305 12.8181 16.5907C13.5287 16.6618 13.5831 16.7657 13.5831 16.9076C13.5831 17.1532 13.3873 17.2571 12.9315 17.2571C12.3563 17.2571 12.2316 17.115 12.1881 16.8257C12.1881 16.7929 12.1614 16.7713 12.1288 16.7713H11.8466C11.8294 16.7715 11.8129 16.7785 11.8008 16.7907C11.7886 16.803 11.7818 16.8195 11.7818 16.8367C11.7818 17.208 11.9769 17.6449 12.9268 17.6449C13.6103 17.6449 14.0064 17.3715 14.0064 16.8911C14.0064 16.4214 13.6914 16.296 13.0243 16.2086C12.3512 16.1212 12.2809 16.0721 12.2809 15.9139C12.2809 15.7828 12.3405 15.6082 12.8396 15.6082C13.2846 15.6082 13.4526 15.7067 13.5178 16.0069C13.5211 16.0204 13.5287 16.0325 13.5395 16.0413C13.5503 16.0501 13.5637 16.0551 13.5776 16.0556H13.8651C13.8816 16.0556 13.8979 16.0449 13.9089 16.034C13.919 16.0195 13.9246 16.0024 13.9249 15.9847C13.8816 15.4607 13.5399 15.2205 12.8453 15.2205Z" fill="#5FA04E"/>
<path d="M16.5384 4.62452C16.5153 4.62427 16.4926 4.63002 16.4724 4.64121C16.4514 4.65343 16.4339 4.67086 16.4216 4.69181C16.4093 4.71277 16.4026 4.73653 16.4021 4.76083V8.31002C16.4021 8.34264 16.3852 8.37564 16.3528 8.39739C16.3378 8.40545 16.3211 8.40967 16.304 8.40967C16.287 8.40967 16.2703 8.40545 16.2553 8.39739L15.6804 8.06458C15.6382 8.04041 15.5905 8.02769 15.5418 8.02769C15.4932 8.02769 15.4455 8.04041 15.4033 8.06458L13.103 9.4024C13.0605 9.4264 13.025 9.46121 13.0002 9.50332C12.9754 9.54543 12.9622 9.59334 12.9618 9.64221V12.3122C12.9618 12.4105 13.0162 12.5035 13.103 12.5526L15.4037 13.8904C15.4458 13.9145 15.4936 13.9272 15.5421 13.9272C15.5907 13.9272 15.6384 13.9145 15.6806 13.8904L17.981 12.5526C18.0678 12.5035 18.1222 12.4105 18.1222 12.3122V5.65652C18.1222 5.55283 18.0678 5.45964 17.981 5.41071L16.6085 4.64121C16.5868 4.6303 16.5627 4.62459 16.5384 4.62452ZM2.96622 7.95564C2.92291 7.95564 2.8796 7.9714 2.84172 7.99315L0.541098 9.32608C0.497899 9.35073 0.462047 9.38645 0.437232 9.42955C0.412417 9.47266 0.399535 9.5216 0.39991 9.57133L0.405535 13.153C0.405535 13.2023 0.432348 13.2514 0.475848 13.2733C0.495979 13.2867 0.519584 13.2938 0.543723 13.2938C0.567862 13.2938 0.591467 13.2867 0.611598 13.2733L1.97922 12.4871C2.06604 12.438 2.11985 12.345 2.11985 12.2468V10.5705C2.11985 10.4723 2.17422 10.3793 2.26122 10.3301L2.84172 9.99171C2.88504 9.96433 2.93416 9.95346 2.98291 9.95346C3.03166 9.95346 3.0806 9.96433 3.11866 9.99171L3.69916 10.3301C3.78597 10.3793 3.84035 10.4723 3.84035 10.5705V12.2468C3.84035 12.345 3.89435 12.438 3.98097 12.4871L5.33772 13.2733C5.35884 13.2867 5.38332 13.2938 5.40832 13.2938C5.43331 13.2938 5.45779 13.2867 5.47891 13.2733C5.50045 13.2615 5.51839 13.2441 5.53081 13.2229C5.54322 13.2017 5.54965 13.1775 5.54941 13.153V9.57133C5.54941 9.47308 5.49504 9.38008 5.40804 9.33077L3.11304 7.99315C3.07444 7.97246 3.03212 7.95965 2.98854 7.95546L2.96622 7.95564ZM21.8413 7.99502C21.7938 7.99502 21.7468 8.0074 21.7033 8.03215L19.4023 9.36921C19.3155 9.41833 19.2617 9.51133 19.2617 9.60977V12.2798C19.2617 12.378 19.3155 12.471 19.4023 12.5201L21.6868 13.8302C21.7279 13.8543 21.7748 13.8671 21.8224 13.8671C21.8701 13.8671 21.917 13.8543 21.9581 13.8302L23.3418 13.0553C23.3634 13.0434 23.3813 13.026 23.3936 13.0048C23.406 12.9836 23.4124 12.9594 23.4122 12.9349C23.4124 12.9104 23.4059 12.8863 23.3935 12.8652C23.3812 12.8441 23.3633 12.8267 23.3418 12.8149L21.0305 11.4769C21.0095 11.4645 20.992 11.447 20.9797 11.426C20.9674 11.4049 20.9607 11.3811 20.9602 11.3567V10.5212C20.96 10.4967 20.9664 10.4726 20.9787 10.4515C20.9911 10.4303 21.009 10.4129 21.0305 10.4012L21.7524 9.98608C21.7735 9.97274 21.798 9.96565 21.823 9.96565C21.848 9.96565 21.8725 9.97274 21.8936 9.98608L22.6147 10.401C22.6358 10.4133 22.6534 10.4308 22.6658 10.4519C22.6782 10.4729 22.685 10.4968 22.6856 10.5212V11.1765C22.6856 11.2258 22.7126 11.275 22.7559 11.2967C22.7771 11.3101 22.8016 11.3172 22.8266 11.3172C22.8516 11.3172 22.8761 11.3101 22.8973 11.2967L24.2643 10.4942C24.3063 10.4697 24.3409 10.4346 24.3648 10.3923C24.3886 10.35 24.4008 10.3022 24.4001 10.2536V9.60396C24.4001 9.50571 24.3457 9.41327 24.2643 9.36396L21.9798 8.03196C21.9377 8.00784 21.89 7.99505 21.8415 7.99483L21.8413 7.99502ZM15.5418 9.98889C15.554 9.98889 15.5664 9.99171 15.5775 9.99733L16.3638 10.456C16.3856 10.4668 16.3967 10.4938 16.3967 10.5158V11.433C16.3967 11.4604 16.3856 11.4825 16.3638 11.4934L15.5773 11.952C15.5662 11.9574 15.5541 11.9602 15.5418 11.9602C15.5296 11.9602 15.5174 11.9574 15.5064 11.952L14.7198 11.4934C14.6981 11.4825 14.687 11.455 14.687 11.433V10.5158C14.687 10.4884 14.6983 10.4668 14.7198 10.4558L15.5064 9.99733C15.5175 9.99179 15.5295 9.9889 15.5418 9.98889Z" fill="#333333"/>
<path d="M9.39674 8.04246C9.35462 8.01832 9.30691 8.00562 9.25836 8.00562C9.20981 8.00562 9.16211 8.01832 9.11999 8.04246L6.83549 9.3694C6.79357 9.39377 6.7589 9.42887 6.73504 9.47108C6.71118 9.5133 6.699 9.5611 6.69974 9.60959V12.2685C6.69974 12.367 6.75411 12.4598 6.83549 12.5089L9.11999 13.8356C9.16211 13.8598 9.20981 13.8725 9.25836 13.8725C9.30691 13.8725 9.35462 13.8598 9.39674 13.8356L11.6811 12.5089C11.7679 12.4598 11.8168 12.367 11.8168 12.2685V9.60959C11.8168 9.51134 11.7624 9.41834 11.6811 9.3694L9.39674 8.04246Z" fill="url(#paint0_linear_726_1046)"/>
<path d="M11.6863 9.36938L9.39116 8.04245C9.36864 8.03103 9.34502 8.02192 9.32066 8.01526L6.74854 12.4433C6.77029 12.4706 6.79728 12.4924 6.82447 12.5089L9.11985 13.8356C9.18491 13.8739 9.26085 13.8848 9.33135 13.8628L11.7462 9.41851C11.7303 9.39774 11.7098 9.38093 11.6863 9.36938Z" fill="url(#paint1_linear_726_1046)"/>
<path d="M11.6864 12.5086C11.7517 12.4704 11.8004 12.405 11.8222 12.3339L9.3097 8.00958C9.24482 7.99871 9.17414 8.00414 9.11451 8.04239L6.83545 9.36371L9.29357 13.8736C9.32601 13.8682 9.36407 13.8573 9.3967 13.8408L11.6864 12.5086Z" fill="url(#paint2_linear_726_1046)"/>
<defs>
<linearGradient id="paint0_linear_726_1046" x1="10.1886" y1="9.03053" x2="8.10233" y2="13.2601" gradientUnits="userSpaceOnUse">
<stop stop-color="#3F873F"/>
<stop offset="0.33" stop-color="#3F8B3D"/>
<stop offset="0.637" stop-color="#3E9638"/>
<stop offset="0.934" stop-color="#3DA92E"/>
<stop offset="1" stop-color="#3DAE2B"/>
</linearGradient>
<linearGradient id="paint1_linear_726_1046" x1="8.91107" y1="11.2495" x2="14.732" y2="6.97514" gradientUnits="userSpaceOnUse">
<stop offset="0.138" stop-color="#3F873F"/>
<stop offset="0.402" stop-color="#52A044"/>
<stop offset="0.713" stop-color="#64B749"/>
<stop offset="0.908" stop-color="#6ABF4B"/>
</linearGradient>
<linearGradient id="paint2_linear_726_1046" x1="6.61613" y1="10.9381" x2="11.9022" y2="10.9381" gradientUnits="userSpaceOnUse">
<stop offset="0.092" stop-color="#6ABF4B"/>
<stop offset="0.287" stop-color="#64B749"/>
<stop offset="0.598" stop-color="#52A044"/>
<stop offset="0.862" stop-color="#3F873F"/>
</linearGradient>
</defs>
</svg>
