<svg width="25" height="24" viewBox="0 0 25 24" fill="none" xmlns="http://www.w3.org/2000/svg">
<path d="M13.7999 2H6.3999C5.86947 2 5.36076 2.21071 4.98569 2.58579C4.61062 2.96086 4.3999 3.46957 4.3999 4V20C4.3999 20.5304 4.61062 21.0391 4.98569 21.4142C5.36076 21.7893 5.86947 22 6.3999 22H18.3999C18.9303 22 19.439 21.7893 19.8141 21.4142C20.1892 21.0391 20.3999 20.5304 20.3999 20V12.6M2.3999 6H6.3999M2.3999 10H6.3999M2.3999 14H6.3999M2.3999 18H6.3999" stroke="black" stroke-width="2" stroke-linecap="round" stroke-linejoin="round"/>
<path d="M18.7999 2.59999C19.2167 2.33093 19.7132 2.21284 20.2065 2.26538C20.6999 2.31793 21.1603 2.53794 21.5111 2.88876C21.862 3.23957 22.082 3.70001 22.1345 4.19336C22.1871 4.6867 22.069 5.18315 21.7999 5.59999L16.3999 11L12.3999 12L13.3999 7.99999L18.7999 2.59999Z" stroke="black" stroke-width="2" stroke-linecap="round" stroke-linejoin="round"/>
</svg>
