<svg width="25" height="24" viewBox="0 0 25 24" fill="none" xmlns="http://www.w3.org/2000/svg">
<path d="M22.3998 16.92V19.92C22.401 20.1985 22.3439 20.4741 22.2323 20.7293C22.1208 20.9845 21.9571 21.2136 21.7519 21.4018C21.5467 21.5901 21.3044 21.7335 21.0406 21.8227C20.7768 21.9119 20.4972 21.945 20.2198 21.92C17.1427 21.5856 14.1868 20.5341 11.5898 18.85C9.17366 17.3146 7.12517 15.2661 5.58984 12.85C3.89981 10.2412 2.84808 7.27097 2.51984 4.17997C2.49485 3.90344 2.52771 3.62474 2.61634 3.3616C2.70496 3.09846 2.84741 2.85666 3.0346 2.6516C3.2218 2.44653 3.44964 2.28268 3.70363 2.1705C3.95761 2.05831 4.23218 2.00024 4.50984 1.99997H7.50984C7.99514 1.9952 8.46563 2.16705 8.8336 2.48351C9.20157 2.79996 9.44191 3.23942 9.50984 3.71997C9.63646 4.68004 9.87129 5.6227 10.2098 6.52997C10.3444 6.8879 10.3735 7.27689 10.2937 7.65086C10.214 8.02482 10.0287 8.36809 9.75984 8.63998L8.48984 9.90997C9.91339 12.4135 11.9863 14.4864 14.4898 15.91L15.7598 14.64C16.0317 14.3711 16.375 14.1858 16.749 14.1061C17.1229 14.0263 17.5119 14.0554 17.8698 14.19C18.7771 14.5285 19.7198 14.7634 20.6798 14.89C21.1656 14.9585 21.6092 15.2032 21.9264 15.5775C22.2435 15.9518 22.412 16.4296 22.3998 16.92Z" stroke="black" stroke-width="2" stroke-linecap="round" stroke-linejoin="round"/>
</svg>
