<svg width="25" height="24" viewBox="0 0 25 24" fill="none" xmlns="http://www.w3.org/2000/svg">
<path d="M17.9892 17.271C18.1364 16.0461 18.0923 15.8663 19.0047 16.0648L19.2362 16.0851C19.9379 16.117 20.8557 15.9722 21.3949 15.7217C22.5557 15.183 23.2439 14.284 22.0995 14.52C19.4888 15.0587 19.3094 14.1747 19.3094 14.1747C22.0662 10.0843 23.2185 4.8919 22.2237 3.62084C19.5105 0.154151 14.8142 1.79346 14.7357 1.83584L14.7105 1.84053C14.1947 1.73346 13.6174 1.66953 12.9689 1.65903C11.7874 1.63953 10.891 1.96878 10.2109 2.4844C10.2109 2.4844 1.83285 -0.967287 2.22267 6.82521C2.30554 8.4829 4.59867 19.3686 7.33392 16.0806C8.33367 14.8783 9.29967 13.8617 9.29967 13.8617C9.77929 14.1803 10.3538 14.343 10.956 14.2845L11.0027 14.2448C10.9881 14.394 10.9945 14.5401 11.0213 14.713C10.3169 15.5003 10.5239 15.6385 9.11517 15.9283C7.68979 16.222 8.52717 16.7449 9.07373 16.8816C9.73654 17.0473 11.2697 17.2821 12.3059 15.832L12.2646 15.9973C12.541 16.2186 12.5224 17.5868 12.5614 18.5642C12.6006 19.5418 12.666 20.454 12.8654 20.992C13.0647 21.5297 13.2998 22.915 15.1512 22.5182C16.6984 22.1875 17.8814 21.7103 17.9892 17.271Z" fill="black"/>
<path d="M14.5484 23.4855C13.7296 23.4855 13.1964 23.1688 12.8726 22.863C12.3837 22.4017 12.1899 21.8075 12.074 21.4526L12.0239 21.3045C11.7907 20.6748 11.7116 19.7683 11.6647 18.6009C11.6576 18.4256 11.6527 18.245 11.6472 18.0536C11.6433 17.9135 11.6384 17.7378 11.6313 17.5541C11.3363 17.6947 11.0232 17.7937 10.7009 17.8481C10.1236 17.9467 9.503 17.9148 8.85593 17.753C8.39937 17.6388 7.925 17.4022 7.65462 17.0368C6.86656 17.727 6.11487 17.6334 5.70537 17.4967C4.98293 17.2558 4.33643 16.5787 3.72875 15.4273C3.29581 14.607 2.87712 13.5382 2.48412 12.2505C1.79975 10.008 1.36493 7.64603 1.32631 6.87053C1.20481 4.44334 1.85825 2.70747 3.26806 1.71165C5.492 0.140777 8.86156 1.06459 10.0901 1.48403C10.9154 0.98659 11.8865 0.744528 12.9837 0.761965C13.5731 0.771528 14.1342 0.823278 14.6555 0.916278C15.1992 0.745278 16.2732 0.49984 17.5027 0.515215C19.7679 0.542215 21.6449 1.42497 22.9306 3.06803C23.8482 4.24028 23.3945 6.70197 23.0426 8.06509C22.5472 9.98247 21.6792 12.0217 20.6131 13.797C20.9026 13.799 21.3221 13.7643 21.9183 13.6412C23.0947 13.3983 23.4387 14.0291 23.5321 14.3115C23.9062 15.4443 22.2802 16.3005 21.773 16.536C21.1231 16.8377 20.0636 17.0214 19.1958 16.9817L19.1579 16.9792L18.9299 16.9592L18.9074 17.1493L18.8857 17.3351C18.8274 19.5849 18.506 21.0097 17.8447 21.9512C17.1515 22.9382 16.1881 23.2147 15.3395 23.3966C15.05 23.4585 14.7869 23.4855 14.5484 23.4855ZM12.8253 15.2972C13.3539 15.7202 13.4002 16.5161 13.4416 18.0035C13.4469 18.1892 13.4517 18.3648 13.4583 18.5289C13.4782 19.0258 13.5249 20.1892 13.7071 20.6808C13.7328 20.7504 13.7559 20.8209 13.7802 20.8957C13.9833 21.5175 14.0851 21.8293 14.9632 21.6416C15.7002 21.4835 16.0792 21.3418 16.3758 20.9195C16.8069 20.3057 17.048 19.0708 17.0922 17.2492L17.9891 17.271L17.0984 17.1641L17.1247 16.9417C17.21 16.2086 17.2715 15.6791 17.7614 15.3288C18.1546 15.048 18.6026 15.0752 18.9594 15.1395C18.5673 14.8432 18.4589 14.4958 18.4301 14.3533L18.3552 13.9848L18.5654 13.673C19.7761 11.8768 20.7744 9.66915 21.3046 7.61603C21.8495 5.50647 21.6834 4.38615 21.5172 4.17428C19.3181 1.36422 15.5045 2.52447 15.1062 2.65609L15.0389 2.69247L14.7014 2.75528L14.5286 2.71947C14.0519 2.62047 13.5224 2.56572 12.9549 2.55653C12.0631 2.54153 11.3437 2.75228 10.7538 3.19984L10.3445 3.51015L9.86956 3.31459C8.85481 2.89965 5.87431 2.06547 4.30156 3.1794C3.42856 3.79778 3.03087 5.0094 3.11937 6.78072C3.14862 7.36553 3.54593 9.57934 4.20143 11.7264C5.10725 14.6936 5.93037 15.6793 6.27406 15.7938C6.33406 15.8141 6.48968 15.6932 6.64456 15.5072C7.29031 14.733 7.95898 13.9783 8.64968 13.244L9.16906 12.6975L9.797 13.1147C10.0501 13.2828 10.3293 13.3783 10.616 13.3963L12.1136 12.119L11.8966 14.333C11.8917 14.3827 11.8893 14.4504 11.9088 14.576L11.9741 14.9957L11.6909 15.3122L11.6583 15.3489L12.4811 15.7286L12.8253 15.2972Z" fill="black"/>
<path d="M22.0996 14.52C19.4887 15.0586 19.3092 14.1746 19.3092 14.1746C22.066 10.0841 23.2184 4.89146 22.2239 3.62077C19.5108 0.15427 14.8141 1.79358 14.7357 1.83615L14.7104 1.84065C14.1946 1.73358 13.6173 1.66983 12.9684 1.65933C11.7869 1.64002 10.8909 1.96908 10.2108 2.48471C10.2108 2.48471 1.83254 -0.966792 2.22216 6.82552C2.30504 8.4834 4.59816 19.3691 7.33341 16.0811C8.33316 14.8788 9.29898 13.8622 9.29898 13.8622C9.77879 14.1808 10.3531 14.3435 10.9552 14.285L11.002 14.2453C10.9874 14.3945 10.9942 14.5406 11.0208 14.7135C10.3162 15.5008 10.5232 15.639 9.11448 15.9288C7.6891 16.2225 8.52648 16.7454 9.07323 16.8821C9.73585 17.0478 11.2692 17.2826 12.3052 15.8325L12.2637 15.9978C12.5399 16.2191 12.7338 17.4363 12.7014 18.5398C12.6687 19.6432 12.647 20.4009 12.8647 20.9926C13.0822 21.5844 13.2989 22.9156 15.1507 22.5189C16.6979 22.1874 17.4997 21.3281 17.6114 19.8948C17.6905 18.8758 17.8696 19.0265 17.881 18.1155L18.0249 17.6842C18.1906 16.3029 18.0511 15.8574 19.0045 16.0646L19.2361 16.0848C19.9377 16.1167 20.8559 15.972 21.395 15.7215C22.5556 15.1831 23.2439 14.2839 22.0996 14.52Z" fill="#336791"/>
<path d="M14.6416 22.9326C13.0981 22.9326 12.6091 21.7102 12.4091 21.2104C12.1162 20.4778 12.053 17.6349 12.1183 15.3036C12.1192 15.2642 12.128 15.2255 12.144 15.1896C12.16 15.1536 12.1829 15.1212 12.2115 15.0942C12.2401 15.0672 12.2738 15.0461 12.3105 15.0322C12.3473 15.0182 12.3865 15.0117 12.4258 15.0129C12.465 15.014 12.5037 15.0228 12.5396 15.0388C12.5754 15.0548 12.6078 15.0778 12.6348 15.1063C12.6618 15.1349 12.6829 15.1685 12.6969 15.2052C12.7109 15.2419 12.7175 15.281 12.7164 15.3202C12.6412 18.0092 12.7479 20.4459 12.9646 20.9882C13.3029 21.8336 13.8159 22.5731 15.2662 22.2624C16.643 21.9671 17.1586 21.4451 17.3883 20.1137C17.5646 19.092 17.9131 16.1854 17.9561 15.6118C17.959 15.5726 17.9695 15.5344 17.9872 15.4993C18.0049 15.4642 18.0293 15.4329 18.0591 15.4073C18.0889 15.3816 18.1235 15.3621 18.1608 15.3498C18.1981 15.3376 18.2375 15.3328 18.2767 15.3358C18.3558 15.3418 18.4293 15.3789 18.481 15.439C18.5328 15.4991 18.5585 15.5773 18.5527 15.6564C18.5079 16.2536 18.161 19.1546 17.978 20.2155C17.7069 21.7881 17.0058 22.5013 15.3916 22.8474C15.1173 22.9061 14.8681 22.9324 14.6416 22.9326ZM6.2724 16.9624C6.13749 16.9619 6.00353 16.9397 5.87565 16.8967C4.87309 16.5622 3.91815 14.9295 3.03727 12.0433C2.36677 9.84636 1.9419 7.55324 1.90459 6.80792C1.79415 4.59842 2.36302 3.03524 3.59584 2.16205C6.03465 0.43405 10.1373 2.07955 10.3108 2.15043C10.3842 2.18044 10.4428 2.2384 10.4735 2.31158C10.5043 2.38475 10.5047 2.46714 10.4746 2.54061C10.4446 2.61409 10.3867 2.67263 10.3135 2.70336C10.2403 2.73409 10.1579 2.7345 10.0845 2.70449C10.0449 2.68836 6.11077 1.11224 3.94046 2.65105C2.88634 3.39843 2.4024 4.78705 2.50196 6.77811C2.53327 7.40605 2.93021 9.64405 3.60934 11.8685C4.39571 14.4452 5.29065 16.071 6.06484 16.3292C6.18634 16.3697 6.55609 16.4929 7.08465 15.8572C7.70104 15.117 8.34055 14.3962 9.00221 13.6961C9.05758 13.6409 9.13236 13.6095 9.21055 13.6088C9.28874 13.608 9.36414 13.6378 9.42059 13.6919C9.47705 13.746 9.51009 13.8201 9.51263 13.8982C9.51518 13.9764 9.48703 14.0524 9.43421 14.1101C9.42521 14.1195 8.5254 15.0602 7.54477 16.2399C7.08034 16.7985 6.63521 16.9624 6.2724 16.9624ZM19.2903 14.4414C19.2361 14.4414 19.1829 14.4265 19.1364 14.3986C19.09 14.3706 19.052 14.3305 19.0265 14.2826C19.001 14.2347 18.9891 14.1808 18.9919 14.1267C18.9947 14.0725 19.0122 14.0201 19.0425 13.9751C21.8293 9.8398 22.8075 4.84311 21.9697 3.77249C20.9152 2.42511 19.4263 1.72142 17.544 1.68074C16.1503 1.65074 15.0425 2.00661 14.8614 2.06868L14.8158 2.08724C14.6338 2.14443 14.4941 2.04468 14.4414 1.92805C14.4114 1.86123 14.4068 1.78573 14.4286 1.71578C14.4504 1.64584 14.497 1.58629 14.5597 1.54836C14.5683 1.5433 14.5957 1.53168 14.6401 1.51536C14.9478 1.40267 16.0725 1.06518 17.4654 1.08111C19.5481 1.10324 21.2686 1.9063 22.4405 3.40386C22.995 4.11242 22.9963 5.7448 22.4441 7.88267C21.8812 10.0624 20.822 12.4048 19.5384 14.3096C19.481 14.3953 19.3865 14.4414 19.2903 14.4414ZM19.4328 16.3558C18.957 16.3558 18.5304 16.2887 18.275 16.1357C18.0125 15.9784 17.9625 15.7646 17.9559 15.6512C17.8843 14.3931 18.5784 14.174 18.9324 14.0741C18.8831 13.9995 18.813 13.9117 18.7404 13.8212C18.534 13.5632 18.2512 13.2099 18.0333 12.6816C17.9992 12.5991 17.8923 12.4072 17.7686 12.185C17.0975 10.9817 15.7012 8.47761 16.5982 7.1953C17.0133 6.60186 17.84 6.36824 19.058 6.49855C18.6997 5.40693 16.9935 1.99218 12.9448 1.9258C11.7271 1.90555 10.7285 2.27999 9.97815 3.03768C8.29815 4.73436 8.3589 7.8043 8.35984 7.83505C8.36087 7.87432 8.35416 7.91342 8.34009 7.9501C8.32601 7.98678 8.30485 8.02032 8.27781 8.04883C8.25077 8.07733 8.21838 8.10022 8.1825 8.11621C8.14661 8.13219 8.10792 8.14095 8.06865 8.14199C8.02938 8.14302 7.99028 8.13631 7.9536 8.12224C7.91692 8.10816 7.88338 8.087 7.85487 8.05996C7.82637 8.03292 7.80347 8.00053 7.78749 7.96465C7.77151 7.92876 7.76275 7.89007 7.76171 7.8508C7.75796 7.71449 7.69534 4.49286 9.55309 2.61655C10.4225 1.73849 11.567 1.30499 12.9547 1.32768C15.5448 1.37024 17.2121 2.68705 18.1545 3.78411C19.1818 4.9798 19.6854 6.29868 19.7268 6.73893C19.7578 7.0663 19.5228 7.13174 19.4754 7.14149L19.3674 7.14393C18.1721 6.95249 17.4052 7.08543 17.0881 7.53843C16.4058 8.51361 17.7268 10.8823 18.2908 11.8939C18.4348 12.1519 18.5386 12.3384 18.5863 12.4535C18.7715 12.9028 19.0132 13.2047 19.2073 13.4473C19.3781 13.6607 19.526 13.8457 19.5789 14.0629C19.6035 14.106 19.952 14.6216 22.0203 14.1947C22.5388 14.0878 22.8496 14.1791 22.9447 14.4666C23.1316 15.0319 22.0828 15.6913 21.5021 15.9609C20.9818 16.2028 20.1513 16.3558 19.4328 16.3558ZM18.5523 15.6019C18.618 15.6681 18.9463 15.7822 19.6261 15.753C20.2306 15.7271 20.8681 15.5957 21.2506 15.4181C21.7398 15.1909 22.0665 14.9368 22.2356 14.7634L22.1418 14.7806C20.8194 15.0536 19.884 15.0172 19.3616 14.6724C19.3265 14.6492 19.2927 14.6241 19.2603 14.5972C19.2037 14.6196 19.1514 14.6342 19.1141 14.6447C18.8178 14.7277 18.5115 14.8138 18.5523 15.6019ZM10.0095 17.2734C9.68096 17.2734 9.33521 17.2286 8.98215 17.1403C8.61634 17.0488 7.99965 16.7734 8.00902 16.3209C8.01971 15.8134 8.7579 15.6611 9.03577 15.6039C10.0396 15.3971 10.1051 15.3142 10.4188 14.9158C10.5103 14.7997 10.6241 14.6552 10.7793 14.4819C11.0098 14.2239 11.2616 14.0932 11.5278 14.0932C11.7133 14.0932 11.8653 14.1561 11.9658 14.1979C12.2861 14.3306 12.5533 14.6516 12.6631 15.0354C12.7623 15.3817 12.7149 15.7151 12.53 15.9741C11.9231 16.824 11.0514 17.2734 10.0095 17.2734ZM8.65534 16.3466C8.74552 16.4164 8.92627 16.5096 9.12746 16.5598C9.43327 16.6363 9.7299 16.6751 10.0096 16.6751C10.862 16.6751 11.5464 16.3222 12.0435 15.6262C12.1471 15.4811 12.116 15.2968 12.0883 15.1999C12.0301 14.9968 11.8858 14.8121 11.7371 14.7504C11.6565 14.7171 11.5895 14.6916 11.528 14.6916C11.495 14.6916 11.3945 14.6916 11.2254 14.8807C11.1087 15.012 10.9965 15.1472 10.889 15.2861C10.4983 15.7822 10.3192 15.9506 9.15671 16.1901C8.87302 16.2482 8.72752 16.3074 8.65534 16.3466ZM10.9558 14.9666C10.8844 14.9665 10.8153 14.9408 10.7612 14.8943C10.707 14.8477 10.6713 14.7833 10.6605 14.7127C10.653 14.6631 10.648 14.6131 10.6455 14.5629C9.88346 14.5487 9.14827 14.2217 8.59009 13.6393C7.88434 12.903 7.56315 11.8828 7.70902 10.8405C7.86746 9.70855 7.80821 8.70936 7.77634 8.17255C7.76752 8.0233 7.76115 7.91549 7.76152 7.84086C7.76209 7.74618 7.76396 7.49511 8.60321 7.06968C8.90171 6.91836 9.50021 6.65436 10.154 6.58668C11.2372 6.47474 11.9512 6.95717 12.165 7.9453C12.7419 10.613 12.2107 11.793 11.8228 12.6547C11.7506 12.8152 11.6823 12.9667 11.6278 13.1136L11.5796 13.2429C11.3746 13.7925 11.1975 14.2672 11.2518 14.6218C11.2578 14.6606 11.2561 14.7003 11.2467 14.7384C11.2374 14.7766 11.2206 14.8125 11.1973 14.8442C11.1741 14.8759 11.1448 14.9027 11.1112 14.923C11.0776 14.9434 11.0404 14.9569 11.0015 14.9629L10.9558 14.9666ZM8.36171 7.92374L8.37334 8.1373C8.40634 8.69492 8.46784 9.73255 8.30134 10.9235C8.18115 11.7832 8.44365 12.6223 9.0219 13.2253C9.47884 13.7019 10.0801 13.965 10.6981 13.965H10.7109C10.7801 13.6734 10.895 13.3655 11.0188 13.0339L11.0666 12.9052C11.1283 12.7395 11.2005 12.579 11.277 12.4091C11.6503 11.5796 12.1151 10.547 11.5798 8.07186C11.4738 7.58155 11.2168 7.29786 10.7943 7.2043C9.92659 7.01267 8.6334 7.66536 8.36171 7.92374ZM10.1673 7.7968C10.1523 7.90255 10.361 8.18492 10.6333 8.22261C10.905 8.26067 11.1375 8.0398 11.1523 7.93405C11.1671 7.8283 10.9586 7.71167 10.6863 7.6738C10.4143 7.63592 10.1818 7.69105 10.1673 7.7968ZM10.6957 8.32667L10.6194 8.32142C10.4506 8.29799 10.28 8.19167 10.1632 8.0368C10.1221 7.98242 10.0552 7.87705 10.0685 7.78292C10.0875 7.64492 10.2558 7.56224 10.5185 7.56224C10.5772 7.56224 10.6383 7.56655 10.6998 7.57518C10.8435 7.59505 10.9768 7.63649 11.0752 7.69142C11.2458 7.78667 11.2584 7.89299 11.2507 7.94792C11.2297 8.10036 10.9873 8.32667 10.6957 8.32667ZM10.2665 7.81442C10.275 7.87967 10.4366 8.09492 10.647 8.12399L10.6959 8.12736C10.8901 8.12736 11.0353 7.97455 11.0523 7.92449C11.0343 7.89036 10.9095 7.80561 10.6726 7.77261C10.6217 7.7653 10.5702 7.7616 10.5187 7.76155C10.3665 7.76155 10.2856 7.79586 10.2665 7.81442ZM18.4425 7.58099C18.4573 7.68674 18.2488 7.96911 17.9767 8.00699C17.7048 8.04486 17.4721 7.82418 17.4571 7.71843C17.4429 7.61268 17.6514 7.49586 17.9233 7.45817C18.1951 7.42011 18.4275 7.47542 18.4425 7.58099ZM17.9139 8.06099C17.6521 8.06099 17.4262 7.85736 17.4076 7.72517C17.3861 7.56655 17.6473 7.44599 17.9161 7.40867C17.9754 7.40042 18.0341 7.3963 18.0905 7.3963C18.3226 7.3963 18.4764 7.46436 18.4918 7.57424C18.5017 7.6453 18.4471 7.75499 18.3532 7.85399C18.2911 7.91905 18.1608 8.03174 17.9833 8.0563L17.9139 8.06099ZM18.0907 7.49605C18.039 7.49605 17.985 7.49999 17.9302 7.50749C17.66 7.54518 17.4988 7.65355 17.5066 7.71168C17.5156 7.77561 17.6881 7.96142 17.9141 7.96142L17.9698 7.95749C18.1173 7.93705 18.2281 7.84067 18.281 7.78517C18.3641 7.69799 18.3971 7.61586 18.3931 7.58793C18.3879 7.5508 18.2881 7.49605 18.0907 7.49605ZM18.8341 13.6541C18.7799 13.6541 18.7268 13.6394 18.6803 13.6116C18.6338 13.5837 18.5958 13.5437 18.5702 13.4959C18.5447 13.448 18.5327 13.3942 18.5355 13.34C18.5382 13.2859 18.5557 13.2335 18.5859 13.1885C19.223 12.237 19.1064 11.2667 18.9937 10.3282C18.9455 9.92849 18.896 9.51505 18.9088 9.1183C18.9219 8.71011 18.9738 8.37336 19.0239 8.04768C19.0833 7.6618 19.1396 7.2973 19.1163 6.86455C19.1142 6.82533 19.1198 6.78607 19.1329 6.74902C19.146 6.71197 19.1662 6.67786 19.1924 6.64862C19.2187 6.61939 19.2504 6.59561 19.2858 6.57864C19.3213 6.56168 19.3597 6.55186 19.3989 6.54974C19.4381 6.54762 19.4774 6.55325 19.5144 6.5663C19.5515 6.57936 19.5856 6.59958 19.6148 6.62582C19.6739 6.67881 19.7094 6.75308 19.7137 6.8323C19.7403 7.32693 19.6768 7.73942 19.6153 8.13861C19.5678 8.44667 19.5187 8.76524 19.5069 9.13743C19.4955 9.4888 19.5403 9.86192 19.5877 10.2568C19.7077 11.2547 19.8436 12.3857 19.0831 13.5214C19.0558 13.5623 19.0187 13.5958 18.9753 13.6189C18.9318 13.6421 18.8834 13.6542 18.8341 13.6541Z" fill="white"/>
</svg>
