<svg width="25" height="24" viewBox="0 0 25 24" fill="none" xmlns="http://www.w3.org/2000/svg">
<path d="M21.6094 4.88737C17.6815 -0.19913 10.3733 -1.13813 5.28659 2.79056C0.200655 6.71924 -0.737407 14.0274 3.19128 19.1134C7.12072 24.1991 14.4295 25.1366 19.5147 21.2072C24.5985 17.2785 25.5368 9.97256 21.6094 4.88737Z" fill="#F37036"/>
<path d="M17.477 4.53074C17.0764 4.56275 16.6966 4.72215 16.3931 4.98561C16.0378 5.29402 15.8111 5.7244 15.7576 6.19179C15.7042 6.65919 15.8279 7.12965 16.1043 7.5103C16.3804 7.89113 16.7891 8.15466 17.25 8.2489C17.7108 8.34313 18.1902 8.26124 18.5936 8.01936H18.5939L18.6232 8.04861C18.756 7.97244 18.8797 7.88122 18.9916 7.77674C19.3369 7.41146 19.5269 6.92636 19.5214 6.42373C19.516 5.92111 19.3155 5.44025 18.9624 5.08255V5.08218L17.3041 6.73011L17.2749 6.70105L18.9331 5.05236C18.7412 4.8673 18.5121 4.72512 18.2611 4.63526C18.0101 4.5454 17.7428 4.5099 17.477 4.53111V4.53074ZM15.2938 7.2283C14.4988 7.22699 13.2007 8.12811 10.0312 11.2976L10.0469 11.3137C10.0297 11.3077 10.0123 11.3072 10.0123 11.3072L8.81901 12.4899C8.78836 12.5191 8.76808 12.5574 8.76124 12.5992C8.75441 12.6409 8.76139 12.6837 8.78113 12.7211C8.80087 12.7585 8.83229 12.7885 8.8706 12.8064C8.90892 12.8243 8.95203 12.8292 8.99338 12.8203L11.0398 12.3838C11.0488 12.3753 11.0548 12.3641 11.057 12.3519L11.1024 12.3988L10.4049 13.0907H10.3711L6.23001 17.2644L7.55863 18.5439C7.59579 18.5774 7.64266 18.5982 7.69243 18.6032C7.7422 18.6082 7.79228 18.5973 7.83538 18.5719C7.87886 18.5467 7.91368 18.5089 7.93527 18.4635C7.95686 18.4181 7.9642 18.3672 7.95632 18.3176L7.76226 17.4739C7.75016 17.4569 7.74366 17.4366 7.74366 17.4157C7.74366 17.3949 7.75016 17.3746 7.76226 17.3576C9.57616 16.4929 11.263 15.3836 12.7756 14.0608L11.9253 13.2101L11.9414 13.2075L11.4371 12.7033L11.4693 12.6707L11.5034 12.7056L11.4858 12.7226L12.824 14.0901V14.0895C15.389 11.6606 17.2096 9.70818 16.7362 8.39418C16.7146 8.23704 16.6416 8.09147 16.5286 7.98018V7.98093C16.4999 7.95954 16.4697 7.94036 16.4381 7.92355C16.4225 7.90705 16.4088 7.89018 16.3923 7.87405L16.3799 7.88643C16.3452 7.8652 16.3087 7.84701 16.2708 7.83205L16.325 7.7773C15.9883 7.4773 15.71 7.22905 15.2938 7.22793V7.2283ZM6.20113 17.2894L5.23157 18.2591V18.2599C5.19678 18.2814 5.16974 18.3135 5.15434 18.3514C5.13894 18.3893 5.13598 18.4311 5.14588 18.4708C5.15545 18.5105 5.17728 18.5462 5.20829 18.5727C5.23929 18.5993 5.27788 18.6154 5.31857 18.6187L7.69457 18.7828L6.20113 17.2894Z" fill="white"/>
<path d="M17.6403 4.37061C17.0961 4.36993 16.5735 4.58344 16.1855 4.96498C15.9094 5.24754 15.7204 5.60353 15.6409 5.99052C15.5615 6.37751 15.595 6.77918 15.7374 7.14767C14.8485 6.76704 13.6458 7.43079 9.90501 11.1709C9.90238 11.1766 9.90007 11.1825 9.89807 11.1885C9.89043 11.192 9.88299 11.1958 9.87576 11.2001L8.69282 12.3934C8.63613 12.449 8.59888 12.5215 8.58662 12.6C8.57436 12.6785 8.58774 12.7588 8.62476 12.8291C8.65781 12.8847 8.70461 12.9309 8.76066 12.9632C8.81671 12.9955 8.88013 13.0129 8.94482 13.0136L9.00351 12.9755L10.583 12.6386L9.82739 13.4012C9.82298 13.4112 9.81959 13.4216 9.81726 13.4323L6.11414 17.1446C6.09937 17.157 6.08715 17.1722 6.07814 17.1892L5.12451 18.1436C5.07699 18.1938 5.04451 18.2563 5.03078 18.324C5.01706 18.3917 5.02264 18.462 5.04689 18.5267C5.07175 18.591 5.11391 18.6472 5.16871 18.689C5.2235 18.7309 5.2888 18.7568 5.35739 18.7639L7.72326 18.9289C7.76362 18.9147 7.79798 18.8872 7.82076 18.851C7.8411 18.8228 7.85205 18.7888 7.85205 18.754C7.85205 18.7192 7.8411 18.6852 7.82076 18.657L7.81589 18.6523C7.86694 18.6255 7.91193 18.5885 7.94807 18.5435C7.98607 18.4942 8.01261 18.4371 8.02578 18.3762C8.03895 18.3154 8.03841 18.2524 8.0242 18.1918L7.8397 17.4067C9.60978 16.5608 11.2683 15.4989 12.7773 14.2453C12.792 14.2536 12.8076 14.2601 12.8238 14.2646C12.8714 14.261 12.9161 14.2406 12.9498 14.2069C15.4904 11.8012 16.9839 10.1527 16.9839 8.84398C16.9894 8.66244 16.962 8.4814 16.9031 8.30961C17.132 8.40455 17.3763 8.45727 17.624 8.46523L17.6212 8.46598C17.9624 8.45555 18.2959 8.36224 18.593 8.19411C18.5933 8.19417 18.5935 8.19423 18.5938 8.19429C18.6322 8.20582 18.6736 8.20213 18.7094 8.18398C18.8528 8.09957 18.9835 7.99528 19.0976 7.87423C19.2909 7.68451 19.4445 7.45816 19.5494 7.20841C19.6543 6.95865 19.7084 6.69049 19.7085 6.41961C19.7084 6.14873 19.6544 5.88059 19.5495 5.63083C19.4447 5.38107 19.2911 5.15472 19.0978 4.96498C19.0909 4.95871 19.0835 4.95301 19.0756 4.94792C18.6897 4.57732 18.1752 4.37049 17.6401 4.37079L17.6403 4.37061ZM17.624 4.70286C18.0029 4.70512 18.3707 4.83114 18.6714 5.06173L17.1586 6.58367C17.1534 6.58943 17.1487 6.59558 17.1444 6.60204C17.1171 6.62963 17.1011 6.66641 17.0996 6.70517C17.0996 6.72859 17.1049 6.7517 17.115 6.7728C17.1252 6.7939 17.14 6.81244 17.1583 6.82704H17.1586L18.3024 7.97079C17.9893 8.10731 17.6423 8.14611 17.3068 8.08211C16.9713 8.01811 16.663 7.85429 16.4221 7.61211C15.9373 7.12461 15.7966 6.39261 16.0559 5.75754C16.3153 5.12192 16.9334 4.70661 17.624 4.70286ZM18.959 5.34636C19.2064 5.64562 19.3412 6.02198 19.3402 6.41023C19.3395 6.86507 19.1582 7.30101 18.8362 7.62223C18.7716 7.68297 18.7028 7.73905 18.6303 7.79004L17.7073 6.88123L17.5267 6.70067L17.5764 6.65098L18.9588 5.34598L18.959 5.34636ZM18.8904 6.13254C18.8565 6.12182 18.8198 6.12389 18.7873 6.13836C18.7551 6.15501 18.7308 6.18373 18.7198 6.21823C18.7143 6.23546 18.7124 6.25359 18.714 6.27158C18.7156 6.28956 18.7207 6.30706 18.7291 6.32304C18.7625 6.39309 18.7756 6.47104 18.7671 6.54814C18.7586 6.62525 18.7288 6.69845 18.6809 6.75954C18.6687 6.77134 18.6591 6.7856 18.6528 6.80137C18.6465 6.81714 18.6437 6.83407 18.6444 6.85104C18.6451 6.88554 18.6575 6.91854 18.6809 6.94329C18.7059 6.95284 18.7336 6.95284 18.7586 6.94329C18.7811 6.94892 18.8048 6.94828 18.827 6.94144C18.8492 6.9346 18.8691 6.92182 18.8846 6.90448C18.9644 6.80665 19.0149 6.68826 19.0303 6.56296C19.0457 6.43767 19.0254 6.31056 18.9718 6.19629V6.19704C18.9535 6.16628 18.9245 6.14332 18.8904 6.13254ZM15.2759 7.39311C15.5022 7.40061 15.72 7.48127 15.8966 7.62298C15.7063 7.65036 15.53 7.73849 15.3939 7.87423L11.1176 12.1314L10.2783 11.2922C12.4961 9.08492 13.8521 7.93198 14.6951 7.55417C14.8687 7.44463 15.0707 7.38875 15.2759 7.39311ZM16.0194 7.94811C16.163 7.94811 16.3007 8.00502 16.4024 8.10636C16.4566 8.15713 16.4993 8.21886 16.5277 8.28743C16.5561 8.35601 16.5696 8.42985 16.5673 8.50404C16.5648 8.57796 16.5471 8.65057 16.5154 8.71735C16.4836 8.78413 16.4384 8.84365 16.3826 8.89217L11.8357 12.8495L11.345 12.3589L15.6363 8.10636C15.7381 8.00509 15.8758 7.94806 16.0194 7.94811ZM16.5808 9.20398C16.2639 10.4606 14.5844 12.1633 12.8332 13.8178L12.125 13.1104L16.5808 9.20398ZM10.031 11.54L10.0824 11.5907L10.7411 12.2494L8.93545 12.6356L10.031 11.54ZM11.1172 12.635L11.1179 12.6358L11.3369 12.8599C11.3379 12.8651 11.339 12.8704 11.3403 12.8756L11.3549 12.8779L11.4014 12.9255L11.5552 13.083L10.5455 13.2067L11.1172 12.635ZM11.8423 13.3993L12.5131 14.0698C11.0297 15.3034 9.40182 16.352 7.66532 17.1928C7.60895 17.2196 7.56362 17.2652 7.53705 17.3217C7.51049 17.3782 7.50434 17.4422 7.51964 17.5027L7.7137 18.3465C7.72085 18.3564 7.7247 18.3683 7.7247 18.3805C7.7247 18.3927 7.72085 18.4046 7.7137 18.4145C7.70304 18.4241 7.68921 18.4294 7.67489 18.4294C7.66056 18.4294 7.64674 18.4241 7.63608 18.4145L6.49195 17.261L10.0184 13.6828L11.8423 13.3993ZM6.22982 17.513L6.39276 17.6657L7.23501 18.5079L5.35701 18.3864L6.22982 17.513Z" fill="#F37036"/>
</svg>
