<svg width="25" height="24" viewBox="0 0 25 24" fill="none" xmlns="http://www.w3.org/2000/svg">
<path d="M12.4002 14.1375C13.5807 14.1375 14.5377 13.1806 14.5377 12C14.5377 10.8195 13.5807 9.86255 12.4002 9.86255C11.2197 9.86255 10.2627 10.8195 10.2627 12C10.2627 13.1806 11.2197 14.1375 12.4002 14.1375Z" fill="#61DAFB"/>
<path d="M20.5188 8.47505C20.1063 8.32505 19.6751 8.17505 19.2251 8.0438C19.3376 7.5938 19.4313 7.1438 19.5063 6.71255C19.9001 4.23755 19.4688 2.4938 18.2688 1.8188C17.9126 1.61255 17.5188 1.5188 17.0688 1.5188C15.7563 1.5188 14.0876 2.4938 12.4001 4.12505C10.7126 2.4938 9.04385 1.5188 7.73135 1.5188C7.28135 1.5188 6.8876 1.61255 6.53135 1.8188C5.33135 2.51255 4.9001 4.2563 5.29385 6.71255C5.36885 7.1438 5.4626 7.5938 5.5751 8.0438C5.1251 8.17505 4.69385 8.3063 4.28135 8.47505C1.9376 9.37505 0.662598 10.6125 0.662598 12C0.662598 13.3876 1.95635 14.6251 4.28135 15.5251C4.69385 15.6751 5.1251 15.825 5.5751 15.9563C5.4626 16.4063 5.36885 16.8563 5.29385 17.2875C4.9001 19.7625 5.33135 21.5063 6.53135 22.1813C6.8876 22.3876 7.28135 22.4813 7.73135 22.4813C9.0626 22.4813 10.7313 21.5063 12.4001 19.8751C14.0876 21.5063 15.7563 22.4813 17.0688 22.4813C17.5188 22.4813 17.9126 22.3876 18.2688 22.1813C19.4688 21.4876 19.9001 19.7438 19.5063 17.2875C19.4313 16.8563 19.3376 16.4063 19.2251 15.9563C19.6751 15.825 20.1063 15.6938 20.5188 15.5251C22.8626 14.6251 24.1376 13.3876 24.1376 12C24.1376 10.6125 22.8626 9.37505 20.5188 8.47505ZM17.7438 2.7563C18.5126 3.2063 18.7751 4.5938 18.4563 6.56255C18.4001 6.9563 18.3063 7.3688 18.1938 7.80005C17.2188 7.57505 16.1876 7.42505 15.1001 7.3313C14.4626 6.4313 13.8063 5.62505 13.1501 4.8938C14.5376 3.52505 15.9438 2.58755 17.0876 2.58755C17.3313 2.58755 17.5563 2.6438 17.7438 2.7563ZM15.6438 13.8751C15.3063 14.4751 14.9126 15.075 14.5001 15.675C13.8063 15.7313 13.1126 15.7501 12.4001 15.7501C11.6688 15.7501 10.9751 15.7313 10.3001 15.675C9.8876 15.075 9.5126 14.4751 9.1751 13.8751C8.81885 13.2563 8.48135 12.6188 8.18135 12C8.48135 11.3813 8.81885 10.7438 9.1751 10.125C9.5126 9.52505 9.90635 8.92505 10.3188 8.32505C11.0126 8.2688 11.7063 8.25005 12.4188 8.25005C13.1501 8.25005 13.8438 8.2688 14.5188 8.32505C14.9313 8.92505 15.3063 9.52505 15.6438 10.125C16.0001 10.7438 16.3376 11.3813 16.6376 12C16.3188 12.6188 16.0001 13.2376 15.6438 13.8751ZM17.2001 13.2563C17.4813 13.9125 17.7063 14.5501 17.9126 15.1876C17.2751 15.3376 16.6001 15.4501 15.8876 15.5438C16.1126 15.1876 16.3563 14.8126 16.5626 14.4188C16.7876 14.0251 16.9938 13.6313 17.2001 13.2563ZM12.4001 18.3376C11.9501 17.8501 11.5188 17.3251 11.1063 16.7813C11.5376 16.8001 11.9688 16.8188 12.4001 16.8188C12.8313 16.8188 13.2626 16.8001 13.6938 16.7813C13.2813 17.3251 12.8501 17.8501 12.4001 18.3376ZM8.9126 15.5251C8.2001 15.4313 7.5251 15.3188 6.8876 15.1688C7.09385 14.5501 7.31885 13.8938 7.6001 13.2375C7.80635 13.6125 8.0126 14.0063 8.2376 14.3813C8.4626 14.7938 8.6876 15.1501 8.9126 15.5251ZM7.6001 10.7438C7.31885 10.0875 7.09385 9.45005 6.8876 8.81255C7.5251 8.66255 8.2001 8.55005 8.9126 8.4563C8.6876 8.81255 8.44385 9.18755 8.2376 9.5813C8.0126 9.97505 7.80635 10.3688 7.6001 10.7438ZM12.4001 5.66255C12.8501 6.15005 13.2813 6.67505 13.6938 7.2188C13.2626 7.20005 12.8313 7.1813 12.4001 7.1813C11.9688 7.1813 11.5376 7.20005 11.1063 7.2188C11.5188 6.67505 11.9501 6.15005 12.4001 5.66255ZM16.5626 9.60005L15.8876 8.47505C16.6001 8.5688 17.2751 8.6813 17.9126 8.8313C17.7063 9.45005 17.4813 10.1063 17.2001 10.7626C16.9938 10.3688 16.7876 9.97505 16.5626 9.60005ZM6.34385 6.56255C6.0251 4.5938 6.2876 3.2063 7.05635 2.7563C7.24385 2.6438 7.46885 2.58755 7.7126 2.58755C8.8376 2.58755 10.2438 3.5063 11.6501 4.8938C10.9938 5.6063 10.3376 6.4313 9.7001 7.3313C8.6126 7.42505 7.58135 7.5938 6.60635 7.80005C6.49385 7.3688 6.41885 6.9563 6.34385 6.56255ZM1.7126 12C1.7126 11.1188 2.78135 10.1813 4.65635 9.48755C5.03135 9.33755 5.44385 9.2063 5.85635 9.0938C6.15635 10.0313 6.53135 11.025 6.98135 12.0188C6.53135 13.0125 6.1376 13.9875 5.85635 14.925C3.26885 14.175 1.7126 13.0501 1.7126 12ZM7.05635 21.2438C6.2876 20.7938 6.0251 19.4063 6.34385 17.4376C6.4001 17.0438 6.49385 16.6313 6.60635 16.2001C7.58135 16.4251 8.6126 16.5751 9.7001 16.6688C10.3376 17.5688 10.9938 18.3751 11.6501 19.1063C10.2626 20.4751 8.85635 21.4126 7.7126 21.4126C7.46885 21.4126 7.24385 21.3563 7.05635 21.2438ZM18.4563 17.4376C18.7751 19.4063 18.5126 20.7938 17.7438 21.2438C17.5563 21.3563 17.3313 21.4126 17.0876 21.4126C15.9626 21.4126 14.5563 20.4938 13.1501 19.1063C13.8063 18.3938 14.4626 17.5688 15.1001 16.6688C16.1876 16.5751 17.2188 16.4063 18.1938 16.2001C18.3063 16.6313 18.3813 17.0438 18.4563 17.4376ZM20.1438 14.5126C19.7688 14.6626 19.3563 14.7938 18.9438 14.9063C18.6438 13.9688 18.2688 12.9751 17.8188 11.9813C18.2688 10.9876 18.6626 10.0126 18.9438 9.07505C21.5313 9.82505 23.0876 10.95 23.0876 12C23.0876 12.8813 22.0001 13.8188 20.1438 14.5126Z" fill="#61DAFB"/>
</svg>
