<svg width="25" height="24" viewBox="0 0 25 24" fill="none" xmlns="http://www.w3.org/2000/svg">
<path d="M17.0293 16.5207C15.3418 19.9707 12.3868 22.2919 8.47738 23.055C7.87796 23.2019 7.26262 23.2737 6.6455 23.2688C4.3955 23.2688 2.333 22.3313 1.33175 20.7957C-0.0126249 18.75 -0.470125 14.4132 3.96238 11.205C4.05238 11.6944 4.23613 12.3657 4.358 12.7632C3.48787 13.4096 2.77564 14.2449 2.27488 15.2063C1.44988 16.8263 1.54175 18.4444 2.51863 19.9407C3.19363 20.9494 4.26238 21.5625 5.63675 21.75C7.35338 21.9673 9.09487 21.6394 10.6149 20.8125C12.998 19.56 14.5861 18.0638 15.6249 16.0182C15.3312 15.7146 15.1573 15.315 15.1355 14.8932C15.1198 14.4405 15.2843 14.0001 15.593 13.6686C15.9016 13.3372 16.3291 13.1417 16.7818 13.125H16.8455C17.2857 13.1228 17.71 13.29 18.0304 13.5918C18.3509 13.8937 18.5431 14.3072 18.5672 14.7468C18.5912 15.1864 18.4454 15.6184 18.1599 15.9535C17.8743 16.2885 17.4708 16.501 17.033 16.5469L17.0293 16.5207ZM22.4049 12.7332C24.6943 15.3282 24.7561 18.3825 23.8711 20.1544C23.0461 21.7725 20.8711 23.3925 17.9461 23.3925C16.5807 23.3647 15.2374 23.0417 14.0086 22.4457C14.438 22.14 15.0474 21.6507 15.383 21.345C16.3306 21.7556 17.3504 21.9735 18.383 21.9863C20.2768 21.9863 21.7111 21.1013 22.5661 19.4832C23.1155 18.4144 23.1474 17.1619 22.628 15.8794C21.9907 14.2658 20.8567 12.8966 19.3899 11.97C17.4655 10.6728 15.1969 9.98126 12.8761 9.98442H12.3268C12.1986 10.2803 11.9902 10.5345 11.7251 10.7181C11.46 10.9017 11.1488 11.0073 10.8268 11.0232H10.7686C10.3232 11.0177 9.89737 10.8388 9.5817 10.5244C9.26603 10.21 9.08534 9.785 9.07802 9.33956C9.0707 8.89412 9.23732 8.46337 9.54248 8.1388C9.84765 7.81423 10.2673 7.62141 10.7124 7.60129H10.7743C11.0844 7.60153 11.3885 7.68722 11.6531 7.84897C11.9177 8.01072 12.1326 8.24226 12.2743 8.51817H12.7636C16.6636 8.51817 20.0874 10.0144 22.4049 12.7332ZM6.88925 17.0457C6.85714 16.7343 6.93257 16.4213 7.103 16.1588C5.393 13.1963 4.478 9.44067 5.88238 5.53129C6.88925 2.59317 9.42425 0.607544 12.173 0.607544C15.1055 0.607544 18.1599 3.17442 18.5255 8.12067C18.068 7.96879 17.4005 7.74567 16.9993 7.66317C16.8999 6.04504 15.533 2.01379 12.2949 2.07379C11.1342 2.10567 9.42425 2.65504 8.54487 3.78379C7.45712 5.13121 6.82433 6.78867 6.73737 8.51817C6.53126 10.8896 7.08765 13.2649 8.3255 15.2982C8.39384 15.2732 8.46668 15.263 8.53925 15.2682H8.59925C9.05277 15.26 9.49098 15.4323 9.81746 15.7471C10.144 16.062 10.332 16.4937 10.3402 16.9472C10.3484 17.4008 10.1761 17.839 9.86122 18.1654C9.54633 18.4919 9.11465 18.68 8.66113 18.6882H8.59925C8.15681 18.6866 7.73204 18.5143 7.41347 18.2073C7.09491 17.9003 6.90712 17.4821 6.88925 17.04V17.0457Z" fill="#764ABC"/>
</svg>
