<svg width="25" height="24" viewBox="0 0 25 24" fill="none" xmlns="http://www.w3.org/2000/svg">
<path fill-rule="evenodd" clip-rule="evenodd" d="M0.628418 10.5292C0.628418 10.6611 0.66723 10.7481 0.68898 10.8326C0.83073 11.3826 1.13542 11.8545 1.49692 12.285C2.01179 12.8985 2.64236 13.3924 3.28829 13.8568C3.84854 14.2596 4.42023 14.6533 4.98273 15.0531C5.07929 15.1217 5.17061 15.2006 5.27542 15.2848C5.18523 15.3336 5.11023 15.3765 5.03223 15.4161C4.28992 15.7926 3.57573 16.2146 2.91742 16.7259C2.52067 17.0342 2.13704 17.3617 1.86611 17.7898C1.43017 18.4783 1.27586 19.2118 1.60079 19.995C1.69567 20.2237 1.84042 20.4214 2.04461 20.5674C2.11079 20.6147 2.18504 20.6616 2.26248 20.6799C2.46086 20.7266 2.66298 20.7572 2.86379 20.7941L3.43248 20.7938C4.06136 20.7377 4.63379 20.5222 5.15111 20.1652C5.95961 19.6072 6.50429 18.8591 6.73848 17.8989C6.90873 17.2011 6.91567 16.5024 6.71504 15.8077C6.69584 15.7434 6.67369 15.6799 6.64867 15.6176C6.62429 15.5552 6.5956 15.4944 6.56185 15.4166L7.8511 14.6752L7.87042 14.6918C7.84698 14.7684 7.82204 14.8449 7.80085 14.9224C7.64767 15.4819 7.54585 16.0511 7.58242 16.6318C7.62142 17.2506 7.7941 17.8297 8.15635 18.3467C8.44923 18.7648 9.1471 18.7804 9.45835 18.3608C9.56879 18.2117 9.67585 18.0559 9.75629 17.8896C9.96648 17.4555 10.1611 17.0138 10.3619 16.575L10.397 16.4948C10.3825 16.7025 10.3657 16.8849 10.358 17.0676C10.346 17.3528 10.3627 17.6363 10.4602 17.9076C10.5436 18.1397 10.6855 18.3131 10.9514 18.3437C11.1333 18.3645 11.2782 18.2812 11.4119 18.1757C11.619 18.012 11.7907 17.8079 11.9165 17.5759C12.2729 16.9213 12.6389 16.2707 12.962 15.5996C13.3115 14.8738 13.6171 14.1268 13.9417 13.3886L13.9953 13.2578C14.072 13.5591 14.1254 13.8542 14.2239 14.1336C14.3382 14.4577 14.4798 14.7742 14.6339 15.0819C14.7069 15.2272 14.6984 15.3216 14.5974 15.4434C14.1744 15.9534 13.7587 16.4696 13.3426 16.9852C13.2505 17.0991 13.1589 17.2149 13.0822 17.3392C13.0356 17.4178 13.0051 17.5047 12.9922 17.595C12.9793 17.6782 12.9991 17.7631 13.0474 17.832C13.0957 17.9009 13.1689 17.9484 13.2515 17.9646C13.4182 18.0005 13.5891 18.0126 13.7592 18.0007C14.3399 17.958 14.8672 17.7542 15.3333 17.4088C15.9372 16.9614 16.1311 16.3509 15.9849 15.6274C15.9453 15.4311 15.8754 15.2402 15.8073 15.051C15.7767 14.9657 15.7747 14.9059 15.8304 14.8264C16.3132 14.1369 16.7257 13.4055 17.1093 12.6572C17.1245 12.6277 17.14 12.5983 17.1667 12.5668C17.291 13.2137 17.4781 13.8371 17.8134 14.4028C17.6424 14.5676 17.473 14.7171 17.3199 14.8817C16.9825 15.2443 16.69 15.6381 16.5374 16.1182C16.4718 16.3252 16.4214 16.5356 16.4506 16.7567C16.496 17.1 16.7772 17.3231 17.1149 17.2449C17.8375 17.0777 18.4614 16.7372 18.9172 16.134C19.2239 15.7279 19.2519 15.2749 19.1234 14.8003C19.0882 14.6713 19.0464 14.5444 19.0014 14.3964C19.1797 14.3411 19.3535 14.2748 19.5333 14.2337C20.4669 14.0207 21.3903 14.0578 22.2899 14.3949C22.8151 14.5918 23.2394 14.9213 23.491 15.4395C23.7984 16.0731 23.6285 16.6742 23.0313 17.0747C22.9756 17.112 22.9119 17.1414 22.8657 17.1881C22.851 17.2052 22.8399 17.2253 22.8333 17.2469C22.8267 17.2685 22.8246 17.2913 22.8273 17.3137C22.8312 17.3368 22.8922 17.3657 22.9272 17.3653C23.1235 17.3638 23.2827 17.2609 23.4355 17.1551C23.8184 16.8902 24.0978 16.5338 24.158 16.0644L24.1698 16.0292L24.1554 15.7236C24.1495 15.7059 24.1597 15.6885 24.1584 15.6752C24.077 14.9917 23.7119 14.4617 23.1809 14.0462C22.5659 13.5653 21.8397 13.3672 21.0717 13.3359C20.4489 13.3091 19.8268 13.4049 19.2408 13.6177C19.0726 13.6787 18.9059 13.7509 18.7368 13.8189C18.7141 13.7779 18.6897 13.7385 18.6697 13.6978C18.496 13.3423 18.2857 13.0026 18.2392 12.5949C18.2062 12.3054 18.1657 12.0163 18.2345 11.73C18.3007 11.4546 18.3869 11.1838 18.4681 10.9121C18.5099 10.7723 18.4805 10.6939 18.347 10.6309C18.3005 10.6077 18.2508 10.5914 18.1996 10.5825C17.8715 10.5349 17.5479 10.5621 17.23 10.6545C17.1175 10.6873 17.0358 10.7503 17.0109 10.8748C16.9966 10.9463 16.9675 11.0147 16.9473 11.0852C16.8642 11.3782 16.8054 11.6769 16.6711 11.9561C16.3347 12.6564 15.9507 13.3303 15.5577 13.9993C15.5152 14.0715 15.4704 14.1424 15.4167 14.2299C15.2787 13.9412 15.1315 13.6821 15.0869 13.3783C15.0365 13.0348 14.9967 12.6919 15.0822 12.351C15.1458 12.0968 15.2289 11.8472 15.3054 11.5963C15.3415 11.4771 15.3249 11.4144 15.2169 11.3516C15.1623 11.3199 15.1006 11.2918 15.0391 11.2826C14.7027 11.2314 14.3589 11.2595 14.0352 11.3647C13.9334 11.3977 13.88 11.4636 13.8489 11.5686C13.7574 11.8783 13.6794 12.1956 13.5509 12.4901C13.0308 13.6826 12.4957 14.8689 11.9611 16.0551C11.8495 16.3027 11.7189 16.5418 11.593 16.7829C11.5612 16.8441 11.5147 16.8979 11.4749 16.9553C11.443 16.9176 11.4307 16.8917 11.4309 16.8658C11.4318 16.7134 11.4136 16.5564 11.4427 16.4091C11.5319 15.9633 11.6306 15.5196 11.7385 15.078C11.8267 14.7131 11.9292 14.3516 12.0269 13.9892C12.0597 13.8679 12.0603 13.7544 11.9731 13.6524C11.8267 13.4816 11.5207 13.4441 11.3392 13.5757L11.2589 13.6211L11.2745 13.4918C11.3127 13.2144 11.3204 12.9381 11.2443 12.6649C11.1494 12.3244 10.9064 12.1284 10.5532 12.1393C10.3885 12.1444 10.2157 12.1725 10.0632 12.2325C9.42217 12.4837 8.92923 12.9287 8.5096 13.464C8.4707 13.5137 8.42249 13.5554 8.36767 13.5866C7.82523 13.8874 7.2811 14.1844 6.73717 14.4825L6.13173 14.8142C5.96936 14.6593 5.82179 14.4986 5.65436 14.3623C5.14304 13.9453 4.62348 13.5386 4.10861 13.1263C3.65223 12.7609 3.21011 12.3802 2.87186 11.8963C2.62023 11.5363 2.45804 11.1424 2.44248 10.6972C2.42279 10.1301 2.58367 9.61181 2.87242 9.12937C3.24179 8.51212 3.74561 8.01675 4.29948 7.56806C4.88542 7.09369 5.51917 6.69094 6.17598 6.32325C7.09492 5.80894 8.0401 5.35369 9.05354 5.05313C10.0927 4.74488 11.147 4.56844 12.2345 4.69144C12.662 4.73981 13.0771 4.83769 13.4583 5.04675C13.7502 5.20669 13.9897 5.41612 14.101 5.7435C14.2109 6.06563 14.2075 6.39206 14.1314 6.71925C13.9767 7.38187 13.6139 7.92806 13.1574 8.41613C12.4085 9.21619 11.495 9.76088 10.4665 10.1207C9.87522 10.3278 9.25999 10.4591 8.6356 10.5113C8.12392 10.5542 7.62292 10.5088 7.13842 10.3309C6.8176 10.2129 6.53823 10.0326 6.31361 9.77081C6.27348 9.72394 6.22211 9.67313 6.14729 9.717C6.07398 9.76013 6.06104 9.82988 6.0856 9.90056C6.12667 10.0179 6.16454 10.1402 6.22848 10.2452C6.38917 10.5086 6.62354 10.6997 6.88154 10.8636C7.3771 11.1787 7.93098 11.2847 8.50529 11.3093C9.37679 11.3469 10.2271 11.2168 11.0654 10.983C12.2622 10.6493 13.3029 10.0598 14.1374 9.12975C14.8323 8.35538 15.3286 7.48144 15.4349 6.42619C15.4869 5.91112 15.4315 5.40656 15.1904 4.93669C14.9289 4.42763 14.513 4.04906 14.0157 3.78825C13.2916 3.40856 12.5101 3.1875 11.7035 3.1875H10.8954C9.91848 3.1875 8.97404 3.46744 8.05604 3.80138C7.36117 4.05431 6.67979 4.35281 6.01829 4.68319C4.57773 5.403 3.23617 6.27094 2.13423 7.46438C1.58523 8.05894 1.12042 8.715 0.853043 9.4875C0.772344 9.71814 0.702826 9.95253 0.64473 10.1899M5.86454 16.9423C5.80211 17.7784 5.42317 18.4562 4.80386 19.0052C4.45548 19.3138 4.05592 19.5336 3.59054 19.6108C3.42179 19.6388 3.24911 19.6455 3.08542 19.5756C2.85198 19.4758 2.79967 19.2686 2.79517 19.0479C2.78823 18.6962 2.91142 18.3782 3.08036 18.0756C3.30086 17.6811 3.62411 17.3803 3.96929 17.0994C4.51304 16.6567 5.10292 16.2821 5.70704 15.9285L5.75261 15.9097C5.84598 16.2547 5.89042 16.5954 5.86454 16.9423ZM10.5817 13.3088C10.5376 13.5758 10.4825 13.8429 10.4045 14.1017C10.1349 14.9974 9.78854 15.8653 9.4141 16.7216C9.34492 16.8801 9.24423 17.0246 9.15667 17.1748C9.14177 17.1979 9.12393 17.219 9.1036 17.2374C8.99523 17.3445 8.89248 17.3389 8.83773 17.1988C8.77398 17.0361 8.73479 16.8619 8.70104 16.6896C8.67835 16.5739 8.68379 16.4524 8.67667 16.3339C8.68398 15.4912 8.94104 14.7255 9.37717 14.0126C9.55698 13.7186 9.75273 13.4385 10.0518 13.2525C10.1448 13.1947 10.2455 13.1501 10.3509 13.1201C10.5102 13.0753 10.6081 13.149 10.5817 13.3088ZM13.7999 17.409L14.9566 16.0584C15.0048 16.56 14.1522 17.5612 13.7999 17.409ZM17.4942 16.5002C17.4125 16.5471 17.3234 16.5808 17.2396 16.6241C17.1629 16.6639 17.1376 16.6237 17.1354 16.5577C17.1342 16.5121 17.1401 16.4665 17.1528 16.4226C17.309 15.8717 17.5964 15.4014 18.0241 15.0189L18.0541 15.0036C18.2575 15.5726 18.0224 16.1976 17.4942 16.5002Z" fill="#CB6699"/>
</svg>
