<svg width="25" height="24" viewBox="0 0 25 24" fill="none" xmlns="http://www.w3.org/2000/svg">
<path d="M5.51025 15.1348C5.51025 16.5091 4.38938 17.6317 3.01482 17.6317C1.64044 17.6317 0.518066 16.5091 0.518066 15.1348C0.518066 13.7604 1.64063 12.6378 3.015 12.6378H5.51044L5.51025 15.1348ZM6.76819 15.1348C6.76819 13.7604 7.89075 12.6378 9.26513 12.6378C10.6395 12.6378 11.7621 13.7602 11.7621 15.1348V21.3851C11.7621 22.7594 10.6397 23.882 9.26513 23.882C7.89075 23.882 6.76819 22.7594 6.76819 21.3851V15.1348Z" fill="#DE1C59"/>
<path d="M9.26513 5.11035C7.89075 5.11035 6.76819 3.98948 6.76819 2.61491C6.76819 1.24054 7.89075 0.118164 9.26513 0.118164C10.6395 0.118164 11.7621 1.24073 11.7621 2.6151V5.11054L9.26513 5.11035ZM9.26513 6.36829C10.6395 6.36829 11.7621 7.49085 11.7621 8.86523C11.7621 10.2396 10.6397 11.3622 9.26513 11.3622H3.01482C1.64044 11.3622 0.518066 10.2398 0.518066 8.86523C0.518066 7.49085 1.64063 6.36829 3.015 6.36829H9.26513Z" fill="#35C5F0"/>
<path d="M19.2894 8.86523C19.2894 7.49085 20.4103 6.36829 21.7848 6.36829C23.1592 6.36829 24.2818 7.49085 24.2818 8.86523C24.2818 10.2396 23.1592 11.3622 21.7848 11.3622H19.2894V8.86523ZM18.0315 8.86523C18.0315 10.2396 16.9089 11.3622 15.5345 11.3622C14.1602 11.3622 13.0376 10.2398 13.0376 8.86523V2.61491C13.0376 1.24054 14.16 0.118164 15.5345 0.118164C16.9089 0.118164 18.0315 1.24073 18.0315 2.6151V8.86523Z" fill="#2EB57D"/>
<path d="M15.5345 18.8896C16.9089 18.8896 18.0315 20.0105 18.0315 21.3851C18.0315 22.7594 16.9089 23.882 15.5345 23.882C14.1602 23.882 13.0376 22.7594 13.0376 21.3851V18.8896H15.5345ZM15.5345 17.6317C14.1602 17.6317 13.0376 16.5091 13.0376 15.1348C13.0376 13.7604 14.16 12.6378 15.5345 12.6378H21.7848C23.1592 12.6378 24.2818 13.7602 24.2818 15.1348C24.2818 16.5091 23.1592 17.6317 21.7848 17.6317H15.5345Z" fill="#EBB02E"/>
</svg>
