<svg width="25" height="24" viewBox="0 0 25 24" fill="none" xmlns="http://www.w3.org/2000/svg">
<path d="M13.4313 18.5955C13.4203 18.4586 13.4137 18.3705 13.4137 18.3705C13.4137 18.3705 13.0001 15.5788 12.507 14.7454C12.4293 14.6128 12.515 14.0715 12.7333 13.2679C12.8608 13.4871 13.397 14.4289 13.5054 14.7322C13.6269 15.0742 13.6516 15.1723 13.6516 15.1723C13.6516 15.1723 13.3573 13.6569 12.8746 12.7729C12.9919 12.3788 13.1172 11.9872 13.2504 11.5982C13.4328 11.9188 13.8716 12.6967 13.9681 12.9669C13.9873 13.0219 14.0041 13.0687 14.0188 13.1121C14.0231 13.0864 14.0281 13.0607 14.0326 13.0344C13.922 12.5649 13.7045 11.7482 13.4071 11.1441C14.0671 7.70756 16.3192 3.11456 18.6271 1.06519H3.56884C2.55877 1.06519 1.7334 1.89131 1.7334 2.90062V19.5075C1.7334 20.5168 2.55952 21.3429 3.56902 21.3429H13.4872C13.4121 20.4292 13.3935 19.5117 13.4315 18.5957" fill="#0B7FCC"/>
<path d="M12.7333 13.2679C12.8608 13.4869 13.3971 14.4281 13.5052 14.7321C13.6269 15.0741 13.6517 15.1721 13.6517 15.1721C13.6517 15.1721 13.3573 13.6568 12.8747 12.7727C12.9921 12.3784 13.1174 11.9864 13.2504 11.5971C13.4167 11.8909 13.7983 12.5663 13.9352 12.8856L13.9506 12.7054C13.8291 12.2374 13.6444 11.6243 13.4072 11.1439C14.0151 7.98059 15.9722 3.83702 18.0808 1.60052H3.56868C3.22399 1.60082 2.8935 1.73787 2.64975 1.98159C2.406 2.2253 2.2689 2.55577 2.26855 2.90046V18.2961C5.55487 17.034 9.51805 15.8811 12.9289 15.931C12.8029 15.4425 12.6587 15.001 12.507 14.7452C12.4294 14.6126 12.5151 14.0708 12.7333 13.2679Z" fill="url(#paint0_linear_726_1226)"/>
<path d="M22.1407 0.521424C21.1095 -0.398451 19.86 -0.0285137 18.6281 1.06499C18.4378 1.23519 18.2555 1.41407 18.0817 1.60105C15.9723 3.83717 14.016 7.98036 13.4081 11.1439C13.6447 11.6244 13.83 12.2374 13.9507 12.7054C13.9822 12.8254 14.0107 12.9382 14.0336 13.0342C14.087 13.2605 14.1155 13.4085 14.1155 13.4085C14.1155 13.4085 14.0966 13.3367 14.019 13.1119C14.0043 13.0687 13.9875 13.0211 13.9683 12.9669C13.9584 12.9395 13.9477 12.9123 13.9361 12.8855C13.7985 12.5662 13.4177 11.8909 13.2506 11.598C13.1077 12.0199 12.9812 12.4155 12.8748 12.7727C13.3582 13.6567 13.6528 15.1721 13.6528 15.1721C13.6528 15.1721 13.6271 15.074 13.5062 14.732C13.3978 14.4281 12.861 13.487 12.7342 13.2679C12.516 14.0705 12.4295 14.6126 12.5079 14.7454C12.6596 15.0007 12.803 15.4432 12.9298 15.9309C13.2155 17.031 13.4147 18.3707 13.4147 18.3707C13.4147 18.3707 13.4205 18.4586 13.4323 18.5957C13.3942 19.5116 13.4128 20.4291 13.488 21.3427C13.5825 22.4884 13.7604 23.4733 13.9875 24L14.1427 23.9158C13.8088 22.878 13.6732 21.5171 13.7325 19.949C13.8225 17.5504 14.3741 14.6587 15.393 11.6449C17.1163 7.09424 19.5063 3.44399 21.6933 1.7008C19.6997 3.50117 17.0015 9.32905 16.1936 11.4874C15.2898 13.9044 14.649 16.1719 14.2622 18.345C14.9278 16.3082 17.0835 15.4331 17.0835 15.4331C17.0835 15.4331 18.1404 14.1285 19.376 12.2666C18.6354 12.4359 17.4204 12.7245 17.0139 12.8951C16.4139 13.1471 16.2513 13.2326 16.2513 13.2326C16.2513 13.2326 18.1959 12.0491 19.8645 11.513C22.1583 7.89992 24.6573 2.76655 22.1409 0.521611" fill="#003956"/>
<defs>
<linearGradient id="paint0_linear_726_1226" x1="11.3858" y1="1.94069" x2="11.3858" y2="17.3668" gradientUnits="userSpaceOnUse">
<stop stop-color="#95D7F4"/>
<stop offset="0.92" stop-color="#0F7FCC"/>
<stop offset="1" stop-color="#0F7FCC"/>
</linearGradient>
</defs>
</svg>
