<svg width="25" height="24" viewBox="0 0 25 24" fill="none" xmlns="http://www.w3.org/2000/svg">
<path d="M20.5271 0.377196L19.2307 0.458008L19.3317 3.1537C19.337 3.30276 19.1651 3.38976 19.0479 3.29732L18.1798 2.61295L17.1513 3.39332C17.1248 3.41343 17.0932 3.42559 17.06 3.42837C17.0269 3.43114 16.9937 3.42443 16.9642 3.40901C16.9347 3.39359 16.9103 3.37011 16.8937 3.34129C16.8771 3.31248 16.869 3.27954 16.8704 3.24632L16.9861 0.598258L4.12587 1.40245C3.81996 1.42151 3.53361 1.5594 3.32797 1.78669C3.12234 2.01398 3.0137 2.31265 3.02525 2.61895L3.749 21.9011C3.76005 22.1957 3.88149 22.4754 4.08921 22.6846C4.29693 22.8938 4.57573 23.0172 4.87025 23.0304L20.5475 23.7343C20.706 23.7413 20.8642 23.7161 21.0127 23.6604C21.1613 23.6046 21.297 23.5194 21.4117 23.4099C21.5264 23.3003 21.6178 23.1686 21.6802 23.0228C21.7426 22.8769 21.7747 22.7199 21.7747 22.5613V1.54945C21.7748 1.38901 21.742 1.23026 21.6783 1.083C21.6146 0.935752 21.5214 0.803125 21.4044 0.693321C21.2875 0.583455 21.1494 0.498718 20.9985 0.444345C20.8476 0.389973 20.6871 0.367119 20.5271 0.377196ZM12.7533 4.34976C15.8111 4.34976 17.4809 5.98532 17.4809 9.09707C17.0677 9.41826 13.9897 9.63707 13.9897 9.18013C14.0546 7.43638 13.274 7.36007 12.8403 7.36007C12.4282 7.36007 11.7342 7.4842 11.7342 8.41832C11.7342 10.7223 17.6761 10.598 17.6761 15.2478C17.6761 17.8634 15.5508 19.3081 12.8403 19.3081C10.0428 19.3081 7.59837 18.1764 7.87437 14.2526C7.98275 13.7919 11.5391 13.9014 11.5391 14.2526C11.4959 15.8716 11.8644 16.3479 12.7966 16.3479C13.5123 16.3479 13.8378 15.9536 13.8378 15.2893C13.8378 12.9228 7.98275 12.8399 7.98275 8.50157C7.98275 6.01063 9.69594 4.34976 12.7533 4.34976Z" fill="#FF4785"/>
</svg>
