<svg width="25" height="24" viewBox="0 0 25 24" fill="none" xmlns="http://www.w3.org/2000/svg">
<path d="M12.4009 4.80042C9.20082 4.80042 7.2015 6.39979 6.40088 9.59985C7.6005 8.00029 9.00094 7.40048 10.6005 7.80042C11.5138 8.02804 12.1665 8.69029 12.8893 9.42417C14.0657 10.618 15.4273 12 18.4009 12C21.6008 12 23.6003 10.4005 24.4009 7.19966C23.2011 8.80016 21.8008 9.39998 20.2011 9.00004C19.2879 8.77223 18.636 8.11017 17.9123 7.37629C16.7366 6.18248 15.3754 4.80042 12.4009 4.80042ZM6.40088 12C3.201 12 1.2015 13.5996 0.400879 16.8004C1.6005 15.1999 3.00075 14.6001 4.6005 15C5.51382 15.2279 6.1665 15.8899 6.88932 16.6238C8.06569 17.8176 9.42732 19.1997 12.4009 19.1997C15.6008 19.1997 17.6003 17.6003 18.4009 14.4002C17.2011 15.9998 15.8008 16.5996 14.2011 16.1997C13.2879 15.972 12.636 15.3098 11.9123 14.5759C10.7366 13.3821 9.37538 12 6.40088 12Z" fill="#38BDF8"/>
</svg>
