<svg width="25" height="24" viewBox="0 0 25 24" fill="none" xmlns="http://www.w3.org/2000/svg">
<path d="M4.65039 8.8125H23.3385V22.6256H4.65039V8.8125Z" fill="white"/>
<path d="M0.681152 11.9832V23.7019H24.1187V0.264404H0.681152V11.9832ZM19.568 11.0457C20.1294 11.1759 20.6396 11.4695 21.0343 11.8894C21.2516 12.1156 21.4405 12.3675 21.5968 12.6394C21.5968 12.6694 20.5843 13.3538 19.9674 13.7363C19.9449 13.7513 19.8549 13.6538 19.7555 13.5057C19.6429 13.3113 19.4829 13.1487 19.2904 13.033C19.098 12.9172 18.8793 12.8522 18.6549 12.8438C17.9443 12.795 17.4868 13.1682 17.4905 13.7813C17.4847 13.9339 17.5196 14.0854 17.5918 14.22C17.7474 14.5444 18.038 14.7375 18.9493 15.1313C20.6274 15.8532 21.3455 16.3294 21.7918 17.0063C22.2905 17.7563 22.4012 18.9675 22.0637 19.8638C21.6887 20.8388 20.7699 21.5007 19.4705 21.72C18.8771 21.788 18.2774 21.7817 17.6855 21.7013C16.7783 21.5517 15.9427 21.1162 15.3005 20.4582C15.0849 20.22 14.6649 19.5994 14.6912 19.5544C14.7596 19.5036 14.8317 19.4578 14.9068 19.4175L15.7749 18.9375L16.448 18.5475L16.5887 18.7557C16.826 19.0951 17.128 19.3844 17.4774 19.6069C18.2274 20.0007 19.2512 19.9463 19.7574 19.4907C19.9274 19.3237 20.0334 19.1024 20.0571 18.8653C20.0807 18.6283 20.0204 18.3904 19.8868 18.1932C19.6993 17.9325 19.3243 17.7132 18.2762 17.2557C17.0668 16.7344 16.5455 16.4119 16.0693 15.8982C15.772 15.5591 15.5525 15.1591 15.4262 14.7263C15.3319 14.2317 15.318 13.7252 15.3849 13.2263C15.6343 12.0582 16.5099 11.2425 17.7887 11.0007C18.3809 10.9274 18.9807 10.9438 19.568 11.0494V11.0457ZM14.0668 12.0282V12.9882H11.0237V21.6563H8.86553V12.9863H5.8149V12.0488C5.8054 11.7255 5.81291 11.4019 5.8374 11.0794C5.8524 11.0625 7.7124 11.0625 9.9624 11.0625H14.0555L14.0668 12.0282Z" fill="#007ACC"/>
</svg>
