<svg width="25" height="24" viewBox="0 0 25 24" fill="none" xmlns="http://www.w3.org/2000/svg">
<path d="M23.7934 3.66002L13.023 22.9196C12.8004 23.3173 12.2291 23.3196 12.0035 22.9241L1.01942 3.66227C0.77323 3.23064 1.14167 2.70845 1.63085 2.79564L12.4129 4.72258C12.4817 4.73514 12.5522 4.73514 12.621 4.72258L23.1772 2.79864C23.6644 2.70995 24.035 3.22783 23.7934 3.66002Z" fill="url(#paint0_linear_726_1052)"/>
<path d="M17.5485 0.268092L9.57862 1.82959C9.51501 1.84202 9.45732 1.87523 9.41463 1.924C9.37194 1.97277 9.34665 2.03433 9.34274 2.09903L8.85206 10.3805C8.84942 10.4259 8.85739 10.4714 8.87534 10.5132C8.89329 10.555 8.92072 10.592 8.95547 10.6214C8.99022 10.6507 9.03132 10.6716 9.07553 10.6823C9.11974 10.693 9.16584 10.6933 9.21018 10.6832L11.4294 10.1703C11.4772 10.1594 11.527 10.1606 11.5742 10.1738C11.6214 10.1871 11.6646 10.212 11.6996 10.2462C11.7347 10.2805 11.7607 10.323 11.775 10.3699C11.7894 10.4168 11.7918 10.4666 11.7819 10.5146L11.1225 13.7432C11.1124 13.7928 11.1154 13.8443 11.1312 13.8925C11.147 13.9407 11.175 13.9839 11.2125 14.0181C11.25 14.0522 11.2957 14.076 11.3452 14.0871C11.3947 14.0982 11.4462 14.0963 11.4947 14.0816L12.8649 13.6648C13.0774 13.6003 13.2817 13.787 13.2371 14.0045L12.189 19.0758C12.1237 19.3931 12.5456 19.566 12.7215 19.2941L12.8387 19.1126L19.3337 6.15072C19.4428 5.93322 19.2547 5.68572 19.0168 5.73184L16.7321 6.17284C16.683 6.18239 16.6322 6.17915 16.5846 6.16341C16.5371 6.14767 16.4944 6.11998 16.4606 6.08298C16.4269 6.04599 16.4032 6.00093 16.3918 5.95215C16.3805 5.90337 16.3819 5.85249 16.3959 5.8044L17.8866 0.63653C17.9006 0.588276 17.9019 0.537225 17.8905 0.488299C17.879 0.439373 17.8552 0.394222 17.8212 0.357197C17.7872 0.320173 17.7443 0.292525 17.6965 0.276918C17.6487 0.261311 17.5978 0.258271 17.5485 0.268092Z" fill="url(#paint1_linear_726_1052)"/>
<defs>
<linearGradient id="paint0_linear_726_1052" x1="0.750955" y1="2.10744" x2="14.156" y2="20.3126" gradientUnits="userSpaceOnUse">
<stop stop-color="#41D1FF"/>
<stop offset="1" stop-color="#BD34FE"/>
</linearGradient>
<linearGradient id="paint1_linear_726_1052" x1="11.7941" y1="0.691839" x2="14.219" y2="17.3265" gradientUnits="userSpaceOnUse">
<stop stop-color="#FFEA83"/>
<stop offset="0.083" stop-color="#FFDD35"/>
<stop offset="1" stop-color="#FFA800"/>
</linearGradient>
</defs>
</svg>
