<svg width="25" height="24" viewBox="0 0 25 24" fill="none" xmlns="http://www.w3.org/2000/svg">
<mask id="mask0_726_986" style="mask-type:alpha" maskUnits="userSpaceOnUse" x="0" y="0" width="25" height="24">
<path fill-rule="evenodd" clip-rule="evenodd" d="M17.4188 23.8362C17.6098 23.9106 17.814 23.945 18.0189 23.9371C18.2237 23.9292 18.4247 23.8793 18.6094 23.7904L23.5506 21.4127C23.8051 21.2902 24.0198 21.0984 24.17 20.8592C24.3203 20.6201 24.4 20.3434 24.4 20.061V3.93921C24.4 3.65677 24.3203 3.38004 24.1701 3.14088C24.0198 2.90173 23.8051 2.70985 23.5506 2.58734L18.6094 0.210027C18.3302 0.075684 18.0161 0.0314521 17.7107 0.0834525C17.4052 0.135453 17.1235 0.281114 16.9045 0.500277L7.44509 9.13015L3.32497 6.00246C3.13911 5.86135 2.90971 5.78975 2.67658 5.80009C2.44345 5.81043 2.22129 5.90207 2.04866 6.05909L0.727157 7.26115C0.624172 7.35482 0.541872 7.46895 0.485521 7.59624C0.42917 7.72354 0.400009 7.86119 0.399903 8.0004C0.399797 8.13961 0.428749 8.27731 0.484906 8.40469C0.541063 8.53207 0.62319 8.64633 0.726032 8.74015L4.29922 12L0.72622 15.2601C0.623434 15.3539 0.541356 15.4682 0.485234 15.5955C0.429111 15.7229 0.400178 15.8606 0.400284 15.9997C0.40039 16.1389 0.429532 16.2765 0.485848 16.4038C0.542165 16.5311 0.624416 16.6452 0.727345 16.7389L2.04884 17.941C2.22144 18.098 2.44359 18.1897 2.67673 18.2001C2.90987 18.2105 3.13929 18.1389 3.32516 17.9978L7.44528 14.8703L16.9047 23.5C17.0509 23.6465 17.2259 23.761 17.4188 23.8362ZM18.4035 6.55184L11.2262 12L18.4037 17.4484L18.4035 6.55184Z" fill="white"/>
</mask>
<g mask="url(#mask0_726_986)">
<path d="M23.5507 2.59128L18.6055 0.210031C18.3262 0.0755992 18.012 0.0313193 17.7064 0.0833202C17.4008 0.135321 17.119 0.281031 16.8998 0.500281L0.711463 15.2601C0.6086 15.3539 0.526453 15.4681 0.470281 15.5955C0.414108 15.7229 0.385148 15.8605 0.385254 15.9997C0.38536 16.139 0.41453 16.2766 0.470896 16.4039C0.527262 16.5312 0.609582 16.6453 0.712588 16.7389L2.03484 17.941C2.20758 18.098 2.42985 18.1897 2.6631 18.2001C2.89636 18.2105 3.12589 18.1389 3.3119 17.9978L22.8065 3.20872C23.4605 2.71259 24.3998 3.17909 24.3998 3.99997V3.94259C24.3998 3.66024 24.3201 3.38361 24.1699 3.14453C24.0197 2.90545 23.805 2.71381 23.5507 2.59128Z" fill="#0065A9"/>
<g filter="url(#filter0_d_726_986)">
<path d="M23.5507 21.4089L18.6055 23.7898C18.3262 23.9243 18.0121 23.9686 17.7065 23.9167C17.4009 23.8648 17.119 23.7191 16.8998 23.4999L0.711463 8.73994C0.6086 8.64615 0.526453 8.53191 0.470281 8.40455C0.414108 8.27718 0.385148 8.13949 0.385254 8.00028C0.38536 7.86108 0.41453 7.72343 0.470896 7.59615C0.527262 7.46887 0.609582 7.35476 0.712588 7.26113L2.03484 6.05906C2.20758 5.90199 2.42985 5.81032 2.6631 5.79994C2.89636 5.78956 3.12589 5.86114 3.3119 6.00225L22.8065 20.7911C23.4605 21.2874 24.3998 20.8209 24.3998 20.0001V20.0574C24.3998 20.3398 24.3201 20.6164 24.1699 20.8555C24.0197 21.0946 23.805 21.2864 23.5507 21.4089Z" fill="#007ACC"/>
</g>
<g filter="url(#filter1_d_726_986)">
<path d="M18.6058 23.7904C18.3264 23.9247 18.0122 23.9689 17.7066 23.9169C17.401 23.8649 17.1191 23.7192 16.8999 23.4999C17.4534 24.0534 18.3999 23.6614 18.3999 22.8786V1.12126C18.3999 0.338443 17.4534 -0.0536197 16.8999 0.500068C17.1191 0.280843 17.401 0.13514 17.7066 0.0831089C18.0122 0.0310777 18.3264 0.0752897 18.6058 0.20963L23.55 2.58751C23.8046 2.70994 24.0194 2.90178 24.1698 3.14094C24.3201 3.38011 24.3999 3.65687 24.3999 3.93938V20.061C24.3999 20.3435 24.3201 20.6203 24.1698 20.8594C24.0194 21.0986 23.8046 21.2905 23.55 21.4129L18.6058 23.7904Z" fill="#1F9CF0"/>
</g>
<path opacity="0.25" fill-rule="evenodd" clip-rule="evenodd" d="M17.4042 23.8362C17.5952 23.9106 17.7994 23.9449 18.0042 23.9371C18.209 23.9292 18.41 23.8793 18.5947 23.7904L23.5359 21.4127C23.7903 21.2902 24.0051 21.0983 24.1553 20.8592C24.3056 20.62 24.3853 20.3433 24.3852 20.0608V3.93921C24.3853 3.65677 24.3056 3.38004 24.1553 3.14088C24.0051 2.90173 23.7903 2.70985 23.5359 2.58734L18.5947 0.210027C18.3155 0.075684 18.0014 0.0314521 17.6959 0.0834525C17.3905 0.135453 17.1088 0.281114 16.8897 0.500277L7.43035 9.13015L3.31023 6.00265C3.12437 5.86153 2.89497 5.78993 2.66184 5.80028C2.42871 5.81062 2.20655 5.90225 2.03392 6.05928L0.712418 7.26134C0.609459 7.35502 0.527181 7.46916 0.470847 7.59645C0.414512 7.72374 0.38536 7.86139 0.385254 8.00059C0.385148 8.13979 0.414091 8.27748 0.470232 8.40486C0.526373 8.53224 0.608476 8.6465 0.711293 8.74034L4.28448 12L0.71148 15.2599C0.608638 15.3537 0.526512 15.468 0.470354 15.5954C0.414197 15.7227 0.385245 15.8604 0.385351 15.9997C0.385457 16.1389 0.414618 16.2765 0.470969 16.4038C0.52732 16.5311 0.609621 16.6452 0.712605 16.7389L2.03411 17.941C2.20671 18.098 2.42886 18.1897 2.66199 18.2001C2.89513 18.2104 3.12454 18.1389 3.31042 17.9978L7.43073 14.8701L16.8901 23.5C17.0363 23.6465 17.2114 23.761 17.4042 23.8362ZM18.389 6.55165L11.2115 12L18.389 17.4482V6.55165Z" fill="url(#paint0_linear_726_986)"/>
</g>
<defs>
<filter id="filter0_d_726_986" x="-7.94875" y="-2.53505" width="40.6826" height="34.8069" filterUnits="userSpaceOnUse" color-interpolation-filters="sRGB">
<feFlood flood-opacity="0" result="BackgroundImageFix"/>
<feColorMatrix in="SourceAlpha" type="matrix" values="0 0 0 0 0 0 0 0 0 0 0 0 0 0 0 0 0 0 127 0" result="hardAlpha"/>
<feOffset/>
<feGaussianBlur stdDeviation="4.167"/>
<feColorMatrix type="matrix" values="0 0 0 0 0 0 0 0 0 0 0 0 0 0 0 0 0 0 0.25 0"/>
<feBlend mode="overlay" in2="BackgroundImageFix" result="effect1_dropShadow_726_986"/>
<feBlend mode="normal" in="SourceGraphic" in2="effect1_dropShadow_726_986" result="shape"/>
</filter>
<filter id="filter1_d_726_986" x="8.5659" y="-8.27211" width="24.168" height="40.5442" filterUnits="userSpaceOnUse" color-interpolation-filters="sRGB">
<feFlood flood-opacity="0" result="BackgroundImageFix"/>
<feColorMatrix in="SourceAlpha" type="matrix" values="0 0 0 0 0 0 0 0 0 0 0 0 0 0 0 0 0 0 127 0" result="hardAlpha"/>
<feOffset/>
<feGaussianBlur stdDeviation="4.167"/>
<feColorMatrix type="matrix" values="0 0 0 0 0 0 0 0 0 0 0 0 0 0 0 0 0 0 0.25 0"/>
<feBlend mode="overlay" in2="BackgroundImageFix" result="effect1_dropShadow_726_986"/>
<feBlend mode="normal" in="SourceGraphic" in2="effect1_dropShadow_726_986" result="shape"/>
</filter>
<linearGradient id="paint0_linear_726_986" x1="12.3852" y1="0.0619017" x2="12.3852" y2="23.9382" gradientUnits="userSpaceOnUse">
<stop stop-color="white"/>
<stop offset="1" stop-color="white" stop-opacity="0"/>
</linearGradient>
</defs>
</svg>
